<svg enable-background="new 0 0 512 512" viewBox="0 0 512 512" xmlns="http://www.w3.org/2000/svg"><path d="m251.7 334h8.4c.1-.7.4-1.4.9-1.9l15.7-15.7c-1.3-2.1-2-4.6-2-7.1v-6.6c-5.6 2.9-12 4.6-18.8 4.6s-13.2-1.7-18.8-4.6v6.6c0 2.6-.7 5-2 7.2l15.7 15.7c.5.4.8 1.1.9 1.8z" fill="#f9d0b4"/><path d="m147.9 209c-11.3-5.3-24.5-5-35.7.9v57.4c10.4-5.6 22.7-6.2 33.6-1.8 1.9.8 3.9-.9 3.9-3.3v-50c0-1.4-.7-2.7-1.8-3.2z" fill="#edf4fc" stroke="#020e11" stroke-miterlimit="10" stroke-width="1.0613"/><path d="m76.6 209c-1.1.5-1.8 1.8-1.8 3.2v50c0 2.4 2 4 3.9 3.3 10.8-4.4 23.1-3.8 33.6 1.8v-57.4c-11.2-6-24.4-6.3-35.7-.9z" fill="#edf4fc" stroke="#020e11" stroke-miterlimit="10" stroke-width="1.0613"/><path d="m160.8 215h-11.1v47.3c0 2.4-2 4-3.9 3.3-10.8-4.4-23.1-3.8-33.6 1.8-10.4-5.6-22.7-6.2-33.6-1.8-1.9.8-3.9-.9-3.9-3.3v-47.3h-11.1c-1.8 0-3.3 1.5-3.3 3.3v59.5c0 1.8 1.5 3.3 3.3 3.3h97.2c1.8 0 3.3-1.5 3.3-3.3v-59.5c0-1.9-1.5-3.3-3.3-3.3z" fill="#70d6f9" stroke="#020607" stroke-miterlimit="10" stroke-width="2.1226"/><path d="m195.1 96.1c-.3-2.4-2.3-4.2-4.7-4.2h-60c-2.4 0-4.4 1.8-4.7 4.2-.2 1.5-.3 3-.3 4.6 0 19.8 15.7 35.8 35 35.8s35-16 35-35.8c0-1.6-.1-3.2-.3-4.6z" fill="#edf4fc"/><path d="m186.3 136.4h-51.8c-2 0-3.6 1.6-3.6 3.6 0 6.8 5.5 12.4 12.4 12.4h34.2c6.8 0 12.4-5.5 12.4-12.4-.1-2-1.7-3.6-3.6-3.6z" fill="#edf4fc"/><g stroke-miterlimit="10"><path d="m334 113.3c.7.7.9 1.7.6 2.5l10.5 11.2c.3-.1.5-.3.7-.5l11.7-11.7-13.2-13.2-11 11z" fill="#edf4fc" stroke="#000" stroke-width="2.1226"/><path d="m322.2 101.6 11.7 11.7c1 1 1 2.6 0 3.6l-9.6 9.6c-1 1-2.6 1-3.6 0l-11.7-11.7z" fill="#edf4fc" stroke="#000" stroke-width="2.1226"/><path d="m323.3 127.2c-.6.2-1.3.1-1.8-.1l-21.3 22.7c-2.4 2.6-2.4 6.6.1 9.1s6.5 2.6 9.1.1l23.9-22.4z" fill="#d1956d" stroke="#000" stroke-width="2.1226"/><path d="m324.4 126.6 9.6-9.6c.3-.3.5-.7.6-1.1l31.8 33.9c2.4 2.6 2.4 6.6-.1 9.1s-6.5 2.6-9.1.1l-33.9-31.8c.4-.1.7-.3 1.1-.6z" fill="#d1956d" stroke="#000" stroke-width="2.1226"/><path d="m357.5 114.8-13.2-13.2s0-10.6 7.9-18.5c6.5-6.5 17.4-1.5 24.8-4.5 2.4-1 5.1.5 5.3 3.1.7 9.9.8 30.3-24.8 33.1z" fill="#f5c84c" stroke="#000" stroke-width="2.1226"/><path d="m309 114.8 13.2-13.2s0-10.6-7.9-18.5c-6.5-6.5-17.4-1.5-24.8-4.5-2.4-1-5.1.5-5.3 3.1-.6 9.9-.8 30.3 24.8 33.1z" fill="#f5c84c" stroke="#000" stroke-width="2.1226"/></g><path d="m423.7 269.2c-2.2 0-4-1.8-4-4v-42.5c0-2.2 1.8-4 4-4s4 1.8 4 4v42.5c0 2.2-1.8 4-4 4z"/><path d="m376.1 279.4c-2.2 0-4-1.8-4-4v-42.5c0-2.2 1.8-4 4-4s4 1.8 4 4v42.5c0 2.2-1.8 4-4 4z"/><path d="m376.1 234c-.5 0-1-.2-1.3-.5-.5-.4-.8-1-.8-1.7v-18.7c0-1 .7-1.9 1.7-2.1l47.6-10.2h.4c.5 0 1 .2 1.3.5.5.4.8 1 .8 1.7v18.7c0 1-.7 1.9-1.7 2.1l-47.6 10.2c-.1 0-.2 0-.4 0z" fill="#fc657e"/><path d="m423.7 203v18.7l-47.6 10.2v-18.7zm0-4.3c-.3 0-.6 0-.9.1l-47.5 10.2c-2 .4-3.4 2.1-3.4 4.2v18.7c0 1.3.6 2.5 1.6 3.3.8.6 1.7.9 2.7.9.3 0 .6 0 .9-.1l47.6-10.2c2-.4 3.4-2.1 3.4-4.2v-18.6c0-1.3-.6-2.5-1.6-3.3-.9-.6-1.8-1-2.8-1z"/><path d="m411.8 278.1c-7.7 0-14-6.3-14-14s6.3-14 14-14 14 6.3 14 14c0 7.8-6.2 14-14 14z" fill="#fc657e"/><path d="m411.8 252.2c6.6 0 11.9 5.3 11.9 11.9s-5.3 11.9-11.9 11.9-11.9-5.3-11.9-11.9 5.4-11.9 11.9-11.9m0-4.2c-8.9 0-16.1 7.2-16.1 16.1s7.2 16.1 16.1 16.1 16.2-7.2 16.2-16.1-7.3-16.1-16.2-16.1z"/><path d="m364.3 288.3c-7.7 0-14-6.3-14-14s6.3-14 14-14 14 6.3 14 14c0 7.8-6.3 14-14 14z" fill="#fc657e"/><path d="m364.3 262.4c6.6 0 11.9 5.3 11.9 11.9s-5.3 11.9-11.9 11.9-11.9-5.3-11.9-11.9c0-6.5 5.3-11.9 11.9-11.9m0-4.2c-8.9 0-16.1 7.2-16.1 16.1s7.2 16.1 16.1 16.1 16.1-7.2 16.1-16.1-7.2-16.1-16.1-16.1z"/><path d="m450.3 384-4.5-14.6c-.1-.3-.2-.6-.3-.9-2.6-6.3-10.8-7.8-15.9-3.3l-2 1.8c-2.8 2.5-7.3 1.4-8.7-2.1-.5-3.1-3.8-4.8-6.7-3.6-3.8 1.7-6 5.6-5.6 9.7l.7 7.2c.5 4.1-1.7 8-5.4 9.7-4.7 2.2-13.7 6.4-31.8 15.1-.9.4-2 .1-2.5-.7l-7.4-10.7-27 20.6 16.8 23.1c4.8 6.6 14 8.3 20.9 3.9l45.6-29.7c3.9-2.5 8.1-4.7 12.4-6.5l15.3-6.2c5-2.1 7.7-7.7 6.1-12.8z" fill="#f9d0b4" stroke="#000" stroke-miterlimit="10" stroke-width="2.1226"/><path d="m61.6 384 4.5-14.6c.1-.3.2-.6.3-.9 2.6-6.3 10.8-7.8 15.9-3.3l2 1.8c2.8 2.5 7.3 1.4 8.7-2.1.5-3.1 3.8-4.8 6.7-3.6 3.8 1.7 6 5.6 5.6 9.7l-.7 7.2c-.5 4.1 1.7 8 5.4 9.7 4.7 2.2 13.7 6.4 31.8 15.1.9.4 2 .1 2.5-.7l7.4-10.7 27 20.6-16.8 23.1c-4.8 6.6-14 8.3-20.9 3.9l-45.6-29.7c-3.9-2.5-8.1-4.7-12.4-6.5l-15.3-6.2c-5.1-2.1-7.8-7.7-6.1-12.8z" fill="#f9d0b4" stroke="#000" stroke-miterlimit="10" stroke-width="2.1226"/><path d="m361.8 385.6-24-36.7c-1.8-2.5-3.9-4.7-6.2-6.8-5-4.4-10.9-7.5-17.4-9.1-10.5-2.8-16.1-3.6-24.3-6.9-.1.5-.4 1-.8 1.4l-16.4 16.4c-1.2 1.2-3.2 1.2-4.4 0l-7.4-7.4c-.7-.7-1-1.6-.9-2.5h-8.4c.1.9-.2 1.8-.9 2.5l-7.4 7.4c-1.2 1.2-3.2 1.2-4.4 0l-16.4-16.4c-.4-.4-.7-.9-.8-1.4-8.2 3.4-13.7 4.1-24.3 6.9-6.4 1.6-12.4 4.7-17.4 9.1-2.3 2-4.4 4.3-6.2 6.8l-24 36.7c-1.2 1.6-.9 3.9.8 5.2l28.7 21.9c1.6 1.2 4 .9 5.2-.7l15.8-20.9v72.6c0 2.2 1.8 4 4 4h103c2.2 0 4-1.8 4-4v-72.7l15.8 20.9c1.3 1.6 3.6 1.9 5.2.7l28.7-21.9c1.7-1.2 2-3.5.8-5.1z" fill="#70d6f9"/><path d="m250.8 332.1-16.4-16.4c-1.2-1.2-3.2-1.2-4.4 0l-7.4 7.4c-1.2 1.2-1.2 3.2 0 4.4l16.4 16.4c1.2 1.2 3.2 1.2 4.4 0l7.4-7.4c1.2-1.2 1.2-3.2 0-4.4z" fill="#9be5f9"/><path d="m261 332.1 16.4-16.4c1.2-1.2 3.2-1.2 4.4 0l7.4 7.4c1.2 1.2 1.2 3.2 0 4.4l-16.4 16.4c-1.2 1.2-3.2 1.2-4.4 0l-7.4-7.4c-1.2-1.2-1.2-3.2 0-4.4z" fill="#9be5f9"/><path d="m262 217c-14.9 18.7-36.9 16.1-44.3 14.6-1.3-.3-2.6.7-2.6 2.1v32.8c0 22.4 18.4 40.8 40.8 40.8s40.8-18.4 40.8-40.8v-36.4c0-.2 0-.4 0-.6 0-1.2-1-2.1-2.1-2.1-17-.5-25.9-7.2-29.3-10.6-.9-1-2.5-.9-3.3.2z" fill="#f9d0b4"/><path d="m212.5 235.4c.9 0 1.8.1 2.6.2v-1.9c0-1.4 1.3-2.4 2.6-2.1 7.4 1.5 29.4 4.2 44.3-14.6.8-1 2.3-1.1 3.3-.2 3.4 3.4 12.4 10.1 29.3 10.6 1.2 0 2.1 1 2.1 2.1v.6 5.5c.9-.1 1.7-.2 2.6-.2 4.6 0 8.8 1.8 11.8 4.8v-30.6c0-12.8-10.5-23.3-23.3-23.3-4.3 0-8.4 1.2-11.9 3.3-4.1-6.8-11.5-11.4-20-11.4h-12c-23.2 0-42.1 19-42.1 42.1v18.9c3-2.4 6.7-3.8 10.7-3.8z" fill="#754e34"/><path d="m299.3 235.4c-.9 0-1.8.1-2.6.2v30.9c0 .9 0 1.8-.1 2.7.9.1 1.8.2 2.7.2 9.4 0 17-7.6 17-17s-7.5-17-17-17z" fill="#f9d0b4"/><path d="m215.1 266.5c0-4.2 0-22.5 0-30.9-.9-.1-1.7-.2-2.6-.2-9.4 0-17 7.6-17 17s7.6 17 17 17c.9 0 1.8-.1 2.7-.2-.1-.9-.1-1.8-.1-2.7z" fill="#f9d0b4"/><path d="m112.2 269.4c-2.2 0-4-1.8-4-4v-54.1c0-2.2 1.8-4 4-4s4 1.8 4 4v54.1c0 2.2-1.8 4-4 4z"/><path d="m125.4 224.7c-2 0-3.7-1.5-3.9-3.4-.3-2.2 1.2-4.2 3.4-4.5 3.7-.5 7.6-.5 11.3 0 2.2.3 3.7 2.3 3.4 4.5s-2.3 3.7-4.5 3.4c-3.1-.4-6.2-.4-9.2 0-.2 0-.3 0-.5 0z"/><path d="m125.4 238.3c-2 0-3.7-1.5-3.9-3.4-.3-2.2 1.2-4.2 3.4-4.5 3.7-.5 7.6-.5 11.3 0 2.2.3 3.7 2.3 3.4 4.5s-2.3 3.7-4.5 3.4c-3.1-.4-6.2-.4-9.2 0-.2 0-.3 0-.5 0z"/><path d="m125.4 251.9c-2 0-3.7-1.5-3.9-3.4-.3-2.2 1.2-4.2 3.4-4.5 3.7-.5 7.6-.5 11.3 0 2.2.3 3.7 2.3 3.4 4.5s-2.3 3.7-4.5 3.4c-3.1-.4-6.2-.4-9.2 0-.2 0-.3 0-.5 0z"/><path d="m98.2 224.7c-.2 0-.4 0-.5 0-3-.4-6.1-.4-9.2 0-2.2.3-4.2-1.2-4.5-3.4s1.2-4.2 3.4-4.5c3.8-.5 7.6-.5 11.3 0 2.2.3 3.7 2.3 3.4 4.5-.2 2-1.9 3.4-3.9 3.4z"/><path d="m98.2 238.3c-.2 0-.4 0-.5 0-3-.4-6.1-.4-9.2 0-2.2.3-4.2-1.2-4.5-3.4s1.2-4.2 3.4-4.5c3.8-.5 7.6-.5 11.3 0 2.2.3 3.7 2.3 3.4 4.5-.2 2-1.9 3.4-3.9 3.4z"/><path d="m98.2 251.9c-.2 0-.4 0-.5 0-3-.4-6.1-.4-9.2 0-2.2.3-4.2-1.2-4.5-3.4s1.2-4.2 3.4-4.5c3.8-.5 7.6-.5 11.3 0 2.2.3 3.7 2.3 3.4 4.5-.2 2-1.9 3.4-3.9 3.4z"/><path d="m160.4 140.4c-21.5 0-39-17.9-39-39.8 0-1.7.1-3.4.3-5.1.5-4.4 4.3-7.7 8.7-7.7h60c4.4 0 8.1 3.3 8.7 7.7.2 1.7.3 3.4.3 5.1 0 22-17.5 39.8-39 39.8zm-30-44.6c-.4 0-.7.3-.8.7-.2 1.3-.3 2.7-.3 4.1 0 17.6 13.9 31.8 31 31.8s31-14.3 31-31.8c0-1.4-.1-2.7-.3-4.1-.1-.4-.4-.7-.8-.7z" fill="#ffc550"/><path d="m177.5 156.3h-34.2c-9 0-16.3-7.3-16.3-16.3 0-4.2 3.4-7.5 7.5-7.5h51.8c4.2 0 7.5 3.4 7.5 7.5 0 9-7.3 16.3-16.3 16.3zm-42.6-15.9c.2 4.4 3.9 8 8.4 8h34.2c4.5 0 8.1-3.5 8.4-8z" fill="#ffc550"/><path d="m144.5 79.9c-2.2 0-4-1.8-4-4v-8c0-2.2 1.8-4 4-4s4 1.8 4 4v8c0 2.2-1.8 4-4 4z"/><path d="m160.4 79.9c-2.2 0-4-1.8-4-4v-8c0-2.2 1.8-4 4-4s4 1.8 4 4v8c0 2.2-1.8 4-4 4z"/><path d="m176.3 79.9c-2.2 0-4-1.8-4-4v-8c0-2.2 1.8-4 4-4s4 1.8 4 4v8c0 2.2-1.8 4-4 4z"/><path d="m197.1 129.3h-10.8c-2.2 0-4-1.8-4-4s1.8-4 4-4h10.8c6.4 0 12.1-4 14.2-10 .7-2.1.4-4.4-.9-6.2s-3.3-2.9-5.5-2.9h-9.1c-2.2 0-4-1.8-4-4s1.8-4 4-4h9.1c4.8 0 9.3 2.3 12 6.2 2.8 3.9 3.5 8.9 1.9 13.4-3.3 9.3-12 15.5-21.7 15.5z" fill="#ffc550"/><path d="m112.9 135.4c-7.2-1.3-12.7-6.8-14.2-13.8 0-.3-.6-.3-.6 0-1.4 7-7 12.6-14.2 13.8-.3 0-.3.5 0 .6 7.2 1.3 12.7 6.8 14.2 13.8 0 .3.6.3.6 0 1.4-7 7-12.6 14.2-13.8.4-.1.4-.6 0-.6z" fill="#f5c84c"/><path d="m356.2 199.4c-5-.9-8.9-4.8-9.9-9.7 0-.2-.4-.2-.4 0-1 4.9-4.9 8.8-9.9 9.7-.2 0-.2.3 0 .4 5 .9 8.9 4.8 9.9 9.7 0 .2.4.2.4 0 1-4.9 4.9-8.8 9.9-9.7.2-.1.2-.4 0-.4z" fill="#70d6f9"/><path d="m380.2 335.2h-3.7v-3.7c0-2.7-2.2-5.1-5.1-5.1s-5.1 2.2-5.1 5.1v3.7h-3.7c-2.7 0-5.1 2.2-5.1 5.1s2.2 5.1 5.1 5.1h3.7v3.7c0 2.7 2.2 5.1 5.1 5.1s5.1-2.2 5.1-5.1v-3.7h3.7c2.7 0 5.1-2.2 5.1-5.1s-2.2-5.1-5.1-5.1z" fill="#87d147"/><circle cx="117.7" cy="177.4" fill="#fc657e" r="5.4"/><circle cx="391.5" cy="303.2" fill="#f5c84c" r="5.4"/><path d="m256.5 286.1c-6.1 0-11.8-2.5-15.4-6.7-1.4-1.7-1.2-4.2.5-5.6s4.2-1.2 5.6.5c2 2.4 5.5 3.8 9.3 3.8s7.2-1.4 9.3-3.8c1.4-1.7 3.9-1.9 5.6-.5s1.9 3.9.5 5.6c-3.5 4.2-9.3 6.7-15.4 6.7z"/><circle cx="272.2" cy="252.8" r="5.8"/><circle cx="239.6" cy="252.8" r="5.8"/></svg>