<svg enable-background="new 0 0 512 512" viewBox="0 0 512 512" xmlns="http://www.w3.org/2000/svg"><path d="m320.2 240.4-12.5 9.4-25.5-34v-42.5h15.6c16.1 0 30.3 10.3 35.4 25.5s-.1 32-13 41.6z" fill="#fd4755"/><path d="m425.4 177.9-38.3 12.8c-7 2.4-14.7-1.4-17-8.5s1.4-14.7 8.5-17l38.3-12.8c7-2.4 14.7 1.4 17 8.5 2.4 7-1.4 14.6-8.5 17z" fill="#01c0fa"/><path d="m365.7 93.5-18 36.1c-3.3 6.6-11.4 9.3-18 6s-9.3-11.4-6-18l18-36.1c3.3-6.6 11.4-9.3 18-6 6.7 3.2 9.4 11.3 6 18z" fill="#01c0fa"/><path d="m420 255.7-36.1-18c-6.6-3.3-14.7-.6-18 6s-.6 14.7 6 18l36.1 18c6.6 3.3 14.7.6 18-6s.6-14.6-6-18z" fill="#01c0fa"/><path d="m240.1 349.5-11.6 7.7-35.1-21.5 5.4-23.3 22.4-14.8 22.5 34c4.1 5.9 2.4 14-3.6 17.9z" fill="#0055a3"/><path d="m291.4 403.4-4.1-6.2c-4-6-12-7.6-18-3.7l-.8.5c-6 4-14 2.3-18-3.7l-42.8-64.7-43 5.3-35.5 20.9c15.2-5.1 31.8.7 40.6 14l43.5 65.7c7.9 12 24 15.2 36 7.3l40.2-26.6c3-1.7 3.9-5.8 1.9-8.8z" fill="#e41f2d"/><path d="m78.1 198.9c-42.2 14.2-65 59.9-50.9 102.1s59.8 65.1 102.1 50.9l38.3-12.8-12.8-80.8-38.3-72.2z" fill="#fd4755"/><path d="m85.4 330.1c-12.7 4.2-25.6 5.1-38 3.2 20.9 20.3 52.2 28.5 81.8 18.7l38.3-12.8-5.5-34.7z" fill="#fb2b3a"/><path d="m234.1 99.3-8.4 16.9c-12.8 25.7-35.3 45.2-62.5 54.3l-46.7 15.6 51.1 153 46.7-15.6c27.2-9.1 56.9-7 82.6 5.8l16.9 8.4c10.4 5.2 21.8-4.8 18.1-15.7l-73.9-221c-3.6-11-18.8-12-23.9-1.7z" fill="#dff6fd"/><path d="m234.1 99.3-7.9 15.8 55.9 167.2c5.9 17.6-12.4 33.5-29 25.2-25.7-12.8-55.4-14.9-82.6-5.8l-13.9 4.6 11 32.8 46.7-15.6c27.2-9.1 56.9-7 82.6 5.8l16.9 8.4c10.4 5.2 21.8-4.8 18.1-15.7l-73.9-221c-3.6-11-18.8-12-23.9-1.7z" fill="#c8effe"/><g fill="#fb2b3a"><path d="m71.4 286.2c-1.1-3.3-4.7-5.1-8-4l-38 12.7c.5 2 1.1 4 1.8 6.1.7 2 1.4 4 2.2 5.9l38-12.7c3.3-1.1 5.1-4.7 4-8z"/><path d="m54.9 256.7-31.5 10.5c-.5 4.4-.5 8.9-.2 13.4l35.7-11.9c3.3-1.1 5.1-4.7 4-8s-4.7-5.1-8-4z"/><path d="m79.9 311.7c-1.1-3.3-4.7-5.1-8-4l-35.7 11.9c2.5 3.8 5.2 7.3 8.2 10.5l31.6-10.4c3.3-1.1 5-4.7 3.9-8z"/><path d="m135.5 328.2c-3.3 1.1-6.9-.7-8-4l-34.1-102c-1.1-3.3.7-6.9 4-8s6.9.7 8 4l34.1 102c1.1 3.3-.7 6.9-4 8z"/></g><path d="m125.1 316.8 2.5 7.3c1.1 3.3 4.7 5.1 8 4s5.1-4.7 4-8l-2.5-7.3z" fill="#e41f2d"/><path d="m297 302.5c-3.3 1.1-6.9-.7-8-4l-51.1-153c-1.1-3.3.7-6.9 4-8s6.9.7 8 4l51.1 153c1.1 3.4-.7 6.9-4 8z" fill="#99e6fc"/><path d="m434.6 328.5c0 26.5-21.4 47.9-47.9 47.9s-47.9-21.4-47.9-47.9c0-2.1 1.7-3.7 3.7-3.7 2.1 0 3.7 1.7 3.7 3.7 0 22.3 18.1 40.4 40.4 40.4s40.4-18.1 40.4-40.4-18.1-40.4-40.4-40.4c-2.1 0-3.7-1.7-3.7-3.7 0-2.1 1.7-3.7 3.7-3.7 26.6-.1 48 21.3 48 47.8zm-65.8-36.4 4.8-2c1.9-.8 2.8-3 2-4.9s-3-2.8-4.9-2l-4.8 2c-1.9.8-2.8 3-2 4.9s3 2.8 4.9 2zm-12.5 9.7 3.7-3.7c1.5-1.5 1.5-3.8 0-5.3s-3.8-1.5-5.3 0l-3.7 3.7c-1.5 1.5-1.5 3.8 0 5.3 1.5 1.4 3.8 1.4 5.3 0zm-12.8 15.7c1.9.8 4.1-.1 4.9-2l2-4.8c.8-1.9-.1-4.1-2-4.9s-4.1.1-4.9 2l-2 4.8c-.8 1.9.1 4.1 2 4.9zm43.2-21.9c-3.6 0-6.6 2.9-6.6 6.6v19.7h-19.7c-3.6 0-6.6 2.9-6.6 6.6s2.9 6.6 6.6 6.6h19.7v19.7c0 3.6 2.9 6.6 6.6 6.6 3.6 0 6.6-2.9 6.6-6.6v-19.7h19.7c3.6 0 6.6-2.9 6.6-6.6s-2.9-6.6-6.6-6.6h-19.7v-19.7c0-3.6-2.9-6.6-6.6-6.6z" fill="#0c0c0c"/></svg>