<svg enable-background="new 0 0 512 512" viewBox="0 0 512 512" xmlns="http://www.w3.org/2000/svg"><path d="m481.3 205.9c0 53.7-43.5 97.2-97.2 97.2s-97.2-43.5-97.2-97.2c0-4.2 3.4-7.6 7.6-7.6s7.6 3.4 7.6 7.6c0 45.3 36.7 82 82 82s82-36.7 82-82-36.7-82-82-82c-4.2 0-7.6-3.4-7.6-7.6s3.4-7.6 7.6-7.6c53.7 0 97.2 43.5 97.2 97.2zm-133.5-73.8 9.8-4.1c3.9-1.6 5.7-6 4.1-9.9s-6-5.7-9.9-4.1l-9.8 4.1c-3.9 1.6-5.7 6-4.1 9.9s6 5.8 9.9 4.1zm-25.5 19.6 7.5-7.5c3-3 3-7.8 0-10.7s-7.8-3-10.7 0l-7.5 7.5c-3 3-3 7.8 0 10.7 2.9 2.9 7.8 2.9 10.7 0zm-26 31.8c3.9 1.6 8.3-.2 9.9-4.1l4.1-9.8c1.6-3.9-.2-8.3-4.1-9.9s-8.3.2-9.9 4.1l-4.1 9.8c-1.6 3.9.3 8.3 4.1 9.9zm87.8-44.3c-7.4 0-13.3 6-13.3 13.3v40h-40c-7.4 0-13.3 6-13.3 13.3s6 13.3 13.3 13.3h40v40c0 7.4 6 13.3 13.3 13.3s13.3-6 13.3-13.3v-40h40c7.4 0 13.3-6 13.3-13.3 0-7.4-6-13.3-13.3-13.3h-40v-40c0-7.3-5.9-13.3-13.3-13.3z" fill="#161616"/><path d="m231 92.1c10.7-5.4 18.1-13.8 20.6-21.8h-27.1c-2.7 0-5.3.3-7.8.8-9.8 2.2-18.1 8.4-23.2 16.8-.3.5-.5 1-.8 1.5 5.9 9.3 22.6 10.7 38.3 2.7z" fill="#ae6c60"/><path d="m206.4 131.9v22.8h-6c-6.6 0-12.1 5.4-12.1 12.1v-60.3c0-6.8 1.9-13.1 5.1-18.6 5.1-8.4 13.4-14.6 23.2-16.8 2.5-.5 5.1-.8 7.8-.8h33.3c17.7 0 35.2-4.1 51-12.1v39.2c0 1-.1 2-.1 3-1 12.6-7.9 23.6-18 30v.1c-6.1 3.9-13.3 6.1-21.1 6.1h-21.1v-24.1s-6.6 8.3-18.2 16.2c-7.4 5.2-16.2 5.8-23.8 3.2z" fill="#9a4738"/><path d="m444.4 413.8v12.1c0 3.3-2.7 6-6 6h-361.6c-3.3 0-6-2.7-6-6v-12.1c0-3.3 2.7-6 6-6h114.5 18.1 66.3 48.2 48.2 34.4 1.8 30.1c3.3 0 6 2.7 6 6z" fill="#fcb984"/><path d="m339 269.2v108.5c0 3.3-2.7 6-6 6h-60.3l-2.2.2-3.9-42.4h-36.2l-3.9 42.4-2.2-.2h-60.3c-3.3 0-6-2.7-6-6v-108.5c0-3.3 2.7-6 6-6h84.4 84.4c3.5 0 6.2 2.7 6.2 6z" fill="#e0dae0"/><path d="m158.2 377.7c0 3.3 2.7 6 6 6h6 54.2l2.5.2 1.6-19.3h-70.4z" fill="#a8a3a8"/><path d="m332.9 263.2h-2.3-7.8v68.8c0 18-14.6 32.6-32.6 32.6h-21.7l1.6 19.3 2.5-.2h54.2 6c3.3 0 6-2.7 6-6v-108.5c.2-3.3-2.5-6-5.9-6z" fill="#a8a3a8"/><path d="m290.8 178.8v6c0 11.7-4.7 22.2-12.4 29.8-1.7 1.7-3.7 3.4-5.7 4.8-6.8 4.8-15.1 7.6-24.1 7.6s-17.3-2.8-24.1-7.6c-11-7.6-18.1-20.2-18.1-34.6v-6-24.1-22.8c7.6 2.7 16.4 2 24-3.2 11.6-7.9 18.2-16.2 18.2-16.2v24.1h21.1c7.8 0 15-2.3 21.1-6.1v24.2z" fill="#fcbfa9"/><path d="m297.4 63.2c-9 25.2-33 43.3-61.3 43.3-26.4 0-47.8 21.4-47.8 47.8v12.5c0-6.6 5.4-12.1 12.1-12.1h6v-22.8c7.6 2.7 16.4 2 24-3.2 11.6-7.9 18.2-16.2 18.2-16.2v24.1h21.1c7.8 0 15-2.3 21.1-6.1v-.1c10.1-6.4 17-17.4 18-30 .1-1 .1-2 .1-3v-39.1c-3.8 1.8-7.6 3.4-11.5 4.9z" fill="#73352a"/><path d="m269.7 136.6h-21.1v-24.1s-6.6 8.3-18.2 16.2c-7.6 5.2-16.4 5.8-24 3.2 0 11.4 9.2 20.6 20.6 20.6h27.9c11.4 0 20.6 9.2 20.6 20.6v44.1c9.3-7.8 15.2-19.4 15.2-32.4v-6-24.1-24.2c-6 3.8-13.3 6.1-21 6.1z" fill="#ed907a"/><path d="m432.4 407.8h-7c0 6.7-5.4 12.1-12.1 12.1h-342.5v6c0 3.3 2.7 6 6 6h361.6c3.3 0 6-2.7 6-6v-12.1c0-3.3-2.7-6-6-6z" fill="#ff9d5a"/><path d="m390.7 358.8c1.6 4.2.7 8.9-2.4 12.2l-31.3 34.8v-10.1c0-6.6-5.4-12.1-12.1-12.1h-12.1c3.3 0 6-2.7 6-6l42.2-42.2.7-.2z" fill="#fcbfa9"/><path d="m360.8 279.1 21 56.1-.7.2-42.1 42.3v-108.5c0-3.3-2.7-6-6-6h-84.4v-6c12.9 0 23.4-10.1 24-22.8l17.9 3.9 31.5 6.7c18.1 3.7 32.7 16.7 38.8 34.1z" fill="#235085"/><path d="m357 395.7v10.1l-1.8 2h-34.4v-12.1c0-6.6 5.4-12.1 12.1-12.1h12.1c6.6.1 12 5.5 12 12.1z" fill="#ed907a"/><path d="m272.7 383.7h60.3c-6.6 0-12.1 5.4-12.1 12.1v12.1h-48.2l-2.2-23.9z" fill="#235085"/><path d="m308.8 100.4v66.3c0-3.3-1.3-6.3-3.6-8.5-2.2-2.2-5.2-3.6-8.5-3.6h-6v-24.2-.1c10.1-6.4 17-17.4 18-30z" fill="#9a4738"/><path d="m305.3 158.2c2.2 2.2 3.6 5.2 3.6 8.5 0 6.6-5.4 12.1-12.1 12.1h-1.1-4.9v-24.1h6c3.3 0 6.3 1.3 8.5 3.5z" fill="#fcbfa9"/><path d="m272.7 219.4v13.6c0 .4 0 .8-.1 1.3-.7 12.7-11.1 22.8-24 22.8-6.6 0-12.7-2.7-17.1-7.1-4-4.1-6.7-9.6-7-15.8-.1-.4-.1-.8-.1-1.3v-13.6c6.8 4.8 15.1 7.6 24.1 7.6 9 .1 17.4-2.7 24.2-7.5z" fill="#ed907a"/><path d="m270.5 383.9 2.2 23.9h-48.2l2.2-23.9 3.9-42.4h36.2z" fill="#b2a6b2"/><path d="m248.6 257.1v6h-84.4c-3.3 0-6 2.7-6 6v108.5l-42.2-42.1-.7-.2 2.2-5.8 8.5-22.7 10.4-27.7c6.1-17.4 20.7-30.4 38.8-34.2l49.4-10.6h.1c.3 6.1 3 11.7 7 15.8 4.2 4.3 10.2 7 16.9 7z" fill="#2f6bb2"/><path d="m226.6 383.9-2.2 23.9h-66.3c3.3 0 6-2.7 6-6v-18.1h60.3z" fill="#2f6bb2"/><path d="m206.4 154.7v24.1h-6c-3.3 0-6.3-1.3-8.5-3.6-2.2-2.2-3.6-5.2-3.6-8.5 0-6.6 5.4-12.1 12.1-12.1h6z" fill="#fcbfa9"/><path d="m164.2 383.7v18.1c0 3.3-2.7 6-6 6h-18.1c-3.3 0-6-2.7-6-6v-2.7-15.4c0-3.3 2.7-6 6-6h18.1c0 3.3 2.7 6 6 6z" fill="#ed907a"/><path d="m158.2 377.7h-18.1c-3.3 0-6 2.7-6 6v15.4l-25.3-28.1c-3-3.3-3.9-8.1-2.4-12.2l8.9-23.6.7.2z" fill="#fcbfa9"/><path d="m224.5 182.8c-3.3 0-6-2.7-6-6v-6c0-3.3 2.7-6 6-6s6 2.7 6 6v6c0 3.3-2.7 6-6 6z" fill="#606060"/><path d="m272.7 182.8c-3.3 0-6-2.7-6-6v-6c0-3.3 2.7-6 6-6s6 2.7 6 6v6c0 3.3-2.7 6-6 6z" fill="#606060"/><path d="m266.6 323.4h-36.2c-3.3 0-6-2.7-6-6s2.7-6 6-6h36.2c3.3 0 6 2.7 6 6s-2.6 6-6 6z" fill="#b2a6b2"/></svg>