<svg enable-background="new 0 0 512 512" viewBox="0 0 512 512" xmlns="http://www.w3.org/2000/svg"><path d="m425.5 219.6c0 93.6-75.9 169.5-169.5 169.5s-169.5-75.9-169.5-169.5 75.9-170.4 169.5-170.4 169.5 76.8 169.5 170.4z" fill="#f9f9f9"/><path d="m425.5 219.6c0 93.6-75.9 169.5-169.5 169.5v-339.9c93.6 0 169.5 76.8 169.5 170.4z" fill="#e2dff4"/><path d="m256 36c-100.7 0-185 82.9-182.7 188.4v.2c1.4 51.8 24.6 98.6 60.2 130.7 43.8 39.6 80.4 81.4 111.5 126.9 5.2 7.7 16.6 7.7 21.9 0 31-45.5 67.7-87.3 111.5-126.9 35.6-32.1 58.9-78.8 60.2-130.7 0-.1 0-.1 0-.2 2.4-105.5-82-188.4-182.6-188.4zm156.2 187.7v.1c-2.3 83.7-71 152-156.2 152-85.3 0-153.9-68.4-156.2-152v-.1c-2.3-88.1 68.3-161.2 156.2-161.2 87.8 0 158.5 73 156.2 161.2z" fill="#ff405c"/><path d="m438.7 219.6c0 53-22.9 101.9-60.3 135.7-43.8 39.6-80.4 81.4-111.5 126.9-2.5 3.6-6.6 5.8-10.9 5.8v-112.1c86.8 0 156.3-70.8 156.3-156.3 0-86.6-70.1-157.1-156.3-157.1v-26.5c100.8 0 182.7 82.4 182.7 183.6z" fill="#b10042"/><path d="m206.6 183.4c-7.3 0-13.2-5.9-13.2-13.2v-49.4c0-7.3 5.9-13.2 13.2-13.2s13.2 5.9 13.2 13.2v49.4c0 7.3-5.9 13.2-13.2 13.2z" fill="#b10042"/><path d="m256 120.8-90.9 90.9v99.8c0 7.3 5.9 13.2 13.2 13.2h36.2s13.2-6.2 41.5-6.2 41.5 6.2 41.5 6.2h36.2c7.3 0 13.2-5.9 13.2-13.2v-99.8z" fill="#ffdd54"/><path d="m346.9 211.7v99.8c0 7.3-5.9 13.2-13.2 13.2h-36.2s-13.2-6.2-41.5-6.2v-197.7z" fill="#ffb454"/><path d="m284.2 241.7h-56.5c-7.3 0-13.2 5.9-13.2 13.2v69.7h83v-69.7c0-7.3-5.9-13.2-13.3-13.2z" fill="#0a789b"/><path d="m297.5 254.9v69.7h-41.5v-83h28.2c7.4.1 13.3 6 13.3 13.3z" fill="#08475e"/><path d="m371.3 236.1c-2.6 2.6-6 3.9-9.4 3.9s-6.8-1.3-9.4-3.9l-96.5-96.6-96.6 96.6c-5.2 5.2-13.6 5.2-18.7 0-5.2-5.2-5.2-13.6 0-18.7l105.9-105.9c2.6-2.6 6-3.9 9.4-3.9s6.8 1.3 9.4 3.9l105.9 105.9c5.2 5.1 5.2 13.5 0 18.7z" fill="#ff405c"/><path d="m371.3 236.1c-2.6 2.6-6 3.9-9.4 3.9s-6.8-1.3-9.4-3.9l-96.5-96.6v-32c3.4 0 6.8 1.3 9.4 3.9l105.9 105.9c5.2 5.2 5.2 13.6 0 18.8z" fill="#b10042"/><path d="m283.4 205.5c0 7.3-5.9 13.2-13.2 13.2h-28.2c-7.3 0-13.2-5.9-13.2-13.2s5.9-13.2 13.2-13.2h28.2c7.2 0 13.2 5.9 13.2 13.2z" fill="#bcfbff"/><path d="m270.1 218.7h-14.1v-26.5h14.1c7.3 0 13.2 5.9 13.2 13.2.1 7.4-5.9 13.3-13.2 13.3z" fill="#acceff"/></svg>