<svg enable-background="new 0 0 512 512" viewBox="0 0 512 512" xmlns="http://www.w3.org/2000/svg"><g fill="#ef4425"><path d="m85.3 266.7c0-5.9 4.8-10.7 10.7-10.7h170.7c5.9 0 10.7 4.8 10.7 10.7s-4.8 10.7-10.7 10.7h-170.7c-5.9-.1-10.7-4.8-10.7-10.7z"/><path d="m0 373.3c0-5.9 4.8-10.7 10.7-10.7h256c5.9 0 10.7 4.8 10.7 10.7s-4.8 10.7-10.7 10.7h-256c-5.9 0-10.7-4.8-10.7-10.7z"/><path d="m85.3 480c0-5.9 4.8-10.7 10.7-10.7h170.7c5.9 0 10.7 4.8 10.7 10.7s-4.8 10.7-10.7 10.7h-170.7c-5.9 0-10.7-4.8-10.7-10.7z"/><path d="m0 138.7v-64c0-17.6 14.4-32 32-32h213.3c17.6 0 32 14.4 32 32v64c0 17.6-14.4 32-32 32h-213.3c-17.6 0-32-14.4-32-32zm32-74.7c-5.9 0-10.7 4.8-10.7 10.7v64c0 5.9 4.8 10.7 10.7 10.7h213.3c5.9 0 10.7-4.8 10.7-10.7v-64c0-5.9-4.8-10.7-10.7-10.7z"/><path d="m320 106.7c0-5.9 4.8-10.7 10.7-10.7h170.7c5.9 0 10.7 4.8 10.7 10.7s-4.8 10.7-10.7 10.7h-170.7c-5.9-.1-10.7-4.8-10.7-10.7z"/><path d="m416 202.7c-2.7 0-5.5-1-7.5-3.1l-85.3-85.3c-4.2-4.2-4.2-10.9 0-15.1l85.3-85.3c4.2-4.2 10.9-4.2 15.1 0s4.2 10.9 0 15.1l-77.8 77.8 77.8 77.8c4.2 4.2 4.2 10.9 0 15.1-2.1 1.9-4.9 3-7.6 3z"/></g></svg>