<svg enable-background="new 0 0 512 512" image-rendering="optimizeQuality" shape-rendering="geometricPrecision" text-rendering="geometricPrecision" viewBox="0 0 512 512" xmlns="http://www.w3.org/2000/svg"><g clip-rule="evenodd" fill-rule="evenodd"><path d="m57 371.7c-2.7.4-5.3-.6-6.7-2.9l-22-36.3c-1.6-2.9-.8-6.7 2.2-8.6l23.7-14.3c1.4-1 3.1-1.2 4.7-.8s3.1 1.4 3.9 2.9l22 36.1c.8 1.4 1 3.3.6 4.9s-1.4 2.9-2.9 3.9l-23.7 14.3c-.5.4-1.2.6-1.8.8z" fill="#fba617"/><path d="m41.5 317.2 12.6-7.5c1.4-1 3.1-1.2 4.7-.8s3.1 1.4 3.9 2.9l22 36.1c.8 1.4 1 3.3.6 4.9s-1.4 2.9-2.9 3.9l-12.4 7.5z" fill="#fb9515"/><path d="m330 308.8c-.2 0-.4 0-.6 0l-184.4 20.4c-2.4.2-4.9-1-6.1-3.1l-31.9-52.4c-1.2-2.2-1.2-4.9.2-6.9l103-154c1.2-1.8 3.3-2.9 5.5-2.9 2 0 4.1 1.2 5.1 3.1l112.6 185.5c.6.8 1.2 1.8 1.4 2.9.6 3.5-1.4 6.7-4.9 7.3v.1z" fill="#fba617"/><path d="m163.7 327.2-18.8 2c-2.4.2-4.9-1-6.1-3.1l-31.8-52.4c-1.2-2.2-1.2-4.9.2-6.9l10.4-15.5c.4.6 1 1.2 1.4 1.8l43.5 71.8c.4.7.8 1.5 1.2 2.3z" fill="#fb9515"/><path d="m151.5 432.9c-2.4.4-5.3-.6-6.5-3.1l-41.8-68.8c-1.8-3.1-.8-6.7 2-8.6l23.3-14.3c1.4-.8 3.3-1 4.7-.6 1.6.4 3.1 1.4 3.9 2.9l41.8 68.8c1 1.4 1.2 3.3.8 4.7-.4 1.6-1.4 3.1-2.9 3.9l-23.3 14.3c-.6.4-1.4.6-2 .8z" fill="#e1474f"/><path d="m110.7 373.5-7.5-12.4c-1.8-3.1-.8-6.7 2-8.6l23.3-14.3c1.4-.8 3.3-1 4.7-.6 1.6.4 3.1 1.4 3.9 2.9l7.8 12.4z" fill="#cb4047"/><path d="m91.3 375.1c-.8.2-1.8 0-2.7-.2-1.6-.4-3.1-1.4-3.9-2.9l-43.5-71.6c-1-1.4-1.2-3.3-.8-4.9.4-1.4 1.4-2.9 2.9-3.9l60-36.3c2.9-1.8 6.7-.8 8.6 2.2l43.5 71.6c1.8 3.1.8 6.9-2 8.8l-60 36.3c-.7.5-1.3.7-2.1.9z" fill="#fee14d"/><path d="m323.3 297c-.2.2-.4.2-.6.2l-36.5 14.7-95.7-165.9 23.7-35.5c1.2-1.8 3.3-2.9 5.3-2.9 2.2 0 4.1 1.2 5.3 3.1l102 176.1c.6.8 1.2 1.8 1.4 2.9.6 3.4-1.4 6.7-4.9 7.3z" fill="#fb9515"/><path d="m324.3 319.4c-11.6 6.7-26.5 2.9-33.5-9l-96.3-166.7c-6.7-11.8-2.7-26.7 9-33.5 11.8-6.9 26.7-2.9 33.5 9l96.3 166.8c6.9 11.6 2.8 26.7-9 33.4z" fill="#fee14d"/><path d="m283.7 159.9c-.6 0-1.2-.2-1.8-.4-2-1-2.9-3.5-1.8-5.3l22-45.3c1-2 3.5-2.9 5.5-2 2 1 2.9 3.5 1.8 5.5l-22.2 45.3c-.6 1.4-2.1 2.2-3.5 2.2z" fill="#545454"/><path d="m371.6 228.4h-.2l-50.4-3.3c-2.2-.2-3.9-2-3.7-4.3.2-2.2 1.8-3.9 4.3-3.9l50.2 3.5c2.2 0 3.9 2 3.9 4.3-.2 2.1-2 3.7-4.1 3.7z" fill="#545454"/><path d="m299.6 195.8c-1.4 0-2.7-.8-3.5-2-1-2-.4-4.5 1.4-5.5l39.8-23.1c1.8-1 4.3-.4 5.5 1.4 1 2 .4 4.5-1.4 5.5l-39.8 23.1c-.6.4-1.4.6-2 .6z" fill="#545454"/></g><path d="m464 201c0-11.5-9.3-20.8-20.8-20.8s-20.8 9.3-20.8 20.8 9.3 20.8 20.8 20.8 20.8-9.3 20.8-20.8z" fill="#64e8ff"/><path d="m443.2 180.2c-1.2 0-2.4.1-3.5.3 9.8 1.7 17.2 10.2 17.2 20.5s-7.5 18.8-17.2 20.5c1.2.2 2.3.3 3.5.3 11.5 0 20.8-9.3 20.8-20.8 0-11.4-9.3-20.8-20.8-20.8z" fill="#0fd9ff"/><path d="m453 192.9c-.8.5-1.6.9-2.5 1.1-1.7-1.9-4.5-2.1-6.4-.4-1 .9-1.6 2.2-1.6 3.5v1c-3.5.1-6.7-1.5-8.9-4.2-.1-.2-.4-.1-.5.1-.7 2-2.6 9.2 5.3 12.7-1.8 1.2-3.8 1.9-5.9 2-.3 0-.4.4-.1.6 8.9 4.1 19.3-1 19.3-12.3 0-.3 0-.6-.1-.8.8-.8 1.5-1.8 1.9-2.9 0-.3-.2-.5-.5-.4z" fill="#fff"/><path d="m454.6 191.1c-.6-.4-1.3-.4-1.9 0s-1.2.7-1.8 1c-2.3-1.8-5.7-1.8-7.9.2-1.2 1-1.9 2.5-2.1 4-2.5-.4-4.7-1.7-6.2-3.8-.3-.5-.9-.8-1.5-.7s-1.1.4-1.4 1c0 .1-1.2 2.7-1 5.9.1 2.4 1 5.5 4.1 7.9-1.1.4-2.3.5-3.5.5-.8 0-1.5.5-1.7 1.2s.1 1.5.8 1.9c2.6 1.5 5.5 2.2 8.2 2.2 2.6 0 5.2-.7 7.5-2 2.9-1.7 5-4.3 6.1-7.5 0-.1.1-.2.1-.3.6-1.7.9-3.6.9-5.6 0-.1 0-.2 0-.3 1-1.1 1.6-2.5 2-3.9.2-.6-.1-1.3-.7-1.7zm-10.1 16.4c-2 1.2-4.4 1.7-6.7 1.5.5-.3 1.1-.6 1.6-.9s.8-.9.7-1.5-.4-1.1-1-1.4c-3.1-1.4-4.8-3.6-5-6.6 0-.6 0-1.2.1-1.7 2.3 1.9 5.3 3 8.4 2.9.9 0 1.6-.8 1.6-1.7v-1c0-.8.3-1.7 1-2.2 1.2-1 3-.9 4.1.3.2.2.5.4.8.5-.1.3-.1.6-.1.9 0 .2.1.4.1.5 0 1.6-.2 3.2-.7 4.5 0 .1 0 .1-.1.2-1 2.5-2.6 4.4-4.8 5.7z"/><path d="m430.9 314.8c0-11.5-9.3-20.8-20.8-20.8s-20.8 9.3-20.8 20.8 9.3 20.8 20.8 20.8 20.8-9.3 20.8-20.8z" fill="#6193ff"/><path d="m430.9 314.2c-.3-11.5-9.9-20.5-21.4-20.2-1.1 0-2.2.1-3.2.3 9.4 1.7 16.7 9.9 17 19.8.3 10.4-7.1 19.2-17 21 1.4.3 2.9.4 4.4.3 11.5-.1 20.5-9.7 20.2-21.2z" fill="#407bff"/><path d="m404.6 316.2h2.4v10c0 .9.8 1.7 1.7 1.7s1.7-.8 1.7-1.7v-10h2.6c.9 0 1.7-.8 1.7-1.7s-.8-1.7-1.7-1.7h-2.6v-4.7c0-1.6 1.3-2.9 2.9-2.9h2.2c.9 0 1.7-.8 1.7-1.7s-.8-1.7-1.7-1.7h-2.2c-3.5 0-6.3 2.8-6.3 6.3v4.7h-2.4c-.9 0-1.7.8-1.7 1.7s.8 1.7 1.7 1.7z"/><path d="m396.5 97.5c0-11.5-9.3-20.8-20.8-20.8s-20.8 9.3-20.8 20.8 9.3 20.8 20.8 20.8 20.8-9.3 20.8-20.8z" fill="#ff6969"/><path d="m375.7 76.7c-1.6 0-3.2.2-4.7.5 9.2 2.1 16.1 10.4 16.1 20.3s-6.9 18.1-16.1 20.3c1.5.3 3.1.5 4.7.5 11.5 0 20.8-9.3 20.8-20.8s-9.3-20.8-20.8-20.8z" fill="#ff4848"/><path d="m371.3 97.3v-6.6c0-.5.5-.8.9-.5l5.7 3.3 5.7 3.3c.4.2.4.9 0 1.1l-5.7 3.3-5.7 3.3c-.4.2-.9-.1-.9-.5z" fill="#fff"/><path d="m371.9 106.2c.4 0 .8-.1 1.2-.3l11.4-6.6c.7-.4 1.2-1.2 1.2-2s-.4-1.6-1.2-2l-11.4-6.6c-.7-.4-1.6-.4-2.3 0s-1.2 1.2-1.2 2v13.2c0 .8.4 1.6 1.2 2 .3.2.7.3 1.1.3zm1.1-13.7 8.3 4.8-8.3 4.7z"/><path d="m257.3 67.2c0-11.5-9.3-20.8-20.8-20.8s-20.8 9.3-20.8 20.8 9.3 20.8 20.8 20.8 20.8-9.4 20.8-20.8z" fill="#ff95c2"/><path d="m236.5 46.4c-1.4 0-2.8.1-4.2.4 9.5 1.9 16.6 10.3 16.6 20.4 0 10-7.1 18.4-16.6 20.4 1.4.3 2.8.4 4.2.4 11.5 0 20.8-9.3 20.8-20.8s-9.3-20.8-20.8-20.8z" fill="#ff758e"/><path d="m243.8 55.3h-14.6c-2.5 0-4.6 2.1-4.6 4.6v14.6c0 2.5 2.1 4.6 4.6 4.6h14.6c2.5 0 4.6-2.1 4.6-4.6v-14.6c0-2.6-2-4.6-4.6-4.6zm1.3 19.2c0 .7-.6 1.2-1.2 1.2h-14.6c-.7 0-1.2-.6-1.2-1.2v-14.6c0-.7.6-1.2 1.2-1.2h14.6c.7 0 1.2.6 1.2 1.2z"/><path d="m236.5 62.1c-2.8 0-5.1 2.3-5.1 5.1s2.3 5.1 5.1 5.1 5.1-2.3 5.1-5.1-2.3-5.1-5.1-5.1zm0 6.8c-.9 0-1.7-.8-1.7-1.7s.8-1.7 1.7-1.7 1.7.8 1.7 1.7-.7 1.7-1.7 1.7z"/></svg>