<svg enable-background="new 0 0 512 512" image-rendering="optimizeQuality" shape-rendering="geometricPrecision" text-rendering="geometricPrecision" viewBox="0 0 512 512" xmlns="http://www.w3.org/2000/svg"><g clip-rule="evenodd" fill-rule="evenodd"><path d="m85.8 376c-3.1.5-6.2-.7-7.9-3.4l-25.9-42.7c-1.9-3.4-1-7.9 2.6-10.1l27.9-16.8c1.7-1.2 3.6-1.4 5.5-1s3.6 1.7 4.6 3.4l25.9 42.5c1 1.7 1.2 3.8.7 5.8s-1.7 3.4-3.4 4.6l-27.8 16.7c-.7.5-1.5.7-2.2 1z" fill="#fc9c1d"/><path d="m67.6 311.8 14.9-8.9c1.7-1.2 3.6-1.4 5.5-1s3.6 1.7 4.6 3.4l25.9 42.5c1 1.7 1.2 3.8.7 5.8s-1.7 3.4-3.4 4.6l-14.7 8.9z" fill="#c96e00"/><path d="m407.2 302c-.2 0-.5 0-.7 0l-217.1 24c-2.9.2-5.8-1.2-7.2-3.6l-37.5-61.7c-1.4-2.6-1.4-5.8.2-8.2l121.3-181.3c1.4-2.2 3.8-3.4 6.5-3.4 2.4 0 4.8 1.4 6 3.6l132.6 218.3c.7 1 1.4 2.2 1.7 3.4.7 4.1-1.7 7.9-5.8 8.6z" fill="#ffbc5a"/><path d="m211.4 323.6-22.1 2.4c-2.9.2-5.8-1.2-7.2-3.6l-37.5-61.7c-1.4-2.6-1.4-5.8.2-8.2l12.2-18.3c.5.7 1.2 1.4 1.7 2.2l51.3 84.6c.5.7 1 1.6 1.4 2.6z" fill="#c96e00"/><path d="m197 448c-2.9.5-6.2-.7-7.7-3.6l-49.2-80.9c-2.2-3.6-1-7.9 2.4-10.1l27.4-16.8c1.7-1 3.8-1.2 5.5-.7 1.9.5 3.6 1.7 4.6 3.4l49.2 80.9c1.2 1.7 1.4 3.8 1 5.5-.5 1.9-1.7 3.6-3.4 4.6l-27.4 16.8c-.7.4-1.6.7-2.4.9z" fill="#ff4e19"/><path d="m149 378.1-8.9-14.7c-2.2-3.6-1-7.9 2.4-10.1l27.4-16.8c1.7-1 3.8-1.2 5.5-.7 1.9.5 3.6 1.7 4.6 3.4l9.1 14.7z" fill="#c96e00"/><path d="m126.2 380.1c-1 .2-2.2 0-3.1-.2-1.9-.5-3.6-1.7-4.6-3.4l-51.2-84.3c-1.2-1.7-1.4-3.8-1-5.8.5-1.7 1.7-3.4 3.4-4.6l70.6-42.8c3.4-2.2 7.9-1 10.1 2.6l51.2 84.3c2.2 3.6 1 8.2-2.4 10.3l-70.6 42.8c-.7.6-1.5.8-2.4 1.1z" fill="#ffb74f"/><path d="m399.3 288.1c-.2.2-.5.2-.7.2l-43 17.3-112.7-195.3 27.9-41.8c1.4-2.2 3.8-3.4 6.2-3.4 2.6 0 4.8 1.4 6.2 3.6l120.1 207.3c.7 1 1.4 2.2 1.7 3.4.8 4.1-1.6 7.9-5.7 8.7z" fill="#c96e00"/><path d="m400.5 314.5c-13.7 7.9-31.2 3.4-39.4-10.6l-113.4-196.2c-7.9-13.9-3.1-31.5 10.6-39.4 13.9-8.2 31.5-3.4 39.4 10.6l113.3 196.2c8.2 13.7 3.4 31.5-10.5 39.4z" fill="#ff4e19"/><path d="m352.7 126.7c-.7 0-1.4-.2-2.2-.5-2.4-1.2-3.4-4.1-2.2-6.2l25.9-53.3c1.2-2.4 4.1-3.4 6.5-2.4 2.4 1.2 3.4 4.1 2.2 6.5l-26.1 53.2c-.8 1.7-2.4 2.7-4.1 2.7z"/><path d="m456.2 207.4h-.2l-59.3-3.8c-2.6-.2-4.6-2.4-4.3-5 .2-2.6 2.2-4.6 5-4.6l59.1 4.1c2.6 0 4.6 2.4 4.6 5-.3 2.3-2.5 4.3-4.9 4.3z"/><path d="m371.4 168.9c-1.7 0-3.1-1-4.1-2.4-1.2-2.4-.5-5.3 1.7-6.5l46.8-27.1c2.2-1.2 5-.5 6.5 1.7 1.2 2.4.5 5.3-1.7 6.5l-46.8 27.1c-.7.5-1.7.7-2.4.7z"/></g></svg>