<?xml version="1.0" encoding="utf-8"?>
<!-- Generator: Adobe Illustrator 25.0.0, SVG Export Plug-In . SVG Version: 6.00 Build 0)  -->
<svg version="1.1"
	 id="Layer_1" image-rendering="optimizeQuality" text-rendering="geometricPrecision" shape-rendering="geometricPrecision"
	 xmlns="http://www.w3.org/2000/svg" xmlns:xlink="http://www.w3.org/1999/xlink" x="0px" y="0px" viewBox="0 0 512 512"
	 style="enable-background:new 0 0 512 512;" xml:space="preserve">
<style type="text/css">
	.st0{fill-rule:evenodd;clip-rule:evenodd;fill:#FBA617;}
	.st1{fill-rule:evenodd;clip-rule:evenodd;fill:#FB9515;}
	.st2{fill-rule:evenodd;clip-rule:evenodd;fill:#E1474F;}
	.st3{fill-rule:evenodd;clip-rule:evenodd;fill:#CB4047;}
	.st4{fill-rule:evenodd;clip-rule:evenodd;fill:#FEE14D;}
	.st5{fill-rule:evenodd;clip-rule:evenodd;fill:#CCCCCC;}
</style>
<circle cx="256.5" cy="256.5" r="256.5"/>
<g id="Layer_x0020_1">
	<g id="_286463440">
		<g>
			<path class="st0" d="M85.8,376c-3.1,0.5-6.2-0.7-7.9-3.4L52,329.9c-1.9-3.4-1-7.9,2.6-10.1L82.5,303c1.7-1.2,3.6-1.4,5.5-1
				s3.6,1.7,4.6,3.4l25.9,42.5c1,1.7,1.2,3.8,0.7,5.8s-1.7,3.4-3.4,4.6L88,375C87.3,375.5,86.5,375.7,85.8,376z"/>
			<path class="st1" d="M67.6,311.8l14.9-8.9c1.7-1.2,3.6-1.4,5.5-1s3.6,1.7,4.6,3.4l25.9,42.5c1,1.7,1.2,3.8,0.7,5.8
				s-1.7,3.4-3.4,4.6l-14.7,8.9L67.6,311.8z"/>
			<path class="st0" d="M407.2,302c-0.2,0-0.5,0-0.7,0l-217.1,24c-2.9,0.2-5.8-1.2-7.2-3.6l-37.5-61.7c-1.4-2.6-1.4-5.8,0.2-8.2
				L266.2,71.2c1.4-2.2,3.8-3.4,6.5-3.4c2.4,0,4.8,1.4,6,3.6l132.6,218.3c0.7,1,1.4,2.2,1.7,3.4c0.7,4.1-1.7,7.9-5.8,8.6V302z"/>
			<path class="st1" d="M211.4,323.6l-22.1,2.4c-2.9,0.2-5.8-1.2-7.2-3.6l-37.5-61.7c-1.4-2.6-1.4-5.8,0.2-8.2l12.2-18.3
				c0.5,0.7,1.2,1.4,1.7,2.2L210,321C210.5,321.7,211,322.6,211.4,323.6z"/>
			<path class="st2" d="M197,448c-2.9,0.5-6.2-0.7-7.7-3.6l-49.2-80.9c-2.2-3.6-1-7.9,2.4-10.1l27.4-16.8c1.7-1,3.8-1.2,5.5-0.7
				c1.9,0.5,3.6,1.7,4.6,3.4l49.2,80.9c1.2,1.7,1.4,3.8,1,5.5c-0.5,1.9-1.7,3.6-3.4,4.6l-27.4,16.8C198.7,447.5,197.8,447.8,197,448
				z"/>
			<path class="st3" d="M149,378.1l-8.9-14.7c-2.2-3.6-1-7.9,2.4-10.1l27.4-16.8c1.7-1,3.8-1.2,5.5-0.7c1.9,0.5,3.6,1.7,4.6,3.4
				l9.1,14.7L149,378.1z"/>
			<path class="st4" d="M126.2,380.1c-1,0.2-2.2,0-3.1-0.2c-1.9-0.5-3.6-1.7-4.6-3.4l-51.2-84.3c-1.2-1.7-1.4-3.8-1-5.8
				c0.5-1.7,1.7-3.4,3.4-4.6l70.6-42.8c3.4-2.2,7.9-1,10.1,2.6l51.2,84.3c2.2,3.6,1,8.2-2.4,10.3l-70.6,42.8
				C127.9,379.6,127.1,379.8,126.2,380.1z"/>
			<path class="st1" d="M399.3,288.1c-0.2,0.2-0.5,0.2-0.7,0.2l-43,17.3L242.9,110.3l27.9-41.8c1.4-2.2,3.8-3.4,6.2-3.4
				c2.6,0,4.8,1.4,6.2,3.6l120.1,207.3c0.7,1,1.4,2.2,1.7,3.4C405.8,283.5,403.4,287.3,399.3,288.1z"/>
			<path class="st4" d="M400.5,314.5c-13.7,7.9-31.2,3.4-39.4-10.6L247.7,107.7c-7.9-13.9-3.1-31.5,10.6-39.4
				c13.9-8.2,31.5-3.4,39.4,10.6L411,275.1C419.2,288.8,414.4,306.6,400.5,314.5z"/>
		</g>
		<g>
			<path class="st5" d="M352.7,126.7c-0.7,0-1.4-0.2-2.2-0.5c-2.4-1.2-3.4-4.1-2.2-6.2l25.9-53.3c1.2-2.4,4.1-3.4,6.5-2.4
				c2.4,1.2,3.4,4.1,2.2,6.5L356.8,124C356,125.7,354.4,126.7,352.7,126.7z"/>
			<path class="st5" d="M456.2,207.4H456l-59.3-3.8c-2.6-0.2-4.6-2.4-4.3-5c0.2-2.6,2.2-4.6,5-4.6l59.1,4.1c2.6,0,4.6,2.4,4.6,5
				C460.8,205.4,458.6,207.4,456.2,207.4z"/>
			<path class="st5" d="M371.4,168.9c-1.7,0-3.1-1-4.1-2.4c-1.2-2.4-0.5-5.3,1.7-6.5l46.8-27.1c2.2-1.2,5-0.5,6.5,1.7
				c1.2,2.4,0.5,5.3-1.7,6.5l-46.8,27.1C373.1,168.7,372.1,168.9,371.4,168.9z"/>
		</g>
	</g>
</g>
</svg>
