<svg height="512" viewBox="0 0 16.933333 16.933334" width="512" xmlns="http://www.w3.org/2000/svg"><g transform="translate(0 -280.067)"><path d="m.52916487 284.0354v11.6427c0 .43516.358072.79271.79323293.79271h14.2890512c.435161 0 .792716-.35755.792716-.79271v-11.6427z" fill="#dbe9ee"/><path d="m1.3223978 280.59581c-.43516093 0-.79323293.35808-.79323293.79324v2.91093h15.87500013v-2.91093c0-.43516-.357555-.79324-.792716-.79324z" fill="#33658a"/><g fill="#5b91b8"><path d="m2.3808568 281.65454c-.435242 0-.792968.35772-.792968.79297 0 .43524.357726.79492.792968.79492.4352421 0 .794922-.35968.794922-.79492 0-.43525-.3596799-.79297-.794922-.79297z"/><path d="m4.4980449 281.65454c-.435242 0-.792969.35772-.792969.79297 0 .43524.357727.79492.792969.79492.4352419 0 .7929689-.35968.7929689-.79492 0-.43525-.357727-.79297-.7929689-.79297z"/><path d="m6.6152317 281.65454c-.4352419 0-.7949218.35772-.7949218.79297 0 .43524.3596799.79492.7949218.79492.435242 0 .792969-.35968.792969-.79492 0-.43525-.357727-.79297-.792969-.79297z"/></g><path d="m9.5253894 281.91821v1.05859c-.000556.14617.1175.26511.26367.26563h5.2929696c.146171-.00053.264234-.11946.263672-.26563v-1.05859c-.000514-.14541-.118264-.26316-.263672-.26367h-5.3056646c-.148108.0135-.251169.12758-.250975.26367z" fill="#dbe9ee"/><path d="m2.3816388 285.35844a.26460982.26460982 0 0 0 -.265625.26368v6.88085a.26460982.26460982 0 0 0 .265625.26368h12.1699212a.26460982.26460982 0 0 0 .265626-.26368v-6.88085a.26460982.26460982 0 0 0 -.265626-.26368z" fill="#ff6b6b"/><path d="m14.551556 294.35454c.352865 0 .352865-.5293 0-.5293h-12.1835892c-.366676 0-.338868.54782.01367.5293z" fill="#33658a"/><path d="m5.0222638 293.29204a.26460982.26460982 0 0 0 -.259766.26758v1.05859a.26464856.26464856 0 1 0 .5292971 0v-1.05859a.26460982.26460982 0 0 0 -.2695311-.26758z" fill="#33658a"/><path d="m7.1433567 287.7393v2.64649c.000099.20748.2280801.33414.4042971.22461l2.1171876-1.32422c.164219-.10387.164219-.3434 0-.44727l-2.1171876-1.32422c-.169628-.10609-.4042971.044-.4042971.22461z" fill="#dbe9ee"/></g></svg>