<svg enable-background="new 0 0 512 512" viewBox="0 0 512 512" xmlns="http://www.w3.org/2000/svg"><g transform="translate(0 -280.067)"><path d="m94.3 348.3c-10.3 0-18.8 8.5-18.8 18.8v337.9c0 10.3 8.5 18.8 18.8 18.8h237.8c10.3 0 18.8-8.5 18.8-18.8v-300.4c0-1.7-.6-3.3-1.8-4.4l-50.1-50.1c-1.2-1.2-2.8-1.8-4.4-1.8z" fill="#dbe9ee"/><path d="m288.3 348.3v43.8c0 10.3 8.5 18.7 18.7 18.7h43.8v-6.2c0-1.7-.6-3.3-1.8-4.4l-50-50.1c-1.2-1.2-2.8-1.8-4.4-1.8z" fill="#c8d4d9"/><path d="m402.6 506.8-125 125 40.1 40.1 125-125z" fill="#ffbc42"/><path d="m317.7 671.9-40.1-40.1c-.7.8-1.3 1.7-1.6 2.7l-12.5 43.8c-.9 3.3 1 6.8 4.3 7.7 1.1.3 2.3.3 3.4 0l43.8-12.5c1.1-.3 2-.9 2.7-1.6z" fill="#fdd5a6"/><path d="m433.5 556.1-20.1-20.1-115.7 115.8 20.1 20.1z" fill="#e8ab3c"/><path d="m393.4 516 20.1 20.1 20.1 20.1 9.2-9.2c11-11 11-29.1 0-40.1-5.5-5.5-12.8-8.3-20.1-8.3s-14.5 2.7-20 8.3z" fill="#ff6b6b"/><g fill="#33658a"><path d="m163.1 398.4c-3.5 0-6.3 2.8-6.3 6.3s2.8 6.3 6.3 6.3h93.9c3.5 0 6.3-2.8 6.3-6.3s-2.8-6.3-6.3-6.3z"/><path d="m118.7 473.5c-3.5.2-6.1 3.1-6 6.6.2 3.5 3.1 6.1 6.6 6h187.7c3.5 0 6.3-2.8 6.3-6.3s-2.8-6.3-6.3-6.3h-187.7c-.2 0-.4 0-.6 0z"/><path d="m168.8 511c-3.4.4-5.9 3.5-5.5 7 .4 3.1 3 5.5 6.1 5.5h137.7c3.4.3 6.5-2.3 6.8-5.7s-2.3-6.5-5.7-6.8c-.4 0-.7 0-1.1 0h-137.7c-.2 0-.4 0-.6 0z"/><path d="m119.3 548.6c-3.5 0-6.3 2.8-6.3 6.3s2.8 6.3 6.3 6.3h187.7c3.5 0 6.3-2.8 6.3-6.3s-2.8-6.3-6.3-6.3z"/><path d="m119.3 586.1c-3.5 0-6.3 2.8-6.3 6.3s2.8 6.3 6.3 6.3h112.6c3.5 0 6.3-2.8 6.3-6.3s-2.8-6.3-6.3-6.3z"/><path d="m257 586.1c-3.5 0-6.3 2.8-6.3 6.3s2.8 6.3 6.3 6.3h25c3.5 0 6.3-2.8 6.3-6.3s-2.8-6.3-6.3-6.3z"/><path d="m118.7 623.7c-3.5.2-6.1 3.1-6 6.6.2 3.5 3.1 6.1 6.6 6h125.1c3.5 0 6.3-2.8 6.3-6.3s-2.8-6.3-6.3-6.3h-125.1c-.2 0-.4 0-.6 0z"/><path d="m168.8 661.2c-3.5.2-6.1 3.1-5.9 6.6s3.1 6.1 6.6 5.9h62.5c3.5 0 6.3-2.8 6.3-6.3s-2.8-6.3-6.3-6.3h-62.5c-.3.1-.5.1-.7.1z"/><path d="m118.7 661.2c-3.5.2-6.1 3.1-6 6.6.2 3.5 3.1 6.1 6.6 6h25c3.5 0 6.3-2.8 6.3-6.3s-2.8-6.3-6.3-6.3h-25c-.2 0-.4 0-.6 0z"/><path d="m118.7 511c-3.4.4-5.9 3.5-5.5 6.9.4 3.1 3 5.5 6.1 5.5h25c3.4.3 6.5-2.3 6.8-5.7s-2.3-6.5-5.7-6.8c-.4 0-.7 0-1.1 0h-25c-.2.1-.4.1-.6.1z"/><path d="m118.7 435.9c-3.5.2-6.1 3.1-6 6.6.2 3.5 3.1 6.1 6.6 6h137.7c3.5 0 6.3-2.8 6.3-6.3s-2.8-6.3-6.3-6.3h-137.7c-.2 0-.4 0-.6 0z"/><path d="m281.4 435.9c-3.5.2-6.1 3.1-6 6.6.2 3.5 3.1 6.1 6.6 6h25c3.5 0 6.3-2.8 6.3-6.3s-2.8-6.3-6.3-6.3h-25c-.2 0-.4 0-.6 0z"/><path d="m284.3 682.2-17-17-3.7 13.1c-.9 3.3 1 6.8 4.3 7.7 1.1.3 2.3.3 3.4 0z"/></g></g></svg>