<svg height="511pt" viewBox="-2 1 511 511.99896" width="511pt" xmlns="http://www.w3.org/2000/svg"><path d="m502.492188 417.074219c-.113282-11.710938-1.308594-20.101563-3.863282-27.210938l-1.953125-5.441406-31.59375 16.828125v-.003906l-22.464843 11.960937v-.003906l-44.300782 23.597656c-.640625.34375-1.3125.695313-2 1.0625l-4.996094 2.640625-.292968-.128906-1.824219.597656c-2.355469.765625-4.464844 1.140625-6.449219 1.140625-.652344 0-1.238281-.03125-1.804687-.101562-3.863281-.472657-7.390625-2.546875-10.027344-4.300781l-.378906-.253907-5.859375-4.152343c-11.851563-8.402344-24.445313-15.929688-37.4375-22.371094l-1.175782-.582032.035157-.046874-2.039063-.945313-1.039062-.515625-.015625.023438-2.242188-1.039063c-12.074219-5.605469-24.652343-10.378906-37.390625-14.183594l-6.101562-1.824219-.324219 6.359376c-.179687 3.5.019531 7.222656.265625 10.722656l1.167969 16.6875v.003906l1.691406 24.222656 2.390625 1.3125c4.488281 2.460938 9.070312 4.828125 13.625 7.035156l2.902344 1.40625v.007813l.417968.195313 2.066407 1 .015625-.046876 1.148437.527344c16.160157 7.394532 33.097657 13.460938 50.34375 18.023438l1.453125.386718-.046875.125 5.617188 1.273438.597656.144531c5.160156 1.230469 11.1875 2.539063 17.378906 2.539063 2.054688 0 4.039063-.148438 5.890625-.441406 6.335938-1.003907 12.355469-3.855469 17.667969-6.371094l3.710937-1.757813v.003907l46.792969-22.15625 3.191407-1.507813.523437-.257813 42.894531-20.296874 3.609375-.757813.144531-3.902344c.011719-.339843.023438-.652343.023438-.988281l.015625-.75.222656-6.507812-.167969.039062zm0 0" fill="#cbe580"/><path d="m383.433594 480.339844c-1.757813.273437-3.542969.402344-5.460938.402344-5.8125 0-11.65625-1.265626-16.671875-2.453126-25.507812-6.074218-50.242187-15.390624-73.511719-27.695312l-7.933593-4.195312.75 11.035156c.574219 8.203125 1.328125 14.921875 5.273437 20.488281 4.292969 6.035156 11.320313 9.042969 19.417969 12.097656 20.039063 7.558594 44.972656 16.964844 69.617187 16.964844h.003907c6.117187 0 12.039062-.585937 17.601562-1.738281 10.878907-2.253906 21.203125-6.777344 31.203125-11.152344l47.875-20.988281c8.335938-3.660157 17.785156-7.804688 23.582032-15.742188 5.222656-7.140625 6.4375-16.109375 6.910156-23.125l.578125-8.503906-102.480469 48.515625c-5.367188 2.539062-10.917969 5.160156-16.753906 6.089844zm0 0" fill="#f9d889"/><path d="m364.890625 437.113281.550781.414063c4.390625 3.164062 9.359375 6.753906 15.152344 7.460937.71875.085938 1.457031.128907 2.195312.128907 5.808594 0 11.332032-2.679688 16.957032-5.671876l98.203125-52.296874-2.691407-4.507813c-1.472656-2.464844-3.183593-4.699219-5.089843-6.65625-.558594-.570313-1.097657-1.078125-1.644531-1.550781l-5.261719-4.582032-2.429688 5.929688-83.28125 39.296875c-4.210937 1.984375-8.984375 4.234375-13.835937 4.234375-.253906 0-.515625-.007812-.707032-.015625-6.132812-.289063-11.507812-4.214844-16.714843-8.019531l-1.402344-1.019532c-22.851563-16.507812-50.988281-26.492187-79.21875-28.117187l-2.640625-.152344-1.609375 2.09375c-.289063.371094-.558594.757813-.835937 1.191407-.878907 1.386718-1.609376 2.945312-2.171876 4.625l-1.652343 4.914062 4.972656 1.472656c29.914063 8.851563 57.910156 22.605469 83.15625 40.828125zm0 0" fill="#f9d889"/><path d="m356.398438 32.195312c-33.496094-17.792968-71.804688-27.199218-110.78125-27.199218-23.699219 0-47.152344 3.441406-69.703126 10.230468-36.90625 11.09375-71.410156 31.675782-99.78125 59.515626-28.566406 28.023437-49.59375 62.15625-60.816406 98.710937-23.21875 75.554687-4.476562 161.625 47.742188 219.277344 40.480468 44.695312 101.402344 71.378906 162.976562 71.375 17.292969 0 34.285156-2.117188 50.496094-6.289063l4.027344-1.039062-1.789063-25.773438-5.667969 1.257813c-12.9375 2.867187-26.320312 4.320312-39.777343 4.320312-45.1875 0-90.582031-16.335937-124.546875-44.820312-22.335938-18.738281-40.601563-43.257813-52.832032-70.914063-12.183593-27.53125-18.117187-57.5625-17.164062-86.84375 1.941406-59.453125 31.40625-117.015625 78.816406-153.96875 36.46875-28.425781 82.761719-44.082031 130.351563-44.082031 12.878906 0 25.722656 1.179687 38.179687 3.503906 43.578125 8.128907 82.140625 29.671875 108.574219 60.660157 27.671875 32.417968 42.953125 76.027343 43.03125 122.789062.058594 43.625-9.648437 84.265625-28.855469 120.796875l-3.035156 5.773437 6.363281 1.429688c5.378907 1.210938 10.804688 2.300781 16.050781 3.355469l1 .199219c.265626.058593.554688.109374.816407.140624l4.527343.460938.910157-4.464844c17.867187-24.46875 30.34375-53.765625 36.089843-84.714844 5.710938-30.71875 4.71875-62.597656-2.875-92.195312-15.210937-59.304688-57.203124-112.199219-112.328124-141.492188zm0 0" fill="#d8deec"/><path d="m461.953125 361.9375c-10.792969-3.097656-21.878906-5.3125-32.664063-7.46875-7.734374-1.550781-15.664062-3.140625-23.476562-5.050781l1.851562-3.429688c15.984376-29.636719 25.375-60.570312 28.707032-94.511719l.1875.179688.648437-10.667969c.34375-5.683593.515625-11.523437.515625-17.355469v-10.957031l-.269531.234375c-1.75-36.25-12.625-70.121094-31.546875-98.058594l-1.402344-2.070312.035156-.027344-.65625-.886718-1.066406-1.578126-.0625.054688-1.03125-1.394531c-2.246094-3.035157-4.605468-6.003907-7.015625-8.832031-19.9375-23.359376-46.90625-41.492188-78.007812-52.464844l.175781-.160156-8.386719-2.550782c-7.359375-2.242187-14.886719-4.085937-22.363281-5.484375-12.429688-2.324219-25.257812-3.503906-38.128906-3.503906-8.828125 0-17.78125.558594-26.609375 1.65625l-10.542969 1.316406.242188.222657c-34.523438 5.988281-66.824219 20.105468-93.441407 40.859374-.265625.199219-.527343.410157-.789062.625l-.402344.320313-2.023437 1.59375-.019532-.015625-.472656.40625-1.890625 1.484375.066406.066406-1.230469 1.050781c-30.945312 26.363282-54 62.574219-64.929687 101.96875l-.132813-.109374-1.839843 7.773437c-3.023438 12.789063-4.773438 25.855469-5.203125 38.839844-.570313 17.527343 1.328125 35.339843 5.640625 52.941406l2.011719 8.199219.132812-.121094c2.535156 8.785156 5.6875 17.472656 9.378906 25.828125 10.265625 23.195313 25.082032 44.585937 42.859375 61.863281l1.359375 1.316406-.050781.050782 1.375 1.238281.824219.804687.03125-.03125 1.707031 1.539063c1.828125 1.644531 3.335937 2.957031 4.734375 4.125 21.996094 18.453125 48.78125 31.933594 77.515625 39.046875l-.242187.210938 10.074218 1.957031c12.277344 2.386719 24.769532 3.597656 37.121094 3.597656 14.066406 0 27.976562-1.566406 41.347656-4.652344l4.160156-.960937-1.539062-22.0625c-.488281-6.96875-1.160156-16.515625 3.410156-23.683594l.183594-.277344.308594-.476562 11.726562 1.289062c25.105469 2.761719 50.066406 12.328125 70.273438 26.9375l1.433594 1.042969c5.300781 3.859375 11.304687 8.234375 18.300781 8.5625.289062.015625.578125.023437.867187.023437 5.511719 0 10.835938-2.511718 15.125-4.535156l91.476563-43.167968-8.152344-4.792969c-6.402344-3.761719-13.792969-6.042969-20.21875-7.886719zm-165.558594 11.957031c-.179687.074219-.359375.144531-.542969.222657.183594-.078126.363282-.148438.542969-.222657zm-1.605469.683594c-.40625.179687-.808593.359375-1.214843.546875.40625-.1875.808593-.367188 1.214843-.546875zm-1.945312.894531c-.519531.25-1.03125.503906-1.539062.769532.507812-.265626 1.019531-.519532 1.539062-.769532zm25.414062-9.675781c-.332031.117187-.664062.238281-1 .355469.335938-.117188.667969-.238282 1-.355469zm34.769532-10.949219c-.121094.035156-.238282.070313-.359375.105469.121093-.035156.238281-.070313.359375-.105469zm24.808594-6.644531c.007812 0 .015624-.003906.019531-.003906-.003907 0-.011719.003906-.019531.003906zm25.085937.484375c-.722656-.183594-1.453125-.371094-2.175781-.5625.402344.105469.820312.214844 1.269531.328125zm-12.617187-2.453125c-3.28125 0-6.5625.554687-9.8125 1.3125 3.480468-.816406 6.621093-1.320313 9.800781-1.320313 2.464843 0 4.75.308594 6.972656.9375.09375.03125.195313.058594.289063.085938-.085938-.027344-.175782-.050781-.261719-.074219-2.21875-.632812-4.503907-.941406-6.988281-.941406zm-11.632813 1.753906c.429687-.105469.847656-.210937 1.265625-.308593-.421875.101562-.84375.203124-1.265625.308593zm0 0" fill="#f7b36f"/><path d="m493.738281 372.492188c-8.335937-8.515626-19.59375-12.257813-30.410156-15.363282-7.429687-2.128906-14.992187-3.847656-22.488281-5.410156 36.277344-50.839844 48.527344-117.667969 32.726562-179.273438-15.554687-60.644531-58.480468-114.726562-114.828125-144.664062-55.59375-29.539062-122.753906-35.859375-184.269531-17.34375-37.6875 11.339844-72.90625 32.34375-101.839844 60.738281-29.152344 28.605469-50.625 63.464844-62.097656 100.808594-23.71875 77.203125-4.558594 165.167969 48.816406 224.101563 42.125 46.511718 104.828125 73.007812 166.804688 73.003906 16.828125 0 33.609375-1.976563 49.902344-6.015625.609374 5.875 1.882812 12.289062 5.746093 17.734375 5.519531 7.773437 14.871094 11.300781 21.699219 13.878906 20.894531 7.882812 45.886719 17.3125 71.332031 17.3125 6.222657-.003906 12.472657-.566406 18.695313-1.855469 11.398437-2.359375 21.972656-6.996093 32.199218-11.476562l47.839844-20.96875c8.484375-3.71875 19.046875-8.347657 25.648438-17.382813 7.734375-10.585937 8.015625-24.613281 8.21875-34.851562.382812-19.332032-.355469-39.347656-13.695313-52.972656zm-197.441406 78.007812c.617187-.167969 1.226563-.339844 1.835937-.515625 7.300782-2.125 15.011719-4.558594 21.988282-8.867187.539062-.332032 1.066406-.675782 1.585937-1.023438 3.691407 3.890625 5.207031 9.097656 5.828125 12.890625.574219 3.519531.632813 7.199219.472656 10.855469-10.789062-3.898438-21.382812-8.347656-31.710937-13.339844zm192.289063-68.816406c1.71875 2.195312 3.117187 4.613281 4.246093 7.164062-21.742187 13.136719-44.242187 25.625-66.886719 37.117188-9.65625 4.898437-18.410156 9.058594-27.789062 10.300781-19.496094 2.574219-38.53125-7.835937-56.941406-17.910156l-.515625-.285157c-12.574219-6.878906-26.222657-14.054687-40.808594-19.917968-4.953125-1.992188-10.539063-4.039063-16.507813-4.523438.042969-.171875.078126-.339844.128907-.511718.449219-1.621094 1.191406-3.128907 2.125-4.527344 29.183593 1.328125 56.070312 17.171875 78.636719 32.613281 4.433593 3.03125 9.453124 6.46875 15.621093 7.257813.917969.117187 1.832031.171874 2.738281.171874 4.363282 0 8.519532-1.238281 12.164063-2.445312 21.152344-7.015625 41.097656-17.308594 60.386719-27.265625zm8.394531 24.3125c.484375 4.964844.910156 10.042968 1.191406 14.992187.007813.113281.007813.234375.015625.347657-.386719-.15625-.792969-.285157-1.226562-.339844-5.464844-.710938-11.109376-1.445313-15.886719-3.625-3.863281-1.761719-6.316407-3.507813-7.703125-5.535156 7.578125-4.300782 15.089844-8.699219 22.523437-13.164063.5 2.4375.851563 4.898437 1.085938 7.324219zm-182.113281 26.617187c-5.910157 3.648438-12.886719 5.835938-19.527344 7.769531-3.785156 1.101563-7.226563 1.980469-10.335938 1.765626-.964844-11.195313-2.011718-22.382813-2.796875-33.59375-.121093-1.722657-.171875-3.367188-.152343-4.984376 4.824218.296876 9.738281 2.105469 14.105468 3.859376 10.289063 4.140624 20.164063 8.992187 29.53125 13.929687-2.105468 4.261719-5.859375 8.183594-10.824218 11.253906zm-33.515626-55.488281c-2.402343 2.097656-4.480468 4.535156-6.027343 7.398438-3.09375 5.722656-3.59375 12.425781-3.398438 18.9375-6.976562-6.894532-13.941406-13.808594-20.878906-20.769532 26.882813-23.660156 54.121094-47.03125 81.632813-70.046875 11.902343 11.234375 24.535156 22.308594 37.917968 32.308594-.789062.210937-1.578125.414063-2.367187.613281-11.027344 2.765625-21.960938 5.914063-32.808594 9.304688-12.515625 3.910156-25.058594 8.265625-37.28125 12.949218-5.832031 2.234376-11.96875 5.089844-16.789063 9.304688zm-21.535156-151.78125c-21.316406-21.722656-42.613281-43.550781-63.832031-65.421875l73.113281-65.5625c20.914063 19.785156 40.539063 41.484375 59.59375 62.550781 1.730469 1.914063 3.46875 3.835938 5.207032 5.753906-24.703126 20.820313-49.402344 41.71875-74.082032 62.679688zm80.808594-55.269531c21.378906 23.480469 43.550781 46.964843 68.074219 67.691406-25.363281 20.15625-50.566407 40.667969-75.558594 61.480469-8.230469-7.960938-16.121094-15.917969-23.65625-23.523438-14.203125-14.339844-28.421875-28.761718-42.640625-43.230468 24.578125-20.871094 49.179688-41.683594 73.78125-62.417969zm-88.449219 61.757812c-26.925781 22.886719-53.804687 45.824219-80.585937 68.789063-20.21875-21.488282-40.210938-43.195313-59.914063-65.097656l76.855469-68.917969c21.15625 21.804687 42.390625 43.570312 63.644531 65.226562zm7.027344 7.152344c14.394531 14.648437 28.792969 29.253906 43.179687 43.777344 7.339844 7.410156 15.019532 15.15625 23.03125 22.921875-27.441406 22.964844-54.605468 46.289062-81.421874 69.894531-22.074219-22.257813-43.941407-44.828125-65.539063-67.671875 26.839844-23.007812 53.769531-45.992188 80.75-68.921875zm124.148437 102.9375c-.109374-.09375-.203124-.195313-.324218-.28125-15.074219-10.632813-29.273438-22.914063-42.601563-35.449219 25.183594-20.964844 50.59375-41.621094 76.15625-61.917968 4.671875 3.746093 9.425781 7.390624 14.285157 10.90625-3.648438 30.847656-12.753907 60.902343-27.609376 88.4375-1.542968-.402344-3.082031-.816407-4.609374-1.253907-5.132813-1.460937-10.234376-1.289062-15.296876-.441406zm48.640626-98.359375c-2.476563-1.863281-4.933594-3.75-7.359376-5.675781 2.648438-2.097657 5.304688-4.175781 7.960938-6.265625-.113281 3.988281-.3125 7.96875-.601562 11.941406zm1.144531-25.089844c-5.492188 4.296875-10.976563 8.617188-16.453125 12.949219-24.589844-20.578125-46.890625-44.171875-68.402344-67.792969 17.984375-15.144531 35.96875-30.25 53.925781-45.285156 8.519531 12.746094 15.269531 26.671875 20.195313 41.195312 4.472656 13.191407 7.886718 26.8125 9.589844 40.648438.742187 6.015625 1.289062 12.195312 1.144531 18.285156zm-91.585938-62.25c-1.816406-2.007812-3.632812-4.015625-5.441406-6.019531-19.011719-21.015625-38.585937-42.652344-59.546875-62.542969l38.445312-34.472656c.082032-.074219.144532-.160156.21875-.238281 29.066407 10.210937 55.339844 26.582031 75.675782 50.417969 1.894531 2.214843 3.71875 4.492187 5.480468 6.808593-18.257812 15.285157-36.542968 30.644531-54.832031 46.046875zm-72.339843-75.398437c-.746094-.683594-1.488282-1.367188-2.238282-2.046875-3.0625-2.761719-6.207031-5.527344-9.246094-8.203125-10.222656-8.992188-20.742187-18.253907-29.566406-28.667969 19.035156-1.800781 38.3125-1.03125 57.046875 2.464844 6.117188 1.144531 11.847657 2.980468 17.742188 4.667968.429687.121094.851562.261719 1.28125.386719zm-52.738282-37.472657c10.085938 13.117188 22.570313 24.105469 34.648438 34.730469 3.015625 2.65625 6.136718 5.402344 9.152344 8.121094.488281.441406.96875.890625 1.457031 1.332031l-72.71875 65.203125c-22.632813-23.355469-45.160157-46.753906-67.503907-70.101562 7.132813-5.066407 14.726563-9.824219 22.234376-14.121094 12.824218-7.351563 26.460937-13.28125 40.554687-17.730469 10.488281-3.3125 21.265625-5.789062 32.175781-7.433594zm-102.996094 45.355469c22.535157 23.554688 45.257813 47.152344 68.085938 70.714844l-76.558594 68.648437c-15.992187-17.867187-31.808594-35.84375-47.40625-53.925781-.476562-.550781-1.050781-.964843-1.667968-1.253906 8.339843-22.523437 20.710937-43.578125 36.417968-61.851563 6.65625-7.742187 13.25-15.773437 21.128906-22.332031zm-61.105468 94.675781c14.878906 17.21875 29.953125 34.34375 45.1875 51.363282l-49.679688 44.550781c-3.128906-14.941406-4.585937-30.25-4.101562-45.125.5625-17.257813 3.519531-34.34375 8.59375-50.789063zm-1.664063 106.8125 53.523438-47.996093c19.65625 21.847656 39.59375 43.503906 59.757812 64.941406-23.9375 20.539063-47.792969 41.085937-71.535156 61.613281-4.148437-4.699218-8.0625-9.5625-11.601563-14.464844-7.992187-11.066406-14.8125-22.976562-20.335937-35.457031-4.015625-9.082031-7.363281-18.664062-10-28.496093.0625-.050782.128906-.089844.191406-.140626zm120.144531 24.230469c21.628907 22.878907 43.527344 45.484375 65.628907 67.78125-16.195313 14.328125-32.265625 28.753907-48.179688 43.269531-.1875.171876-.339843.363282-.496093.554688-4.59375-1.132812-9.167969-2.421875-13.742188-3.910156-7.523438-2.453125-14.902344-5.367188-22.066406-8.730469-14.347656-6.734375-27.859375-15.269531-40.003906-25.457031-4.34375-3.644532-8.621094-7.632813-12.734376-11.839844 23.757813-20.546875 47.636719-41.113281 71.59375-61.667969zm72.6875 74.894531c9.738282 9.773438 19.519532 19.488282 29.335938 29.132813.304688 4.347656.601562 8.601563.601562 8.601563.085938 1.277343-23.132812 3.738281-25.34375 3.917968-8.796874.714844-17.652343.789063-26.460937.242188-7.453125-.460938-14.726563-1.351563-21.90625-2.636719 14.46875-13.164063 29.066406-26.253906 43.773437-39.257813zm93.863282 62.054688c-.832032-5.105469-2.929688-12.136719-8.113282-17.800781 2.117188-2.332031 3.867188-4.847657 5.210938-7.488281.460938.253906.933594.507812 1.394531.757812l.519531.285156c8.390626 4.589844 17.277344 9.453125 26.558594 13.179688-2.726562 11.113281-1.828125 22.945312 2.589844 33.519531.125.292969.289062.621094.472656.964844-3.792968-.601563-7.5-1.535157-10.828125-2.425781-5.839843-1.554688-11.632812-3.28125-17.378906-5.15625.351563-5.136719.449219-10.480469-.425781-15.835938zm42.449218 23.695312c-.246093-.121093-.5-.230468-.769531-.304687-1.140625-.542969-3.714843-3.414063-4.289062-4.792969-3.472657-8.3125-4.273438-17.578125-2.328125-26.351562 6.398437 1.882812 12.953125 3.035156 19.640625 3.035156 2.4375 0 4.894531-.152344 7.363281-.476562 10.925781-1.449219 20.898438-6.167969 31-11.296876 4.085938 4.738282 5.933594 11.367188 4.738281 17.527344-.121093.625-.105469 1.242188 0 1.832032-13.347656 6.832031-27.113281 13.601562-41.398437 17.832031-5.152344 1.527343-9.726563 2.503906-13.957032 2.996093zm59.667969-44.839843c8.410157-4.371094 16.789063-8.875 25.101563-13.488281 3.015625 4.925781 7.976562 7.753906 12.304687 9.726562 2.742188 1.25 5.59375 2.105469 8.441407 2.75-13.34375 6.414062-26.679688 13.019531-39.824219 19.734375.054687-6.667969-2.09375-13.339844-6.023438-18.722656zm21.050781-63.492188c6.644532 1.90625 13.875 4.042969 19.96875 7.84375l-29.941406 15.457031c-18.949218 9.777344-38.539062 19.890626-58.949218 26.65625-3.511719 1.164063-7.210938 2.265626-10.488282 1.847657-3.773437-.484375-7.402344-2.964844-11.308594-5.636719-21.082031-14.425781-45.925781-29.234375-73.492187-33.316406 1.804687-.957032 3.625-1.769532 5.359375-2.433594 12.027344-4.605469 24.367188-8.894531 36.683594-12.742188 10.855468-3.390624 21.949218-6.523437 32.976562-9.308593 1.480469-.375 2.957032-.777344 4.433594-1.179688 5.019531-1.371093 9.839844-2.6875 14.488281-2.6875 1.894531 0 3.765625.21875 5.609375.746094 10.71875 3.054687 21.773438 5.265625 32.460938 7.402344 10.65625 2.128906 21.671875 4.332031 32.199218 7.351562zm-393.8125 22.636719c-51.054687-56.371094-69.375-140.550781-46.667968-214.453125 10.988281-35.757813 31.574218-69.164063 59.542968-96.609375 27.785157-27.261719 61.574219-47.425781 97.71875-58.300781 59.007813-17.761719 123.414063-11.710938 176.699219 16.601562 53.902344 28.640625 94.960938 80.347657 109.832031 138.316407 7.410157 28.894531 8.382813 60.03125 2.804688 90.042968-5.613281 30.230469-17.792969 58.820313-35.214844 82.675782-.449218.613281-.71875 1.292968-.855468 1.988281-.09375-.019531-.1875-.039063-.28125-.054688-5.621094-1.125-11.339844-2.273437-17.03125-3.546875 19.59375-37.277344 29.496093-78.679687 29.425781-123.136718-.074219-47.933594-15.777344-92.691407-44.222657-126.023438-27.175781-31.851562-66.765624-53.988281-111.464843-62.332031-60.230469-11.246094-124.71875 4.289062-172.515625 41.550781-48.570313 37.863281-78.753906 96.835938-80.742188 157.75-.980468 30.019531 5.101563 60.804688 17.589844 89.03125 12.542969 28.355469 31.28125 53.503906 54.191406 72.71875 35.503906 29.78125 81.777344 45.988281 127.753906 45.984375 13.742188 0 27.464844-1.46875 40.859376-4.4375l1.105468 15.835937c-73.203125 18.847657-156.988281-6.695312-208.527344-63.601562zm424.386719 65.042969c-5.011719 6.859375-13.820312 10.71875-21.589843 14.125l-47.839844 20.96875c-9.753906 4.273437-19.839844 8.695312-30.214844 10.84375-28.824219 5.972656-59.675781-5.671875-84.46875-15.023438-7.289062-2.75-13.605469-5.425781-17.074219-10.308593-3.597656-5.074219-4.257812-11.949219-4.429687-18.710938 14.359375 7.3125 29.238281 13.609375 44.484375 18.828125.574219.335937 1.214843.5625 1.914062.648437 6.835938 2.292969 13.738281 4.382813 20.703125 6.242188 5.3125 1.414062 11.519532 2.957031 18.007813 3.328125 1.050781.058594 2.109375.085937 3.179687.085937 6.84375 0 14.191406-1.222656 22.835938-3.785156 16.75-4.960937 32.386718-12.996094 47.507812-20.769531l3.253906-1.671875c16.574219-8.5 33.496094-16.839844 50.347657-24.835938-.863281 7.382813-2.863281 14.898438-6.617188 20.035157zm0 0"/></svg>