<svg enable-background="new 0 0 682.7 682.7" viewBox="0 0 682.7 682.7" xmlns="http://www.w3.org/2000/svg"><g style="fill:none;stroke:#ef4425;stroke-width:20;stroke-linecap:round;stroke-linejoin:round;stroke-miterlimit:13.3333"><path d="m159 178.9c23.3 19.8 36.6 42.6 36.7 67 .1 74.3-123.2 94-275.4 93.8-98.3-.1-184.6-8.5-233.5-34.5" transform="translate(477.0034 215.9004)"/><path d="m92.5 61.3c8.8-.4 17.8-.6 26.9-.6 78.1.1 148.7 16.1 198.8 41.6" transform="translate(277.48 266.3203)"/><path d="m72.7 211.2c1.6 13.9 1.7 28.1.4 42.3-1.3 13.4-12.4 23.4-25.5 23.4-.8 0-1.7 0-2.5-.1-10.7-1.1-19.2-8.6-22.1-18.4" transform="translate(218.1001 202.0703)"/><path d="m99 60.2c12.8 19.6 23.9 43.5 29.3 71.7 3.6 18.6 4.5 37.8 2.7 57-1.3 13.4-12.4 23.4-25.5 23.4-.8 0-1.7 0-2.5-.1-14.1-1.4-24.5-14.1-23.1-28.4 1.4-14.2.7-28.4-1.9-42.1-4.5-23-14.1-42.2-25-57.7" transform="translate(297.1299 266.7695)"/><path d="m118.9 70.1c14.9 18.1 30.3 43.8 35.1 76.4 2 13.8 2.1 28 .1 42.1-2 14.2 7.8 27.3 21.8 29.4.8.1 1.7.2 2.5.2 13 .6 24.6-8.9 26.5-22.2 2.7-19.1 2.7-38.3-.1-57.1-2.9-19.7-8.6-37.4-15.8-53.1" transform="translate(356.5625 262.5273)"/><path d="m105.6-251.2c52.6 52.4-20.7 153.6-128.4 261.1-107.8 107.5-209.3 180.6-261.9 128.1-52.6-52.4-7.8-182.1 99.9-289.6s237.8-152.1 290.4-99.6z" transform="translate(316.7715 400.2412)"/><path d="m7.1 183.2c15.9 3.8 32.8 10.3 48.9 21.2 11.6 7.8 22 17.4 31.1 28.4s25.4 12.7 36.4 3.7c.7-.5 1.3-1.1 1.9-1.7 9.2-9.2 10.1-24.2 1.5-34.6-12.3-14.9-26.5-27.8-42.2-38.4-17.9-12.1-36.3-20.2-54-25.5" transform="translate(21.228 214.0723)"/><path d="m45.3-45.7c-16.9-8.5-33.8-13.9-49.8-17.3" transform="translate(136.0352 312.1387)"/><path d="m22.4 5.9c24.2.6 55.6 6.1 84.6 25.7 11.6 7.8 22 17.4 31.1 28.4s25.4 12.7 36.4 3.7c.7-.5 1.3-1.1 1.9-1.7 9.2-9.2 10.1-24.2 1.5-34.6-7.6-9.2-15.9-17.7-24.9-25.3" transform="translate(67.2539 290.0576)"/><path d="m47.9-167c23.4 2.3 52.4 9.6 78.8 29.2 11.2 8.3 21.2 18.3 29.8 29.7s24.8 13.8 36.2 5.4c.7-.5 1.3-1.1 2-1.6 9.7-8.8 11.2-23.7 3.1-34.4-11.6-15.4-25.2-29-40.4-40.3-16-11.9-32.5-20.3-48.7-26.4" transform="translate(143.6499 364.1484)"/></g></svg>