<svg enable-background="new 0 0 512 512" viewBox="0 0 512 512" xmlns="http://www.w3.org/2000/svg"><g fill="#ef4425"><path d="m439.8 379.1c-2.5 1.5-5.1 2.7-7.8 3.6v129.3c10.6-3 26.9-8.9 42-21.3 25.2-20.7 38-51.1 38-90.3v-94.3c-5.7 9.3-12.2 18.3-19.4 26.9-24 28.5-48.2 43.4-52.8 46.1z"/><path d="m357 385.4c0 9.4-2.2 18.2-6 26.1l51 17.8v-46.5l-45-15.7z"/><path d="m237 325.3-237-82.5v46.5l237 82.5z"/><path d="m297 445.4c-26.3 0-48.7-17.1-56.8-40.7l-240.2-83.7v39.3c0 6.4 4 12.1 10.1 14.2l391.9 136.5v-50l-72.5-25.3c-9.4 6.1-20.5 9.7-32.5 9.7z"/></g><path d="m172 125c0 35.8 29.2 65 65 65s65-29.2 65-65c0-31.1-21.9-57.1-51.1-63.5-4.2-24.8-19.8-46.3-42.9-57.8l-4.2-2.1c-7.4-3.7-16.4-.7-20.1 6.7s-.7 16.4 6.7 20.1l4.2 2.1c13 6.5 22.2 18.1 25.8 31.6-27.9 7.5-48.4 32.8-48.4 62.9z" fill="#020101"/><path d="m512 200.4c0-4.1-1-102-87.4-152.9-3.8-2.2-8.4-2.7-12.6-1.2-12.6 4.4-47.7 16.6-92.3 32.2 7.8 13.8 12.3 29.7 12.3 46.6 0 52.4-42.6 95-95 95-47.3 0-86.7-34.8-93.8-80.2-61.4 21.3-113.6 39.5-133.2 46.3-6 2.1-10 7.8-10 14.2s4 12.1 10.1 14.2l256.9 89.4v81.4c0 16.6 13.4 30 30 30s30-13.4 30-30v-60.5l85.1 29.6c1.6.6 3.3.8 4.9.8 2.6 0 5.3-.7 7.6-2.1 3.6-2 87.4-52.6 87.4-152.8zm-160 10c-8.3 0-15-6.7-15-15s6.7-15 15-15 15 6.7 15 15-6.7 15-15 15zm30 70c-8.3 0-15-6.7-15-15s6.7-15 15-15 15 6.7 15 15-6.7 15-15 15zm30-130c-8.3 0-15-6.7-15-15s6.7-15 15-15 15 6.7 15 15-6.7 15-15 15zm20 70c-8.3 0-15-6.7-15-15s6.7-15 15-15 15 6.7 15 15-6.7 15-15 15z" fill="#ef4425"/></svg>