<svg enable-background="new 0 0 512 512" viewBox="0 0 512 512" xmlns="http://www.w3.org/2000/svg"><path d="m431.2 200.1-32.5 155.8h-246.5l-32.5-155.8z" fill="#ea9f26"/><path d="m346.9 239-97.4 77.9v38.9h103.8l13-116.8z" fill="#2d85cc"/><path d="m398.8 355.8h-71.4l3.7-44.7 28.7 5.7z" fill="#eb423f"/><path d="m411.8 200.1h-64.9l19.5-38.9h26z" fill="#ffd33a"/><path d="m431.2 200.1-16.2 77.9h-3.2v-77.9z" fill="none"/><path d="m411.8 200.1v77.9h-45.4v-39h-19.5v-38.9z" fill="#ffd33a"/><path d="m411.8 278v-6.5l-45.5-32.5-6.5 38.9h-26l-6.5 77.9h71.4l16.3-77.8z" fill="#248256"/><path d="m372.8 135.2h13c7.2 0 13 5.8 13 13v13h-38.9v-13c-.1-7.2 5.8-13 12.9-13z" fill="#ea9f26"/><path d="m217.1 316.9v38.9h-64.9l-8.1-38.9z" fill="#996046"/><path d="m243 180.6v58.4h-116.8l-12.2-64.2.4-.7c4-6 10.7-9.6 17.9-9.5 1.4 0 2.9.1 4.3.4 0-.1 0-.3 0-.4 0-16.2 13.4-29.4 29.9-29.4 12.5-.1 23.8 7.7 28.1 19.5 5.7-10.4 18.7-14.1 29-8.4 6.7 3.7 10.9 10.7 11.1 18.4 0 4.8-1.6 9.4-4.7 13.1 1.5-.3 3.1-.5 4.7-.5z" fill="#35a872"/><path d="m230 109.2h103.8v90.9h-103.8z" fill="#c48669"/><path d="m230 109.2h77.9v90.9h-77.9z" fill="#d49073"/><path d="m282 141.7h-26c-3.6 0-6.5-2.9-6.5-6.5s2.9-6.5 6.5-6.5h26c3.6 0 6.5 2.9 6.5 6.5s-3 6.5-6.5 6.5z" fill="#996046"/><path d="m243 239h-32.5l6.5 38.9h-32.5l-32.5 38.9h-8l-24.3-116.8h123.3z" fill="#248256"/><path d="m411.8 414.3h-259.6c-14.3 0-25.9-11.6-26-26v-13c0-14.3 11.6-25.9 26-26h6.5c3.6 0 6.5 2.9 6.5 6.5s-2.9 6.5-6.5 6.5h-6.5c-7.2 0-13 5.8-13 13v13c0 7.2 5.8 13 13 13h259.6c3.6 0 6.5 2.9 6.5 6.5s-2.9 6.5-6.5 6.5z" fill="#d0d2d4"/><circle cx="178.1" cy="427.2" fill="#7e8589" r="26"/><circle cx="359.8" cy="427.2" fill="#7e8589" r="26"/><circle cx="178.1" cy="427.2" fill="#414649" r="6.5"/><circle cx="359.8" cy="427.2" fill="#414649" r="6.5"/><path d="m275.5 278-13-38.9h-19.5v-38.9h103.8v38.8l-45.4 39z" fill="#eb423f"/><path d="m436.3 196c-1.2-1.5-3.1-2.4-5-2.4h-310.7l-14.1-59.9c-.7-2.9-3.3-5-6.3-5h-45.4c-3.6 0-6.5 2.9-6.5 6.5s2.9 6.5 6.5 6.5h40.3l50.7 215.7c.7 2.9 3.3 5 6.3 5h246.6c3.1 0 5.7-2.2 6.4-5.2l32.5-155.8c.4-1.9-.1-3.9-1.3-5.4zm-122.2 10.6h51.3l-3.2 26h-49.2zm-77.3 0 1.1 26h-49.2l-3.2-26zm-113.1 0h48.7l3.2 26h-45.8zm9.2 38.9h44.4l3.2 26h-41.5zm9.1 39h40.1l3.2 26h-37.2zm15.3 64.9-6.1-26h35.8l3.2 26zm33-103.9h48.1l1.1 26h-45.9zm4.9 39h44.8l1.1 26h-42.7zm8.1 64.9-3.2-26h41.6l1.1 26zm91.9 0h-39.5l-1.1-26h41.6zm1.6-39h-42.7l-1.1-26h44.9zm1.7-38.9h-46l-1.1-26h48.1zm1.6-39h-49.2l-1.1-26h51.4zm47.5 116.9h-39.4l1.1-26h41.6zm4.9-39h-42.7l1.1-26h44.8zm4.9-38.9h-45.9l1.1-26h48.1zm36.1 77.9h-32.8l3.2-26h35zm8.1-39h-36.1l3.2-26h38.3zm8.1-38.9h-39.3l3.2-26h41.5zm8.2-39h-42.5l3.2-26h44.7z" fill="#d0d2d4"/></svg>