<svg enable-background="new 0 0 317 200" viewBox="0 0 317 200" xmlns="http://www.w3.org/2000/svg"><g style="fill:none;stroke:#ef4425;stroke-width:4.9041;stroke-linecap:round;stroke-linejoin:round;stroke-miterlimit:13.3333"><path d="m-206.8 242.3v-33.6c0-4.1-3.3-7.5-7.5-7.5h-54.1c-4.1 0-7.5 3.3-7.5 7.5v107.1c0 4.1 3.3 7.5 7.5 7.5h54.1c4.1 0 7.5-3.3 7.5-7.5v-11.4" transform="matrix(1.3333333 0 0 -1.3333333 464.3319883917 449.56054249432)"/><path d="m-180.4 48v7.5c0 1.6-1.3 2.9-2.9 2.9h-5.7c-1 0-2-.5-2.5-1.4l-2-3.4c-.5-.9-1.5-1.4-2.5-1.4h-10.4-10.4c-1 0-2 .5-2.5 1.4l-2 3.4c-.5.9-1.5 1.4-2.5 1.4h-5.7c-1.6 0-2.9-1.3-2.9-2.9v-60.9" transform="matrix(1.3333333 0 0 -1.3333333 417.72718955682 106.38215107378)"/><path d="m-20.6 238.7v-31.9c0-1.6 1.3-2.9 2.9-2.9h23 23c1.6 0 2.9 1.3 2.9 2.9v29.8" transform="matrix(1.3333333 0 0 -1.3333333 135.58066327715 443.23507598579)"/><path d="m-82.4 16.1h11.8" transform="matrix(1.3333333 0 0 -1.3333333 244.67706054974 50.01761914956)"/><path d="m-240.5 67.8c-5.4 4-12.1 6.4-19.3 6.4-17.5 0-31.9-14.3-32.1-31.8 0-5.7 1.4-11 3.9-15.7.3-.5.4-1.1.4-1.7l-.5-8.8c-.1-1.9 1.4-3.6 3.4-3.6h11.5c.4 0 .8-.1 1.2-.2 4-1.6 8.3-2.5 12.9-2.4 17.3.4 31.3 14.6 31.3 32 0 7.5-2.5 14.4-6.7 19.8" transform="matrix(1.3333333 0 0 -1.3333333 524.03118689922 141.40561686486)"/><path d="m-48 267.1h34.1" transform="matrix(1.3333333 0 0 -1.3333333 183.93492873496 493.42454139772)"/><path d="m-48 290.6h34.1" transform="matrix(1.3333333 0 0 -1.3333333 183.93492873496 534.85414036198)"/><path d="m-48 314h34.1" transform="matrix(1.3333333 0 0 -1.3333333 183.93492873496 576.28453932622)"/><path d="m-180.4 71.8c-13-.1-23.7-10.6-24.1-23.6-.1-4.5 1-8.8 3-12.5.2-.4.3-.8.3-1.3l-.4-8.3c0-.6.5-1.1 1.1-1.1h10.4c.3 0 .6-.1.9-.2 3-1.2 6.3-1.9 9.8-1.8 13.1.3 23.7 11.1 23.8 24.2-.1 13.6-11.2 24.7-24.8 24.6z" transform="matrix(1.3333333 0 0 -1.3333333 417.81705622124 148.35548335778)"/><path d="m-168.9 112.4c-1.7 2.2-3.9 3.9-6.6 1.9-1.5-1.1-2.6-2.9-3-4.7-1-3.9-.1-7.9 2-11.3 2.5-4.2 6.6-7.8 11.1-9.9 4.9-2.2 9.5-1.3 13.2 2.6 1.6 1.6 2.2 4.3 0 5.8-1.8 1.2-4.5 3.1-6.6 1.5-1.4-1.1-1.8-2.8-3.8-3.1-3.4-.5-7.5 4.6-8.1 7.5-.2.9 0 1.7.5 2.5s1.2 1.1 1.8 1.7c1.5 1.4.9 3.7-.5 5.5z" transform="matrix(1.3333333 0 0 -1.3333333 397.51372339549 220.16014822933)"/></g></svg>