<svg enable-background="new 0 0 682.7 682.7" viewBox="0 0 682.7 682.7" xmlns="http://www.w3.org/2000/svg"><g style="fill:none;stroke:#ef4425;stroke-width:20;stroke-linecap:round;stroke-linejoin:round;stroke-miterlimit:13.3333"><path d="m2.5 664h662.7" transform="translate(7.5 8.0002)"/><path d="m119.6 71.1v34.2" transform="translate(358.7939 262.0964)"/><path d="m78.5-113.1v-55.4c0-3.1 2.5-5.6 5.6-5.6h153.3c3.1 0 5.6 2.5 5.6 5.6v120.7" transform="translate(235.3633 341.0402)"/><path d="m114.7-229.8v-33.1c0-3.4-2.8-6.2-6.2-6.2h-113c-3.4 0-6.2 2.8-6.2 6.2v32.6" transform="translate(344.0928 391.0485)"/><path d="m90.6-307.3v-20.6c0-8.7 7-15.7 15.7-15.7h35.7c8.7 0 15.7 7 15.7 15.7v20.6" transform="translate(271.8906 424.2853)"/><path d="m46 82.9v-70.7c0-4.1 2.8-7.7 6.8-8.7l146.7-35.7c5.6-1.4 11 2.9 11 8.7v437" transform="translate(138.1172 257.05)"/><path d="m148.6 661.7v-265.4c0-5.7-3.9-10.7-9.4-12l-139.9-34c-7.8-1.9-15.3 4-15.3 12v299.4" transform="translate(445.6963 9.0002)"/><path d="m46.8 35.8 158.4-39.6" transform="translate(140.3232 277.235)"/><path d="m57 108.6 117.7-29.4" transform="translate(170.875 246.0105)"/><path d="m57.6 198.1 114.9-28.7" transform="translate(172.9463 207.6604)"/><path d="m57 290 117.7-29.4" transform="translate(170.875 168.2741)"/><path d="m57 380.7 117.7-29.4" transform="translate(170.875 129.406)"/><path d="m57 471.4 117.6-29.4" transform="translate(170.875 90.5373)"/><path d="m57.6 557.5 114.9-29.3" transform="translate(172.9463 53.6301)"/><path d="m57 644.1 117.7-29.4" transform="translate(170.875 16.5295)"/><path d="m99-375.6v-67.5" transform="translate(297.0781 453.5461)"/><path d="m15.8 222.3v-59.6c0-8.6 7-15.6 15.6-15.6h133.3c8.6 0 15.6 7 15.6 15.6v310.7" transform="translate(47.4443 197.3064)"/><path d="m15.8 661.7v-211.1" transform="translate(47.4443 9.0002)"/><path d="m26.1 159.9v17.5" transform="translate(78.2998 224.0397)"/><path d="m36.4 159.9v17.5" transform="translate(109.1602 224.0397)"/><path d="m46.7 159.9v17.5" transform="translate(140.0195 224.0397)"/><path d="m117.6 234.7v9.6" transform="translate(352.7168 191.9758)"/><path d="m127.9 234.7v9.6" transform="translate(383.5771 191.9758)"/><path d="m137.8 234.7v9.6" transform="translate(413.3848 191.9758)"/><path d="m117.6 318.7v9.6" transform="translate(352.7168 155.9646)"/><path d="m127.9 318.7v9.6" transform="translate(383.5771 155.9646)"/><path d="m137.8 318.7v9.6" transform="translate(413.3848 155.9646)"/><path d="m117.6 402.8v9.6" transform="translate(352.7168 119.9533)"/><path d="m127.9 402.8v9.6" transform="translate(383.5771 119.9533)"/><path d="m137.8 402.8v9.6" transform="translate(413.3848 119.9533)"/><path d="m117.6 486.8v9.6" transform="translate(352.7168 83.9421)"/><path d="m127.9 486.8v9.6" transform="translate(383.5771 83.9421)"/><path d="m137.8 486.8v9.6" transform="translate(413.3848 83.9421)"/><path d="m117.6 570.8v9.6" transform="translate(352.7168 47.9309)"/><path d="m127.9 570.8v9.6" transform="translate(383.5771 47.9309)"/><path d="m137.8 570.8v9.6" transform="translate(413.3848 47.9309)"/><path d="m26.1 261.6v17.5" transform="translate(78.2998 180.4445)"/><path d="m36.4 261.6v17.5" transform="translate(109.1602 180.4445)"/><path d="m46.7 261.6v17.5" transform="translate(140.0195 180.4445)"/><path d="m26.1 363.4v17.5" transform="translate(78.2998 136.8488)"/><path d="m36.4 363.4v17.5" transform="translate(109.1602 136.8488)"/><path d="m46.7 363.4v17.5" transform="translate(140.0195 136.8488)"/><path d="m26.1 465.1v17.5" transform="translate(78.2998 93.2536)"/><path d="m36.4 465.1v17.5" transform="translate(109.1602 93.2536)"/><path d="m46.7 465.1v17.5" transform="translate(140.0195 93.2536)"/><path d="m26.1 566.8v17.5" transform="translate(78.2998 49.6584)"/><path d="m36.4 566.8v17.5" transform="translate(109.1602 49.6584)"/><path d="m46.7 566.8v17.5" transform="translate(140.0195 49.6584)"/><path d="m107.4 133.1v-196.6" transform="translate(322.2656 235.5158)"/><path d="m97.3 661.7v-498.6" transform="translate(291.9072 9.0002)"/></g></svg>