<svg enable-background="new 0 0 60 60" viewBox="0 0 60 60" xmlns="http://www.w3.org/2000/svg"><path d="m41.1 2.2h-22.2c-9.2 0-16.7 7.5-16.7 16.7v13c0 8.9 7 16.2 15.8 16.7v7.7c0 .9.7 1.6 1.6 1.6.4 0 .8-.2 1.1-.5l1.7-1.7c4.6-4.6 10.6-7.1 17.1-7.1h1.7c9.2 0 16.7-7.5 16.7-16.7v-13c-.1-9.2-7.6-16.7-16.8-16.7zm-23.1 26.9c-2 0-3.7-1.7-3.7-3.7s1.7-3.7 3.7-3.7 3.7 1.7 3.7 3.7-1.7 3.7-3.7 3.7zm12 0c-2 0-3.7-1.7-3.7-3.7s1.7-3.7 3.7-3.7 3.7 1.7 3.7 3.7-1.6 3.7-3.7 3.7zm12.1 0c-2 0-3.7-1.7-3.7-3.7s1.7-3.7 3.7-3.7 3.7 1.7 3.7 3.7-1.7 3.7-3.7 3.7z" fill="none" stroke="#ff3e16" stroke-miterlimit="10" stroke-width=".927"/></svg>