<svg enable-background="new 0 0 512 512" viewBox="0 0 512 512" xmlns="http://www.w3.org/2000/svg"><circle cx="256.5" cy="256.5" r="256.5"/><g fill="#ef4425"><path d="m394.3 94.1h-146.4c-13.1 0-23.6 10.6-23.6 23.6v94.8c0 13.1 10.6 23.6 23.6 23.6h15.1v32.3c0 2.3 1.3 4.4 3.3 5.6 1 .6 2.1.8 3.1.8 1.1 0 2.3-.3 3.3-.9l63-37.9h58.5c13.1 0 23.6-10.6 23.6-23.6v-94.8c.2-12.9-10.4-23.5-23.5-23.5zm10.8 118.4c0 5.9-4.8 10.7-10.7 10.7h-60.3c-1.1 0-2.3.3-3.3.9l-54.8 32.9v-27.4c0-3.6-2.9-6.5-6.5-6.5h-21.5c-5.9 0-10.7-4.8-10.7-10.7v-94.8c0-5.9 4.8-10.7 10.7-10.7h146.5c5.9 0 10.7 4.8 10.7 10.7z"/><path d="m347.5 337.3c-11.5-11.5-30.2-11.5-41.6 0l-10.3 10.4c-13.2 13.2-33.5 15.7-49.5 6.1-36-21.6-66.1-51.7-87.7-87.7-9.6-15.9-7.1-36.3 6.1-49.4l10.4-10.3c11.5-11.5 11.5-30.2 0-41.6l-37.7-37.8c-11.5-11.5-30.2-11.5-41.6 0l-21.9 22c-21.4 21.2-28.8 52.8-19.2 81.4 36.1 107.2 120.2 191.3 227.4 227.3 8.2 2.7 16.7 4.1 25.3 4.1 21.1 0 41.2-8.4 56-23.3l22-22c11.5-11.5 11.5-30.2 0-41.6zm28.4 70.1-22 22c-17.8 17.9-44.2 24.1-68.1 16.1-103.3-34.8-184.4-115.9-219-219.2-8.1-23.9-1.9-50.4 16-68.1l21.9-22c6.5-6.5 16.9-6.5 23.4 0l37.6 37.6c6.5 6.5 6.5 16.9 0 23.4l-10.4 10.3c-17.4 17.3-20.7 44.2-8.1 65.2 22.8 37.8 54.4 69.4 92.2 92.2 21 12.6 47.9 9.3 65.2-8.1l10.3-10.4c6.5-6.5 16.9-6.5 23.4 0l37.6 37.6c6.5 6.4 6.5 16.9 0 23.4z"/><path d="m372.8 132.8h-103.3c-3.6 0-6.5 2.9-6.5 6.5s2.9 6.5 6.5 6.5h103.3c3.6 0 6.5-2.9 6.5-6.5-.1-3.5-3-6.5-6.5-6.5z"/><path d="m321.1 171.6h-51.7c-3.6 0-6.5 2.9-6.5 6.5s2.9 6.5 6.5 6.5h51.7c3.6 0 6.5-2.9 6.5-6.5s-2.9-6.5-6.5-6.5z"/></g></svg>