<svg enable-background="new 0 0 512 512" viewBox="0 0 512 512" xmlns="http://www.w3.org/2000/svg"><g fill="#ef4425"><path d="m458.7 24h-181.4c-16.2 0-29.3 13.1-29.3 29.3v117.4c0 16.2 13.1 29.3 29.3 29.3h18.7v40c0 2.9 1.6 5.5 4.1 7 1.2.7 2.6 1 3.9 1 1.4 0 2.9-.4 4.1-1.1l78.1-46.9h72.5c16.2 0 29.3-13.1 29.3-29.3v-117.4c0-16.2-13.1-29.3-29.3-29.3zm13.3 146.7c0 7.3-5.9 13.3-13.3 13.3h-74.7c-1.4 0-2.9.4-4.1 1.1l-67.9 40.8v-33.9c0-4.4-3.6-8-8-8h-26.7c-7.3 0-13.3-6-13.3-13.3v-117.4c0-7.3 5.9-13.3 13.3-13.3h181.5c7.3 0 13.3 6 13.3 13.3z"/><path d="m400.7 325.3c-14.3-14.2-37.4-14.2-51.6 0l-12.8 12.9c-16.3 16.3-41.5 19.4-61.3 7.5-44.6-26.8-81.9-64.1-108.7-108.7-11.9-19.7-8.8-45 7.5-61.2l12.9-12.8c14.2-14.3 14.2-37.4 0-51.6l-46.6-46.6c-14.3-14.2-37.4-14.2-51.6 0l-27.1 27.3c-26.5 26.3-35.7 65.4-23.8 100.8 44.7 132.8 148.9 237 281.7 281.6 10.1 3.4 20.7 5.1 31.4 5.1 26.1 0 51.1-10.4 69.4-28.9l27.2-27.2c14.2-14.3 14.2-37.4 0-51.6zm35.2 86.9-27.2 27.2c-22 22.2-54.8 29.9-84.4 19.9-128-43.1-228.5-143.6-271.4-271.6-10-29.6-2.3-62.4 19.8-84.4l27.1-27.3c8-8 21-8 29 0l46.6 46.6c8 8 8 21 0 29l-12.9 12.8c-21.5 21.4-25.6 54.8-10 80.8 28.2 46.8 67.4 86 114.2 114.2 26 15.6 59.4 11.5 80.8-10l12.8-12.9c8-8 21-8 29 0l46.6 46.6c8 8 8 21 0 29z"/><path d="m432 72h-128c-4.4 0-8 3.6-8 8s3.6 8 8 8h128c4.4 0 8-3.6 8-8s-3.6-8-8-8z"/><path d="m368 120h-64c-4.4 0-8 3.6-8 8s3.6 8 8 8h64c4.4 0 8-3.6 8-8s-3.6-8-8-8z"/></g></svg>