<svg enable-background="new 0 0 512 512" viewBox="0 0 512 512" xmlns="http://www.w3.org/2000/svg"><g fill="#c8effe"><path d="m144.6 252.8c-2.2 0-4.4-1.2-5.5-3.3-1.6-3-.5-6.8 2.6-8.5l65.2-34.9 64.8-40.5s.1 0 .1-.1l55.4-33.1c3-1.8 6.8-.8 8.6 2.2s.8 6.8-2.2 8.6l-55.4 33.1-65 40.6c-.1.1-.2.1-.4.2l-65.4 35c-.8.5-1.8.7-2.8.7z"/><path d="m330.4 410.9c-1.1 0-2.2-.3-3.2-.9l-60.1-36.3h-.1l-60.4-37.8c-.1-.1-.2-.1-.2-.2l-55.9-38.7c-2.8-2-3.6-5.9-1.6-8.7s5.9-3.6 8.7-1.6l55.8 38.6 60.2 37.7 60 36.3c3 1.8 3.9 5.6 2.1 8.6-1.1 1.9-3.2 3-5.3 3z"/><path d="m349.9 138.9c-3.5 0-6.3 2.8-6.3 6.3v225.7c0 3.5 2.8 6.3 6.3 6.3s6.3-2.8 6.3-6.3v-225.7c0-3.5-2.8-6.3-6.3-6.3z"/></g><path d="m122.1 164.8c-58.4 0-105.8 47.4-105.8 105.8 0 39.4 21.5 73.7 53.4 92l7.2-3.9 90.7-1.3 6.9 5.3c32-18.2 53.5-52.6 53.5-92 0-58.5-47.4-105.9-105.9-105.9z" fill="#98bce5"/><path d="m88.8 332.8c-12.7-17.4-20.2-38.9-20.2-62.1 0-49.4 33.9-90.9 79.7-102.6-8.4-2.1-17.1-3.3-26.2-3.3-58.4 0-105.8 47.4-105.8 105.8 0 39.4 21.5 73.7 53.4 92z" fill="#7bacdf"/><circle cx="122.1" cy="270.6" fill="#5f99d7" r="80.8"/><path d="m103.7 191.9c-35.7 8.4-62.4 40.5-62.4 78.7s26.7 70.3 62.4 78.7c-21.5-19.4-35.1-47.5-35.1-78.7s13.6-59.3 35.1-78.7z" fill="#3c87d0"/><path d="m174.1 338c0-5.8-2.6-11.4-7.1-15.1l-29.7-24.7-6.2-6.3h-17.9l-6.3 6.3-29.7 24.7c-4.5 3.7-7.1 9.3-7.1 15.1l-.4 24.6c15.5 8.8 33.4 13.9 52.4 13.9s36.9-5 52.3-13.8z" fill="#ade194"/><path d="m141.6 301.8-4.3-3.6-6.2-6.3h-17.9l-6.3 6.3-29.7 24.7c-4.5 3.7-7.1 9.3-7.1 15.1l-.4 24.6c6.3 3.6 13 6.5 20 8.8l.3-23.5c0-5.8 2.6-11.4 7.1-15.1l7.9-6.5c3.4-2.8 7.8-4.1 12-3.3 1.6.3 3.3.5 5.1.5 7.4 0 14.4-2.9 19.6-8.1 2.5-2.5 4.5-5.4 5.8-8.6z" fill="#97da7b"/><path d="m137.3 270.6v25.1c0 .8-.1 1.7-.2 2.5-.5 3.2-2.1 6.1-4.3 8.3-2.7 2.8-6.5 4.5-10.7 4.5-7.6 0-13.8-5.5-15-12.7-.1-.8-.2-1.6-.2-2.5v-25.2l.3-.7c4.5 2.1 9.6 3.3 15 3.3 5.3 0 10.3-1.2 14.8-3.2z" fill="#fed2a4"/><path d="m143.2 197.1h-40.2l-12.5-4.1c-1.8-.6-3.7.8-3.7 2.7v34.6l12 12.9h52.2l6.6-12.9v-18.8c-.1-8-6.5-14.4-14.4-14.4z" fill="#a79ba7"/><path d="m106.9 211.7c0-1.9 1.9-3.3 3.7-2.7l12.5 4.1h34.5v-1.7c0-7.9-6.4-14.3-14.3-14.3h-40.3l-12.5-4.1c-1.8-.6-3.7.8-3.7 2.7v34.6l12 12.9h8.1z" fill="#918291"/><path d="m157.5 230.3v22.5c0 14.2-8.4 26.5-20.6 32.1-4.5 2.1-9.5 3.2-14.8 3.2-5.4 0-10.4-1.2-15-3.3-12-5.6-20.4-17.9-20.4-32v-22.5z" fill="#fed2a4"/><path d="m127.2 284.8c-12-5.6-20.4-17.9-20.4-32v-22.5h-20v22.5c0 14.2 8.3 26.4 20.4 32 4.5 2.1 9.6 3.3 15 3.3 3.5 0 6.9-.5 10-1.5-1.7-.4-3.4-1.1-5-1.8z" fill="#ffbd86"/><path d="m349.9 59c-44.8 0-81 36.3-81 81 0 27 13.2 50.9 33.4 65.6l7.1-6.7 79.9 1.2 8.2 5.5c20.3-14.7 33.5-38.6 33.5-65.6 0-44.7-36.3-81-81.1-81z" fill="#98bce5"/><path d="m324.9 178.9c-6.3-11.5-9.9-24.7-9.9-38.8 0-36.7 24.4-67.8 58-77.7-7.3-2.2-15.1-3.3-23.1-3.3-44.8 0-81 36.3-81 81 0 27 13.2 50.9 33.4 65.6z" fill="#7bacdf"/><path d="m349.9 196.1c-30.9 0-56-25.1-56-56s25.1-56 56-56 56 25.1 56 56c.1 30.9-25.1 56-56 56z" fill="#5f99d7"/><path d="m335.9 194.3c-12.9-14.4-20.8-33.4-20.8-54.2 0-20.9 7.9-39.9 20.8-54.2-24.1 6.3-42 28.2-42 54.2s17.9 47.9 42 54.2z" fill="#3c87d0"/><path d="m349.9 153.8c26.3 0 47.5 21.3 47.5 47.5v4.3c-13.5 10-29.5 15.4-47.6 15.4s-34.1-5.4-47.6-15.4l.1-4.3c0-13.1 5.3-25 13.9-33.6 8.7-8.5 20.6-13.9 33.7-13.9z" fill="#f37c7c"/><path d="m349.9 84c19.3 0 34.9 15.6 34.9 34.9s-15.6 34.9-34.9 34.9-34.9-15.6-34.9-34.9c.1-19.2 15.7-34.9 34.9-34.9z" fill="#ffe5c2"/><path d="m321 213.6c0-13.1 5.3-25 13.9-33.6s20.5-13.9 33.6-13.9c5.6 0 11 1 16 2.8-8.7-9.2-21-15-34.7-15-13.1 0-25 5.3-33.6 13.9s-13.9 20.5-13.9 33.6l-.1 4.3c5.8 4.3 12 7.7 18.6 10.3z" fill="#ee6161"/><path d="m339.3 118c0-14.5 8.9-27 21.5-32.2-3.4-1.1-7.1-1.7-10.9-1.7-19.3 0-34.9 15.6-34.9 34.9s15.6 34.9 34.9 34.9c4.7 0 9.3-1 13.4-2.7-13.9-4.6-24-17.7-24-33.2z" fill="#fed2a4"/><path d="m350 310.9c-44.8 0-81 36.3-81 81 0 27 13.2 50.9 33.5 65.6l7.7-3.3 82.5 1.7 4.8 1.6c20.3-14.7 33.5-38.6 33.5-65.6 0-44.7-36.3-81-81-81z" fill="#98bce5"/><path d="m323.1 430.9c-6.3-11.6-10-24.8-10-38.9 0-37.1 24.9-68.4 58.9-78-7-2-14.5-3.1-22.1-3.1-44.8 0-81 36.3-81 81 0 27 13.2 50.9 33.5 65.6z" fill="#7bacdf"/><path d="m349.9 448c-30.9 0-56-25.1-56-56s25.1-56 56-56 56 25.1 56 56-25.1 56-56 56z" fill="#5f99d7"/><path d="m333.4 445.5c-12.6-14.3-20.2-33-20.2-53.5s7.6-39.2 20.2-53.5c-22.8 7.1-39.4 28.4-39.4 53.5-.1 25.1 16.6 46.4 39.4 53.5z" fill="#3c87d0"/><circle cx="349.9" cy="370.8" fill="#ffe5c2" r="34.9"/><path d="m336.5 370.8c0-15.5 10.2-28.7 24.2-33.2-3.4-1.1-7-1.7-10.7-1.7-19.3 0-34.9 15.6-34.9 34.9s15.6 34.9 34.9 34.9c3.7 0 7.4-.6 10.7-1.7-14.1-4.5-24.2-17.7-24.2-33.2z" fill="#fed2a4"/><path d="m397.5 457.6c-13.3 9.7-29.8 15.4-47.5 15.4s-34.2-5.7-47.5-15.4v-4.3c0-13.1 5.3-25 13.9-33.6s20.5-13.9 33.6-13.9c26.3 0 47.5 21.3 47.5 47.5z" fill="#fee97d"/><path d="m320.5 465.1c0-13.1 5.3-25 13.9-33.6s20.5-13.9 33.6-13.9c5.7 0 11.2 1 16.3 2.8-8.7-9-20.9-14.7-34.4-14.7-13.1 0-25 5.3-33.6 13.9s-13.9 20.5-13.9 33.6v4.3c5.5 4 11.6 7.4 18.1 9.9z" fill="#fee45a"/></svg>