<svg enable-background="new 0 0 512 512" viewBox="0 0 512 512" xmlns="http://www.w3.org/2000/svg"><g fill="#ef4425"><path d="m202 239.3c-4.1 0-7.5 3.4-7.5 7.5v13.8c0 4.1 3.4 7.5 7.5 7.5s7.5-3.4 7.5-7.5v-13.8c0-4.1-3.4-7.5-7.5-7.5z"/><path d="m238 239.3c-4.1 0-7.5 3.4-7.5 7.5v13.8c0 4.1 3.4 7.5 7.5 7.5s7.5-3.4 7.5-7.5v-13.8c0-4.1-3.4-7.5-7.5-7.5z"/><path d="m310 239.3c-4.1 0-7.5 3.4-7.5 7.5v13.8c0 4.1 3.4 7.5 7.5 7.5s7.5-3.4 7.5-7.5v-13.8c0-4.1-3.4-7.5-7.5-7.5z"/><path d="m274 239.3c-4.1 0-7.5 3.4-7.5 7.5v13.8c0 4.1 3.4 7.5 7.5 7.5s7.5-3.4 7.5-7.5v-13.8c0-4.1-3.4-7.5-7.5-7.5z"/><path d="m456.4 396h-18.8c-4.1 0-7.5 3.4-7.5 7.5s3.4 7.5 7.5 7.5h18.8c4.1 0 7.5-3.4 7.5-7.5s-3.4-7.5-7.5-7.5z"/><path d="m456.4 432h-18.8c-4.1 0-7.5 3.4-7.5 7.5s3.4 7.5 7.5 7.5h18.8c4.1 0 7.5-3.4 7.5-7.5s-3.4-7.5-7.5-7.5z"/><path d="m75.5 396h-18.8c-4.1 0-7.5 3.4-7.5 7.5s3.4 7.5 7.5 7.5h18.8c4.1 0 7.5-3.4 7.5-7.5s-3.4-7.5-7.5-7.5z"/><path d="m75.5 432h-18.8c-4.1 0-7.5 3.4-7.5 7.5s3.4 7.5 7.5 7.5h18.8c4.1 0 7.5-3.4 7.5-7.5s-3.4-7.5-7.5-7.5z"/><path d="m220 336.4c-4.1 0-7.5 3.4-7.5 7.5v104.3c0 4.1 3.4 7.5 7.5 7.5s7.5-3.4 7.5-7.5v-104.3c0-4.1-3.4-7.5-7.5-7.5z"/><path d="m184 336.4c-4.1 0-7.5 3.4-7.5 7.5v104.3c0 4.1 3.4 7.5 7.5 7.5s7.5-3.4 7.5-7.5v-104.3c0-4.1-3.4-7.5-7.5-7.5z"/><path d="m148 336.4c-4.1 0-7.5 3.4-7.5 7.5v104.3c0 4.1 3.4 7.5 7.5 7.5s7.5-3.4 7.5-7.5v-104.3c0-4.1-3.4-7.5-7.5-7.5z"/><path d="m364 336.4c-4.1 0-7.5 3.4-7.5 7.5v104.3c0 4.1 3.4 7.5 7.5 7.5s7.5-3.4 7.5-7.5v-104.3c0-4.1-3.4-7.5-7.5-7.5z"/><path d="m328 336.4c-4.1 0-7.5 3.4-7.5 7.5v104.3c0 4.1 3.4 7.5 7.5 7.5s7.5-3.4 7.5-7.5v-104.3c0-4.1-3.4-7.5-7.5-7.5z"/><path d="m292 336.4c-4.1 0-7.5 3.4-7.5 7.5v104.3c0 4.1 3.4 7.5 7.5 7.5s7.5-3.4 7.5-7.5v-104.3c0-4.1-3.4-7.5-7.5-7.5z"/><path d="m256 336.4c-4.1 0-7.5 3.4-7.5 7.5v104.3c0 4.1 3.4 7.5 7.5 7.5s7.5-3.4 7.5-7.5v-104.3c0-4.1-3.4-7.5-7.5-7.5z"/><path d="m491.1 467.5v-91.8c11.7-.7 20.9-10.4 20.9-22.2 0-12.3-10-22.3-22.3-22.3h-73.9v-9.9c11-1.4 19.5-10.8 19.5-22.1 0-12.3-10-22.3-22.3-22.3h-53v-46.9c10.6-1.8 18.6-10.9 18.6-22s-8.2-20.4-18.9-22c-1.3-18.2-7.2-35.7-17.5-50.9-2.3-3.4-7-4.3-10.4-2s-4.3 7-2 10.4c8.5 12.6 13.6 27.1 14.9 42.3h-177.4c5.7-68.3 83.6-104.5 139.5-65.7 3.4 2.4 8.1 1.5 10.4-1.9s1.5-8.1-1.9-10.4c-15.4-10.7-33.2-17-51.8-18.3v-12.5h46.1c10.8 0 19.5-8.7 19.5-19.5v-26.1c0-10.8-8.7-19.5-19.5-19.5h-46.1v-4.4c0-4.1-3.4-7.5-7.5-7.5s-7.5 3.4-7.5 7.5v81.9c-51.5 3.7-92.7 45-96.3 96.5-10.7 1.6-18.9 10.9-18.9 22 0 11 8.1 20.2 18.6 22v46.9h-52.9c-12.3 0-22.3 10-22.3 22.3 0 11.3 8.5 20.7 19.5 22.1v9.9h-21.4c-4.1 0-7.5 3.4-7.5 7.5s3.4 7.5 7.5 7.5h21.4v14.6c-21.7 0-49.7 0-73.9 0-4 0-7.3-3.3-7.3-7.3s3.3-7.3 7.3-7.3h17.6c4.1 0 7.5-3.4 7.5-7.5s-3.4-7.5-7.5-7.5h-17.6c-12.3 0-22.3 10-22.3 22.3 0 11.8 9.3 21.5 20.9 22.2v91.8c-11.6.8-20.9 10.5-20.9 22.3 0 12.3 10 22.3 22.3 22.3h368.5c4.1 0 7.5-3.4 7.5-7.5s-3.4-7.5-7.5-7.5h-368.5c-4 0-7.3-3.3-7.3-7.3s3.3-7.3 7.3-7.3h467.4c4 0 7.3 3.3 7.3 7.3s-3.3 7.3-7.3 7.3h-63.9c-4.1 0-7.5 3.4-7.5 7.5s3.4 7.5 7.5 7.5h63.9c12.3 0 22.3-10 22.3-22.3 0-11.8-9.3-21.5-20.9-22.2zm-227.6-440.6h46.1c2.4 0 4.5 2.1 4.5 4.5v26.1c0 2.4-2.1 4.5-4.5 4.5h-46.1zm-167.3 440.5h-60.3v-91.7h60.3zm52.1-259.5c0-4 3.3-7.3 7.3-7.3h196.9 3.8c4 0 7.3 3.3 7.3 7.3s-3.3 7.3-7.3 7.3c-10.5 0-186.3 0-196.9 0h-3.8c-4 0-7.3-3.3-7.3-7.3zm196.7 22.3v46.6h-178v-46.6zm55.8 237.2h-289.6c0-15.3 0-129.8 0-146h289.5c.1 17 .1 129.3.1 146zm-301.8-161c-4 0-7.3-3.3-7.3-7.3s3.3-7.3 7.3-7.3h313.9c4 0 7.3 3.3 7.3 7.3s-3.3 7.3-7.3 7.3c-14.8 0-299 0-313.9 0zm377.1 161h-60.3v-91.7h60.3zm-60.3-106.7v-14.6h73.9c4 0 7.3 3.3 7.3 7.3s-3.3 7.3-7.3 7.3c-24.2 0-52.2 0-73.9 0z"/></g></svg>