<svg enable-background="new 0 0 512 512" viewBox="0 0 512 512" xmlns="http://www.w3.org/2000/svg"><g clip-rule="evenodd" fill-rule="evenodd"><circle cx="234.5" cy="155.2" fill="#606060" r="85.9"/><path d="m238.1 262.7 7.2 42.9h7.2l11.9 107.4h-180.2c0-83 67.3-150.3 150.3-150.3 1.2-.1 2.4-.1 3.6 0z" fill="#606060"/><path d="m338.3 254c-5.9 0-10.7 4.8-10.7 10.7v4.3h-37.7c-16.4 0-16.4 30.1 0 30.1h125.7c16.4 0 16.4-30.1 0-30.1h-37.7v-4.3c0-5.9-4.8-10.7-10.7-10.7z" fill="#d32a05"/><path d="m406.6 314.2h-108c-1.7 0-3.3.9-4.5 2.5s-1.8 3.8-1.6 5.9l9.6 104.6c.1 2 .8 3.8 1.9 5.2 1.1 1.3 2.6 2.1 4.2 2.1h88.8c1.5 0 3-.8 4.2-2.1 1.1-1.3 1.8-3.2 1.9-5.2l9.6-104.6c.1-2.2-.5-4.3-1.6-5.9s-2.7-2.5-4.5-2.5z" fill="#d32a05"/><circle cx="398.1" cy="413" fill="#fff" r="29.7"/><g fill="#d32a05"><path d="m412.7 427.6c2.6-2.6 2.6-6.7 0-9.3l-19.9-19.9c-2.6-2.6-6.7-2.6-9.3 0-2.6 2.6-2.6 6.7 0 9.3l19.9 19.9c2.6 2.5 6.8 2.5 9.3 0z"/><path d="m383.5 427.6c2.6 2.6 6.7 2.6 9.3 0l19.9-19.9c2.6-2.6 2.6-6.7 0-9.3-2.6-2.6-6.7-2.6-9.3 0l-19.9 19.9c-2.5 2.6-2.5 6.7 0 9.3z"/></g></g></svg>