<svg enable-background="new 0 0 512 512" viewBox="0 0 512 512" xmlns="http://www.w3.org/2000/svg"><g fill="#ef4425"><path d="m298.9 60.2c-8.1 0-14.7-6.6-14.7-14.7v-16.1h-111.6v16.2c0 8.1-6.6 14.7-14.7 14.7s-14.7-6.6-14.7-14.7v-30.9c0-8.1 6.6-14.7 14.7-14.7h141c8.1 0 14.7 6.6 14.7 14.7v30.8c0 8.2-6.6 14.7-14.7 14.7z"/><path d="m366.5 512c-61.6 0-111.7-50.1-111.7-111.7s50.1-111.7 111.7-111.7 111.7 50.1 111.7 111.7-50.1 111.7-111.7 111.7zm0-193.9c-45.4 0-82.3 36.9-82.3 82.3s36.9 82.3 82.3 82.3 82.3-36.9 82.3-82.3-36.9-82.3-82.3-82.3z"/><path d="m297.7 483.3h-192.7c-7.6 0-13.9-5.8-14.6-13.3l-29.4-308.5c-.4-4.1 1-8.2 3.8-11.3s6.7-4.8 10.9-4.8h305.6c8.1 0 14.7 6.6 14.7 14.7s-6.6 14.7-14.7 14.7h-289.6l26.6 279.2h179.4c8.1 0 14.7 6.6 14.7 14.7s-6.6 14.6-14.7 14.6z"/><path d="m158.4 424.6c-7.5 0-13.9-5.7-14.6-13.3l-14.5-152.2c-.8-8.1 5.2-15.2 13.2-16 8.1-.8 15.2 5.2 16 13.2l14.5 152.2c.8 8.1-5.2 15.2-13.2 16-.5.1-1 .1-1.4.1z"/><path d="m307 338.5c-.5 0-1 0-1.5-.1-8.1-.8-14-8-13.2-16.1l6.5-66.1c.8-8.1 8-14 16.1-13.2s14 8 13.2 16.1l-6.5 66.1c-.8 7.6-7.1 13.3-14.6 13.3z"/><path d="m367.6 318.1h-.1c-.3 0-.6 0-.9 0h-.2c-8.1 0-14.6-6.6-14.6-14.7 0-2.5.6-4.8 1.7-6.9l3.8-40.2c.8-8.1 7.9-14 16-13.2s14 7.9 13.2 16l-4.4 45.7c-.6 7.5-7 13.3-14.5 13.3z"/><path d="m328.9 452.7c-3.8 0-7.5-1.4-10.4-4.3-5.7-5.7-5.7-15 0-20.8l75.3-75.3c5.7-5.7 15-5.7 20.8 0 5.7 5.7 5.7 15 0 20.8l-75.3 75.3c-2.9 2.8-6.7 4.3-10.4 4.3z"/><path d="m404.1 452.7c-3.8 0-7.5-1.4-10.4-4.3l-75.3-75.3c-5.7-5.7-5.7-15 0-20.8 5.7-5.7 15-5.7 20.8 0l75.3 75.3c5.7 5.7 5.7 15 0 20.8-2.9 2.8-6.6 4.3-10.4 4.3z"/><path d="m408.2 174.9h-359.7c-8.1 0-14.7-6.6-14.7-14.7v-79.9c0-8.1 6.6-14.7 14.7-14.7h359.7c8.1 0 14.7 6.6 14.7 14.7v79.9c0 8.1-6.5 14.7-14.7 14.7zm-345-29.4h330.3v-50.5h-330.3z"/><path d="m228.4 424.6c-8.1 0-14.7-6.6-14.7-14.7v-153.9c0-8.1 6.6-14.7 14.7-14.7s14.7 6.6 14.7 14.7v153.9c0 8.1-6.6 14.7-14.7 14.7z"/></g></svg>