<svg fill="none" height="24" viewBox="0 0 24 24" width="24" xmlns="http://www.w3.org/2000/svg"><path d="m19.6612 21.5363h-15.32246c-.547 0-1.07161-.2173-1.4584-.6041-.3868-.3868-.60409-.9114-.60409-1.4584v-11.18629c.00149-.3851.11038-.76214.31442-1.08873.20404-.3266.49514-.5898.84057-.76002l7.66126-3.75c.2829-.13707.5931-.20828.9075-.20828.3143 0 .6246.07121.9075.20828l7.6612 3.75c.3455.17022.6366.43342.8406.76002.2041.32659.3129.70363.3144 1.08873v11.18629c0 .547-.2173 1.0716-.604 1.4584-.3868.3868-.9114.6041-1.4585.6041zm-7.6612-17.94754c-.1429-.00113-.2841.03097-.4125.09375l-7.66125 3.75c-.15667.07772-.2887.19739-.38139.3457-.09269.1483-.1424.31941-.14362.4943v11.20129c0 .2486.09878.4871.27459.6629.17582.1758.41427.2746.66291.2746h15.32246c.2487 0 .4871-.0988.663-.2746.1758-.1758.2745-.4143.2745-.6629v-11.18629c-.0012-.17489-.0509-.346-.1436-.4943-.0927-.14831-.2247-.26798-.3814-.3457l-7.6612-3.765c-.1284-.06278-.2696-.09488-.4125-.09375z" fill="#ff3e16"/><path d="m12 12.3375c-.0667-.0008-.1327-.0135-.195-.0375l-5.02496-1.875c-.07466-.0214-.14409-.058-.20391-.1075s-.10874-.1109-.14368-.1802c-.03493-.0694-.05513-.14522-.05932-.22276-.00418-.07755.00773-.15512.035-.22783s.06929-.13899.12344-.19466c.05414-.05568.11922-.09953.19115-.12881.07192-.02929.14913-.04336.22676-.04133.07764.00202.15401.0201.22431.05309l4.82621 1.8 4.8263-1.8c.1392-.05006.2926-.04323.4268.01899.1343.06223.2386.17484.2904.31345s.0469.29205-.0137.42706c-.0605.135-.1718.2407-.3098.2943l-5.025 1.875c-.0625.0226-.1285.0341-.195.0337z" fill="#000"/></svg>