<svg fill="none" height="24" viewBox="0 0 24 24" width="24" xmlns="http://www.w3.org/2000/svg"><path d="m11.918 17.0936c-3.02304 0-5.26971-1.4527-7.44255-2.8577-1.02043-.6598-2.07553-1.342-3.18764-1.8524-.00239-.001-.00479-.0022-.00713-.0033-.05001-.0245-.102-.0475-.15534-.0709-.11424-.05-.188065-.1629-.188206-.2876s.073356-.2377.187456-.2881c1.17637-.5194 2.30147-1.2241 3.38953-1.90574 2.23087-1.39753 4.53773-2.84264 7.50448-2.87794h.0075c2.9663.03534 5.2733 1.48045 7.5044 2.87794 1.0881.68164 2.2132 1.38634 3.3896 1.90574.1142.0504.1878.1637.1874.2886-.0004.1248-.0746.2377-.1891.2875-.0591.0256-.1085.0482-.1556.071-.002.001-.0039.0019-.0059.0028-1.1117.5102-2.1666 1.1922-3.1868 1.8518-2.1982 1.4212-4.4708 2.8897-7.5477 2.8577-.0348.0004-.0703.0006-.1044.0006zm-9.92941-5.071c.98883.4958 1.92206 1.0992 2.82829 1.6851 2.19258 1.4177 4.26394 2.7569 7.10102 2.7569.0332.0013.0672-.0002.1008-.0006h.0071c.0335.0004.0667.0006.1001.0006 2.8376 0 4.9093-1.3394 7.1026-2.7574.9061-.5858 1.8389-1.189 2.8274-1.6846-.9928-.4925-1.9391-1.0853-2.8594-1.6618-2.2558-1.41302-4.3863-2.74769-7.1743-2.782-2.78833.03426-4.91875 1.36898-7.17433 2.782-.9202.5765-1.86652 1.1694-2.85928 1.6618z" fill="#ff3e16"/><g fill="#000"><path d="m12.0223 14.7887c-1.5266 0-2.76864-1.2414-2.76864-2.7674s1.24204-2.76747 2.76864-2.76747 2.7686 1.24147 2.7686 2.76747-1.242 2.7674-2.7686 2.7674zm0-4.906c-1.1799 0-2.13972.9594-2.13972 2.1386s.95982 2.1385 2.13972 2.1385c1.1798 0 2.1397-.9593 2.1397-2.1385s-.9599-2.1386-2.1397-2.1386z"/><path d="m19.8457 20.1553c-.0805 0-.1609-.0307-.2223-.092l-15.64585-15.63707c-.12286-.12277-.12291-.32189-.00009-.44471.12271-.12286.32184-.1229.4447-.00014l15.64584 15.63712c.1228.1227.1229.3219.0001.4447-.0614.0614-.1419.0921-.2224.0921z"/><path d="m19.8457 20.1553c-.0805 0-.1609-.0307-.2223-.092l-15.64585-15.63707c-.12286-.12277-.12291-.32189-.00009-.44471.12271-.12286.32184-.1229.4447-.00014l15.64584 15.63712c.1228.1227.1229.3219.0001.4447-.0614.0614-.1419.0921-.2224.0921z"/></g></svg>