<svg fill="none" height="24" viewBox="0 0 24 24" width="24" xmlns="http://www.w3.org/2000/svg" xmlns:xlink="http://www.w3.org/1999/xlink"><clipPath id="a"><path d="m0 0h24v24h-24z"/></clipPath><g clip-path="url(#a)" fill="#ff3e16"><path d="m21.8701 11.5c-.64-1.11-4.16-6.68-10.14-6.5-5.53003.14-8.73003 5-9.60003 6.5-.08777.152-.13398.3245-.13398.5s.04621.348.13398.5c.63 1.09 4 6.5 9.89003 6.5h.25c5.53-.14 8.74-5 9.6-6.5.0877-.152.1339-.3245.1339-.5s-.0462-.348-.1339-.5zm-9.65 5.5c-4.31003.1-7.12003-3.59-8.00003-5 1-1.61 3.61-4.9 7.61003-5 4.29-.11 7.11 3.59 8 5-1.03 1.61-3.61 4.9-7.61 5z"/><path d="m12 8.5c-.6922 0-1.3689.20527-1.9445.58986-.57557.38458-1.02417.93124-1.28908 1.57074-.2649.6395-.33422 1.3433-.19917 2.0222.13505.679.46839 1.3026.95788 1.7921.48947.4895 1.11317.8228 1.79207.9578.6789.1351 1.3827.0658 2.0222-.1991s1.1862-.7135 1.5707-1.2891c.3846-.5756.5899-1.2523.5899-1.9445 0-.9283-.3687-1.8185-1.0251-2.47487-.6564-.65638-1.5466-1.02513-2.4749-1.02513zm0 5c-.2967 0-.5867-.088-.8334-.2528-.2466-.1648-.4389-.3991-.5524-.6732s-.1433-.5757-.0854-.8666c.0579-.291.2008-.5583.4105-.7681.2098-.2097.4771-.3526.7681-.4105.2909-.0579.5925-.0282.8666.0854.2741.1135.5084.3058.6732.5524.1648.2467.2528.5367.2528.8334 0 .3978-.158.7794-.4393 1.0607s-.6629.4393-1.0607.4393z"/></g></svg>