<svg fill="none" height="320" viewBox="0 0 320 320" width="320" xmlns="http://www.w3.org/2000/svg"><path d="m298.81 202.368h-104.89v-60.698h104.89zm-104.25-.64h103.61v-59.418h-103.61z" fill="#e0e0e0"/><path d="m277.171 174.035h-69.203v2.029h69.203z" fill="#f0f0f0"/><path d="m281.939 181.6h-73.971v2.214h73.971z" fill="#f0f0f0"/><path d="m281.939 189.254h-73.971v2.215h73.971z" fill="#f0f0f0"/><path d="m232.154 163.046h-24.186v5.268h24.186z" fill="#f0f0f0"/><path d="m298.49 141.99h-104.231v9.664h104.231z" fill="#e0e0e0"/><path d="m290.47 150.208c-.134-.128 1.21-1.747 2.996-3.616 1.785-1.869 3.353-3.283 3.481-3.162.128.122-1.209 1.748-2.995 3.623s-3.354 3.283-3.482 3.155z" fill="#fff"/><path d="m296.96 150.208c-.128.128-1.69-1.28-3.482-3.155s-3.129-3.495-2.995-3.623c.135-.128 1.69 1.28 3.482 3.162s3.117 3.488 2.995 3.616z" fill="#fff"/><path d="m169.741 21.792h-104.2306v60.064h104.2306z" fill="#e6e6e6"/><path d="m148.429 53.8432h-69.2034v2.0288h69.2034z" fill="#f0f0f0"/><path d="m153.197 61.408h-73.9714v2.2144h73.9714z" fill="#f0f0f0"/><path d="m153.197 69.0624h-73.9714v2.2144h73.9714z" fill="#f0f0f0"/><path d="m103.411 42.8544h-24.1854v5.2672h24.1854z" fill="#f0f0f0"/><path d="m169.741 21.792h-104.2306v9.664h104.2306z" fill="#e0e0e0"/><path d="m161.369 29.9648c-.134-.1216 1.21-1.7472 2.996-3.616 1.785-1.8688 3.353-3.2832 3.481-3.1552s-1.209 1.7472-2.995 3.616-3.354 3.2704-3.482 3.1552z" fill="#fff"/><path d="m167.846 29.9648c-.128.128-1.689-1.28-3.481-3.1552s-3.13-3.488-2.995-3.616c.134-.128 1.689 1.28 3.481 3.1552s3.13 3.4944 2.995 3.616z" fill="#fff"/><path d="m130.266 133.37h-104.8709v-60.7044h104.8709zm-104.2309-.64h103.5909v-59.4244h-103.5909z" fill="#e0e0e0"/><path d="m108.633 105.037h-69.2027v2.029h69.2027z" fill="#f0f0f0"/><path d="m113.401 112.602h-73.9707v2.214h73.9707z" fill="#f0f0f0"/><path d="m113.401 120.256h-73.9707v2.214h73.9707z" fill="#f0f0f0"/><path d="m63.6159 94.048h-24.1856v5.2672h24.1856z" fill="#f0f0f0"/><path d="m129.945 72.9856h-104.2299v9.664h104.2299z" fill="#e0e0e0"/><path d="m251.296 147.277h-123.072v110.182h123.072z" fill="#e6e6e6"/><path d="m134.413 112.57h-96.4098v100.166h96.4098z" fill="#f0f0f0"/><path d="m134.413 112.57h-96.4098v10.912h96.4098z" fill="#e0e0e0"/><path d="m45.9647 117.914c-.0176.395-.1509.777-.3835 1.098-.2327.32-.5543.566-.925.705-.3708.139-.7743.167-1.1605.079-.3863-.088-.7382-.287-1.0121-.573-.274-.286-.4579-.647-.5289-1.036-.0711-.39-.0261-.792.1292-1.156.1554-.365.4143-.675.7447-.894.3303-.218.7176-.335 1.1137-.335.5477.013 1.0679.243 1.4468.638.379.396.5859.926.5756 1.474z" fill="#fff"/><path d="m54.1759 117.914c-.0163.397-.1492.781-.3821 1.104-.2329.322-.5555.569-.9277.71-.3723.141-.7776.169-1.1657.081s-.7417-.288-1.0169-.575c-.2752-.288-.4598-.65-.5309-1.041-.0711-.392-.0254-.796.1313-1.161.1566-.366.4174-.678.7498-.897.3325-.218.7219-.334 1.1198-.333.5477.013 1.0679.243 1.4468.638.379.396.5859.926.5756 1.474z" fill="#fff"/><path d="m62.3872 117.914c-.0163.397-.1492.781-.3821 1.104-.2329.322-.5555.569-.9277.71-.3723.141-.7776.169-1.1657.081s-.7417-.288-1.0169-.575c-.2752-.288-.4598-.65-.5309-1.041-.071-.392-.0254-.796.1313-1.161.1567-.366.4174-.678.7499-.897.3324-.218.7218-.334 1.1197-.333.5477.013 1.0679.243 1.4468.638.379.396.5859.926.5756 1.474z" fill="#fff"/><path d="m285.043 43.6992h-123.072v122.6628h123.072z" fill="#f0f0f0"/><path d="m285.043 43.6992h-123.072v14.368h123.072z" fill="#e0e0e0"/><path d="m172.454 50.7392c-.022.5223-.198 1.0265-.504 1.45-.307.4235-.731.7476-1.22.932-.49.1845-1.022.2211-1.532.1055s-.975-.3784-1.336-.7559c-.362-.3774-.605-.8528-.699-1.3671s-.035-1.0449.17-1.5258c.205-.481.547-.8912.983-1.1797s.947-.4425 1.47-.443c.722.0168 1.409.3192 1.909.8409.5.5218.773 1.2205.759 1.9431z" fill="#fff"/><path d="m182.483 48.8576c.355.3853.588.8665.672 1.3836.083.5171.012 1.0473-.204 1.5245s-.567.8803-1.011 1.1591c-.443.2788-.959.4209-1.482.4087-.524-.0122-1.032-.1783-1.462-.4774-.43-.2992-.763-.7182-.956-1.205-.194-.4867-.24-1.0196-.132-1.5323.107-.5127.363-.9825.735-1.3508.522-.4964 1.219-.7657 1.939-.7489.719.0168 1.403.3184 1.901.8385z" fill="#fff"/><path d="m194.074 50.7392c-.023.5223-.199 1.0265-.505 1.45-.307.4235-.731.7476-1.22.932-.489.1845-1.022.2211-1.532.1055s-.975-.3784-1.336-.7559c-.362-.3774-.605-.8528-.699-1.3671s-.035-1.0449.17-1.5258c.205-.481.547-.8912.983-1.1797s.947-.4425 1.47-.443c.722.0168 1.409.3192 1.909.8409.5.5218.773 1.2205.76 1.9431z" fill="#fff"/><path d="m258.458 290.003c0 .09-44.442.167-99.245.167s-99.2641-.077-99.2641-.167c0-.089 44.4351-.166 99.2641-.166s99.245.083 99.245.166z" fill="#263238"/><path d="m215.155 211.654c-9.888-6.905-12.128-19.724-11.737-31.251.064-1.92-.148-3.955.768-5.638.915-1.683 3.052-2.842 4.774-2.035 1.427.672 2.048 2.336 2.848 3.712 1.067 1.832 2.632 3.326 4.512 4.307 1.222.64 2.739 1.024 3.949.358 1.664-.915 1.856-3.2 1.843-5.12 0-3.571-.021-7.138-.064-10.701-.115-1.913.079-3.832.576-5.683.595-1.817 1.92-3.501 3.731-4.013s4.071.544 4.48 2.413c.071.792.09 1.587.058 2.381.051.8.422 1.677 1.171 1.92s1.53-.314 2.106-.877c1.971-1.92 3.315-4.422 4.563-6.893 1.248-2.47 2.47-5.011 4.262-7.116 1.792-2.106 4.269-3.776 7.04-3.936s5.658 1.542 6.349 4.23-.877 5.434-2.56 7.616c-2.54 3.24-5.534 6.096-8.89 8.48-.655.358-1.177.916-1.491 1.594-.416 1.28.794 2.56 2.055 2.963 1.427.473 2.976.326 4.48.505 1.504.18 3.104.832 3.673 2.24.781 1.959-.857 4.007-2.464 5.351-3.225 2.688-6.888 4.803-10.829 6.253-1.408.512-2.886.966-4.025 1.952-1.139.985-1.818 2.707-1.133 4.057.685 1.351 2.445 1.779 3.923 1.504 1.479-.275 2.791-1.069 4.199-1.6 2.63-.992 6.022-.813 7.68 1.459.513.783.838 1.674.949 2.604.111.929.005 1.872-.309 2.753-.641 1.755-1.627 3.363-2.9 4.73-4.191 5.008-9.638 8.813-15.782 11.027-6.099 2.112-11.75 2.688-17.811.467" fill="#ff3e16"/><path d="m253.568 145.062s-.058.064-.186.18l-.569.505c-.499.448-1.235 1.101-2.163 1.965-2.631 2.443-5.075 5.081-7.309 7.891-1.427 1.773-2.906 3.783-4.48 5.965-1.575 2.182-3.2 4.538-4.813 7.04-1.719 2.639-3.294 5.369-4.717 8.179-.742 1.466-1.395 2.995-2.067 4.557l-1.984 4.768c-2.615 6.006-4.893 12.153-6.822 18.413-1.555 5.122-2.626 10.378-3.2 15.699-.373 3.591-.433 7.208-.18 10.81.103 1.28.199 2.259.288 2.924.039.32.064.576.09.762v.262c-.028-.083-.047-.169-.058-.256-.032-.185-.07-.435-.121-.755-.115-.64-.237-1.651-.352-2.931-.309-3.608-.288-7.237.064-10.842.539-5.344 1.587-10.624 3.129-15.769 1.914-6.278 4.185-12.44 6.804-18.458l2.035-4.749c.672-1.555 1.331-3.097 2.08-4.569 1.432-2.819 3.02-5.556 4.755-8.199 1.638-2.56 3.29-4.876 4.845-7.04 1.555-2.163 3.059-4.185 4.48-5.952 2.257-2.803 4.733-5.422 7.405-7.833.947-.851 1.702-1.491 2.214-1.92l.595-.48c.073-.064.153-.119.237-.167z" fill="#263238"/><path d="m229.12 176.64c-.09-.264-.153-.536-.186-.813-.102-.531-.217-1.28-.352-2.253-.275-1.92-.556-4.55-.857-7.462s-.64-5.549-.922-7.45c-.147-.947-.275-1.708-.365-2.24-.07-.271-.106-.551-.108-.832.11.257.189.525.236.8.141.525.301 1.28.48 2.234.365 1.92.724 4.531 1.024 7.45.301 2.918.557 5.478.756 7.468.096.896.179 1.658.243 2.266.05.274.067.554.051.832z" fill="#263238"/><path d="m253.747 172.045c-.311.068-.628.106-.947.115-.64.058-1.549.134-2.675.262-2.253.244-5.351.692-8.749 1.332s-6.451 1.363-8.646 1.92c-1.095.281-1.978.537-2.56.71-.311.111-.633.188-.96.23.295-.148.604-.27.921-.364.602-.212 1.472-.506 2.56-.82 2.183-.64 5.235-1.401 8.647-2.054 2.889-.553 5.805-.958 8.736-1.216 1.132-.096 2.048-.134 2.688-.147.328-.023.659-.012.985.032z" fill="#263238"/><path d="m218.432 203.981c-.068-.093-.124-.194-.166-.301l-.423-.89c-.365-.774-.857-1.92-1.446-3.321-1.191-2.816-2.707-6.759-4.32-11.136-1.613-4.378-3.098-8.32-4.224-11.168-.551-1.383-1.005-2.515-1.344-3.36l-.359-.915c-.049-.106-.084-.218-.102-.333.068.092.124.194.166.301l.423.889c.358.775.857 1.92 1.446 3.322 1.191 2.816 2.707 6.758 4.32 11.136 1.613 4.377 3.098 8.32 4.224 11.168.551 1.382 1.005 2.515 1.338 3.36.147.365.269.64.365.915.049.106.084.218.102.333z" fill="#263238"/><path d="m251.123 193.44c-.102.059-.212.104-.326.134l-.947.32-3.501 1.133c-2.957.96-7.04 2.33-11.52 3.84-4.48 1.511-8.583 2.855-11.559 3.751-1.484.454-2.694.8-3.532 1.03l-.967.25c-.112.035-.228.059-.345.07.102-.059.212-.104.326-.134l.947-.32 3.501-1.133c2.957-.96 7.04-2.33 11.52-3.84 4.48-1.511 8.576-2.855 11.552-3.751 1.491-.454 2.694-.8 3.539-1.03l.967-.25c.112-.035.228-.059.345-.07z" fill="#263238"/><path d="m237.786 38.1952-3.296 1.1776-1.415-4.3072c-2.598-7.9424-10.88-12.16-18.489-9.4784-7.61 2.6816-11.661 11.392-9.063 19.3344l1.415 4.3072-3.309 1.184c-1.262.4894-2.287 1.4461-2.861 2.6714-.575 1.2253-.655 2.6249-.224 3.9078l9.171 28.0256c.191.6351.507 1.2254.93 1.7359.423.5106.944.9308 1.533 1.2359.588.3051 1.232.4887 1.893.54s1.326-.0308 1.955-.2414l34.156-12.2176c1.279-.4885 2.318-1.4538 2.899-2.6927.581-1.239.66-2.6551.218-3.9505l-9.177-28.0256c-.196-.6333-.517-1.2208-.944-1.7274s-.952-.9219-1.544-1.2211c-.591-.2993-1.237-.4763-1.898-.5206s-1.324.045-1.95.2627zm-26.036 4.48c-.7-2.0651-.574-4.3213.351-6.2958.926-1.9745 2.58-3.5141 4.616-4.2962 1.005-.3439 2.069-.4818 3.129-.4055 1.059.0763 2.093.3653 3.038.8497.946.4844 1.784 1.1543 2.465 1.9698.681.8154 1.191 1.7597 1.499 2.7764l1.408 4.3072-15.098 5.4016zm19.2 24.8704 2.343 7.1552c.043.1435.029.298-.039.4315s-.185.2356-.326.2853l-3.283 1.1712c-.131.0362-.271.0205-.39-.044-.119-.0644-.209-.1725-.25-.3016l-2.362-7.1232c-1.302-.071-2.551-.538-3.581-1.3387-1.029-.8006-1.79-1.8966-2.179-3.1413-.556-1.6455-.455-3.4425.284-5.0148.738-1.5723 2.056-2.798 3.678-3.4204.8-.2736 1.648-.3832 2.492-.3222s1.667.2912 2.42.677 1.421.9193 1.964 1.5686c.542.6494.948 1.4013 1.194 2.211.412 1.2643.446 2.6213.098 3.9047-.348 1.2835-1.062 2.4375-2.056 3.3209z" fill="#ff3e16"/><path d="m234.342 39.296c0 .0896-6.112 2.3872-13.715 5.12s-13.805 4.928-13.837 4.864 6.112-2.3808 13.722-5.12 13.798-4.9472 13.83-4.864z" fill="#263238"/><path d="m241.6 40.4736c.028.0555.052.1133.07.1728.052.128.109.2944.186.4992.166.4672.397 1.1136.685 1.92l2.457 7.1552c1.024 3.0336 2.247 6.6304 3.604 10.624.64 2.0032 1.395 4.0896 2.099 6.2848.377 1.1312.539 2.3228.48 3.5136-.054.6193-.231 1.2218-.519 1.7728-.307.5492-.718 1.0338-1.209 1.4272-.989.7218-2.086 1.2813-3.251 1.6576l-3.296 1.184-6.24 2.2336-10.567 3.7632-7.136 2.5088-1.92.64-.512.1664c-.055.0243-.113.0395-.173.0448 0 0 .052 0 .16-.0768l.5-.1984 1.92-.7232 7.097-2.6112 10.547-3.84 6.228-2.2528 3.296-1.1904c1.131-.361 2.197-.9035 3.155-1.6064.457-.3651.839-.8149 1.126-1.3248.271-.5096.435-1.0694.48-1.6448.059-1.1474-.097-2.2957-.461-3.3856-.691-2.176-1.42-4.2816-2.08-6.2848-1.331-4-2.56-7.6096-3.532-10.6432-.973-3.0336-1.792-5.472-2.356-7.1872-.268-.8384-.473-1.4912-.64-1.9648l-.153-.512c-.02-.0388-.035-.0796-.045-.1216z" fill="#263238"/><path d="m223.578 31.648s-.34-.1664-.967-.4224c-.894-.3435-1.839-.5339-2.797-.5632-1.419-.0487-2.831.218-4.134.7808-1.585.7008-2.94 1.8343-3.91 3.2704-.977 1.432-1.501 3.1243-1.504 4.8576.013 1.4206.228 2.8321.64 4.192.332 1.1648.678 2.0928.908 2.7392.136.3283.248.6663.333 1.0112-.182-.307-.334-.6306-.454-.9664-.263-.64-.64-1.5488-1.011-2.72-.456-1.3742-.704-2.8086-.736-4.256-.017-1.7988.519-3.5593 1.536-5.0432 1.003-1.4886 2.414-2.6571 4.064-3.3664 1.344-.5659 2.8-.8155 4.256-.7296.978.0498 1.938.2776 2.835.672.239.1106.47.2389.691.384.091.04.175.094.25.16z" fill="#263238"/><path d="m223.872 56.6912c.102-.0619.209-.1154.32-.16.32-.1446.652-.2623.992-.352.539-.1592 1.096-.2537 1.658-.2816.764-.0411 1.528.0744 2.246.3392 1.638.576 3.142 2.2464 3.885 4.48.356 1.1987.356 2.4749 0 3.6736-.395 1.301-1.103 2.4854-2.061 3.4496l.038-.1728c.852 2.336 1.78 4.8704 2.74 7.5136l.057.16-.16.0576-1.465.4864-3.2 1.0688-.16.0512-.052-.16c-.876-2.6496-1.836-5.12-2.56-7.5456l.141.1088c-1.251-.1039-2.444-.5735-3.43-1.3504-.893-.6873-1.624-1.5609-2.144-2.56-.469-.886-.703-1.8777-.679-2.88.03-1.0244.286-2.0295.749-2.9434.464-.9139 1.124-1.714 1.933-2.343.333-.2703.707-.4863 1.107-.64-.361.2145-.712.4473-1.049.6976-.889.7519-1.57 1.7193-1.978 2.8096-.35.8222-.514 1.7117-.48 2.6046.035.893.266 1.7673.678 2.5602.512.9611 1.226 1.7997 2.093 2.4576.941.7384 2.078 1.1836 3.271 1.28h.108l.032.096c.704 2.3808 1.671 4.8704 2.56 7.5328l-.211-.1024 3.2-1.0688 1.459-.4928-.102.2176c-.954-2.6432-1.875-5.184-2.72-7.52v-.096l.077-.0768c.93-.9242 1.624-2.0593 2.022-3.3088.34-1.1466.34-2.367 0-3.5136-.697-2.1504-2.137-3.7824-3.699-4.3584-.691-.2665-1.429-.3906-2.17-.3648-.552.0127-1.102.0878-1.638.224-.954.2368-1.402.4544-1.408.4224z" fill="#263238"/><path d="m204.09 241.485-63.93-.295c-3.692-.02-7.225-1.505-9.823-4.128s-4.048-6.17-4.033-9.862l.678-160.2624c.008-1.8291.376-3.6388 1.083-5.3256.708-1.6868 1.74-3.2176 3.04-4.505 1.299-1.2875 2.839-2.3062 4.532-2.998 1.694-.6918 3.507-1.0431 5.336-1.0338l63.923.2944c3.692.0186 7.225 1.5018 9.825 4.1238 2.599 2.6219 4.051 6.1683 4.037 9.8602l-.678 160.2564c-.008 1.829-.375 3.64-1.083 5.327-.707 1.688-1.739 3.219-3.039 4.508-1.299 1.288-2.839 2.308-4.532 3.001s-3.507 1.046-5.336 1.039z" fill="#455a64"/><path d="m204.8 58.88h-12.39c-.405.0075-.804.0946-1.174.2562-.371.1617-.706.3948-.987.686-.28.2912-.5.6349-.648 1.0113s-.22.7782-.212 1.1825v2.2464c.007.404-.065.8055-.213 1.1815-.147.3761-.368.7193-.648 1.01-.281.2907-.616.5232-.987.6842-.37.1609-.769.2472-1.173.2539l-24.154-.1088c-.817-.0218-1.592-.367-2.155-.9598-.562-.5927-.867-1.3847-.846-2.2018v-2.2464c.02-.816-.283-1.607-.845-2.1996-.561-.5926-1.335-.9386-2.15-.962h-4.359l-10.848-.0512c-2.58-.0154-5.061.9923-6.9 2.8024s-2.886 4.2751-2.911 6.8552l-.64 156.429c-.006 1.28.24 2.548.725 3.733.484 1.185 1.197 2.263 2.098 3.172.901.91 1.972 1.632 3.153 2.128 1.18.495 2.446.753 3.726.759l63.796.294c1.28.006 2.55-.24 3.735-.725 1.186-.485 2.265-1.198 3.175-2.1.909-.901 1.633-1.973 2.128-3.154.496-1.182.754-2.449.76-3.73l.64-156.4284c.015-2.5874-.997-5.075-2.816-6.916-1.818-1.841-4.293-2.8847-6.88-2.9016z" fill="#fff"/><path d="m208.526 208-73.164-.26c-.76 0-1.372-.681-1.362-1.508l.079-15.724c0-.811.622-1.508 1.382-1.508l73.163.276c.421.06.798.251 1.052.533.254.283.365.635.31.983l-.069 15.708c0 .835-.631 1.508-1.391 1.5z" fill="#ff3e16"/><path d="m149.528 200v-4.364h2.617v.469h-2.088v1.475h1.892v.468h-1.892v1.952zm4.543.068c-.295 0-.555-.07-.778-.211-.221-.14-.395-.337-.52-.59-.123-.253-.185-.548-.185-.886 0-.341.062-.639.185-.893.125-.254.299-.452.52-.592.223-.141.483-.211.778-.211s.554.07.776.211c.223.14.396.338.519.592.125.254.188.552.188.893 0 .338-.063.633-.188.886-.123.253-.296.45-.519.59-.222.141-.481.211-.776.211zm0-.452c.224 0 .409-.057.554-.172s.252-.266.322-.454c.069-.187.104-.391.104-.609 0-.219-.035-.423-.104-.612-.07-.189-.177-.341-.322-.458-.145-.116-.33-.175-.554-.175s-.409.059-.554.175c-.145.117-.252.269-.322.458-.069.189-.104.393-.104.612 0 .218.035.422.104.609.07.188.177.339.322.454s.33.172.554.172zm2.251.384v-3.273h.485v.495h.034c.06-.162.168-.294.324-.395.157-.1.333-.151.529-.151.037 0 .083.001.138.002.056.002.098.004.126.007v.511c-.017-.004-.056-.011-.117-.019-.06-.01-.123-.015-.19-.015-.159 0-.301.033-.426.1-.124.065-.222.156-.294.273-.071.115-.107.246-.107.394v2.071zm3.453 1.295c-.243 0-.451-.031-.626-.093-.175-.061-.32-.142-.437-.243-.115-.1-.206-.206-.275-.32l.401-.281c.045.06.103.128.172.204.07.079.165.146.286.203.122.058.282.087.479.087.265 0 .483-.064.655-.191.171-.128.257-.329.257-.601v-.665h-.042c-.037.06-.09.133-.158.221-.067.087-.163.165-.29.233-.125.066-.294.1-.507.1-.264 0-.501-.063-.711-.188-.209-.125-.375-.306-.497-.545-.121-.239-.181-.529-.181-.869 0-.336.059-.628.177-.876.118-.25.282-.443.492-.58s.453-.206.729-.206c.213 0 .382.035.507.106.126.07.223.149.29.239.068.088.12.16.157.217h.051v-.52h.486v3.367c0 .281-.064.51-.192.686-.126.177-.296.307-.511.39-.213.084-.45.125-.712.125zm-.017-1.798c.202 0 .373-.046.512-.138.139-.093.245-.225.317-.399.073-.173.109-.38.109-.622 0-.236-.036-.444-.107-.624-.071-.181-.176-.322-.315-.424-.139-.103-.311-.154-.516-.154-.213 0-.39.054-.532.162-.141.108-.247.253-.318.435-.069.182-.104.383-.104.605 0 .227.035.428.106.603.073.173.179.31.32.409.142.098.318.147.528.147zm3.725.571c-.316 0-.588-.069-.816-.209s-.403-.336-.527-.588c-.122-.253-.183-.547-.183-.882s.061-.63.183-.886c.124-.257.296-.458.516-.601.222-.145.48-.217.776-.217.17 0 .338.028.505.085.166.057.317.149.453.277.137.126.245.294.326.503s.122.466.122.771v.213h-2.523v-.435h2.012c0-.184-.037-.349-.111-.494-.073-.145-.176-.259-.311-.343-.134-.084-.292-.126-.473-.126-.201 0-.374.05-.52.15-.145.098-.257.225-.335.383s-.117.327-.117.507v.29c0 .247.043.457.128.628.087.171.207.301.36.39.153.088.332.132.535.132.132 0 .251-.018.358-.055.108-.038.201-.095.279-.17.078-.077.138-.172.181-.286l.486.136c-.051.165-.137.31-.258.435-.121.124-.27.22-.448.29-.177.068-.377.102-.598.102zm3.543-3.341v.426h-1.696v-.426zm-1.202-.784h.503v3.119c0 .143.021.249.062.32.043.07.097.117.162.141.067.022.137.034.211.034.055 0 .101-.003.136-.009.036-.007.064-.012.085-.017l.103.452c-.034.013-.082.026-.143.038-.061.015-.138.022-.232.022-.142 0-.281-.031-.418-.092-.135-.061-.247-.154-.337-.279-.088-.125-.132-.283-.132-.473zm3.646 5.284v-4.5h.486v.52h.059c.037-.057.089-.129.154-.217.067-.09.162-.169.285-.239.125-.071.294-.106.507-.106.276 0 .519.069.729.206.21.138.374.333.492.586s.177.551.177.895c0 .347-.059.647-.177.901-.118.253-.281.449-.49.589-.209.137-.449.206-.722.206-.21 0-.379-.035-.505-.104-.126-.071-.224-.152-.292-.241-.068-.091-.121-.166-.158-.226h-.042v1.73zm.494-2.863c0 .247.037.465.109.654.072.187.178.334.317.441.14.105.31.157.512.157.21 0 .385-.055.526-.166.142-.112.249-.263.32-.451.072-.191.108-.402.108-.635 0-.23-.035-.438-.106-.623-.07-.186-.176-.333-.318-.441-.14-.109-.317-.164-.53-.164-.205 0-.377.052-.516.156-.139.102-.244.246-.315.43s-.107.397-.107.642zm4.125 1.713c-.207 0-.395-.039-.564-.117-.169-.08-.304-.194-.403-.344s-.149-.332-.149-.545c0-.187.037-.339.111-.456.073-.118.172-.21.296-.277.123-.067.26-.116.409-.149.15-.034.302-.061.454-.081.199-.026.36-.045.483-.058.125-.014.216-.037.273-.07.058-.033.087-.089.087-.17v-.017c0-.211-.057-.374-.172-.49-.114-.117-.286-.175-.518-.175-.24 0-.428.052-.565.158-.136.105-.232.217-.287.336l-.477-.17c.085-.199.198-.354.34-.465.144-.112.3-.19.469-.234.171-.046.338-.068.503-.068.105 0 .226.012.362.038.138.024.271.075.399.151.129.077.236.193.321.348.086.154.128.362.128.622v2.156h-.503v-.443h-.025c-.034.071-.091.147-.171.228-.079.081-.185.15-.317.206-.132.057-.293.086-.484.086zm.077-.452c.199 0 .366-.039.503-.117.138-.078.241-.179.311-.303.071-.123.106-.253.106-.39v-.46c-.021.026-.068.049-.14.07-.071.02-.154.038-.247.054-.093.014-.183.027-.271.038-.087.01-.157.019-.211.026-.131.017-.253.044-.366.083-.113.037-.203.093-.273.168-.068.074-.102.175-.102.303 0 .174.064.306.194.396.13.088.296.132.496.132zm4.659-2.165-.451.128c-.029-.075-.071-.148-.126-.219-.054-.073-.128-.132-.222-.179-.093-.047-.214-.071-.36-.071-.2 0-.367.046-.501.139-.132.091-.198.206-.198.347 0 .125.046.224.137.296.091.073.233.133.426.181l.486.12c.292.071.51.179.654.326.143.145.215.331.215.56 0 .188-.054.355-.162.503-.107.148-.256.264-.447.349-.192.086-.415.128-.669.128-.334 0-.611-.072-.829-.217-.219-.145-.358-.357-.416-.635l.477-.119c.046.176.132.308.258.396.128.088.295.132.501.132.234 0 .42-.05.558-.149.139-.101.209-.222.209-.362 0-.114-.04-.209-.119-.286-.08-.078-.202-.136-.367-.175l-.545-.127c-.3-.071-.52-.182-.661-.331-.139-.15-.209-.338-.209-.564 0-.185.052-.348.156-.49.105-.142.248-.254.428-.335.182-.081.388-.121.618-.121.324 0 .578.071.763.213.186.142.318.329.396.562zm3.135 0-.452.128c-.028-.075-.07-.148-.125-.219-.054-.073-.128-.132-.222-.179s-.214-.071-.36-.071c-.2 0-.367.046-.501.139-.132.091-.198.206-.198.347 0 .125.046.224.136.296.091.073.233.133.427.181l.485.12c.293.071.511.179.655.326.143.145.215.331.215.56 0 .188-.054.355-.162.503-.107.148-.256.264-.448.349-.191.086-.414.128-.669.128-.334 0-.61-.072-.829-.217-.218-.145-.357-.357-.415-.635l.477-.119c.046.176.132.308.258.396.128.088.295.132.501.132.234 0 .42-.05.558-.149.139-.101.209-.222.209-.362 0-.114-.04-.209-.119-.286-.08-.078-.202-.136-.367-.175l-.545-.127c-.3-.071-.52-.182-.661-.331-.139-.15-.209-.338-.209-.564 0-.185.052-.348.156-.49.105-.142.248-.254.428-.335.182-.081.388-.121.618-.121.324 0 .578.071.763.213.186.142.318.329.396.562zm1.558 2.54-.997-3.273h.528l.708 2.506h.034l.699-2.506h.537l.69 2.497h.034l.707-2.497h.529l-.997 3.273h-.495l-.716-2.514h-.051l-.716 2.514zm5.352.068c-.296 0-.555-.07-.778-.211-.221-.14-.395-.337-.52-.59-.123-.253-.185-.548-.185-.886 0-.341.062-.639.185-.893.125-.254.299-.452.52-.592.223-.141.482-.211.778-.211.295 0 .554.07.775.211.223.14.397.338.52.592.125.254.188.552.188.893 0 .338-.063.633-.188.886-.123.253-.297.45-.52.59-.221.141-.48.211-.775.211zm0-.452c.224 0 .409-.057.554-.172s.252-.266.322-.454c.069-.187.104-.391.104-.609 0-.219-.035-.423-.104-.612-.07-.189-.177-.341-.322-.458-.145-.116-.33-.175-.554-.175-.225 0-.409.059-.554.175-.145.117-.252.269-.322.458-.069.189-.104.393-.104.612 0 .218.035.422.104.609.07.188.177.339.322.454s.329.172.554.172zm2.25.384v-3.273h.486v.495h.034c.06-.162.168-.294.324-.395.156-.1.333-.151.529-.151.036 0 .083.001.138.002.055.002.097.004.126.007v.511c-.017-.004-.056-.011-.117-.019-.06-.01-.123-.015-.19-.015-.159 0-.301.033-.426.1-.124.065-.222.156-.294.273-.071.115-.107.246-.107.394v2.071zm3.369.068c-.273 0-.514-.069-.722-.206-.209-.14-.372-.336-.49-.589-.118-.254-.177-.554-.177-.901 0-.344.059-.642.177-.895s.282-.448.492-.586c.21-.137.453-.206.729-.206.213 0 .381.035.504.106.125.07.221.149.286.239.067.088.119.16.156.217h.042v-1.611h.503v4.364h-.486v-.503h-.059c-.037.06-.09.135-.158.226-.068.089-.166.17-.292.241-.126.069-.295.104-.505.104zm.068-.452c.202 0 .372-.052.512-.157.139-.107.245-.254.317-.441.072-.189.109-.407.109-.654 0-.245-.036-.458-.107-.642s-.176-.328-.315-.43c-.139-.104-.311-.156-.516-.156-.213 0-.39.055-.532.164-.141.108-.247.255-.318.441-.07.185-.104.393-.104.623 0 .233.035.444.106.635.073.188.179.339.32.451.142.111.318.166.528.166z" fill="#e8e8e3"/><path d="m158.243 104.864-16.461-.075-.014 3.021 16.461.075z" fill="#ff3e16"/><path d="m158.243 104.864-16.461-.075-.014 3.021 16.461.075z" fill="#000" opacity=".1"/><path d="m206.496 123.411c.129-.013.256-.043.378-.089.177-.07.331-.187.444-.34s.181-.335.196-.524c0-1.018 0-2.503 0-4.41 0-.954 0-2.022 0-3.2 0-.288 0-.589 0-.89.041-.291-.022-.589-.18-.838-.088-.12-.202-.217-.334-.285-.133-.068-.279-.104-.427-.105h-.999-9.248l-53.529-.199c-.137-.002-.273.029-.395.09-.123.061-.229.151-.309.262-.155.251-.214.548-.167.839v1.92 3.84 1.92c-.026.298-.026.598 0 .896.034.127.097.246.183.346.087.099.195.178.317.23.126.05.261.074.396.07h3.258l14.214.077 24.064.147 16.224.128 4.41.051h1.146.39-.39-1.146-4.41-16.224l-24.064-.077-14.214-.057h-3.258c-.179.007-.358-.023-.524-.09-.169-.072-.319-.181-.439-.32-.119-.138-.206-.303-.253-.48-.037-.168-.05-.34-.038-.512v-.473c0-.64 0-1.28 0-1.92 0-1.28 0-2.56 0-3.84 0-.64 0-1.28 0-1.92-.012-.171-.012-.342 0-.512.024-.189.097-.367.211-.519.111-.154.257-.28.426-.366.169-.085.357-.129.547-.127l53.53.295 9.248.064h.998c.176 0 .349.042.505.124.156.081.29.199.391.343.18.278.253.613.205.941v.889 3.2c0 1.92-.045 3.392-.058 4.416-.015.197-.087.386-.206.543-.119.158-.281.278-.466.347-.121.075-.261.115-.403.115z" fill="#e0e0e0"/><path d="m176.832 115.744h-30.106v2.822h30.106z" fill="#ff3e16"/><path d="m176.832 115.744h-30.106v2.822h30.106z" fill="#fff" opacity=".2"/><path d="m158.13 132.422-16.46-.075-.014 3.021 16.461.074z" fill="#ff3e16"/><path d="m158.13 132.422-16.46-.075-.014 3.021 16.461.074z" fill="#000" opacity=".1"/><path d="m206.08 150.97c.129-.016.257-.04.384-.071.179-.057.343-.151.482-.277s.25-.28.324-.452c.101-.259.141-.537.116-.813 0-.307 0-.64 0-1.011 0-.743 0-1.588 0-2.56v-4.064c.03-.295-.035-.591-.186-.845-.158-.261-.406-.455-.698-.544-.318-.057-.643-.074-.966-.051h-9.21l-53.344-.199c-.287.001-.564.106-.779.295-.215.19-.355.451-.392.736v1.92 3.84 1.92c-.024.299-.011.6.039.896.079.259.244.484.467.64.236.15.514.221.793.204h.89 1.85l14.163.071 23.981.147 16.166.128 4.397.051h1.145.384-.384-1.145-4.397-16.166l-23.994-.025-14.163-.052h-2.784c-.346.021-.69-.071-.979-.262-.292-.202-.504-.498-.602-.838-.057-.326-.075-.657-.051-.986 0-.64 0-1.28 0-1.92 0-1.28 0-2.56 0-3.84 0-.64 0-1.28 0-1.92.046-.366.225-.702.502-.946s.633-.379 1.002-.379l53.344.295 9.209.07c.343-.021.688.003 1.024.07.333.109.613.337.788.64.165.282.237.609.204.935v.889 3.2 2.56 1.018c.024.286-.022.574-.134.838-.083.177-.203.334-.352.459-.15.126-.324.219-.512.271-.14.012-.281-.001-.416-.038z" fill="#e0e0e0"/><path d="m158.006 161.176-16.46-.075-.014 3.021 16.461.075z" fill="#ff3e16"/><path d="m158.006 161.176-16.46-.075-.014 3.021 16.461.075z" fill="#000" opacity=".1"/><path d="m205.952 179.712c.129-.015.258-.039.384-.07.178-.057.342-.151.481-.275.139-.125.25-.278.325-.449.101-.258.14-.536.116-.812 0-.314 0-.64 0-1.018 0-.736 0-1.587 0-2.56v-4.064c.03-.294-.035-.59-.186-.845-.162-.256-.409-.446-.698-.537-.318-.06-.643-.079-.966-.058h-9.21l-53.344-.198c-.287 0-.564.105-.779.295-.215.189-.355.45-.392.735v1.92 3.84 1.92c-.024.297-.011.596.039.89.076.261.241.487.467.64.235.153.513.225.793.204h2.784l14.164.077 23.98.147 16.167.128 4.397.052h1.145.384s-.128 0-.384 0h-1.145-4.397-16.167l-23.98-.071-14.164-.057h-2.784c-.346.023-.691-.069-.979-.263-.291-.202-.504-.498-.601-.838-.058-.325-.075-.656-.052-.986 0-.64 0-1.28 0-1.92 0-1.28 0-2.56 0-3.84 0-.64 0-1.28 0-1.952.046-.365.223-.702.499-.946.275-.243.631-.378.999-.379l53.344.295 9.21.07c.342-.021.687.003 1.024.071.332.108.612.336.787.64.165.281.237.609.205.934v.89 3.2 2.56 1.017c.024.286-.022.574-.135.839-.083.176-.203.333-.352.459s-.324.218-.512.27c-.15.052-.31.067-.467.045z" fill="#e0e0e0"/><path d="m176.189 144.1-30.105-.136-.013 2.822 30.105.137z" fill="#ff3e16"/><path d="m176.189 144.1-30.105-.136-.013 2.822 30.105.137z" fill="#fff" opacity=".2"/><g fill="#ff3e16"><path d="m148.806 174.49c-.019.257-.113.503-.27.708-.158.204-.372.358-.616.442s-.507.094-.757.03c-.25-.065-.476-.201-.649-.392-.173-.192-.286-.43-.326-.685-.039-.255-.002-.516.106-.75.107-.235.282-.433.501-.569.219-.137.473-.206.731-.199.357.02.691.18.931.444.24.265.365.614.349.971z"/><path d="m152.883 174.509c.013.18-.012.361-.072.532-.061.17-.156.327-.279.459s-.273.238-.438.31c-.166.072-.345.109-.526.109s-.36-.037-.526-.109-.315-.178-.438-.31c-.124-.132-.218-.289-.279-.459-.06-.171-.085-.352-.072-.532-.013-.181.012-.362.072-.532.061-.171.155-.327.279-.459.123-.132.272-.238.438-.31s.345-.109.526-.109.36.037.526.109c.165.072.315.178.438.31s.218.288.279.459c.06.17.085.351.072.532z"/><path d="m156.966 174.528c-.018.257-.113.504-.27.708-.158.205-.372.358-.616.442s-.507.095-.757.03c-.25-.064-.476-.2-.649-.392-.173-.191-.286-.429-.326-.684-.039-.256-.002-.517.106-.751.107-.235.282-.432.501-.569.219-.136.473-.205.731-.198.356.021.69.181.929.446.239.264.365.612.351.968z"/><path d="m161.043 174.547c-.019.258-.113.504-.27.708-.158.205-.372.359-.616.442-.244.084-.507.095-.757.03-.25-.064-.476-.2-.649-.392-.173-.191-.287-.429-.326-.684s-.002-.516.105-.751c.108-.234.282-.432.502-.569.219-.136.473-.205.731-.198.356.021.69.181.929.446.239.264.365.612.351.968z"/><path d="m165.12 174.56c-.018.258-.111.505-.268.71-.156.206-.37.36-.614.445s-.508.096-.758.033c-.251-.064-.477-.2-.651-.391s-.288-.43-.327-.685c-.04-.255-.004-.517.104-.752.108-.234.282-.433.502-.569.219-.137.474-.206.732-.199.355.021.687.181.926.444s.366.609.354.964z"/><path d="m169.203 174.579c-.017.257-.109.502-.265.707-.155.205-.367.36-.609.446s-.505.099-.754.038c-.25-.061-.476-.194-.652-.382-.175-.188-.291-.423-.335-.676-.043-.254-.011-.514.092-.75.102-.235.272-.436.487-.576.215-.141.467-.215.724-.215.361.014.701.169.947.433s.377.615.365.975z"/><path d="m173.28 174.598c.013.181-.012.362-.073.532-.06.171-.155.327-.278.459-.123.133-.273.238-.439.31-.165.072-.344.11-.525.11s-.36-.038-.526-.11-.315-.177-.438-.31c-.124-.132-.219-.288-.279-.459-.06-.17-.085-.351-.072-.532-.013-.18.012-.361.072-.532.06-.17.155-.326.279-.459.123-.132.272-.237.438-.309.166-.073.345-.11.526-.11s.36.037.525.11c.166.072.316.177.439.309.123.133.218.289.278.459.061.171.086.352.073.532z"/><path d="m177.357 174.618c-.018.256-.11.502-.265.707s-.367.359-.61.445c-.242.086-.504.1-.754.039-.249-.061-.476-.194-.651-.382s-.292-.424-.335-.677-.012-.514.091-.749c.103-.236.272-.437.488-.577.215-.141.467-.215.724-.214.36.013.701.169.947.433.246.263.377.614.365.975z"/><path d="m181.434 174.637c-.018.258-.111.505-.268.71s-.371.36-.615.445-.507.096-.758.032c-.25-.063-.477-.199-.65-.39-.174-.192-.288-.43-.328-.685-.039-.255-.003-.517.105-.752.107-.235.282-.433.501-.569.22-.137.474-.206.733-.199.354.021.687.18.926.444.239.263.366.609.354.964z"/></g><g fill="#fff" opacity=".2"><path d="m148.806 174.49c-.019.257-.113.503-.27.708-.158.204-.372.358-.616.442s-.507.094-.757.03c-.25-.065-.476-.201-.649-.392-.173-.192-.286-.43-.326-.685-.039-.255-.002-.516.106-.75.107-.235.282-.433.501-.569.219-.137.473-.206.731-.199.357.02.691.18.931.444.24.265.365.614.349.971z"/><path d="m152.883 174.509c.013.18-.012.361-.072.532-.061.17-.156.327-.279.459s-.273.238-.438.31c-.166.072-.345.109-.526.109s-.36-.037-.526-.109-.315-.178-.438-.31c-.124-.132-.218-.289-.279-.459-.06-.171-.085-.352-.072-.532-.013-.181.012-.362.072-.532.061-.171.155-.327.279-.459.123-.132.272-.238.438-.31s.345-.109.526-.109.36.037.526.109c.165.072.315.178.438.31s.218.288.279.459c.06.17.085.351.072.532z"/><path d="m156.966 174.528c-.018.257-.113.504-.27.708-.158.205-.372.358-.616.442s-.507.095-.757.03c-.25-.064-.476-.2-.649-.392-.173-.191-.286-.429-.326-.684-.039-.256-.002-.517.106-.751.107-.235.282-.432.501-.569.219-.136.473-.205.731-.198.356.021.69.181.929.446.239.264.365.612.351.968z"/><path d="m161.043 174.547c-.019.258-.113.504-.27.708-.158.205-.372.359-.616.442-.244.084-.507.095-.757.03-.25-.064-.476-.2-.649-.392-.173-.191-.287-.429-.326-.684s-.002-.516.105-.751c.108-.234.282-.432.502-.569.219-.136.473-.205.731-.198.356.021.69.181.929.446.239.264.365.612.351.968z"/><path d="m165.12 174.56c-.018.258-.111.505-.268.71-.156.206-.37.36-.614.445s-.508.096-.758.033c-.251-.064-.477-.2-.651-.391s-.288-.43-.327-.685c-.04-.255-.004-.517.104-.752.108-.234.282-.433.502-.569.219-.137.474-.206.732-.199.355.021.687.181.926.444s.366.609.354.964z"/><path d="m169.203 174.579c-.017.257-.109.502-.265.707-.155.205-.367.36-.609.446s-.505.099-.754.038c-.25-.061-.476-.194-.652-.382-.175-.188-.291-.423-.335-.676-.043-.254-.011-.514.092-.75.102-.235.272-.436.487-.576.215-.141.467-.215.724-.215.361.014.701.169.947.433s.377.615.365.975z"/><path d="m173.28 174.598c.013.181-.012.362-.073.532-.06.171-.155.327-.278.459-.123.133-.273.238-.439.31-.165.072-.344.11-.525.11s-.36-.038-.526-.11-.315-.177-.438-.31c-.124-.132-.219-.288-.279-.459-.06-.17-.085-.351-.072-.532-.013-.18.012-.361.072-.532.06-.17.155-.326.279-.459.123-.132.272-.237.438-.309.166-.073.345-.11.526-.11s.36.037.525.11c.166.072.316.177.439.309.123.133.218.289.278.459.061.171.086.352.073.532z"/><path d="m177.357 174.618c-.018.256-.11.502-.265.707s-.367.359-.61.445c-.242.086-.504.1-.754.039-.249-.061-.476-.194-.651-.382s-.292-.424-.335-.677-.012-.514.091-.749c.103-.236.272-.436.488-.577.215-.141.467-.215.724-.214.36.013.701.169.947.433.246.263.377.614.365.975z"/><path d="m181.434 174.637c-.018.258-.111.505-.268.71s-.371.36-.615.445-.507.096-.758.032c-.25-.063-.477-.199-.65-.39-.174-.192-.288-.43-.328-.685-.039-.255-.003-.517.105-.752.107-.235.282-.433.501-.569.22-.137.474-.206.733-.199.354.021.687.18.926.444.239.263.366.609.354.964z"/></g><path d="m175.642 82.2464c.444-.1958.821-.518 1.084-.9265s.4-.8854.394-1.3711c.016-.3158-.031-.6316-.141-.9283-.109-.2967-.278-.5679-.496-.7973-.217-.2294-.479-.412-.77-.5369-.29-.1248-.603-.1892-.919-.1892-.317 0-.63.0644-.92.1892-.291.1249-.553.3075-.77.5369-.218.2294-.387.5006-.496.7973-.11.2967-.157.6125-.141.9283-.01.4906.126.9731.39 1.3866.265.4135.646.7394 1.095.9366-3.584.5376-3.424 4.4288-3.424 4.4288l8.474.0384s.198-3.9616-3.36-4.4928z" fill="#ff3e16"/><path d="m175.642 82.2464c.444-.1958.821-.518 1.084-.9265s.4-.8854.394-1.3711c.016-.3158-.031-.6316-.141-.9283-.109-.2967-.278-.5679-.496-.7973-.217-.2294-.479-.412-.77-.5369-.29-.1248-.603-.1892-.919-.1892-.317 0-.63.0644-.92.1892-.291.1249-.553.3075-.77.5369-.218.2294-.387.5006-.496.7973-.11.2967-.157.6125-.141.9283-.01.4906.126.9731.39 1.3866.265.4135.646.7394 1.095.9366-3.584.5376-3.424 4.4288-3.424 4.4288l8.474.0384s.198-3.9616-3.36-4.4928z" fill="#000" opacity=".1"/><path d="m189.411 89.2489-30.201-.137-.017 3.6095 30.201.1371z" fill="#ff3e16"/><path d="m189.411 89.2489-30.201-.137-.017 3.6095 30.201.1371z" fill="#fff" opacity=".2"/><path d="m78.3808 107.955h-.3008l-.8704.064c-.471.029-.9394.091-1.4016.186-.2993.042-.5963.1-.8896.173l-.992.275c-1.6884.518-3.2814 1.307-4.7168 2.336-1.8964 1.376-3.4799 3.139-4.6464 5.171-.6856 1.172-1.2312 2.42-1.6256 3.718-.4144 1.412-.653 2.869-.7104 4.34-.0381.772-.0253 1.546.0384 2.316 0 .391.1088.781.16 1.178.0431.4.118.796.224 1.184.5755 2.568 1.7432 4.966 3.41 7.003s3.7865 3.656 6.19 4.728c1.7396.751 3.6041 1.17 5.4976 1.235 1.9557.108 3.9133-.173 5.76-.825l.5632-.211h.0768l.064.038 8.0704 4.096-.2368.205c-.864-2.675-1.696-5.267-2.5024-7.757v-.096l.0704-.07c1.9578-1.972 3.4111-4.387 4.2368-7.04.7479-2.426.9661-4.984.64-7.501-.2901-2.237-1.0093-4.397-2.1184-6.362-.956-1.687-2.1892-3.202-3.648-4.48-1.2035-1.011-2.5356-1.859-3.9616-2.521-1.0789-.466-2.2027-.82-3.3536-1.056l-1.28-.212-.928-.07-.5632-.038h-.192c.0638-.007.1282-.007.192 0h.5696l.928.038 1.28.186c1.1653.219 2.3043.56 3.3984 1.017 1.4505.654 2.8066 1.5 4.032 2.515 1.4856 1.273 2.745 2.788 3.7248 4.48 1.1405 1.986 1.8819 4.175 2.1824 6.445.3532 2.556.1502 5.159-.5952 7.629-.8311 2.708-2.3069 5.175-4.3008 7.187l.0384-.166c.8064 2.489 1.6448 5.081 2.5152 7.75l.1216.391-.3648-.186-8.0704-4.09h.1408l-.576.212c-1.8823.662-3.8761.949-5.8688.844-1.9343-.073-3.8378-.507-5.6128-1.28-3.3858-1.45-6.2027-3.97-8.0192-7.174-.8359-1.48-1.4463-3.076-1.8112-4.736-.0999-.398-.1747-.802-.224-1.21-.0512-.403-.1344-.8-.1536-1.196-.1732-2.278.0675-4.567.7104-6.759.4042-1.317.965-2.58 1.6704-3.763 1.1943-2.051 2.8108-3.824 4.7424-5.203 1.459-1.032 3.0788-1.815 4.7936-2.317l1.0048-.256c.2958-.069.5948-.122.896-.16.467-.086.9398-.138 1.4144-.154l.8768-.032c.0997-.013.2002-.019.3008-.019z" fill="#ff3e16"/><path d="m82.0288 122.88h-1.184l-2.56-3.597v-2.361s-1.8304-.116-1.6128 2.976c.2176 3.091 0 2.304 0 2.304s-3.8848 0-4.2048.352-.3392 4.102-.384 6.195c-.0245.504.1203 1.003.4113 1.415.2911.413.7117.717 1.1951.863.1355.038.2754.057.416.058.9728 0 5.92-.787 5.92-.787h2.0416z" fill="#ff3e16"/><path d="m85.4145 122.246-.7296 8.09h-2.0224v-7.923z" fill="#ff3e16"/><path d="m109.536 286.938v-5.472l-9.8112-.071-.0832 8.275.6084.045c2.707.173 13.772.429 15.59-.134 2.022-.627-6.304-2.643-6.304-2.643z" fill="#ff3e16"/><path d="m116.07 289.069c0 .089-3.673.166-8.198.166s-8.1984-.077-8.1984-.166c0-.09 3.6734-.167 8.1984-.167s8.198.077 8.198.167z" fill="#263238"/><path d="m109.709 288.058c-.083-.045 0-.333.198-.64.199-.308.467-.436.531-.372s-.07.308-.262.57-.384.486-.467.442z" fill="#263238"/><path d="m110.336 288.416c-.09 0-.045-.358.147-.698.192-.339.448-.544.519-.492.07.051-.045.339-.224.64-.18.3-.359.582-.442.55z" fill="#263238"/><path d="m102.63 289.043c-.038 0-.185-.115-.396-.358-.258-.313-.545-.6-.858-.858-.307-.245-.674-.406-1.062-.467-.301-.038-.4932 0-.5124-.038-.0192-.039.1664-.173.5184-.199.465-.01.918.144 1.28.435.339.277.626.613.845.992.147.282.224.468.185.493z" fill="#263238"/><path d="m109.741 287.027c.045.077-.122.269-.403.371-.282.103-.532.064-.544 0-.013-.064.185-.198.428-.288.244-.089.468-.16.519-.083z" fill="#263238"/><path d="m109.587 286.496c0 .096-.256.173-.589.179-.332.007-.595-.07-.588-.16.006-.089.268-.173.588-.179s.576.07.589.16z" fill="#263238"/><path d="m133.696 286.938v-5.472l-9.811-.071-.083 8.192.608.045c2.707.173 13.779.512 15.59-.051 2.022-.627-6.304-2.643-6.304-2.643z" fill="#ff3e16"/><path d="m140.23 289.082c0 .089-3.667.166-8.198.166s-8.192-.077-8.192-.166c0-.09 3.667-.167 8.192-.167s8.198.077 8.198.167z" fill="#263238"/><path d="m133.869 288.058c-.077-.045 0-.333.198-.64.199-.308.467-.436.531-.372s-.07.308-.262.57-.384.486-.467.442z" fill="#263238"/><path d="m134.496 288.416c-.083 0-.045-.358.154-.698.198-.339.448-.544.518-.492.07.051-.051.339-.23.64-.18.3-.352.582-.442.55z" fill="#263238"/><path d="m126.79 289.043c-.038 0-.179-.115-.396-.358-.258-.313-.545-.6-.858-.858-.307-.245-.674-.406-1.062-.467-.295-.038-.493 0-.512-.038-.02-.039.166-.173.518-.199.465-.01.918.144 1.28.435.341.275.628.612.845.992.147.282.224.468.185.493z" fill="#263238"/><path d="m133.901 287.027c.045.077-.122.269-.403.371-.282.103-.532.064-.544 0-.013-.064.185-.198.428-.288.244-.089.468-.16.519-.083z" fill="#263238"/><path d="m133.76 286.496c0 .096-.256.173-.589.179-.333.007-.589-.07-.582-.16.006-.089.262-.173.582-.179s.589.07.589.16z" fill="#263238"/><path d="m169.843 124.442c-.256-.263-.889-.135-.889-.135.063-.368.063-.745 0-1.113-.116-.359-.922-.288-.922-.288-.037-.302-.037-.607 0-.909.006-.067-.008-.134-.041-.193-.033-.058-.084-.105-.145-.134-.381-.155-.791-.229-1.203-.217-.493-.352 1.504-3.149 2.247-4.045.742-.896.608-1.594-.052-1.594-.454 0-2.784 2.688-3.5 3.591-.717.902-2.618 3.411-2.682 1.408s-.87-3.514-1.376-3.77-1.043.346-.768.903c.242.632.393 1.296.448 1.971.07.537.046 1.083-.07 1.613-.213.985-.501 1.952-.864 2.892h-.052s-13.964 13.396-14.976 14.349c-.902.858-19.052-1.017-22.694-1.401-1.237-.181-2.487-.267-3.738-.256-1.58.07-1.862.294-3.436.313-3.976.044-7.943.393-11.866 1.043-1.776.302-3.4354 1.086-4.7965 2.267-1.3611 1.18-2.3718 2.712-2.9219 4.428-3.6672 11.456-11.9744 38.573-13.44 53.805-1.1075 2.008-2.1073 4.074-2.9952 6.188-1.0304 2.804-.7808 2.9-.4352 2.964.9344.172 1.9968-4.858 2.3936-3.642s-2.016 5.997-1.0368 6.138c1.28.179 2.2976-5.12 2.4192-5.543.1216-.422.7552-.288.64.109-.1856.563-1.984 6.534-.7296 6.726.6912.103.768-1.158.768-1.158s1.28-5.715 1.8624-5.6-.0384 3.488-.3328 4.614c-.2944 1.127.1152 1.696.7168 1.421.4096-.192 1.3888-3.616 1.6576-4.729.2688-1.114.9408-4.199 1.8432-2.413.9024 1.785 2.272 2.822 2.8352 2.848.1269-.015.2465-.067.3435-.15.0969-.083.1667-.194.2005-.317.0337-.123.0298-.254-.0113-.375-.041-.121-.1174-.227-.2191-.304-.4844-.473-.9002-1.011-1.2352-1.6-.2986-.458-.5151-.965-.64-1.497-.2579-1.062-.408-2.147-.448-3.239l-.1024-.64c1.4336-7.097 5.5616-27.929 11.52-41.235l2.445 5.03 1.062 3.725-6.515 16.083 27.789-.364-4.147-15.962 5.036-16.64c5.447.122 19.431.326 21.76-.73 2.932-1.28 18.093-20.428 18.093-20.428.988-.768 1.935-1.589 2.835-2.458 0 0 .922-.774.365-1.35z" fill="#ffbe9d"/><path d="m96.8896 170.49c.8064-2.752 4.9474-16.359 4.9474-16.359s2.035 11.091 1.497 12.429c-.494 1.145-1.078 2.249-1.747 3.302-4.6974 7.149-4.083 10.727-4.083 10.727l28.384-.864c.064-3.968-2.285-13.197-2.771-14.669-.487-1.472 1.133-6.291 1.133-6.291s3.2-3.258 3.084-4.935c-.06-1.506-.247-3.004-.556-4.48l17.28.64-.544-11.712-24.82-2.483c-.864 2.439-8.678 1.242-8.678 1.242-8.435.281-8.96 1.83-12.4672 4.557-3.5072 2.726-9.312 26.124-9.312 26.124z" fill="#ff3e16"/><path d="m113.67 167.718c-.491.088-.992.114-1.491.077-.928 0-2.201-.064-3.603-.205-1.402-.14-2.669-.339-3.571-.518-.498-.064-.986-.189-1.453-.371.5 0 1 .047 1.491.141.909.115 2.17.275 3.565.416 1.395.14 2.662.236 3.578.3.498.007.996.06 1.484.16z" fill="#263238"/><path d="m115.616 165.306c-.492.241-1.012.419-1.549.531-2.553.671-5.188.983-7.827.928-.546.018-1.092-.034-1.626-.154.539-.068 1.083-.096 1.626-.083 1.005-.032 2.387-.102 3.91-.282 1.524-.179 2.88-.435 3.84-.64.534-.142 1.077-.243 1.626-.3z" fill="#263238"/><path d="m125.165 154.541c-.013.488-.08.973-.199 1.446-.166.89-.422 2.106-.748 3.437-.327 1.331-.64 2.56-.922 3.392-.113.476-.281.938-.499 1.376.035-.486.126-.967.269-1.434.243-.998.518-2.15.825-3.411s.602-2.413.845-3.411c.087-.481.231-.949.429-1.395z" fill="#263238"/><path d="m97.1903 168.858c-1.4806-.229-2.9418-.569-4.3712-1.018-1.4605-.342-2.8938-.791-4.288-1.344 1.4799.232 2.9409.572 4.3712 1.018 1.4609.34 2.8943.789 4.288 1.344z" fill="#263238"/><path d="m127.085 149.21c-.242.041-.488.041-.73 0-.668-.069-1.325-.226-1.952-.468-1.047-.393-2-1.001-2.798-1.785-.798-.783-1.423-1.725-1.835-2.765-.456-1.144-.651-2.375-.57-3.603.028-1.013.332-2 .877-2.855.383-.575.956-.999 1.619-1.196.177-.049.36-.073.544-.071h.192s-.269 0-.698.173c-.608.225-1.124.646-1.465 1.197-.871 1.369-1.114 3.872-.186 6.208.432 1.101 1.108 2.09 1.978 2.893.712.656 1.533 1.184 2.425 1.561.838.331 1.709.569 2.599.711z" fill="#263238"/><path d="m142.003 149.76c-.16-1.963-.211-3.933-.153-5.901-.051-1.966.009-3.934.179-5.894.16 1.96.211 3.928.153 5.894.054 1.969-.006 3.939-.179 5.901z" fill="#263238"/><path d="m118.528 136.512c.07-1.427.218-3.04.218-3.04s3.532-.39 3.744-4.038c.211-3.648 0-12.064 0-12.064l-6.4-3.277-7.104 5.587 1.094 18.24 6.515.416c.498.014.981-.17 1.344-.512.362-.342.574-.814.589-1.312z" fill="#ffbe9d"/><path d="m119.162 126.547s0 .071-.058.154c-.048.06-.109.108-.18.139-.07.031-.147.045-.223.04-.41 0-.807-.474-.947-1.024-.067-.267-.067-.546 0-.813.013-.116.055-.228.122-.324s.157-.174.262-.226c.086-.036.182-.036.268 0 .064.031.116.083.148.147.044.109 0 .179 0 .173 0-.007 0-.064-.064-.128-.034-.046-.083-.078-.139-.09-.055-.012-.113-.002-.162.026-.079.047-.144.114-.19.193-.046.08-.071.169-.073.261-.054.238-.054.485 0 .723.128.5.474.903.781.941.06.008.121.004.18-.012.058-.017.112-.045.159-.084.077-.051.103-.102.116-.096z" fill="#eb996e"/><path d="m124.685 115.398c-.493-1.676-2.279-2.508-3.904-2.969-2.477-.704-5.152-1.011-7.571-.122-2.42.89-5.325 2.451-5.325 5.12-1.427-.115-2.247 1.133-2.81 2.682-.36.943-.576 1.936-.64 2.944-.179 3.494-1.158 8.32-3.424 10.88-1.2798 1.427-3.0526 2.413-3.7822 4.192-.64 1.542-.3072 3.373-.9024 4.934-.5312 1.376-1.7024 2.355-2.56 3.552-.8737 1.358-1.3879 2.915-1.4942 4.526-.1064 1.611.1986 3.223.8862 4.684.6926 1.423 1.6677 2.69 2.8659 3.725 1.1983 1.034 2.5945 1.814 4.1037 2.291 2.989.909 6.177.94 9.184.089 2.257-.539 4.361-1.583 6.157-3.052 1.837-1.501 3.099-3.59 3.571-5.914.454-2.611-.275-5.267-.819-7.866-1.703-8.211-1.216-8.64.934-16.262.051-.134.077-.275.115-.41.039-.134.058-.198.084-.3.061-.302.093-.608.096-.916-.314.117-.655.142-.983.072-.328-.071-.628-.233-.867-.468-.239-.251-.406-.562-.482-.9-.077-.338-.061-.691.047-1.02.151-.361.376-.685.66-.953.285-.268.622-.473.991-.603.71-.294 1.472-.448 2.17-.774 1.478-.704 2.502-2.163 3.2-3.693.573-1.06.75-2.29.499-3.469z" fill="#263238"/><path d="m119.418 126.72c.135.2.247.415.332.64.192.403.448.973.73 1.632l.051.122h-.134l-.64.057c-.442 0-.813.083-1.248.077-.038-.009-.073-.026-.102-.052s-.052-.059-.065-.095c-.019-.058-.019-.121 0-.179.015-.087.034-.172.058-.256l.115-.455c.058-.303.148-.599.269-.883-.012.309-.057.616-.134.915l-.09.455c-.032.153-.09.39 0 .371.32 0 .774-.071 1.197-.096l.64-.058-.083.141c-.276-.64-.506-1.242-.64-1.658-.118-.212-.205-.441-.256-.678z" fill="#ff3e16"/><path d="m97.504 180.589 28.384-.864 12.352 48.217-2.272 55.309h-15.008l1.837-54.131-10.976-33.568 1.689 89.843-15.1676.224-1.5936-84.448c-.0704-2.349-.8384-7.641-.5504-9.971z" fill="#263238"/><path d="m115.597 196.237c-.465.029-.931.001-1.389-.083-.858-.103-2.029-.282-3.315-.538-1.287-.256-2.439-.55-3.271-.787-.444-.098-.875-.253-1.28-.461 0-.096 2.087.403 4.647.922 2.56.518 4.621.851 4.608.947z" fill="#455a64"/><path d="m135.814 280.218c0 .089-3.398.166-7.59.166s-7.597-.077-7.597-.166c0-.09 3.399-.167 7.597-.167s7.59.071 7.59.167z" fill="#455a64"/><path d="m113.376 283.059c0 .096-3.302.167-7.373.167-4.07 0-7.3663-.071-7.3663-.167s3.3023-.166 7.3663-.166 7.373.077 7.373.166z" fill="#455a64"/><path d="m111.418 282.829c-.09 0-.487-19.629-.89-43.84s-.64-43.853-.557-43.853.493 19.622.89 43.846.653 43.847.557 43.847z" fill="#455a64"/><path d="m133.798 280.218c-.007-.088-.007-.175 0-.263v-.768c0-.691.052-1.683.09-2.944.09-2.56.218-6.278.378-10.835.345-9.165.832-21.798 1.363-35.744 0-.134 0-.262 0-.378v.045c-3.36-13.44-6.4-25.638-8.608-34.464l-2.56-10.438c-.295-1.223-.519-2.176-.679-2.842-.076-.313-.128-.557-.172-.742-.025-.083-.04-.169-.045-.256.033.08.059.164.077.249.051.18.115.423.204.73.173.64.423 1.613.743 2.829.64 2.47 1.542 6.029 2.669 10.413 2.227 8.819 5.299 20.985 8.704 34.444v.045.378c-.57 13.945-1.088 26.573-1.466 35.737-.198 4.564-.365 8.256-.48 10.829-.064 1.28-.115 2.253-.147 2.944 0 .327-.039.583-.045.768.001.088-.008.176-.026.263z" fill="#455a64"/><path d="m128.902 228.16c-1.078.354-2.188.601-3.315.736-1.382.237-2.56.403-3.091.429v-.128c.173.051.262.083.262.109 0 .025-.108 0-.288 0h-.384l.384-.116c.5-.147 1.677-.39 3.06-.64 1.108-.24 2.238-.371 3.372-.39z" fill="#455a64"/><path d="m128.64 229.997c-.998.046-1.999.001-2.989-.135-1-.02-1.995-.129-2.976-.326 2-.163 4.014-.008 5.965.461z" fill="#455a64"/><path d="m97.3824 181.606c.3362.432.7596.788 1.2426 1.045s1.0148.409 1.561.447c1.143.135 2.299.113 3.436-.064 7.328-.813 15.092-1.562 22.266-3.309-9.286.518-19.098.345-28.384.864l-.096.793" fill="#000" opacity=".2"/><path d="m106.95 194.694 5.236 20.314-.365-19.456z" fill="#000" opacity=".2"/></svg>