<svg enable-background="new 0 0 682.7 682.7" viewBox="0 0 682.7 682.7" xmlns="http://www.w3.org/2000/svg"><g style="fill:none;stroke:#ef4425;stroke-width:40;stroke-linecap:round;stroke-linejoin:round;stroke-miterlimit:13.3333"><path d="m85.3 647.7c49.5-72.7 107-137 171.5-195.3 51.9-46.9 84.5-114.6 84.5-190.1 0-141.4-114.6-257.3-256-257.3s-256 115.9-256 257.3c0 75.4 32.6 143.2 84.5 190.1 64.5 58.3 122 122.5 171.5 195.3z" transform="translate(256 15)"/><path d="m149.3-26.7c0 141.4-114.6 256-256 256s-256-114.6-256-256 114.6-257.3 256-257.3 256 115.9 256 257.3z" transform="translate(448 304)"/><path d="m384 416h-85.3v-85.3h85.3z"/><path d="m114.7-82.7v170.7h-234.7v-170.7l117.3-117.3z" transform="translate(344 328)"/><path d="m45.3-8 160-160 160 160" transform="translate(136 296)"/><path d="m66.7-157.3v-74.7" transform="translate(200 360)"/><path d="m90.7-64h-42.7" transform="translate(272 320)"/></g></svg>