<?xml version="1.0" encoding="utf-8"?>
<!-- Generator: Adobe Illustrator 25.0.0, SVG Export Plug-In . SVG Version: 6.00 Build 0)  -->
<svg version="1.1" id="Capa_1" xmlns="http://www.w3.org/2000/svg" xmlns:xlink="http://www.w3.org/1999/xlink" x="0px" y="0px"
	 viewBox="0 0 512 512" style="enable-background:new 0 0 512 512;" xml:space="preserve">
<style type="text/css">
	.st0{fill:#FFB74F;}
	.st1{fill:#FF7D3C;}
	.st2{fill:#FF9A00;}
	.st3{fill:#FF4E19;}
</style>
<circle cx="256.5" cy="256" r="256.5"/>
<g>
	<polygon class="st0" points="412.3,251.1 412.3,446 292,446 292,327.9 225.3,327.9 225.3,446 99.7,446 99.7,251.1 256,130.9 	"/>
	<path class="st1" d="M418.9,191.3v-82.4H353v31.8L256,66L28.7,240.8l47.6,61.9L256,164.5l179.7,138.2l47.6-61.9L418.9,191.3z"/>
	<polygon class="st2" points="412.3,251.1 412.3,446 292,446 292,327.9 256,327.9 256,130.9 	"/>
	<polygon class="st3" points="483.3,240.8 435.7,302.7 256,164.5 256,66 353,140.7 353,108.9 418.9,108.9 418.9,191.3 	"/>
</g>
</svg>
