<svg enable-background="new 0 0 512 512" viewBox="0 0 512 512" xmlns="http://www.w3.org/2000/svg"><g fill="#ef4425"><path d="m412 136c0 5.5 4.5 10 10 10s10-4.5 10-10-4.5-10-10-10-10 4.5-10 10z"/><path d="m452 256c0 12.8-1.3 25.6-3.8 38-1.1 5.4 2.4 10.7 7.8 11.8.7.1 1.3.2 2 .2 4.7 0 8.8-3.3 9.8-8 2.8-13.7 4.2-27.9 4.2-42 0-31.5-6.8-61.8-20.3-90.1-2.4-5-8.3-7.1-13.3-4.7s-7.1 8.3-4.7 13.3c12.1 25.6 18.3 53 18.3 81.5z"/><path d="m306 346h-10v-130c0-5.5-4.5-10-10-10h-80c-5.5 0-10 4.5-10 10v40c0 5.5 4.5 10 10 10h10v80h-10c-5.5 0-10 4.5-10 10v40c0 5.5 4.5 10 10 10h100c5.5 0 10-4.5 10-10v-40c0-5.5-4.5-10-10-10zm-10 40h-80v-20h10c5.5 0 10-4.5 10-10v-100c0-5.5-4.5-10-10-10h-10v-20h60v130c0 5.5 4.5 10 10 10h10z"/><path d="m256 186c22.1 0 40-17.9 40-40s-17.9-40-40-40-40 17.9-40 40 17.9 40 40 40zm0-60c11 0 20 9 20 20s-9 20-20 20-20-9-20-20 9-20 20-20z"/><path d="m256 0c-138 0-256 117.8-256 256 0 47.2 13.5 97.4 36.3 135.4l-35.8 107.4c-1.2 3.6-.3 7.6 2.4 10.2 2.7 2.7 6.7 3.6 10.2 2.4l107.5-35.8c38 22.8 88.2 36.3 135.4 36.3 138 0 256-117.8 256-256 0-137.9-117.8-255.9-256-255.9zm0 492c-45.3 0-93.4-13.4-128.8-35.7-2.5-1.6-5.6-2-8.5-1l-92.9 31 31-92.9c1-2.9.6-6-1-8.5-22.4-35.5-35.8-83.6-35.8-128.9 0-127.9 108.1-236 236-236s236 108.1 236 236-108.1 236-236 236z"/></g></svg>