<svg enable-background="new 0 0 512 512" viewBox="0 0 512 512" xmlns="http://www.w3.org/2000/svg"><path d="m315.6 430.4v-317.8c0-7.7-6.2-13.9-13.9-13.9h-194.4c-7.7 0-13.9 6.2-13.9 13.9v317.9c0 7.7 6.2 13.9 13.9 13.9h194.3c7.8 0 14-6.3 14-14z" fill="#ffc250"/><path d="m347.3 98.6h-46.6c7.7 0 13.9 6.2 13.9 13.9v317.9c0 7.7-6.2 13.9-13.9 13.9h46.6c7.7 0 13.9-6.2 13.9-13.9v-317.8c0-7.7-6.2-14-13.9-14z" fill="#eab14d"/><path d="m116.2 416.6v-290.2c0-2.7 2.2-5 5-5h212.4c2.7 0 5 2.2 5 5v290.3c0 2.7-2.2 5-5 5h-212.5c-2.7-.1-4.9-2.3-4.9-5.1z" fill="#f5f5f5"/><path d="m333.5 121.4h-46.6c2.7 0 5 2.2 5 5v290.3c0 2.7-2.2 5-5 5h46.6c2.7 0 5-2.2 5-5v-290.3c0-2.8-2.2-5-5-5z" fill="#eaeaea"/><path d="m256.9 85v-7.3c0-5.5-4.5-10-10-10h-39.1c-5.5 0-10 4.5-10 10v7.3c0 2.3-1.8 4.1-4.1 4.1h-16.3c-5.4 0-9.8 4.4-9.8 9.8v22.5h119.5v-22.5c0-5.4-4.4-9.8-9.8-9.8h-16.3c-2.3-.1-4.1-1.9-4.1-4.1z" fill="#c2d0da"/><path d="m145.1 202.1v-43.8c0-4.9 3.9-8.8 8.8-8.8h43.8c4.9 0 8.8 3.9 8.8 8.8v43.8c0 4.9-3.9 8.8-8.8 8.8h-43.8c-4.9 0-8.8-3.9-8.8-8.8z" fill="#66b49d"/><path d="m145.1 293.4v-43.8c0-4.9 3.9-8.8 8.8-8.8h43.8c4.9 0 8.8 3.9 8.8 8.8v43.8c0 4.9-3.9 8.8-8.8 8.8h-43.8c-4.9 0-8.8-3.9-8.8-8.8z" fill="#66b49d"/><path d="m145.1 384.7v-43.8c0-4.9 3.9-8.8 8.8-8.8h43.8c4.9 0 8.8 3.9 8.8 8.8v43.8c0 4.9-3.9 8.8-8.8 8.8h-43.8c-4.9 0-8.8-4-8.8-8.8z" fill="#66b49d"/><path d="m172.1 195.9c-2.5 0-4.9-1.2-6.4-3.2l-6.6-9.1c-1.8-2.5-1.3-6.1 1.2-7.9s6.1-1.3 7.9 1.2l3.8 5.3 11.3-15.3c1.9-2.5 5.4-3.1 7.9-1.2s3.1 5.4 1.2 7.9l-14.1 19.1c-1.3 2-3.7 3.2-6.2 3.2z" fill="#f6f9f9"/><path d="m172.1 289.2c-2.5 0-4.9-1.2-6.4-3.3l-6.6-9.1c-1.8-2.5-1.3-6.1 1.2-7.9s6.1-1.3 7.9 1.2l3.8 5.3 11.3-15.3c1.9-2.5 5.4-3.1 7.9-1.2s3.1 5.4 1.2 7.9l-14 19.2c-1.4 2-3.8 3.2-6.3 3.2z" fill="#f6f9f9"/><path d="m172.1 378.4c-2.5 0-4.9-1.2-6.4-3.2l-6.6-9.1c-1.8-2.5-1.3-6.1 1.3-7.9 2.5-1.8 6.1-1.3 7.9 1.3l3.8 5.3 11.3-15.3c1.9-2.5 5.4-3.1 7.9-1.2s3.1 5.4 1.2 7.9l-14.1 19.1c-1.4 1.9-3.8 3.1-6.3 3.1z" fill="#f6f9f9"/><g fill="#ddeafb"><path d="m305.1 174h-70.3c-3.1 0-5.7-2.5-5.7-5.7s2.5-5.7 5.7-5.7h70.3c3.1 0 5.7 2.5 5.7 5.7s-2.6 5.7-5.7 5.7z"/><path d="m269.9 197.8h-35.1c-3.1 0-5.7-2.5-5.7-5.7s2.5-5.7 5.7-5.7h35.1c3.1 0 5.7 2.5 5.7 5.7s-2.5 5.7-5.7 5.7z"/><path d="m281.9 265.3h-47.2c-3.1 0-5.7-2.5-5.7-5.7s2.5-5.7 5.7-5.7h47.2c3.1 0 5.7 2.5 5.7 5.7s-2.5 5.7-5.7 5.7z"/><path d="m269.9 289.1h-35.1c-3.1 0-5.7-2.5-5.7-5.7s2.5-5.7 5.7-5.7h35.1c3.1 0 5.7 2.5 5.7 5.7s-2.5 5.7-5.7 5.7z"/></g><path d="m396.5 216.1-5.6-7.4-20.9-13.2-8-1.3-107 169c-2.6 4.1-4.5 8.5-5.6 13.2 13 .2 24.8 7.6 30.5 19.3 3.8-3 7-6.6 9.6-10.7z" fill="#fc8086"/><path d="m411.6 164-9-5.7c-7-4.5-16.3-2.4-20.8 4.7l-8.3 13.1 2.6 5.3 25.1 15.9 6.7.6 8.3-13.1c4.5-7 2.4-16.3-4.6-20.8z" fill="#8c9ba6"/><path d="m362 194.2 11.5-18.2 34.5 21.8-11.5 18.2z" fill="#c9e2e7"/><path d="m280 395.8-30.4 24.5c-4.3 3.5-10.5-.5-9.2-5.9l9.2-38c12.8.2 24.6 7.7 30.4 19.4z" fill="#7c8b96"/><path d="m272 385.2 112.1-177-9.6-6.1-112.1 177c3.5 1.5 6.7 3.6 9.6 6.1z" fill="#fb636f"/></svg>