<svg enable-background="new 0 0 512 512" viewBox="0 0 512 512" xmlns="http://www.w3.org/2000/svg"><g fill="#ff3e16"><path d="m456.6 220.8c4.2 0 7.6-3.4 7.6-7.6v-164.6c0-26.8-21.8-48.6-48.6-48.6-17.4 0-298.6 0-313.8 0-29.8 0-53.9 24.2-53.9 53.9v437.2c0 11.5 9.4 20.9 20.9 20.9h291.9c11.5 0 20.9-9.4 20.9-20.9v-136.2h63.8c10.4 0 18.9-8.5 18.9-18.8v-92.5c0-4.2-3.4-7.6-7.6-7.6s-7.6 3.4-7.6 7.6v92.4c0 2-1.7 3.7-3.7 3.7h-63.8c0-12.2 0-268.9 0-291.1 0-16.1 11.5-29.7 26.7-32.8 21.6-4.4 40.8 11.8 40.8 32.8v164.6c-.1 4.2 3.3 7.6 7.5 7.6zm-86.5-191c-5.5 13.1-3.8 6.7-3.8 317.5v143.8c0 3.2-2.6 5.7-5.7 5.7h-291.9c-3.2 0-5.7-2.6-5.7-5.7v-437.2c0-21.4 17.4-38.8 38.8-38.8h277.9c-3.9 4.1-7.3 9.2-9.6 14.7z"/><path d="m123.3 62.7c-14.2 0-25.8 11.6-25.8 25.8s11.6 25.8 25.8 25.8 25.8-11.6 25.8-25.8-11.6-25.8-25.8-25.8zm0 36.4c-5.9 0-10.6-4.8-10.6-10.6s4.8-10.6 10.6-10.6 10.6 4.8 10.6 10.6-4.7 10.6-10.6 10.6z"/><path d="m197 80.9h-14.5c-4.2 0-7.6 3.4-7.6 7.6s3.4 7.6 7.6 7.6h14.5c4.2 0 7.6-3.4 7.6-7.6s-3.4-7.6-7.6-7.6z"/><path d="m330.2 80.9h-103c-4.2 0-7.6 3.4-7.6 7.6s3.4 7.6 7.6 7.6h103c4.2 0 7.6-3.4 7.6-7.6s-3.4-7.6-7.6-7.6z"/><path d="m123.3 147c-14.2 0-25.8 11.6-25.8 25.8s11.6 25.8 25.8 25.8 25.8-11.6 25.8-25.8-11.6-25.8-25.8-25.8zm0 36.4c-5.9 0-10.6-4.8-10.6-10.6s4.8-10.6 10.6-10.6c5.9 0 10.6 4.8 10.6 10.6s-4.7 10.6-10.6 10.6z"/><path d="m330.2 165.2h-147.8c-4.2 0-7.6 3.4-7.6 7.6s3.4 7.6 7.6 7.6h147.8c4.2 0 7.6-3.4 7.6-7.6s-3.4-7.6-7.6-7.6z"/><path d="m123.3 231.3c-14.2 0-25.8 11.6-25.8 25.8s11.6 25.8 25.8 25.8 25.8-11.6 25.8-25.8-11.6-25.8-25.8-25.8zm0 36.4c-5.9 0-10.6-4.8-10.6-10.6 0-5.9 4.8-10.6 10.6-10.6 5.9 0 10.6 4.8 10.6 10.6s-4.7 10.6-10.6 10.6z"/><path d="m330.2 249.5h-14.5c-4.2 0-7.6 3.4-7.6 7.6s3.4 7.6 7.6 7.6h14.5c4.2 0 7.6-3.4 7.6-7.6s-3.4-7.6-7.6-7.6z"/><path d="m285.4 249.5h-103c-4.2 0-7.6 3.4-7.6 7.6s3.4 7.6 7.6 7.6h103c4.2 0 7.6-3.4 7.6-7.6s-3.4-7.6-7.6-7.6z"/><path d="m123.3 314.4c-14.2 0-25.8 11.6-25.8 25.8s11.6 25.8 25.8 25.8 25.8-11.6 25.8-25.8-11.6-25.8-25.8-25.8zm0 36.4c-5.9 0-10.6-4.8-10.6-10.6s4.8-10.6 10.6-10.6c5.9 0 10.6 4.8 10.6 10.6s-4.7 10.6-10.6 10.6z"/><path d="m330.2 332.6h-147.8c-4.2 0-7.6 3.4-7.6 7.6s3.4 7.6 7.6 7.6h147.8c4.2 0 7.6-3.4 7.6-7.6s-3.4-7.6-7.6-7.6z"/><path d="m123.3 398.7c-14.2 0-25.8 11.6-25.8 25.8s11.6 25.8 25.8 25.8 25.8-11.6 25.8-25.8-11.6-25.8-25.8-25.8zm0 36.4c-5.9 0-10.6-4.8-10.6-10.6s4.8-10.6 10.6-10.6c5.9 0 10.6 4.8 10.6 10.6 0 5.9-4.7 10.6-10.6 10.6z"/><path d="m330.2 416.9h-147.8c-4.2 0-7.6 3.4-7.6 7.6s3.4 7.6 7.6 7.6h147.8c4.2 0 7.6-3.4 7.6-7.6s-3.4-7.6-7.6-7.6z"/></g></svg>