<svg enable-background="new 0 0 512 512" viewBox="0 0 512 512" xmlns="http://www.w3.org/2000/svg"><g fill="#ef4425"><path d="m252.8 340 13.9-8c-7.2-12.4-20.4-20-34.7-20h-33.1c30.9-17.1 42.2-56 25.1-87s-56-42.2-87-25.1-42.2 56-25.1 87c5.8 10.6 14.5 19.3 25.1 25.1h-33c-22.1 0-40 17.9-40 40v144h16v-144c0-13.3 10.7-24 24-24h128c8.6 0 16.5 4.6 20.8 12zm-132.8-84c0-26.5 21.5-48 48-48s48 21.5 48 48-21.5 48-48 48-48-21.5-48-48z"/><path d="m104 368h16v128h-16z"/><path d="m392 91.7-20.4 13.6 8.9 13.3 24-16c2.2-1.5 3.6-4 3.6-6.6v-48h-16v43.7z"/><path d="m464 120c2.5 0 4.9-1.2 6.4-3.2l24-31.8c2.7-3.5 1.9-8.5-1.6-11.2-1.4-1-3.1-1.6-4.8-1.6l-17.8-.1c-8.8-38.8-47.3-63.1-86.1-54.3s-63.1 47.3-54.3 86.1 47.3 63.1 86.1 54.3c11.8-2.7 22.7-8.2 31.7-16.2l-10.6-12c-23.2 20.5-58.6 18.3-79-4.9-20.5-23.2-18.3-58.6 4.9-79 23.2-20.5 58.6-18.3 79 4.9 5.4 6.1 9.4 13.3 11.7 21.1l-13.6-.1c-4.4 0-8 3.6-8 8 0 1.7.6 3.4 1.6 4.8l24 32c1.5 2 3.9 3.2 6.4 3.2zm-8-31.9 16 .1-8 10.6z"/><path d="m281.4 396.1-26.4 42.8-13.7-10.2-9.6 12.8 20.7 15.4c1.4 1 3.1 1.6 4.8 1.6.5 0 1 0 1.5-.1 2.2-.4 4.2-1.7 5.3-3.6l31-50.2z"/><path d="m336 424c0-39.8-32.2-72-72-72s-72 32.2-72 72 32.2 72 72 72c39.7 0 72-32.3 72-72zm-128 0c0-30.9 25.1-56 56-56s56 25.1 56 56-25.1 56-56 56-56-25.1-56-56z"/><path d="m288 272h32v16h-32z"/><path d="m16 272h32v16h-32z"/><path d="m160 112h16v32h-16z"/><path d="m258.5 178.2 22.6-22.6 11.3 11.3-22.6 22.6z"/><path d="m43.5 166.8 11.3-11.3 22.6 22.6-11.3 11.3z"/></g></svg>