<svg enable-background="new 0 0 456.3 456.3" viewBox="0 0 456.3 456.3" xmlns="http://www.w3.org/2000/svg"><g fill="#ef4425"><path d="m227.8 456.3c-38.2 0-76.7-9.5-111.5-29.1-6.5-3.6-8.8-11.8-5.1-18.3 3.6-6.5 11.8-8.8 18.3-5.1 78.3 44.1 177.5 30.5 241.2-33.2 78.5-78.5 78.5-206.3 0-284.8s-206.3-78.5-284.9 0c-78.5 78.5-78.5 206.3 0 284.8 5.2 5.2 5.2 13.8 0 19s-13.7 5.2-19 0c-89-89-89-233.8 0-322.8s233.8-89 322.8 0 89 233.8 0 322.8c-43.9 43.8-102.6 66.7-161.8 66.7z"/><path d="m228.2 346.8c-7.4 0-13.4-6-13.4-13.4v-201.7c0-7.4 6-13.4 13.4-13.4s13.4 6 13.4 13.4v201.7c0 7.4-6 13.4-13.4 13.4z"/><path d="m329 246h-201.7c-7.4 0-13.4-6-13.4-13.4s6-13.4 13.4-13.4h201.7c7.4 0 13.4 6 13.4 13.4s-6 13.4-13.4 13.4z"/></g></svg>