<svg enable-background="new 0 0 512 512" viewBox="0 0 512 512" xmlns="http://www.w3.org/2000/svg"><g fill="#ef4425"><path d="m128.7 239.5v-50.7h48.1c3.3 0 6-2.7 6-6s-2.7-6-6-6h-48.1v-48.1c0-3.3-2.7-6-6-6s-6 2.7-6 6v48.1h-50.7c-3.3 0-6 2.7-6 6s2.7 6 6 6h50.7v50.7c0 3.3 2.7 6 6 6s6-2.7 6-6z"/><path d="m363.8 230.7v-76c0-3.3-2.7-6-6-6-.9 0-1.7.2-2.5.6l-115.5 53.9c-3.3 1.5-6.6 3-9.9 4.4 13-59.9-25-119-85-132s-119 25-132 85c-12.2 56.4 20.8 112.7 75.9 129.7v15.7c0 16.2 13.1 29.3 29.3 29.3h2.1v97.5c0 3.3 2.7 6 6 6 29 0 52.5-23.5 52.5-52.5v-44.5c21 4.5 41.5 11.4 61 20.5l115.5 53.9c3 1.4 6.6.1 8-2.9.4-.8.6-1.7.6-2.5v-76c28.7-3.9 48.8-30.4 44.9-59.2-3.2-23.3-21.5-41.7-44.9-44.9zm-341.4-46.6c0-54.7 44.3-99 99-99s99 44.3 99 99-44.3 99-99 99-99-44.3-99-99zm78.4 121.9v-12.8c22.3 4.2 45.3 1.5 66-7.8v42c-16.1-2.7-32.4-4-48.7-4-9.5-.1-17.2-7.8-17.3-17.4zm66 80.3c0 20.1-14.7 37.1-34.5 40.1v-90.7c11.6.6 23.1 1.9 34.5 3.8zm12-56.7v-50.5c21.6-13.1 38.1-33.1 46.8-56.8 6.5-2.5 13-5.2 19.3-8.2l68.6-32v201.3l-68.6-32c-21.1-9.8-43.3-17.1-66.1-21.8zm173 71.8-26.4-12.4v-212.5l26.4-12.3zm12-78.7v-79.8c22 4 36.7 25 32.7 47.1-2.9 16.6-16 29.7-32.7 32.7z"/><path d="m464.9 282.8c0-30-17.9-57.1-45.5-68.8-3-1.3-6.6.1-7.9 3.1s.1 6.6 3.1 7.9h.1c31.9 13.6 46.7 50.4 33.1 82.3-6.4 14.9-18.2 26.8-33.1 33.1-3.1 1.3-4.5 4.8-3.2 7.9s4.8 4.5 7.9 3.2h.1c27.5-11.7 45.4-38.8 45.4-68.7z"/><path d="m434.3 180.9c-3-1.3-6.6.1-7.9 3.1s.1 6.6 3.1 7.9h.1c50.2 21.4 73.5 79.3 52.2 129.5-10 23.5-28.7 42.2-52.2 52.2-3.1 1.3-4.5 4.8-3.2 7.9s4.8 4.5 7.9 3.2h.1c56.3-24 82.5-89 58.5-145.3-11.3-26.3-32.3-47.3-58.6-58.5z"/></g></svg>