<svg enable-background="new 0 0 512 512" viewBox="0 0 512 512" xmlns="http://www.w3.org/2000/svg"><g fill="#ef4425"><path d="m348.9 256c0-51.3-41.6-92.9-92.9-92.9s-92.9 41.6-92.9 92.9 41.6 92.9 92.9 92.9 92.9-41.6 92.9-92.9zm-169.3 0c0-42.1 34.3-76.4 76.4-76.4s76.4 34.3 76.4 76.4c0 22.1-9.4 42-24.4 55.9-1.7-4.5-4.4-8.6-7.9-12.1-6.7-6.6-15.5-10.3-24.9-10.3h-38.4c-9.4 0-18.2 3.7-24.9 10.3-3.5 3.5-6.2 7.6-7.9 12.1-15-13.9-24.4-33.8-24.4-55.9zm38.7 66.4c.5-4.1 2.3-7.9 5.3-10.9 3.5-3.5 8.2-5.5 13.2-5.5h38.4c5 0 9.7 1.9 13.2 5.5 3 3 4.8 6.8 5.3 10.8-11.1 6.3-24 10-37.7 10-13.7.1-26.6-3.6-37.7-9.9z"/><path d="m256 277.2c20 0 36.3-16.3 36.3-36.3s-16.3-36.3-36.3-36.3-36.3 16.3-36.3 36.3c0 20.1 16.3 36.3 36.3 36.3zm0-56c10.9 0 19.8 8.9 19.8 19.8s-8.9 19.8-19.8 19.8-19.8-8.9-19.8-19.8 8.9-19.8 19.8-19.8z"/><path d="m468.4 210-16.1 3.5c1.2 5.6 2.2 11.2 2.9 16.9l16.4-2.1c-.8-6.2-1.9-12.3-3.2-18.3z"/><path d="m473.3 256c0-3.1-.1-6.2-.2-9.3l-16.5.7c.1 2.8.2 5.7.2 8.6s-.1 5.7-.2 8.6l16.5.7c.1-3.1.2-6.2.2-9.3z"/><path d="m471.5 283.7-16.4-2.1c-.7 5.7-1.7 11.4-2.9 16.9l16.1 3.5c1.4-6 2.5-12.1 3.2-18.3z"/><path d="m339.7 55.5c-5.7-2.4-11.5-4.5-17.4-6.4l-5.1 15.7c5.4 1.7 10.8 3.7 16.1 5.9z"/><path d="m363.7 86.6 8.9-13.9c-2.6-1.6-5.2-3.2-7.9-4.8-2.7-1.5-5.4-3-8.1-4.5l-7.7 14.6c2.5 1.3 5 2.7 7.5 4.1 2.5 1.5 4.9 2.9 7.3 4.5z"/><path d="m402 95c-4.5-4.1-9.3-8.1-14.3-11.8l-10 13.1c4.6 3.5 9 7.1 13.2 10.9z"/><path d="m194.7 64.8-5.1-15.8c-5.8 1.9-11.7 4-17.4 6.4l6.4 15.2c5.3-2.1 10.7-4.1 16.1-5.8z"/><path d="m155.6 82.1c2.5-1.4 5-2.8 7.5-4.1l-7.6-14.6c-2.7 1.4-5.4 2.9-8.1 4.5s-5.3 3.2-7.9 4.8l8.9 13.9c2.3-1.6 4.7-3 7.2-4.5z"/><path d="m134.2 96.4-10-13.1c-4.9 3.7-9.7 7.7-14.3 11.8l11.1 12.2c4.2-3.8 8.7-7.5 13.2-10.9z"/><path d="m59.7 298.5c-1.2-5.6-2.2-11.2-2.9-16.9l-16.4 2.1c.8 6.1 1.8 12.2 3.1 18.3z"/><path d="m38.7 256c0 3.1.1 6.2.2 9.3l16.5-.7c-.1-2.8-.2-5.7-.2-8.6s.1-5.7.2-8.6l-16.5-.7c-.1 3.1-.2 6.2-.2 9.3z"/><path d="m59.7 213.5-16.1-3.5c-1.3 6-2.3 12.1-3.1 18.3l16.4 2.1c.7-5.7 1.6-11.4 2.8-16.9z"/><path d="m172.3 456.5c5.7 2.4 11.5 4.5 17.4 6.4l5.1-15.7c-5.4-1.7-10.8-3.7-16.1-5.9z"/><path d="m148.3 425.4-8.9 13.9c2.6 1.6 5.2 3.2 7.9 4.8 2.7 1.5 5.4 3 8.1 4.5l7.6-14.6c-2.5-1.3-5-2.7-7.5-4.1-2.4-1.5-4.8-2.9-7.2-4.5z"/><path d="m110 417c4.5 4.1 9.3 8.1 14.3 11.8l10-13.1c-4.6-3.5-9-7.1-13.2-10.9z"/><path d="m377.8 415.6 10 13.1c4.9-3.7 9.7-7.7 14.3-11.8l-11.1-12.2c-4.2 3.8-8.7 7.5-13.2 10.9z"/><path d="m356.4 429.9c-2.5 1.4-5 2.8-7.5 4.1l7.6 14.6c2.7-1.4 5.4-2.9 8.1-4.5s5.3-3.2 7.9-4.8l-8.9-13.9c-2.3 1.5-4.7 3-7.2 4.5z"/><path d="m317.3 447.2 5.1 15.7c5.8-1.9 11.7-4 17.4-6.4l-6.4-15.2c-5.3 2.2-10.7 4.2-16.1 5.9z"/><path d="m247.7 107h16.5v44h-16.5z"/><path d="m256 93.9c25.9 0 47-21.1 47-47s-21.1-46.9-47-46.9-47 21.1-47 47 21.1 46.9 47 46.9zm0-77.4c16.8 0 30.5 13.7 30.5 30.5s-13.7 30.5-30.5 30.5-30.5-13.7-30.5-30.5 13.7-30.5 30.5-30.5z"/><path d="m137.7 170.5h16.5v44h-16.5z" transform="matrix(.5 -.866 .866 .5 -93.7136 222.6443)"/><path d="m51.5 192.2c7.1 4.1 15.2 6.3 23.4 6.3 16.7 0 32.3-9 40.7-23.5 12.9-22.4 5.2-51.2-17.2-64.2-7.1-4.1-15.3-6.3-23.5-6.3-16.7 0-32.3 9-40.7 23.5-6.3 10.9-7.9 23.5-4.7 35.6 3.3 12.2 11.1 22.3 22 28.6zm-2.9-55.9c5.4-9.4 15.5-15.3 26.4-15.3 5.3 0 10.6 1.4 15.2 4.1 14.5 8.4 19.5 27.1 11.1 41.6-5.4 9.4-15.5 15.2-26.4 15.2-5.3 0-10.6-1.4-15.2-4.1-7-4.1-12.1-10.6-14.2-18.5-2-7.8-1-16 3.1-23z"/><path d="m124 311.3h44v16.5h-44z" transform="matrix(.866 -.5001 .5001 .866 -140.221 115.8257)"/><path d="m115.6 337c-8.4-14.5-24-23.5-40.7-23.5-8.2 0-16.3 2.2-23.5 6.3-22.4 12.9-30.1 41.7-17.2 64.2 8.4 14.5 24 23.5 40.7 23.5 8.2 0 16.3-2.2 23.4-6.3 22.6-13 30.3-41.7 17.3-64.2zm-25.4 49.9c-4.6 2.7-9.9 4.1-15.2 4.1-10.9 0-21-5.8-26.4-15.2-8.4-14.5-3.4-33.2 11.1-41.6 4.6-2.7 9.9-4.1 15.2-4.1 10.9 0 21 5.8 26.4 15.2 8.4 14.5 3.4 33.2-11.1 41.6z"/><path d="m247.7 361h16.5v44h-16.5z"/><path d="m256 418.1c-25.9 0-47 21.1-47 47s21.1 47 47 47c12.5 0 24.3-4.9 33.2-13.8s13.7-20.7 13.7-33.2c.1-26-21-47-46.9-47zm21.5 68.5c-5.8 5.7-13.4 8.9-21.5 8.9-16.8 0-30.5-13.7-30.5-30.5s13.7-30.5 30.4-30.5c16.8 0 30.5 13.7 30.5 30.5 0 8.2-3.1 15.8-8.9 21.6z"/><path d="m357.7 297.5h16.5v44h-16.5z" transform="matrix(.5 -.866 .866 .5 -93.687 476.7066)"/><path d="m460.5 319.8c-7.1-4.1-15.2-6.3-23.4-6.3-16.7 0-32.3 9-40.7 23.5-12.9 22.4-5.2 51.2 17.2 64.2 7.1 4.1 15.3 6.3 23.5 6.3 16.7 0 32.3-9 40.7-23.5 6.3-10.9 7.9-23.5 4.7-35.6-3.4-12.2-11.1-22.3-22-28.6zm2.9 56c-5.4 9.3-15.5 15.2-26.4 15.2-5.3 0-10.6-1.4-15.2-4.1-14.5-8.4-19.5-27.1-11.1-41.6 5.4-9.4 15.5-15.2 26.4-15.2 5.3 0 10.6 1.4 15.2 4.1 7 4.1 12.1 10.6 14.2 18.5 2 7.8 1 16-3.1 23.1z"/><path d="m344 184.2h44v16.5h-44z" transform="matrix(.866 -.5 .5 .866 -47.2067 208.7961)"/><path d="m396.3 175c8.4 14.5 24 23.5 40.7 23.5 8.2 0 16.3-2.2 23.5-6.3 10.9-6.3 18.6-16.4 21.9-28.5 3.2-12.1 1.6-24.8-4.7-35.6-8.4-14.5-24-23.5-40.7-23.5-8.2 0-16.3 2.2-23.5 6.3-22.4 12.9-30.1 41.6-17.2 64.1zm25.5-49.9c4.6-2.7 9.9-4.1 15.2-4.1 10.9 0 21 5.8 26.4 15.2 4.1 7 5.1 15.2 3 23.1s-7.1 14.4-14.2 18.5c-4.6 2.7-9.9 4.1-15.2 4.1-10.9 0-21-5.8-26.4-15.2-8.3-14.5-3.3-33.2 11.2-41.6z"/></g></svg>