<svg enable-background="new 0 0 512 512" viewBox="0 0 512 512" xmlns="http://www.w3.org/2000/svg"><path d="m98.7 264.3 157.1-8.3 157.5 8.3 21.6 87.5-179.1 17.3-178.7-17.3z" fill="#ddf4fe"/><path d="m98.8 85.4h314.6v167.5h-314.6z" fill="#497d96"/><path d="m98.7 241.6h314.6v22.7h-314.6z" fill="#e5646e"/><path d="m391.7 241.6h21.6v22.7h-21.6z" fill="#cf5668"/><path d="m413.3 264.3h-21.6l21.6 87.5h21.6z" fill="#c3f2f7"/><path d="m434.9 435h-357.8v-83.2h357.9v83.2z" fill="#e5646e"/><path d="m413.3 351.8h21.6v83.2h-21.6z" fill="#cf5668"/><path d="m326.2 309.3c6-3.6 12.9-4.6 15.1-4.8 6.7-.6 11.9 3 30.7 3 17 0 27.5 6.5 33.4 15.8 3 4.7 4.1 12 2.7 18.2-1.3 5.9-6.6 10.1-12.7 10.1h-35.7z" fill="#ffd8d5"/><path d="m366.7 314.1c-4.9-1.6-13.6-3.4-18.4-6-9.2-4.9-21.5-2.6-27.9 7.2-5.7 8.6-5.3 24.4 2.6 31.2 2.5 2.1 7.7 5 14.2 5h27.6s6.4-.6 8.7-1.9c12.4-7.4 11-29.7-6.8-35.5z" fill="#d82e3d"/><path d="m159.1 309.2c-4.6-1.5-9.5-2.4-14.3-2.4-20.8 0-38.3 14.1-43.5 33.3-1.6 5.9 2.9 11.8 9 11.8h69c6.1 0 10.6-5.8 9-11.6-1.4-5.2-3.8-10.1-7-14.4z" fill="#c85929"/><path d="m175 318.6c-1.4 0-2.8-.5-3.8-1.6-2.1-2.1-2.1-5.5 0-7.6l18.2-18.2c2.1-2.1 5.5-2.1 7.6 0s2.1 5.5 0 7.6l-18.1 18.2c-1.1 1.1-2.5 1.6-3.9 1.6z" fill="#fff"/><path d="m177.7 330.8c-5.6 5.6-14.6 5.6-20.2 0s-5.6-14.6 0-20.2 20-11 25.6-5.4.1 20-5.4 25.6z" fill="#fdc26b"/><path d="m391.8 85.4h21.6v156.2h-21.6z" fill="#3e6e85"/><path d="m174.4 224.4c-3 0-5.4-2.4-5.4-5.4v-39.7c0-3 2.4-5.4 5.4-5.4s5.4 2.4 5.4 5.4v39.7c0 3-2.4 5.4-5.4 5.4z" fill="#f2f2f2"/><path d="m217.2 241.6h-85.6v-21.9c0-5.4 4.4-9.8 9.8-9.8h66c5.4 0 9.8 4.4 9.8 9.8z" fill="#d8d8d8"/><path d="m149.2 170.4h50.5v17.8h-50.5z" fill="#d8d8d8"/><path d="m332.8 389.2h-153.6c-3 0-5.4-2.4-5.4-5.4s2.4-5.4 5.4-5.4h153.6c3 0 5.4 2.4 5.4 5.4s-2.4 5.4-5.4 5.4z" fill="#d82e3d"/><path d="m332.8 409.4h-153.6c-3 0-5.4-2.4-5.4-5.4s2.4-5.4 5.4-5.4h153.6c3 0 5.4 2.4 5.4 5.4s-2.4 5.4-5.4 5.4z" fill="#d82e3d"/><path d="m137 97.5c0 17.5-13.4 31.7-30 31.7s-30-14.2-30-31.7z" fill="#ffd508"/><path d="m196.6 97.5c0 17.5-13.4 31.7-30 31.7s-30-14.2-30-31.7z" fill="#e5646e"/><path d="m256.2 97.5c0 17.5-13.4 31.7-30 31.7s-30-14.2-30-31.7z" fill="#ffd508"/><path d="m375.4 97.5c0 17.5-13.4 31.7-30 31.7s-30-14.2-30-31.7z" fill="#ffd508"/><path d="m435 97.5c0 17.5-13.4 31.7-30 31.7s-30-14.2-30-31.7z" fill="#e5646e"/><path d="m77 77h358v20.5h-358z" fill="#497d96"/><path d="m275.4 122.3-11.7 7.9v14.2h45.1v-14.2l-11.7-7.9z" fill="#fff"/><path d="m308.8 144.5v18.1c0 12.5-10.1 22.6-22.6 22.6s-22.6-10.1-22.6-22.6v-18.1z" fill="#fedca9"/><path d="m324.9 241.6h-77.2v-27.2c0-16.1 13.1-29.2 29.2-29.2h18.7c16.1 0 29.2 13.1 29.2 29.2z" fill="#fff"/><path d="m271 326.2c-2.6 0-4.9-1.9-5.3-4.6-.5-2.9 1.5-5.7 4.5-6.2l27.6-4.4c3-.5 5.7 1.5 6.2 4.5.5 2.9-1.5 5.7-4.5 6.2l-27.6 4.4c-.3.1-.6.1-.9.1z" fill="#fff"/><path d="m231 301.9c13.7-2.2 43.4 4.3 45.7 18s-23.8 29.4-37.5 31.6" fill="#c85929"/><ellipse cx="232.9" cy="326.9" fill="#fedca9" rx="15.4" ry="25.1" transform="matrix(.9873 -.159 .159 .9873 -49.0172 41.1879)"/><path d="m232.8 333.9c7 0 7-10.8 0-10.8s-7 10.8 0 10.8z" fill="#fff"/><path d="m315.8 97.5c0 17.5-13.4 31.7-30 31.7s-30-14.2-30-31.7z" fill="#e5646e"/></svg>