<svg fill="none" height="10" viewBox="0 0 16 10" width="16" xmlns="http://www.w3.org/2000/svg"><path d="m1.78249 8.2175c-.07133-.06828-.15544-.1218-.2475-.1575-.18259-.07501-.3874-.07501-.569999 0-.092063.0357-.176172.08922-.2475.1575-.06828.07133-.121804.15544-.1575.2475-.057434.13658-.073126.28712-.045096.43261.028031.14549.098528.27942.202596.38489.072901.06625.156612.11952.2475.1575.089779.03968.186849.06017.284999.06017s.19523-.02049.285-.06017c.09089-.03798.1746-.09125.2475-.1575.10407-.10547.17457-.2394.2026-.38489s.01234-.29603-.0451-.43261c-.03569-.09206-.08922-.17617-.1575-.2475zm2.4675-6.2175h10.50001c.1989 0 .3897-.07902.5303-.21967.1407-.14065.2197-.33142.2197-.53033s-.079-.389678-.2197-.53033c-.1406-.140652-.3314-.21967-.5303-.21967h-10.50001c-.19891 0-.38968.079018-.53033.21967s-.21967.33142-.21967.53033.07902.38968.21967.53033.33142.21967.53033.21967zm-2.4675 2.4675c-.10547-.10407-.2394-.17457-.38489-.2026s-.29603-.01233-.432609.0451c-.090888.03798-.174599.09125-.2475.1575-.06828.07133-.121804.15544-.1575.2475-.039679.08978-.060174.18685-.060174.285s.020495.19522.060174.285c.037982.09089.091252.1746.1575.2475.072901.06625.156612.11952.2475.1575.089779.03968.186849.06017.284999.06017s.19523-.02049.285-.06017c.09089-.03798.1746-.09125.2475-.1575.06625-.0729.11952-.15661.1575-.2475.03968-.08978.06018-.18685.06018-.285s-.0205-.19522-.06018-.285c-.03569-.09206-.08922-.17617-.1575-.2475zm12.96751-.2175h-10.50001c-.19891 0-.38968.07902-.53033.21967s-.21967.33142-.21967.53033.07902.38968.21967.53033.33142.21967.53033.21967h10.50001c.1989 0 .3897-.07902.5303-.21967.1407-.14065.2197-.33142.2197-.53033s-.079-.38968-.2197-.53033c-.1406-.14065-.3314-.21967-.5303-.21967zm-12.96751-3.5325c-.07133-.068281-.15544-.121804-.2475-.1575-.13658-.057435-.28712-.073126-.43261-.045096-.145491.028031-.279421.098528-.384889.202596-.066248.072901-.119518.156611-.1575.2475-.039679.08978-.060174.18685-.060174.285s.020495.19522.060174.285c.037982.09089.091252.1746.1575.2475.072901.06625.156612.11952.2475.1575.136579.05743.287119.07313.432609.0451s.27942-.09853.38489-.2026c.06625-.0729.11952-.15661.1575-.2475.03968-.08978.06018-.18685.06018-.285s-.0205-.19522-.06018-.285c-.03798-.090889-.09125-.174599-.1575-.2475zm12.96751 7.2825h-10.50001c-.19891 0-.38968.07902-.53033.21967s-.21967.33142-.21967.53033.07902.38968.21967.53033.33142.21967.53033.21967h10.50001c.1989 0 .3897-.07902.5303-.21967.1407-.14065.2197-.33142.2197-.53033s-.079-.38968-.2197-.53033c-.1406-.14065-.3314-.21967-.5303-.21967z" fill="#ff8424"/></svg>