<svg enable-background="new 0 0 512 512" viewBox="0 0 512 512" xmlns="http://www.w3.org/2000/svg"><path d="m74.5 481.4h-36.3l25.7-25.7c13.8-13.8 22.5-31.8 24.8-51.3-36.1-23.7-62.5-54.9-76.6-90.6-14.1-35.7-15.9-75-5.1-113.7 12.9-46.4 43.2-88.7 85.3-119.1 45.7-33 102.6-50.4 164.6-50.4 78.1 0 143.9 22.4 190.3 64.9 41.8 38.2 64.8 89.7 64.8 145.2 0 26.9-5.5 53.1-16.3 77.8-11.2 25.6-27.6 48.4-48.7 67.7-46.5 42.6-112.2 65.1-190.2 65.1-28.9 0-59.1-3.9-86.1-10.9-25.4 26.2-60 41-96.2 41zm182.4-420.8c-124.3 0-200.5 74.1-221 147.6-19.3 69.4 9.2 135 76.2 175.4l7.5 4.5-.2 8.7c-.5 17.3-4.6 34-12 49 18-6.1 34.3-17.1 47.1-32.2l6.4-7.5 9.4 2.8c26.4 7.9 57.2 12.3 86.6 12.3 154.7 0 225.1-93.6 225.1-180.6 0-46.9-19.6-90.5-55.1-123-40.8-37.2-99.6-57-170-57z" fill="#ff3e16"/></svg>