<svg enable-background="new 0 0 512 512" viewBox="0 0 512 512" xmlns="http://www.w3.org/2000/svg" xmlns:xlink="http://www.w3.org/1999/xlink"><linearGradient id="a" gradientTransform="matrix(8.9825 0 0 -8.9825 12253.1357 4240.5439)" gradientUnits="userSpaceOnUse" x1="-1335.6121" x2="-1335.6121" y1="426.2114" y2="461.5913"><stop offset="0" stop-color="#3fbd2d"/><stop offset="1" stop-color="#87ea4a"/></linearGradient><linearGradient id="b" gradientTransform="matrix(8.9825 0 0 -8.9825 12253.1357 4240.5439)" gradientUnits="userSpaceOnUse" x1="-1335.6121" x2="-1335.6121" y1="426.2114" y2="461.5913"><stop offset="0"/><stop offset=".06" stop-opacity="0"/></linearGradient><linearGradient id="c" gradientTransform="matrix(8.9825 0 0 -8.9825 12253.1357 4240.5439)" gradientUnits="userSpaceOnUse" x1="-1335.6121" x2="-1335.6121" y1="431.9065" y2="455.9136"><stop offset="0" stop-color="#e5f6e2"/><stop offset="1" stop-color="#fff"/></linearGradient><path d="m175.8 417.7c-47.1 0-78.7-31.6-78.7-78.7v-160.4c0-47.1 31.6-78.7 78.7-78.7h160.4c47.1 0 78.7 31.6 78.7 78.7v160.4c0 47.1-31.6 78.7-78.7 78.7z" opacity=".08"/><path d="m175.8 412c-47.1 0-78.7-31.6-78.7-78.7v-160.3c0-47.1 31.6-78.7 78.7-78.7h160.4c47.1 0 78.7 31.6 78.7 78.7v160.4c0 47.1-31.6 78.7-78.7 78.7z" fill="url(#a)"/><path d="m336.2 94.3h-160.4c-47.1 0-78.7 31.6-78.7 78.7v160.4c0 47.1 31.6 78.7 78.7 78.7h160.4c47.1 0 78.7-31.6 78.7-78.7v-160.4c0-47.1-31.6-78.7-78.7-78.7zm67.3 239.1c0 40.9-26.4 67.3-67.3 67.3h-160.4c-40.9 0-67.3-26.4-67.3-67.3v-160.4c0-40.9 26.4-67.3 67.3-67.3h160.4c40.9 0 67.3 26.4 67.3 67.3z" fill="url(#b)" opacity=".16"/><path d="m336.2 94.3h-160.4c-47.1 0-78.7 31.6-78.7 78.7v160.4c0 47.1 31.6 78.7 78.7 78.7h160.4c47.1 0 78.7-31.6 78.7-78.7v-160.4c0-47.1-31.6-78.7-78.7-78.7zm73 239.1c0 43.7-29.3 73-73 73h-160.4c-43.7 0-73-29.3-73-73v-160.4c0-43.7 29.3-73 73-73h160.4c43.7 0 73 29.3 73 73z" opacity=".16"/><path d="m256 145.3c-65.8 0-119.2 44.5-119.2 99.3 0 31.4 17.9 60.1 44.9 77.6 2.5 1.6 6.3 4.5 8.1 7.4s2 6.3.8 9.8-3.4 6.8-5.8 10-5.1 6.2-7.9 9.1c-.3.3-.5.8-.4 1.3.1.8.9 1.3 1.6 1.1 9.7-1.5 19.2-4.3 28.1-8.6 5.3-2.6 10.4-5.9 14.9-10.1 1.4-1.3 3.3-1.9 5.2-1.5 9.5 2.1 19.4 3.2 29.7 3.2 65.8 0 119.2-44.5 119.2-99.3s-53.4-99.3-119.2-99.3z" fill="url(#c)"/></svg>