<svg enable-background="new 0 0 505.4 505.4" viewBox="0 0 505.4 505.4" xmlns="http://www.w3.org/2000/svg"><path d="m437.1 233.4c14.8-10.4 24.6-27.7 24.6-47.2 0-31.9-25.8-57.7-57.7-57.7s-57.7 25.8-57.7 57.7c0 19.5 9.7 36.8 24.6 47.2-12.7 4.4-24.3 11.2-34.1 20-13.5-11.5-29.4-20.3-46.8-25.5 21.1-12.8 35.3-36.1 35.3-62.6 0-40.4-32.7-73.1-73.1-73.1s-73.1 32.8-73.1 73.1c0 26.5 14.1 49.8 35.3 62.6-17.2 5.2-32.9 13.9-46.3 25.2-9.8-8.6-21.2-15.3-33.7-19.6 14.8-10.4 24.6-27.7 24.6-47.2 0-31.9-25.8-57.7-57.7-57.7s-57.7 25.8-57.7 57.7c0 19.5 9.7 36.8 24.6 47.2-39.7 13.7-68.2 51.5-68.2 95.7v6.6c0 .2.2.4.4.4h122.3c-.7 5.5-1.1 11.2-1.1 16.9v6.8c0 29.4 23.8 53.2 53.2 53.2h155c29.4 0 53.2-23.8 53.2-53.2v-6.8c0-5.7-.4-11.4-1.1-16.9h123.1c.2 0 .4-.2.4-.4v-6.6c-.2-44.3-28.6-82.1-68.3-95.8zm-74.8-47.3c0-23 18.7-41.7 41.7-41.7s41.7 18.7 41.7 41.7c0 22.7-18.3 41.2-40.9 41.7-.3 0-.5 0-.8 0s-.5 0-.8 0c-22.7-.4-40.9-18.9-40.9-41.7zm-167.4-20.7c0-31.5 25.6-57.1 57.1-57.1s57.1 25.6 57.1 57.1c0 30.4-23.9 55.3-53.8 57-1.1 0-2.2 0-3.3 0s-2.2 0-3.3 0c-29.9-1.8-53.8-26.6-53.8-57zm-135.6 20.7c0-23 18.7-41.7 41.7-41.7s41.7 18.7 41.7 41.7c0 22.7-18.3 41.2-40.9 41.7-.3 0-.5 0-.8 0s-.5 0-.8 0c-22.6-.4-40.9-18.9-40.9-41.7zm66.2 134h-109.3c4.5-42.6 40.5-76 84.2-76.3h.6s.4 0 .6 0c20.8.1 39.8 7.8 54.5 20.3-14.4 15.7-25.1 34.9-30.6 56zm241.3 39.9c0 20.5-16.7 37.2-37.2 37.2h-155c-20.5 0-37.2-16.7-37.2-37.2v-6.8c0-62.1 49.6-112.9 111.3-114.7 1.1.1 2.3.1 3.4.1s2.3 0 3.4-.1c61.7 1.8 111.3 52.6 111.3 114.7zm11.9-39.9c-5.5-21.1-16-40-30.3-55.6 14.8-12.8 34-20.5 55-20.7h.6s.4 0 .6 0c43.7.3 79.7 33.7 84.2 76.3z" fill="#ef4425"/></svg>