<svg enable-background="new 0 0 512 512" viewBox="0 0 512 512" xmlns="http://www.w3.org/2000/svg"><g fill="#ef4425"><path d="m290.2 360.7c-5.2.5-10.5-.7-15-3.4-3.3-3.4-4.9-8.1-4.3-12.8.1-3.9.6-7.8 1.4-11.6.8-4.4 1.8-8.7 3-13l13.7-47.2c1.4-4.7 2.4-9.5 2.8-14.3 0-5.2.7-8.8.7-10.9.3-9.3-3.7-18.3-10.8-24.3-8.8-6.7-19.7-10-30.7-9.3-7.9.1-15.7 1.4-23.3 3.8-8.2 2.6-16.9 5.6-25.9 9.2l-4 15.4c2.7-.9 5.9-2 9.7-3.1 3.6-1.1 7.2-1.6 10.9-1.6 5.2-.6 10.4.7 14.8 3.6 3 3.5 4.3 8.1 3.8 12.7 0 3.9-.4 7.8-1.3 11.6-.8 4.1-1.9 8.4-3.1 12.9l-13.8 47.5c-1.1 4.4-2 8.9-2.7 13.4-.5 3.9-.8 7.7-.8 11.6-.1 9.4 4.2 18.3 11.6 24.1 8.9 6.8 20 10.2 31.2 9.5 7.9.2 15.8-1 23.3-3.4 6.6-2.2 15.4-5.5 26.4-9.7l3.7-14.7c-3 1.2-6.1 2.2-9.2 3-4 .9-8 1.2-12.1 1z"/><path d="m304.8 136.7c-6.3-5.8-14.7-8.9-23.3-8.7-8.6-.2-16.9 2.9-23.3 8.7-11.6 10-12.9 27.6-2.9 39.2.9 1 1.9 2 2.9 2.9 13.3 11.9 33.3 11.9 46.5 0 11.6-10.1 12.9-27.8 2.7-39.4-.8-.9-1.7-1.8-2.6-2.7z"/><path d="m256 0c-141.4 0-256 114.6-256 256s114.6 256 256 256 256-114.6 256-256-114.6-256-256-256zm0 488.7c-128.5 0-232.7-104.2-232.7-232.7s104.2-232.7 232.7-232.7 232.7 104.2 232.7 232.7-104.2 232.7-232.7 232.7z"/></g></svg>