<svg enable-background="new 0 0 512 512" viewBox="0 0 512 512" xmlns="http://www.w3.org/2000/svg"><path d="m255.8 333.3c-11.8.1-21.2 9.8-21.1 21.6v171.5c0 11.8 9.6 21.4 21.4 21.4s21.3-9.6 21.3-21.4v-171.4c.1-11.8-9.3-21.5-21.1-21.7-.2 0-.4 0-.5 0zm124.4 43c-.7 0-1.4 0-2.1 0-11.7 1-20.5 11.4-19.5 23.2.5 5.7 3.2 11 7.6 14.7 37 31.5 60.3 78.4 60.3 131.1 0 95.1-76.1 171.8-170.6 171.8s-170.5-76.7-170.5-171.8c0-52.4 23.1-99 59.7-130.5 9-7.7 10-21.2 2.4-30.2-7.7-9-21.1-10.1-30.1-2.4-45.7 39.3-74.7 98-74.7 163.1 0 118.3 95.8 214.7 213.4 214.7s213.2-96.4 213.2-214.7c0-65.5-29.3-124.4-75.4-163.7-3.8-3.3-8.6-5.2-13.7-5.3z" fill="#ef4425" transform="translate(0 -290.65)"/></svg>