<svg enable-background="new 0 0 682.7 682.7" viewBox="0 0 682.7 682.7" xmlns="http://www.w3.org/2000/svg"><path d="m85.3-465.3c-173.8 0-314.7 140.9-314.7 314.7 0 61.2 17.5 118.3 47.7 166.6l-47.6 148 148.1-47.7c48.3 30.2 105.4 47.7 166.5 47.7 173.8 0 314.7-140.9 314.7-314.7s-140.9-314.6-314.7-314.6z" style="fill:none;stroke:#ef4425;stroke-width:53.3333;stroke-linecap:round;stroke-linejoin:round;stroke-miterlimit:13.3333" transform="translate(256 492)"/><g fill="#ef4425"><path d="m93.7 85.3c0 18.4-14.9 33.3-33.3 33.3s-33.4-14.9-33.4-33.3 14.9-33.3 33.3-33.3 33.4 14.9 33.4 33.3" transform="translate(281 256)"/><path d="m70.8 61.1c13.4-12.6 34.5-12 47.1 1.3s12 34.5-1.3 47.1-34.5 12-47.1-1.3-12.1-34.5 1.3-47.1" transform="translate(381 256)"/><path d="m60.3 85.3c0 18.4-14.9 33.3-33.3 33.3s-33.3-14.9-33.3-33.3 14.9-33.3 33.3-33.3 33.3 14.9 33.3 33.3" transform="translate(181 256)"/></g></svg>