<?xml version="1.0" encoding="utf-8"?>
<!-- Generator: Adobe Illustrator 25.0.0, SVG Export Plug-In . SVG Version: 6.00 Build 0)  -->
<svg version="1.1" id="Layer_1" xmlns="http://www.w3.org/2000/svg" xmlns:xlink="http://www.w3.org/1999/xlink" x="0px" y="0px"
	 viewBox="0 0 512 512" style="enable-background:new 0 0 512 512;" xml:space="preserve">
<style type="text/css">
	.st0{fill:#FFB74F;}
</style>
<circle cx="256.5" cy="256.5" r="256.5"/>
<path class="st0" d="M417.1,273.9H94.9c-4.7,0-9.3-1.9-12.7-5.2c-3.4-3.4-5.2-7.9-5.2-12.7c0-4.7,1.9-9.3,5.2-12.7
	c3.4-3.4,7.9-5.2,12.7-5.2h322.2c4.7,0,9.3,1.9,12.7,5.2c3.4,3.4,5.2,7.9,5.2,12.7c0,4.7-1.9,9.3-5.2,12.7
	C426.4,272,421.8,273.9,417.1,273.9z M417.1,148.6H94.9c-4.7,0-9.3-1.9-12.7-5.2c-3.4-3.4-5.2-7.9-5.2-12.7c0-4.7,1.9-9.3,5.2-12.7
	c3.4-3.4,7.9-5.2,12.7-5.2h322.2c4.7,0,9.3,1.9,12.7,5.2c3.4,3.4,5.2,7.9,5.2,12.7c0,4.7-1.9,9.3-5.2,12.7
	C426.4,146.7,421.8,148.6,417.1,148.6z M417.1,399.2H94.9c-4.7,0-9.3-1.9-12.7-5.2c-3.4-3.4-5.2-7.9-5.2-12.7
	c0-4.7,1.9-9.3,5.2-12.7c3.4-3.4,7.9-5.2,12.7-5.2h322.2c4.7,0,9.3,1.9,12.7,5.2c3.4,3.4,5.2,7.9,5.2,12.7c0,4.7-1.9,9.3-5.2,12.7
	C426.4,397.3,421.8,399.2,417.1,399.2z"/>
</svg>
