<svg enable-background="new 0 0 512 512" viewBox="0 0 512 512" xmlns="http://www.w3.org/2000/svg"><path d="m417.1 273.9h-322.2c-4.7 0-9.3-1.9-12.7-5.2-3.4-3.4-5.2-7.9-5.2-12.7 0-4.7 1.9-9.3 5.2-12.7 3.4-3.4 7.9-5.2 12.7-5.2h322.2c4.7 0 9.3 1.9 12.7 5.2 3.4 3.4 5.2 7.9 5.2 12.7 0 4.7-1.9 9.3-5.2 12.7-3.4 3.3-8 5.2-12.7 5.2zm0-125.3h-322.2c-4.7 0-9.3-1.9-12.7-5.2-3.4-3.4-5.2-7.9-5.2-12.7 0-4.7 1.9-9.3 5.2-12.7 3.4-3.4 7.9-5.2 12.7-5.2h322.2c4.7 0 9.3 1.9 12.7 5.2 3.4 3.4 5.2 7.9 5.2 12.7 0 4.7-1.9 9.3-5.2 12.7-3.4 3.3-8 5.2-12.7 5.2zm0 250.6h-322.2c-4.7 0-9.3-1.9-12.7-5.2-3.4-3.4-5.2-7.9-5.2-12.7 0-4.7 1.9-9.3 5.2-12.7 3.4-3.4 7.9-5.2 12.7-5.2h322.2c4.7 0 9.3 1.9 12.7 5.2 3.4 3.4 5.2 7.9 5.2 12.7 0 4.7-1.9 9.3-5.2 12.7-3.4 3.3-8 5.2-12.7 5.2z" fill="#0e6faa"/></svg>