<svg enable-background="new 0 0 512 512" viewBox="0 0 512 512" xmlns="http://www.w3.org/2000/svg"><path clip-rule="evenodd" d="m64 128c0-11.8 9.6-21.3 21.3-21.3h341.3c11.8 0 21.3 9.6 21.3 21.3 0 11.8-9.6 21.3-21.3 21.3h-341.3c-11.7 0-21.3-9.5-21.3-21.3zm0 128c0-11.8 9.6-21.3 21.3-21.3h213.3c11.8 0 21.3 9.6 21.3 21.3s-9.6 21.3-21.3 21.3h-213.3c-11.7 0-21.3-9.5-21.3-21.3zm0 128c0-11.8 9.6-21.3 21.3-21.3h106.7c11.8 0 21.3 9.6 21.3 21.3 0 11.8-9.6 21.3-21.3 21.3h-106.7c-11.7 0-21.3-9.5-21.3-21.3z" fill="#176052" fill-rule="evenodd"/></svg>