<svg enable-background="new 0 0 682.7 682.7" viewBox="0 0 682.7 682.7" xmlns="http://www.w3.org/2000/svg"><g style="fill:none;stroke:#ef4425;stroke-width:20;stroke-linecap:round;stroke-linejoin:round;stroke-miterlimit:13.3333"><path d="m18.5-87.7v26.7" transform="translate(55.5967 330.1494)"/><path d="m18.9-401v26.7" transform="translate(56.5986 464.4194)"/><path d="m18.5 33.9v26.7" transform="translate(55.5967 278.0444)"/><path d="m6.2-228v-22.7c0-27.3 22.1-49.4 49.4-49.4s49.4 22.1 49.4 49.4v22.7" transform="translate(18.5225 390.27)"/><path d="m10 202.4h128.3v-40.1h-128.3z"/><path d="m46.9-76c0-84.9 68.8-153.6 153.6-153.6 84.9 0 153.6 68.8 153.6 153.6" transform="translate(140.7686 325.1392)"/><path d="m46.9-5.9v-40.1h307.3v40.1" transform="translate(140.7686 295.0786)"/><path d="m41.9 64.3v-40.1h347.4v40.1" transform="translate(125.7383 265.0181)"/><path d="m122.9 517.9h33.8v-60.1c0-35.1-33.8-49.5-33.8-49.5s-33.8 14.4-33.8 49.5v60.1z" transform="translate(368.6152 70.627)"/><path d="m47.8 517.9h-33.8v-60.1c0-35.1 33.8-49.5 33.8-49.5s33.8 14.4 33.8 49.5v60.1z" transform="translate(143.3848 70.627)"/><path d="m103.4 660.5v-128.3c0-74.8-72.1-105.5-72.1-105.5s-72.1 30.7-72.1 105.5v128.3" transform="translate(310.1084 9.5039)"/><path d="m152.1-87.7v26.7" transform="translate(456.4033 330.1494)"/><path d="m85.3-391.6v26.7" transform="translate(256 460.4111)"/><path d="m151.8-401v26.7" transform="translate(455.4014 464.4194)"/><path d="m152.1 33.9v26.7" transform="translate(456.4033 278.0444)"/><path d="m155.5 197.6h-26.7" transform="translate(466.4238 207.9033)"/><path d="m15.2 197.6h26.7" transform="translate(45.5762 207.9033)"/><path d="m164.5 451.5v119.4h-98.9" transform="translate(493.4775 99.0713)"/><path d="m139.8 64.3v-126.9h98.9v301.3" transform="translate(419.3291 265.0181)"/><path d="m6.2 451.5v119.4h98.8" transform="translate(18.5225 99.0713)"/><path d="m30.9 64.3v-126.9h-98.9v301.3" transform="translate(92.6709 265.0181)"/><path d="m91.2 64.3h194.4v340.7h-435.6v-340.7h194.2" transform="translate(273.5264 265.0181)"/><path d="m41.9 155.5h347.4" transform="translate(125.7383 225.9395)"/><path d="m164.5-228v-22.7c0-27.3-22.1-49.4-49.4-49.4s-49.4 22.1-49.4 49.4v22.7" transform="translate(493.4775 390.27)"/><path d="m672.7 202.4h-128.3v-40.1h128.3z"/><path d="m92-436.9c-.8 5.5-3.3 10.9-7.6 15.1-10.4 10.4-27.4 10.4-37.8 0s-10.4-27.4 0-37.8c4.3-4.3 9.6-6.8 15.1-7.6" transform="translate(275.9404 479.8208)"/></g></svg>