<svg enable-background="new 0 0 512 512" viewBox="0 0 512 512" xmlns="http://www.w3.org/2000/svg"><path d="m77.3 181.7h62.2c2.4 0 4.3-1.9 4.3-4.3v-13.5c0-2.4-1.9-4.3-4.3-4.3h-62.2c-2.4 0-4.3 1.9-4.3 4.3v13.5c0 2.3 1.9 4.3 4.3 4.3z" fill="#99f5d2"/><path d="m129.1 159.5v22.1h10.3c2.4 0 4.4-2 4.4-4.4v-13.3c0-2.4-2-4.4-4.4-4.4z" fill="#00f0a3"/><path d="m87 439.9h48.7v-258.2h-54.6v252.3c0 3.3 2.7 5.9 5.9 5.9z" fill="#daeaef"/><path d="m81.1 181.7v14.8h35.4c2.4 0 4.4 2 4.4 4.4v239.1h14.8v-258.3z" fill="#a8d0d5"/><path d="m114.7 120.4v-14c0-3.1-2.5-5.5-5.5-5.5-3.1 0-5.5 2.5-5.5 5.5v13.7c-12.8 2.3-22.5 13.4-22.5 26.9v12.5h54.6v-12.5c-.1-13-9.1-23.8-21.1-26.6z" fill="#fcee56"/><path d="m117 121c1.6 3.6 2.5 7.7 2.5 11.9 0 11.7-6.8 21.8-16.6 26.6h32.9v-12.5c-.1-12.1-7.9-22.4-18.8-26z" fill="#fbd307"/><path d="m171.1 207.5c0-46.9 38-84.9 84.9-84.9s84.9 38 84.9 84.9z" fill="#fcee56"/><path d="m287.7 151c0 23.2-11.3 43.8-28.8 56.4h81.9c0-37.2-24-68.8-57.3-80.3 2.8 7.5 4.2 15.6 4.2 23.9z" fill="#fbd307"/><path d="m171.1 207.5h169.7v22.1h-169.7z" fill="#99f5d2"/><path d="m171.1 219.3h169.7v10.3h-169.7z" fill="#00f0a3"/><path d="m171.1 219.3h169.7v10.3h-169.7z" fill="#00f0a3"/><path d="m434.7 181.7h-62.2c-2.4 0-4.3-1.9-4.3-4.3v-13.5c0-2.4 1.9-4.3 4.3-4.3h62.2c2.4 0 4.3 1.9 4.3 4.3v13.5c0 2.3-1.9 4.3-4.3 4.3z" fill="#99f5d2"/><path d="m424.2 159.5v22.1h10.3c2.4 0 4.4-2 4.4-4.4v-13.3c0-2.4-2-4.4-4.4-4.4z" fill="#00f0a3"/><path d="m351.9 251.8h-191.8v-17.8c0-2.4 1.9-4.3 4.3-4.3h183.2c2.4 0 4.3 1.9 4.3 4.3z" fill="#99f5d2"/><path d="m160.1 241.4h191.9v10.3h-191.9z" fill="#00f0a3"/><path d="m160.1 241.4h191.9v10.3h-191.9z" fill="#00f0a3"/><path d="m135.7 251.8h240.6v188.2h-240.6z" fill="#daeaef"/><path d="m362.3 251.8h14v188.2h-14z" fill="#a8d0d5"/><path d="m256 439.9h39.8v-70.8c0-34.7-28.1-52.2-37.1-57-1.7-.9-3.8-.9-5.5 0-9 4.7-37.1 22.3-37.1 57v70.8z" fill="#688b96"/><path d="m338.9 394.9h12.8c3.3 0 5.9-2.6 5.9-5.9v-27.3c0-14.4-10.3-22.5-15.6-25.7-1.9-1.1-4.2-1.1-6.1 0-5.3 3.2-15.6 11.3-15.6 25.7v27.3c0 3.3 2.6 5.9 5.9 5.9z" fill="#688b96"/><path d="m173.1 394.9h-12.8c-3.3 0-5.9-2.6-5.9-5.9v-27.3c0-14.4 10.3-22.5 15.6-25.7 1.9-1.1 4.2-1.1 6.1 0 5.3 3.2 15.6 11.3 15.6 25.7v27.3c0 3.3-2.6 5.9-5.9 5.9z" fill="#688b96"/><path d="m425 439.9h-48.7v-258.2h54.6v252.3c0 3.3-2.7 5.9-5.9 5.9z" fill="#daeaef"/><path d="m376.3 181.7v14.8h35.4c2.4 0 4.4 2 4.4 4.4v239.1h8.9c3.3 0 5.9-2.6 5.9-5.9v-252.4z" fill="#a8d0d5"/><path d="m408.4 120.1v-13.7c0-3.1-2.5-5.5-5.5-5.5s-5.5 2.5-5.5 5.5v14c-12.1 2.8-21 13.6-21 26.6v12.5h54.6v-12.5c-.1-13.5-9.8-24.6-22.6-26.9z" fill="#fcee56"/><path d="m412.2 121.1c1.5 3.6 2.5 7.7 2.5 11.9 0 11.7-6.8 21.8-16.6 26.6h32.9v-12.6c-.1-12.1-8-22.3-18.8-25.9z" fill="#fbd307"/><g fill="#688b96"><path d="m108.4 224.1c-3.1 0-5.5-2.5-5.5-5.5v-14.8c0-3.1 2.5-5.5 5.5-5.5 3.1 0 5.5 2.5 5.5 5.5v14.8c0 3-2.4 5.5-5.5 5.5z"/><path d="m108.4 262.4c-3.1 0-5.5-2.5-5.5-5.5v-14.8c0-3.1 2.5-5.5 5.5-5.5 3.1 0 5.5 2.5 5.5 5.5v14.8c0 3.1-2.4 5.5-5.5 5.5z"/><path d="m403.6 224.1c-3.1 0-5.5-2.5-5.5-5.5v-14.8c0-3.1 2.5-5.5 5.5-5.5 3.1 0 5.5 2.5 5.5 5.5v14.8c0 3-2.5 5.5-5.5 5.5z"/><path d="m403.6 262.4c-3.1 0-5.5-2.5-5.5-5.5v-14.8c0-3.1 2.5-5.5 5.5-5.5 3.1 0 5.5 2.5 5.5 5.5v14.8c0 3.1-2.5 5.5-5.5 5.5z"/><path d="m411 299.3h-14.8c-3.1 0-5.5-2.5-5.5-5.5s2.5-5.5 5.5-5.5h14.8c3.1 0 5.5 2.5 5.5 5.5s-2.5 5.5-5.5 5.5z"/><path d="m115.8 299.3h-14.8c-3.1 0-5.5-2.5-5.5-5.5s2.5-5.5 5.5-5.5h14.8c3.1 0 5.5 2.5 5.5 5.5s-2.5 5.5-5.5 5.5z"/><path d="m351.9 286.1h-191.8c-3.1 0-5.5-2.5-5.5-5.5s2.5-5.5 5.5-5.5h191.9c3.1 0 5.5 2.5 5.5 5.5s-2.5 5.5-5.6 5.5z"/></g><path d="m271.5 88.8c-3-.4-5.8 1.7-6.2 4.7-.3 2-1.2 3.8-2.6 5.2-1.7 1.7-4.1 2.7-6.5 2.7-2.5 0-4.8-1-6.5-2.7-3.6-3.6-3.6-9.5 0-13.1 1.4-1.4 3.2-2.3 5.2-2.6 3-.4 5.1-3.2 4.7-6.2s-3.2-5.1-6.2-4.7c-4.4.6-8.3 2.6-11.5 5.7-3.8 3.8-5.9 8.9-5.9 14.3s2.1 10.5 5.9 14.3c2.5 2.5 5.5 4.2 8.7 5.2v11.6c0 3.1 2.5 5.5 5.5 5.5 3.1 0 5.5-2.5 5.5-5.5v-11.6c3.3-.9 6.4-2.7 8.9-5.2 3.1-3.1 5.1-7.1 5.7-11.5.4-2.8-1.7-5.6-4.7-6.1z" fill="#fcee56"/></svg>