<svg enable-background="new 0 0 482.1 482.1" viewBox="0 0 482.1 482.1" xmlns="http://www.w3.org/2000/svg"><g fill="#ef4425"><path d="m475.3 126.6-31.1-4.5c-4.4-.6-7.4-4.7-6.8-9 .3-2.1 1.4-4 3.1-5.3l25.1-18.8c3.5-2.7 4.3-7.7 1.6-11.2l-28.8-38.4c-2.7-3.5-7.7-4.3-11.2-1.6l-25.1 18.9c-3.5 2.7-8.5 2-11.2-1.5-1.3-1.7-1.9-3.9-1.5-6l4.4-31.1c.6-4.4-2.4-8.4-6.8-9.1l-47.5-6.8c-4.4-.6-8.4 2.4-9.1 6.8l-4.4 31c-.6 4.4-4.7 7.4-9 6.8-2.1-.3-4-1.4-5.3-3.1l-18.9-25.2c-2.7-3.5-7.7-4.3-11.2-1.6l-24 18c-10.9-1.2-21.8-1.2-32.7 0-71.2 8.1-127.1 64.9-134 136.3-.2 2.3-.3 4.5-.4 6.8h-2.5c-3.8 0-7.1 2.7-7.8 6.4l-5.5 26.3-22.1-15.3c-3.2-2.2-7.5-1.8-10.2.9l-24 24c-2.7 2.7-3.1 7-.9 10.2l15.2 22.1-26.3 5.5c-3.8.9-6.4 4.2-6.4 8v32c0 3.8 2.6 7.1 6.4 7.8l26.3 5.5-15.2 22.1c-2.2 3.2-1.8 7.5.9 10.2l24 24c2.7 2.7 7 3.1 10.2.9l22.1-15.2 5.5 26.3c.8 3.7 4 6.4 7.8 6.4h32c3.8 0 7.1-2.6 7.8-6.4l5.5-26.3 22.1 15.2c3.2 2.2 7.5 1.8 10.2-.9l12.4-12.5v22.8c0 11.4 6.1 21.9 16 27.6v44.4c0 17.7 14.3 32 32 32h32c17.7 0 32-14.3 32-32v-44.4c9.9-5.7 16-16.2 16-27.6v-31.7c.2-13.3 7.2-25.6 18.5-32.7 6.6-4.3 12.9-9.1 18.8-14.4l-10.7-11.9c-5.3 4.7-10.9 9-16.9 12.9-15.9 10-25.6 27.3-25.8 46.1v31.7c0 8.8-7.2 16-16 16h-64c-8.8 0-16-7.2-16-16v-32.3c-.2-18.4-9.8-35.4-25.4-45.2-63.4-39.8-82.5-123.5-42.7-186.9 24.7-39.3 67.9-63.3 114.3-63.5-.1.3-.2.6-.3.9-.3 2.1.3 4.2 1.5 5.9l18.9 25.1c2 2.6 2.2 6.1.5 8.9-1.6 2.8-4.8 4.3-8 3.8l-31.1-4.4c-4.4-.6-8.4 2.4-9.1 6.8l-6.8 47.5c-.6 4.4 2.4 8.4 6.8 9.1l31.1 4.4c4.4.6 7.4 4.7 6.8 9-.3 2.1-1.4 4-3.1 5.3l-25.1 18.9c-3.5 2.7-4.3 7.7-1.6 11.2l28.8 38.4c2.7 3.5 7.7 4.3 11.2 1.6l25.2-18.9c3.5-2.6 8.6-1.9 11.2 1.6 1.3 1.7 1.8 3.8 1.5 5.9l-4.4 31.1c-.6 4.4 2.4 8.4 6.8 9.1l47.5 6.8c.4 0 .8.1 1.1.1 4 0 7.4-2.9 7.9-6.9l4.4-31.1c.6-4.4 4.7-7.4 9-6.8 2.1.3 4 1.4 5.3 3.1l18.9 25.1c2.7 3.5 7.7 4.3 11.2 1.6l38.4-28.8c3.5-2.7 4.3-7.7 1.6-11.2l-18.9-25.1c-2-2.6-2.2-6.1-.5-8.9 1.6-2.8 4.8-4.4 8-3.8l31.1 4.4c4.4.6 8.4-2.4 9.1-6.8l6.8-47.5c.9-4.2-2.2-8.3-6.5-8.9zm-265.2 283.5h64v16h-64zm0 32h64v8c0 8.8-7.2 16-16 16h-32c-8.8 0-16-7.2-16-16zm-63.7-138c4.4 3.6 8.9 6.9 13.7 10 7.6 4.8 13.2 12 16.1 20.5l-17.2 17.1-16.6-11.5c-7.3-5-17.2-3.2-22.3 4.1-1.2 1.7-2 3.7-2.5 5.8l-4.2 20h-19l-4.2-19.9c-1.8-8.6-10.3-14.2-19-12.4-2.1.4-4 1.3-5.8 2.5l-16.6 11.4-14.6-14.5 11.4-16.6c5-7.3 3.2-17.2-4.1-22.3-1.7-1.2-3.7-2.1-5.8-2.5l-19.7-4.2v-19l19.9-4.2c8.6-1.8 14.2-10.3 12.3-19-.4-2.1-1.3-4-2.5-5.7l-11.3-16.7 14.6-14.5 16.6 11.5c7.3 5 17.2 3.2 22.3-4.1 1.2-1.7 2-3.7 2.5-5.8l1.4-6.7c1.3 9.2 3.4 18.3 6.3 27.1-26.3 3.1-45.1 27-42 53.3s27 45.1 53.3 42c15.9-1.9 29.7-11.5 37-25.7zm-12.4-11.3c-6 16.6-24.3 25.2-40.9 19.2s-25.2-24.3-19.2-40.9c4.6-12.7 16.6-21.2 30.1-21.1h.3c7.4 15.9 17.4 30.4 29.7 42.8zm326.5-119.8-23.2-3.3c-13.1-1.9-25.3 7.2-27.2 20.4-.9 6.3.7 12.7 4.6 17.8l14.1 18.7-25.6 19.2-14.1-18.8c-8-10.6-23-12.8-33.6-4.8-5.1 3.8-8.5 9.5-9.4 15.8l-3.2 23.2-31.7-4.5 3.3-23.2c1.9-13.1-7.2-25.3-20.4-27.2-6.3-.9-12.7.7-17.8 4.6l-18.7 14.1-19.2-25.6 18.7-14.1c10.6-8 12.8-23 4.8-33.6-3.8-5.1-9.5-8.5-15.8-9.4l-23.2-3.3 4.5-31.7 23.2 3.3c13.1 1.9 25.3-7.2 27.2-20.4.9-6.3-.7-12.7-4.6-17.8l-14.1-18.8 25.6-19.2 14.1 18.7c8 10.6 23 12.8 33.6 4.8 5.1-3.8 8.5-9.5 9.4-15.8l3.3-23.2 31.7 4.5-3.3 23.2c-1.9 13.1 7.2 25.3 20.4 27.2 6.3.9 12.7-.7 17.8-4.6l18.7-14.1 19.2 25.9-18.7 14c-10.6 8-12.8 23-4.8 33.6 3.8 5.1 9.5 8.5 15.8 9.4l23.2 3.3z"/><path d="m344 76.2c-35.3 0-64 28.7-64 64s28.7 64 64 64 64-28.7 64-64c0-35.4-28.7-64-64-64zm0 112c-26.5 0-48-21.5-48-48s21.5-48 48-48 48 21.5 48 48-21.5 47.9-48 48z"/><path d="m234.1 354.1h16v24h-16z"/><path d="m207.1 275.5c-49.4-19.3-73.8-75-54.5-124.4 7.5-19.1 20.9-35.4 38.3-46.3l-8.6-13.5c-52.3 33-68 102.1-35.1 154.5 12.8 20.3 31.7 35.9 54 44.6 19.8 7.6 32.8 26.5 32.8 47.7h16c.1-27.8-17-52.7-42.9-62.6z"/><path d="m394.1 298.1h56v16h-56z"/><path d="m402.1 334.8h16v62.5h-16z" transform="matrix(.6401 -.7683 .7683 .6401 -133.6326 446.8324)"/><path d="m346.1 362.1h16v56h-16z"/><path d="m9.1 130.1h66v16h-66z" transform="matrix(.9701 -.2425 .2425 .9701 -32.2217 14.3322)"/><path d="m46.1 35.7h16v68.8h-16z" transform="matrix(.5812 -.8137 .8137 .5812 -34.3568 73.3666)"/><path d="m97.9 1h16v66.1h-16z" transform="matrix(.9688 -.2477 .2477 .9688 -5.132 27.3019)"/></g></svg>