<svg enable-background="new 0 0 682.7 682.7" viewBox="0 0 682.7 682.7" xmlns="http://www.w3.org/2000/svg"><path d="m37.1-477c-11.4 0-22.3 4.5-30.3 12.6-8 8-12.5 18.9-12.5 30.3v570.5c0 16.2 13.1 29.3 29.2 29.3h.1c8.7 0 16.9-3.4 23-9.6 28.4-28.4 112.2-112.1 146.8-146.7 9.6-9.7 22.8-15.1 36.5-15.1s26.9 5.5 36.5 15.1c34.7 34.6 118.9 118.8 147 146.9 6 6 14 9.3 22.5 9.3 16.4 0 29.7-13.3 29.7-29.6v-570.2c0-11.4-4.5-22.3-12.5-30.3s-19-12.6-30.3-12.6h-385.7z" style="fill:none;stroke:#ef4425;stroke-width:40;stroke-linecap:round;stroke-linejoin:round;stroke-miterlimit:13.3333" transform="translate(111.4004 497)"/></svg>