<svg enable-background="new 0 0 512 512" viewBox="0 0 512 512" xmlns="http://www.w3.org/2000/svg"><path d="m446.8 306.9v-184.5c0-14-11.4-25.4-25.4-25.4h-330.8c-14 0-25.4 11.4-25.4 25.4v184.4h381.6z" fill="#2b2e33"/><path d="m71.6 306.9v-184.5c0-10.5 8.6-19.1 19.1-19.1h330.7c10.5 0 19.1 8.6 19.1 19.1v184.4h-368.9z" fill="#c2cfe8"/><path d="m137.4 103.4h283.9c10.5 0 19.1 8.5 19.1 19.1v161.9c0 7.9-6.4 14.3-14.3 14.3h-254.6c-44.6 0-80.8-36.2-80.8-80.8v-67.7c-.1-25.9 20.9-46.8 46.7-46.8z" fill="#edf4fa"/><path d="m160.6 389.6h190.8c7 0 12.7 5.7 12.7 12.7v12.7h-216.2v-12.7c0-7 5.7-12.7 12.7-12.7z" fill="#36393f"/><path d="m294.2 389.6-12.7-38.2h-50.9l-12.7 38.2z" fill="#181a1c"/><path d="m446.8 306.9v19.1c0 14-11.4 25.4-25.4 25.4h-330.8c-14 0-25.4-11.4-25.4-25.4v-19.1z" fill="#202326"/><path d="m65.2 313.2c0 14 11.4 25.4 25.4 25.4h330.7c14 0 25.4-11.4 25.4-25.4v-6.4h-381.5z" fill="#2b2e33"/><path d="m294.2 389.6-10-29.9h-31c-6.7 0-12.7 4.3-14.8 10.7l-6.4 19.3z" fill="#2b2e33"/><path d="m179.7 389.6h152.6c7 0 12.7 5.7 12.7 12.7 0 7-5.7 12.7-12.7 12.7h-152.6c-7 0-12.7-5.7-12.7-12.7 0-7.1 5.7-12.7 12.7-12.7z" fill="#3f4349"/><path d="m268.7 351.4h76.3c3.5 0 6.4 2.8 6.4 6.4v25.4c0 3.5-2.8 6.4-6.4 6.4h-76.3c-3.5 0-6.4-2.8-6.4-6.4v-25.4c.1-3.6 2.9-6.4 6.4-6.4z" fill="#355485"/><path d="m262.4 198.8h-76.4c-7 0-12.7-5.7-12.7-12.7v-25.4c0-7 5.7-12.7 12.7-12.7h140c7 0 12.7 5.7 12.7 12.7v25.3c0 7-5.7 12.7-12.7 12.7h-38.2" fill="#1cb15f"/><path d="m345 351.4h-64.7c-2.9 0-5.3 2.4-5.3 5.3v1.3c0 13.9 11.3 25.2 25.2 25.2h45c3.3 0 6-2.7 6-6v-19.4c.2-3.6-2.6-6.4-6.2-6.4z" fill="#446aa9"/><path d="m345 351.4v-12.7l16.4-32.8c1.8-3.5 2.7-7.4 2.7-11.4v-38.5c0-7-5.7-12.7-12.7-12.7s-12.7 5.7-12.7 12.7v-12.7c0-7-5.7-12.7-12.7-12.7s-12.7 5.7-12.7 12.7v-6.4c0-7-5.7-12.7-12.7-12.7s-12.7 5.7-12.7 12.7v-38.2c0-7-5.7-12.7-12.7-12.7s-12.7 5.7-12.7 12.7v101.8l-27.9-27.9c-2.5-2.5-6-3.9-9.5-3.9-7.5 0-13.5 6-13.5 13.5 0 3.6 1.4 7 3.9 9.5l46.9 46.9 6.4 12.7z" fill="#f4c8ad"/><g fill="#f2b9a1"><path d="m211.5 282.2c0 3.6 1.4 7 3.9 9.5l46.9 46.9 6.4 12.7h12.7l-6.4-12.7-46.9-46.9c-2.5-2.5-3.9-6-3.9-9.5 0-5.1 2.9-9.5 7.1-11.8-1.9-1-4.1-1.7-6.4-1.7-7.4 0-13.4 6.1-13.4 13.5z"/><path d="m351.4 243.3c-1.1 0-2.2.2-3.2.5 5.5 1.4 9.5 6.3 9.5 12.3v31.8h6.4v-31.9c0-7-5.7-12.7-12.7-12.7z"/><path d="m326 230.6c-1.1 0-2.2.2-3.2.5 5.5 1.4 9.5 6.3 9.5 12.3v44.5h6.4v-44.5c0-7.1-5.7-12.8-12.7-12.8z"/><path d="m300.5 224.2c-1.1 0-2.2.2-3.2.5 5.5 1.4 9.5 6.3 9.5 12.3v50.9h6.4v-50.9c0-7.1-5.7-12.8-12.7-12.8z"/><path d="m275.1 186c-1.1 0-2.2.2-3.2.5 5.5 1.4 9.5 6.3 9.5 12.3v89h6.4v-89c0-7.1-5.7-12.8-12.7-12.8z"/></g><path d="m326 147.9h-133.6v9.1c0 16 13 29 29 29h117.2v-25.4c.1-7-5.6-12.7-12.6-12.7z" fill="#27d674"/></svg>