<svg enable-background="new 0 0 512 512" viewBox="0 0 512 512" xmlns="http://www.w3.org/2000/svg"><path d="m362.8 67h-213.6c-18.8 0-34.8 15.2-34.8 34.8v315.7c0 15.2 12.3 27.5 27.5 27.5 7.6 0 14.8-3 20.3-8.4l81.4-81.4c3.3-3.3 7.8-5.1 12.4-5.1s9.1 1.9 12.4 5.1l81.4 81.4c5.4 5.4 12.6 8.4 20.3 8.4 15.2 0 27.5-12.3 27.5-27.5v-315.7c0-19.6-16-34.8-34.8-34.8z" fill="#ffb81a"/><path d="m362.8 67h-106.8v283.1c4.6 0 9.1 1.9 12.4 5.1l81.4 81.4c5.4 5.4 12.6 8.4 20.3 8.4 15.2 0 27.5-12.3 27.5-27.5v-315.7c0-19.6-16-34.8-34.8-34.8z" fill="#fa0"/></svg>