<svg fill="none" height="18" viewBox="0 0 14 18" width="14" xmlns="http://www.w3.org/2000/svg"><path d="m13.4688 12.5887c.0102-.0982-.0003-.1976-.031-.2915-.0307-.094-.0809-.1804-.1472-.2536-.0664-.0733-.1474-.1317-.2379-.1715-.0904-.0398-.1883-.0601-.2871-.0596h-2.1094v-1.6875c.0001-.15086-.0301-.3002-.0889-.43913-.0589-.13893-.145-.26462-.2534-.36958-.1083-.10495-.2367-.18704-.37746-.24138-.14074-.05434-.29097-.07981-.44175-.07491-.14276.0093-.27661.07264-.37432.17714-.0977.1045-.15192.2423-.15162.38536v.10688c.00022.63592-.18621 1.25792-.53618 1.78882-.34997.531-.84808.9475-1.43257 1.198h-.84375v3.9376h.2475c.38189 0 .74812.1518 1.01813.4218.27.2701.63623.4218 1.01812.4219h3.4425c.1795.0045.3544-.0573.4914-.1734.1369-.1162.2263-.2787.2511-.4566.0103-.0983-.0003-.1976-.031-.2916-.0307-.0939-.0808-.1803-.1472-.2536-.0663-.0732-.1474-.1316-.2378-.1715-.0905-.0398-.1883-.0601-.2871-.0596h.2418c.1796.0045.3545-.0572.4914-.1734s.2263-.2787.2511-.4566c.0103-.0982-.0002-.1976-.0309-.2915-.0307-.094-.0809-.1804-.1472-.2536-.0664-.0733-.1474-.1317-.2379-.1715-.0904-.0398-.1883-.0601-.2871-.0596h.2419c.1795.0045.3544-.0573.4914-.1734.1369-.1162.2263-.2787.2511-.4566.0103-.0983-.0003-.1976-.031-.2916-.0307-.0939-.0808-.1803-.1472-.2536-.0663-.0732-.1474-.1316-.2378-.1715-.0905-.0398-.1883-.0601-.2871-.0595h.2418c.1796.0044.3545-.0573.4914-.1735s.2263-.2787.2512-.4566zm-9.56255 4.5675h.5625v-1.6874c0-.0746.02963-.1462.08238-.1989.05274-.0528.12428-.0824.19887-.0824s.14613.0296.19887.0824c.05275.0527.08238.1243.08238.1989v1.6874h.5625v-5.0624h-1.6875zm-.84375-5.3437h-2.53125v5.625h2.53125c.07459 0 .14613-.0296.19887-.0824.05275-.0527.08238-.1243.08238-.1989v-5.0624c0-.0746-.02963-.1462-.08238-.1989-.05274-.0528-.12428-.0824-.19887-.0824zm-1.125 4.7813c-.11125 0-.22001-.033-.31251-.0948-.0925-.0619-.1646-.1497-.20717-.2525-.04258-.1028-.05372-.2159-.03201-.325.0217-.1091.07528-.2093.15394-.288.07867-.0787.1789-.1322.28801-.1539.10912-.0217.22222-.0106.325.032.10278.0425.19063.1146.25244.2071s.0948.2013.0948.3125c0 .1492-.05926.2923-.16475.3978s-.24857.1648-.39775.1648zm4.21875-8.7188v1.6875l1.6875-1.6875h1.40625c.52215 0 1.0229-.20742 1.3921-.57663.3692-.36922.5767-.86998.5767-1.39212v-3.375c0-.52214-.2075-1.0229-.5767-1.39212-.3692-.369209-.86995-.57663-1.3921-.57663h-4.5c-.52215 0-1.0229.207421-1.39212.57663-.36921.36922-.57663.86998-.57663 1.39212v3.375c0 .52214.20742 1.0229.57663 1.39212.36922.36921.86997.57663 1.39212.57663zm.20531-4.57594.65813-1.18687.65812 1.18687 1.33032.25875-.9225.99282.16312 1.35562-1.22906-.5625-1.22906.5625.16312-1.34719-.9225-1.00125z" fill="#f9c104"/></svg>