<svg enable-background="new 0 0 512 512" viewBox="0 0 512 512" xmlns="http://www.w3.org/2000/svg"><g fill="#ef4425"><path d="m495.4 421.9-58.4-101.2c14-29.8 21.4-62.7 21.4-95.7 0-124.1-100.9-225-225-225s-225 100.9-225 225c0 101.9 68.7 190.6 165.7 217-2.3 13.5.1 27.5 7.3 39.9 10.9 18.8 30.3 30 52 30h210.1c21.7 0 41.1-11.2 52-30 10.8-18.7 10.8-41.2-.1-60zm-105-181.9h37.4c-1.2 16.4-4.5 32.4-9.8 47.9zm-196 159.4c-12.5-13.6-23.6-33.3-32.2-57.3-10.8-30.1-17.2-65.2-18.5-102.1h74.7v117.8zm54-189.4v-177c16.6 6.7 32.8 24.2 45.8 50.2 17.1 34.1 27.2 78.7 28.9 126.7h-74.7zm-30-177v177h-74.7c1.7-48 11.9-92.6 28.9-126.7 13.1-26.1 29.2-43.6 45.8-50.3zm30 207h38s-38 65.8-38 65.8zm179.4-30h-74.7c-2.3-68.8-20.4-128.3-47.8-166.2 67.7 26.9 116.8 90.6 122.5 166.2zm-266.3-166.2c-27.4 37.9-45.5 97.4-47.8 166.2h-74.7c5.8-75.6 54.9-139.3 122.5-166.2zm-122.5 196.2h74.7c1.4 40.4 8.3 78.9 20.3 112.3 7.5 21 16.8 39.2 27.4 54-68.4-27.3-116.7-91.7-122.4-166.3zm430.5 227c-5.4 9.4-15.2 15-26 15h-210.1c-10.9 0-20.6-5.6-26-15s-5.4-20.6 0-30l105-181.9c5.4-9.4 15.2-15 26-15 10.9 0 20.6 5.6 26 15l105 181.9c5.5 9.3 5.5 20.6.1 30z"/><path d="m323.4 296h30v96h-30z"/><path d="m323.4 422h30v30h-30z"/></g></svg>