<svg enable-background="new 0 0 512 512" viewBox="0 0 512 512" xmlns="http://www.w3.org/2000/svg"><path d="m256.2 454.1h-.3c-25.9 0-47-21.1-47-47v-11c0-6.4 5.2-11.6 11.6-11.6h71.1c6.4 0 11.6 5.2 11.6 11.6v11c0 25.9-21.1 47-47 47z" fill="#ffa81c"/><path d="m291.6 384.5h-35.6v69.6h.1c25.9 0 47-21.1 47-47v-11c.1-6.4-5.1-11.6-11.5-11.6z" fill="#ff9300"/><path d="m279.3 130.5h-46.4c-6.4 0-11.6-5.2-11.6-11.6v-26.2c0-19.2 15.6-34.8 34.8-34.8s34.8 15.6 34.8 34.8v26.1c0 6.5-5.2 11.7-11.6 11.7z" fill="#ffa81c"/><path d="m279.3 130.5c6.4 0 11.6-5.2 11.6-11.6v-26.2c0-19.2-15.6-34.8-34.8-34.8v72.5h23.2z" fill="#ff9300"/><path d="m379.1 407.7h-246c-10 0-18.2-8.2-18.2-18.2v-16.6c0-18.2 6.7-35.6 18.8-49.1 8.3-9.2 12.9-21.2 12.9-33.6v-75.2c0-60.4 49.1-109.5 109.5-109.5s109.5 49.1 109.5 109.5v75.2c0 12.4 4.6 24.4 12.9 33.6 12.2 13.5 18.8 31 18.8 49.1v16.6c0 10-8.2 18.2-18.2 18.2z" fill="#ffcf2c"/><path d="m379.1 407.7c10 0 18.2-8.2 18.2-18.2v-16.6c0-18.2-6.7-35.6-18.8-49.1-8.3-9.2-12.9-21.2-12.9-33.6v-75.2c0-60.4-49.1-109.5-109.5-109.5v302.2z" fill="#ffc12e"/><path d="m114.9 372.9v16.6c0 10 8.2 18.2 18.2 18.2h246c10 0 18.2-8.2 18.2-18.2v-16.6c0-8-1.3-15.8-3.7-23.2h-275c-2.4 7.4-3.7 15.2-3.7 23.2z" fill="#fff566"/><path d="m256.1 349.7v58h123c10 0 18.2-8.2 18.2-18.2v-16.6c0-8-1.3-15.8-3.7-23.2z" fill="#ffe645"/><path d="m69.5 186.1c-.8 0-1.6-.1-2.5-.3-6.3-1.4-10.2-7.5-8.9-13.8 9.3-43 33-82.6 66.8-111.3 4.9-4.2 12.2-3.6 16.4 1.3s3.6 12.2-1.3 16.4c-29.9 25.5-50.9 60.5-59.1 98.6-1.2 5.4-6 9.1-11.4 9.1z" fill="#ff8b6e"/><path d="m442.5 186.1c-5.3 0-10.2-3.7-11.3-9.2-8.2-38.1-29.2-73.1-59.1-98.6-4.9-4.2-5.5-11.5-1.3-16.4s11.5-5.5 16.4-1.3c33.8 28.8 57.5 68.3 66.8 111.3 1.4 6.3-2.6 12.4-8.9 13.8-1 .3-1.8.4-2.6.4z" fill="#ff674f"/><path d="m114.2 199.7c-.7 0-1.4-.1-2.2-.2-6.3-1.2-10.4-7.3-9.3-13.5 6.4-33.9 24.2-65.2 50.3-88.2 4.8-4.2 12.1-3.8 16.4 1 4.2 4.8 3.8 12.1-1 16.4-22.2 19.6-37.4 46.2-42.8 75-1.1 5.6-6 9.5-11.4 9.5z" fill="#ff8b6e"/><path d="m397.8 199.7c-5.5 0-10.3-3.9-11.4-9.5-5.4-28.8-20.6-55.5-42.8-75-4.8-4.2-5.3-11.6-1-16.4 4.2-4.8 11.6-5.3 16.4-1 26.1 23 43.9 54.3 50.3 88.2 1.2 6.3-3 12.4-9.3 13.5-.7.1-1.5.2-2.2.2z" fill="#ff674f"/></svg>