<svg enable-background="new 0 0 682.7 682.7" viewBox="0 0 682.7 682.7" xmlns="http://www.w3.org/2000/svg"><path clip-rule="evenodd" d="m359.6 595.7c-71.8 15.8-125.5 79.8-125.5 156.3v71.3c0 19.8-7.9 38.8-21.9 52.8-7.5 7.5-15.9 15.9-23.9 23.9-9.2 9.2-11.9 22.9-6.9 34.9 4.9 12 16.6 19.8 29.6 19.8h109.3c5.2 36.2 36.3 64 73.9 64s68.7-27.8 73.9-64h109.3c12.9 0 24.6-7.8 29.6-19.8s2.2-25.7-6.9-34.9c-8.1-8.1-16.4-16.4-23.9-23.9-14-14-21.9-33-21.9-52.8 0-31.1 0-71.3 0-71.3 0-42.4-16.9-83.1-46.9-113.1-21.7-21.7-49.1-36.6-78.6-43.1 5.1-7.1 8.2-15.7 8.2-25.1 0-23.6-19.1-42.7-42.7-42.7s-42.7 19.1-42.7 42.7c-.1 9.3 2.9 18 8 25zm-17.7 359c4.9 24.3 26.5 42.7 52.3 42.7s47.3-18.3 52.3-42.7zm190.9-202.7v71.3c0 25.5 10.1 49.9 28.1 67.9l23.9 23.9c3.1 3.1 4 7.6 2.3 11.6-1.6 4-5.5 6.6-9.8 6.6h-366.3c-4.3 0-8.2-2.6-9.8-6.6-1.7-4-.7-8.6 2.3-11.6l23.9-23.9c18-18 28.1-42.4 28.1-67.9 0-31.1 0-71.3 0-71.3 0-76.6 62.1-138.7 138.7-138.7 36.8 0 72 14.6 98 40.6 26 26.1 40.6 61.3 40.6 98.1zm-138.6-202.7c11.8 0 21.3 9.6 21.3 21.3s-9.6 21.3-21.3 21.3c-11.8 0-21.3-9.6-21.3-21.3s9.5-21.3 21.3-21.3z" fill="#ef4425" fill-rule="evenodd" transform="translate(-48 -432)"/><path d="m627.5 347.2c-.4 28-11.9 57.4-35.1 82.1-1.6 1.7-3.4 3.5-5.4 4.3-4.2 1.6-8.3 1-11.4-2.6-2.7-3.1-2.9-8.6-.4-12.1 1.5-2 3.4-3.7 5-5.6 37-40.8 36.7-104.1-.6-144.7-2.1-2.3-4.7-4.7-5.6-7.5-1.5-4.3-.6-8.6 3.8-11.4 3.6-2.3 9.3-2.1 12.4 1.5 7 8.5 14.3 16.8 20.1 26.1 11.7 19.2 17.1 41.4 17.2 69.9z" fill="#747474"/><path d="m567.3 341.9c-.4 17.3-6.3 32.8-18.5 45.8-4.6 4.9-10.9 5.6-15.1 1.7-4.4-4-4.2-9.7.5-15.1 17.9-20.3 17.8-45.7-.2-66-4.5-5-4.7-10.7-.5-14.7 4.2-4.1 10.5-3.7 15.1 1.2 12.3 13.1 18.4 28.7 18.7 47.1z" fill="#747474"/><path d="m627.5 347.2c-.4 28-11.9 57.4-35.1 82.1-1.6 1.7-3.4 3.5-5.4 4.3-4.2 1.6-8.3 1-11.4-2.6-2.7-3.1-2.9-8.6-.4-12.1 1.5-2 3.4-3.7 5-5.6 37-40.8 36.7-104.1-.6-144.7-2.1-2.3-4.7-4.7-5.6-7.5-1.5-4.3-.6-8.6 3.8-11.4 3.6-2.3 9.3-2.1 12.4 1.5 7 8.5 14.3 16.8 20.1 26.1 11.7 19.2 17.1 41.4 17.2 69.9z" fill="#ef4425"/><path d="m567.3 341.9c-.4 17.3-6.3 32.8-18.5 45.8-4.6 4.9-10.9 5.6-15.1 1.7-4.4-4-4.2-9.7.5-15.1 17.9-20.3 17.8-45.7-.2-66-4.5-5-4.7-10.7-.5-14.7 4.2-4.1 10.5-3.7 15.1 1.2 12.3 13.1 18.4 28.7 18.7 47.1z" fill="#ef4425"/><path d="m64.9 335.5c.4-28 11.9-57.4 35.1-82.1 1.6-1.7 3.4-3.5 5.4-4.3 4.2-1.6 8.3-1 11.4 2.6 2.7 3.1 2.9 8.6.4 12.1-1.5 2-3.4 3.7-5 5.6-37 40.8-36.7 104.1.6 144.7 2.1 2.3 4.7 4.7 5.6 7.5 1.5 4.3.6 8.6-3.8 11.4-3.6 2.3-9.3 2.1-12.4-1.5-7-8.5-14.3-16.8-20.1-26.1-11.8-19.2-17.2-41.4-17.2-69.9z" fill="#747474"/><path d="m125 340.8c.4-17.3 6.3-32.8 18.5-45.8 4.6-4.9 10.9-5.6 15.1-1.7 4.4 4 4.2 9.7-.5 15.1-17.9 20.3-17.8 45.7.2 66 4.5 5 4.7 10.7.5 14.7-4.2 4.1-10.5 3.7-15.1-1.2-12.3-13.1-18.4-28.7-18.7-47.1z" fill="#747474"/><g fill="#ef4425"><path d="m64.9 335.5c.4-28 11.9-57.4 35.1-82.1 1.6-1.7 3.4-3.5 5.4-4.3 4.2-1.6 8.3-1 11.4 2.6 2.7 3.1 2.9 8.6.4 12.1-1.5 2-3.4 3.7-5 5.6-37 40.8-36.7 104.1.6 144.7 2.1 2.3 4.7 4.7 5.6 7.5 1.5 4.3.6 8.6-3.8 11.4-3.6 2.3-9.3 2.1-12.4-1.5-7-8.5-14.3-16.8-20.1-26.1-11.8-19.2-17.2-41.4-17.2-69.9z"/><path d="m125 340.8c.4-17.3 6.3-32.8 18.5-45.8 4.6-4.9 10.9-5.6 15.1-1.7 4.4 4 4.2 9.7-.5 15.1-17.9 20.3-17.8 45.7.2 66 4.5 5 4.7 10.7.5 14.7-4.2 4.1-10.5 3.7-15.1-1.2-12.3-13.1-18.4-28.7-18.7-47.1z"/></g></svg>