<svg enable-background="new 0 0 512 512" viewBox="0 0 512 512" xmlns="http://www.w3.org/2000/svg"><path d="m310.3 191.4 29.5 7.4 46.2 113.3-21.5 10.2-42.5 20.2c36.4-70.3-11.7-151.1-11.7-151.1z" fill="#c6c6c6"/><path d="m99 284.7v-18.7c0-4.1-3.3-7.4-7.4-7.4h-21.4c-4.1 0-7.4 3.3-7.4 7.4v51.8" fill="#c6c6c6"/><path d="m99 284.7v-18.7c0-4.1-3.3-7.4-7.4-7.4h-8.8v59.2" fill="#464747"/><path d="m274.9 252.4-158.1 12.5 12.1 106 117.3 12.5 34.9-18.7c-27.6 0-49.9-22.3-49.9-49.9s22.3-49.9 49.9-49.9" fill="#fff"/><path d="m367.2 139.4v52.7c0 3.7-3 6.7-6.7 6.7h-37.3c-18.3 0-33.1-14.8-33.1-33.1 0-18.3 14.8-33.1 33.1-33.1h37.3c3.7 0 6.7 3.1 6.7 6.8z" fill="#fff"/><path d="m290.8 159c-.5 2.2-.7 4.4-.7 6.7 0 18.3 14.8 33.1 33.1 33.1h37.3c3.7 0 6.7-3 6.7-6.7v-6.8h-44c-16 0-29.3-11.3-32.4-26.3z" fill="#c6c6c6"/><g fill="#fff"><path d="m197.1 364.7h152.6v29.9h-166.4-10.7"/><circle cx="123.9" cy="394.6" r="64.9"/><path d="m339.7 198.8 46.2 113.2-2.6 31-53.8-144.2z"/></g><circle cx="123.9" cy="394.6" fill="#9aa7b8" r="35.5"/><circle cx="385.9" cy="394.6" fill="#fff" r="64.9"/><circle cx="385.9" cy="394.6" fill="#9aa7b8" r="35.5"/><path d="m343.9 394.6h13.1c0 16 13 29 29 29s29-13 29-29h13.1c0 23.2-18.9 42-42 42-23.4 0-42.2-18.8-42.2-42z" fill="#1d2c30"/><path d="m183.3 394.6h-129.5c-5.9 0-10.6-5-10.3-10.9 5-93.7 73.8-112.2 108.7-112.2 36.1 0 65.5 29.3 65.5 65.5 0 24.9-13.9 46.6-34.4 57.6z" fill="#fff"/><path d="m176 394.6h7.4c20.5-11 34.4-32.7 34.4-57.7 0-36.2-29.3-65.5-65.5-65.5-15.7 0-38.3 3.7-58.8 16.4 13.8-4.8 27.2-6.4 37.6-6.4 36.1 0 65.5 29.3 65.5 65.5-.1 18.9-8 35.8-20.6 47.7z" fill="#c6c6c6"/><path d="m468.5 394.6c0-45.6-37-82.6-82.6-82.6s-82.6 37-82.6 82.6z" fill="#fff"/><path d="m441.1 394.6h27.4c0-45.6-37-82.6-82.6-82.6-4.7 0-9.3.4-13.7 1.1 39.1 6.6 68.9 40.6 68.9 81.5z" fill="#c6c6c6"/><path d="m81.9 394.6h13.1c0 16 13 29 29 29s29-13 29-29h13.1c0 23.2-18.9 42-42 42s-42.2-18.8-42.2-42z" fill="#1d2c30"/><path d="m347.2 198.8h13.2c3.7 0 6.7-3 6.7-6.7v-52.7c0-3.7-3-6.7-6.7-6.7h-13.2z" fill="#c6c6c6"/><path d="m347.2 198.8h13.2c3.7 0 6.7-3 6.7-6.7v-6.8h-20z" fill="#464747"/><path d="m116.8 250.4v14.5h176.8c0-14.6-11.3-26.8-25.9-27.8l-126.9-9c-13-.9-24 9.4-24 22.3z" fill="#c6c6c6"/><path d="m302.8 97.8h13.1v64.1h-13.1z" fill="#3b3f3e"/><path d="m86.6 317c0-3.6 2.9-6.5 6.5-6.5h63.6c3.6 0 6.5 2.9 6.5 6.5s-2.9 6.5-6.5 6.5h-63.6c-3.6 0-6.5-2.9-6.5-6.5z" fill="#303030"/><path d="m103.2 338.1c0-3.6 2.9-6.5 6.5-6.5h47c3.6 0 6.5 2.9 6.5 6.5s-2.9 6.5-6.5 6.5h-47c-3.5 0-6.5-2.9-6.5-6.5z" fill="#303030"/><path d="m119.9 358.9c0-3.6 2.9-6.5 6.5-6.5h30.4c3.6 0 6.5 2.9 6.5 6.5s-2.9 6.5-6.5 6.5h-30.4c-3.6 0-6.5-2.9-6.5-6.5z" fill="#303030"/><circle cx="309.3" cy="165.7" fill="#444d56" r="19.2"/><path d="m297.5 101.4v-37c0-6.5 5.3-11.9 11.9-11.9 6.5 0 11.9 5.3 11.9 11.9v37c0 6.5-5.3 11.9-11.9 11.9-6.6 0-11.9-5.4-11.9-11.9z" fill="#7c7c7c"/></svg>