<?xml version="1.0" encoding="utf-8"?>
<!-- Generator: Adobe Illustrator 25.0.0, SVG Export Plug-In . SVG Version: 6.00 Build 0)  -->
<svg version="1.1" id="Capa_1" xmlns="http://www.w3.org/2000/svg" xmlns:xlink="http://www.w3.org/1999/xlink" x="0px" y="0px"
	 viewBox="0 0 512 512" style="enable-background:new 0 0 512 512;" xml:space="preserve">
<style type="text/css">
	.st0{fill:#F8B40E;}
	.st1{fill:#F2171C;}
	.st2{fill:#D8131E;}
	.st3{fill:#BF8104;}
	.st4{fill:#DD9B0A;}
	.st5{fill:#2C4046;}
	.st6{fill:#9AA7B8;}
	.st7{fill:#1D2C30;}
	.st8{fill:#A0D9F2;}
	.st9{fill:#84BED3;}
	.st10{fill:#444D56;}
	.st11{fill:#D3D3D3;}
	.st12{fill:#E6E6E6;}
</style>
<circle cx="256.5" cy="256.5" r="256.5"/>
<g>
	<path class="st0" d="M310.3,158.9l29.5,7.4l46.2,113.3l-21.5,10.2l-42.5,20.2C358.4,239.7,310.3,158.9,310.3,158.9z"/>
	<path class="st1" d="M99,252.2v-18.7c0-4.1-3.3-7.4-7.4-7.4H70.2c-4.1,0-7.4,3.3-7.4,7.4v51.8"/>
	<path class="st2" d="M99,252.2v-18.7c0-4.1-3.3-7.4-7.4-7.4h-8.8v59.2"/>
	<path class="st3" d="M274.9,219.9l-158.1,12.5l12.1,106l117.3,12.5l34.9-18.7c-27.6,0-49.9-22.3-49.9-49.9s22.3-49.9,49.9-49.9"/>
	<path class="st0" d="M367.2,106.9v52.7c0,3.7-3,6.7-6.7,6.7h-37.3c-18.3,0-33.1-14.8-33.1-33.1l0,0c0-18.3,14.8-33.1,33.1-33.1
		h37.3C364.2,100.1,367.2,103.2,367.2,106.9z"/>
	<path class="st4" d="M290.8,126.5c-0.5,2.2-0.7,4.4-0.7,6.7l0,0c0,18.3,14.8,33.1,33.1,33.1h37.3c3.7,0,6.7-3,6.7-6.7v-6.8h-44
		C307.2,152.8,293.9,141.5,290.8,126.5z"/>
	<polyline class="st0" points="197.1,332.2 349.7,332.2 349.7,362.1 183.3,362.1 172.6,362.1 	"/>
	<circle class="st5" cx="123.9" cy="362.1" r="64.9"/>
	<polygon class="st4" points="339.7,166.3 385.9,279.5 383.3,310.5 329.5,166.3 	"/>
	<circle class="st6" cx="123.9" cy="362.1" r="35.5"/>
	<circle class="st5" cx="385.9" cy="362.1" r="64.9"/>
	<circle class="st6" cx="385.9" cy="362.1" r="35.5"/>
	<path class="st7" d="M343.9,362.1h13.1c0,16,13,29,29,29s29-13,29-29h13.1c0,23.2-18.9,42-42,42
		C362.7,404.1,343.9,385.3,343.9,362.1z"/>
	<path class="st0" d="M183.3,362.1H53.8c-5.9,0-10.6-5-10.3-10.9c5-93.7,73.8-112.2,108.7-112.2c36.1,0,65.5,29.3,65.5,65.5
		C217.7,329.4,203.8,351.1,183.3,362.1L183.3,362.1z"/>
	<path class="st4" d="M176,362.1h7.4c20.5-11,34.4-32.7,34.4-57.7c0-36.2-29.3-65.5-65.5-65.5c-15.7,0-38.3,3.7-58.8,16.4
		c13.8-4.8,27.2-6.4,37.6-6.4c36.1,0,65.5,29.3,65.5,65.5C196.5,333.3,188.6,350.2,176,362.1z"/>
	<path class="st0" d="M468.5,362.1c0-45.6-37-82.6-82.6-82.6s-82.6,37-82.6,82.6H468.5z"/>
	<path class="st4" d="M441.1,362.1h27.4c0-45.6-37-82.6-82.6-82.6c-4.7,0-9.3,0.4-13.7,1.1C411.3,287.2,441.1,321.2,441.1,362.1z"/>
	<path class="st7" d="M81.9,362.1h13.1c0,16,13,29,29,29s29-13,29-29h13.1c0,23.2-18.9,42-42,42S81.9,385.3,81.9,362.1z"/>
	<path class="st8" d="M347.2,166.3h13.2c3.7,0,6.7-3,6.7-6.7v-52.7c0-3.7-3-6.7-6.7-6.7h-13.2V166.3z"/>
	<path class="st9" d="M347.2,166.3h13.2c3.7,0,6.7-3,6.7-6.7v-6.8h-20V166.3z"/>
	<path class="st10" d="M116.8,217.9v14.5h176.8l0,0c0-14.6-11.3-26.8-25.9-27.8l-126.9-9C127.8,194.7,116.8,205,116.8,217.9z"/>
	<rect x="302.8" y="65.3" class="st11" width="13.1" height="64.1"/>
	<g>
		<path class="st4" d="M86.6,284.5c0-3.6,2.9-6.5,6.5-6.5h63.6c3.6,0,6.5,2.9,6.5,6.5c0,3.6-2.9,6.5-6.5,6.5H93.1
			C89.5,291,86.6,288.1,86.6,284.5z"/>
		<path class="st4" d="M103.2,305.6c0-3.6,2.9-6.5,6.5-6.5h47c3.6,0,6.5,2.9,6.5,6.5c0,3.6-2.9,6.5-6.5,6.5h-47
			C106.2,312.1,103.2,309.2,103.2,305.6z"/>
		<path class="st4" d="M119.9,326.4c0-3.6,2.9-6.5,6.5-6.5h30.4c3.6,0,6.5,2.9,6.5,6.5c0,3.6-2.9,6.5-6.5,6.5h-30.4
			C122.8,332.9,119.9,330,119.9,326.4z"/>
	</g>
	<circle class="st10" cx="309.3" cy="133.2" r="19.2"/>
	<path class="st12" d="M297.5,68.9v-37c0-6.5,5.3-11.9,11.9-11.9l0,0c6.5,0,11.9,5.3,11.9,11.9v37c0,6.5-5.3,11.9-11.9,11.9l0,0
		C302.8,80.8,297.5,75.4,297.5,68.9z"/>
</g>
</svg>
