<svg enable-background="new 0 0 464 464" viewBox="0 0 464 464" xmlns="http://www.w3.org/2000/svg"><path d="m417.9 157.7h-128c-7.8 0-14.2 6.4-14.2 14.2v71.2c0 7.8 6.4 14.2 14.2 14.2h28.5v28.5l28.5-28.5h71.2c7.8 0 14.2-6.4 14.2-14.2v-71.1c-.1-7.9-6.5-14.2-14.4-14.3z" fill="#ffd422"/><path d="m218.7 93.7v56.9c0 7.8-6.4 14.2-14.2 14.2h-35.6v28.5l-24.3-24.3c-2.7-2.7-6.3-4.2-10.1-4.2h-43.9c-7.8 0-14.2-6.4-14.2-14.2v-56.9c0-7.8 6.4-14.2 14.2-14.2h113.9c7.8 0 14.2 6.3 14.2 14.2z" fill="#78b9eb"/><path d="m389.5 51h-113.9c-7.8 0-14.2 6.4-14.2 14.2v56.9c0 7.8 6.4 14.2 14.2 14.2h35.6v28.5l24.3-24.3c2.7-2.7 6.3-4.2 10.1-4.2h43.9c7.8 0 14.2-6.4 14.2-14.2v-56.9c0-7.8-6.4-14.2-14.2-14.2z" fill="#ff9811"/><path d="m176 228.9v71.2c0 7.8-6.4 14.2-14.2 14.2h-28.5v28.5l-28.5-28.5h-71.1c-7.8 0-14.2-6.4-14.2-14.2v-71.2c0-7.8 6.4-14.2 14.2-14.2h128.1c7.8 0 14.2 6.3 14.2 14.2z" fill="#00ccb3"/><path d="m304.1 463.7h-163.7v-17.2c0-19.2 12.9-36.1 31.5-41.2l37.1-10.1 31 25.8 31-25.8 37.1 10.1c18.6 5.1 31.4 22 31.5 41.2v17.2z" fill="#3d9ae2"/><path d="m282.7 321.4v14.2c0 15.2-8.1 29.3-21.3 36.9-13.2 7.7-29.5 7.7-42.7 0-3.2-1.8-6.2-4.1-8.8-6.8-8-8-12.6-18.8-12.5-30.2v-14.2h7.1c17.9 0 34.8-8.4 45.5-22.8l4.3-5.7 3.1 12.3c2.4 9.5 10.9 16.1 20.7 16.2h4.6z" fill="#ffdaaa"/><path d="m271.1 395.2-31.1 25.8-31-25.8 9.7-2.6v-20c13.2 7.7 29.5 7.7 42.7 0v20z" fill="#ffdaaa"/><path d="m289.9 300.1v21.3h-11.9c-9.8 0-18.3-6.7-20.7-16.2l-3.1-12.3-4.3 5.7c-10.8 14.3-27.6 22.8-45.5 22.8h-14.2v-21.3c0-27.5 22.3-49.8 49.8-49.8s49.9 22.2 49.9 49.8z" fill="#57565c"/><path d="m261.4 372.6v7.1c-13.2 7.7-29.5 7.7-42.7 0v-7.1c13.2 7.7 29.5 7.7 42.7 0z" fill="#f2cfa2"/><path d="m168.9 435.3h14.2v28.5h-14.2z" fill="#1e81ce"/><path d="m297 435.3h14.2v28.5h-14.2z" fill="#1e81ce"/><g fill="#009986"><path d="m90.6 257.4h14.2v14.2h-14.2z"/><path d="m119.1 257.4h14.2v14.2h-14.2z"/><path d="m62.1 257.4h14.2v14.2h-14.2z"/></g><path d="m140.4 115h14.2v14.2h-14.2z" fill="#1a6fb0"/><path d="m168.9 115h14.2v14.2h-14.2z" fill="#1a6fb0"/><path d="m112 115h14.2v14.2h-14.2z" fill="#1a6fb0"/><path d="m325.4 86.6h14.2v14.2h-14.2z" fill="#cc7400"/><path d="m353.9 86.6h14.2v14.2h-14.2z" fill="#cc7400"/><path d="m297 86.6h14.2v14.2h-14.2z" fill="#cc7400"/><path d="m346.8 200.4h14.2v14.2h-14.2z" fill="#ddb200"/><path d="m375.2 200.4h14.2v14.2h-14.2z" fill="#ddb200"/><path d="m318.3 200.4h14.2v14.2h-14.2z" fill="#ddb200"/></svg>