<svg fill="none" height="24" viewBox="0 0 24 24" width="24" xmlns="http://www.w3.org/2000/svg" xmlns:xlink="http://www.w3.org/1999/xlink"><clipPath id="a"><path d="m0 0h24v24h-24z"/></clipPath><g clip-path="url(#a)"><path d="m18.75.75-9.29175 9.291c-1.00854-.30574-2.07465-.37108-3.11297-.19079-1.03833.18029-2.02002.60119-2.86646 1.22899s-1.53413 1.4451-2.00798 2.3864c-.473863.9413-.72073 1.9805-.72084 3.0344 0 1.7902.71116 3.5071 1.97703 4.773 1.26587 1.2658 2.98276 1.977 4.77297 1.977 1.05388-.0002 2.09308-.2471 3.0344-.7211.9413-.4739 1.7585-1.1617 2.3863-2.0082.6277-.8466 1.0485-1.8283 1.2287-2.8667.1802-1.0383.1147-2.1045-.1911-3.113l1.7917-1.791v-1.5h1.5l6-6v-4.5zm3 3.87825-5.121 5.12175h-2.379v2.3782l-1.3522 1.3515-.636.636.261.8603c.1507.4965.2272 1.0088.2272 1.524 0 2.895-2.3558 5.25-5.25 5.25-2.89425 0-5.25-2.355-5.25-5.25s2.35575-5.25 5.25-5.25c.5145 0 1.0275.0765 1.52325.2265l.8595.261.63595-.636 8.8523-8.8515h2.379z" fill="#ff3e16"/><g fill="#000"><path d="m6 19.5c.82843 0 1.5-.6716 1.5-1.5s-.67157-1.5-1.5-1.5-1.5.6716-1.5 1.5.67157 1.5 1.5 1.5z"/><path d="m15.4845 7.98525 4.5-4.50001.5302.53025-4.5 4.5z"/></g></g></svg>