<svg fill="none" height="25" viewBox="0 0 36 25" width="36" xmlns="http://www.w3.org/2000/svg"><rect fill="#fff" height="24.2218" rx="3.61089" width="35.2218" x=".389108" y=".389108"/><g clip-rule="evenodd" fill-rule="evenodd"><path d="m22.5154 19.1976c3.9077 0 7.0755-3.1247 7.0755-6.9792s-3.1678-6.97918-7.0755-6.97918c-1.7513 0-3.354.62761-4.5895 1.66725-1.2356-1.03962-2.8382-1.66721-4.5895-1.66721-3.90772 0-7.07553 3.12468-7.07553 6.97914 0 3.8545 3.16781 6.9792 7.07553 6.9792 1.7513 0 3.354-.6276 4.5895-1.6673 1.2355 1.0397 2.8382 1.6673 4.5895 1.6673z" fill="#ed0006"/><path d="m17.9259 17.5303c1.5213-1.2801 2.486-3.1849 2.486-5.3119 0-2.1271-.9647-4.03184-2.486-5.31195 1.2355-1.03963 2.8382-1.66723 4.5895-1.66723 3.9077 0 7.0755 3.12468 7.0755 6.97918s-3.1678 6.9792-7.0755 6.9792c-1.7513 0-3.354-.6277-4.5895-1.6673z" fill="#f9a000"/><path d="m17.9259 17.5301c1.5213-1.2802 2.486-3.1849 2.486-5.312 0-2.127-.9647-4.03176-2.486-5.31187-1.5213 1.28011-2.486 3.18487-2.486 5.31187 0 2.1271.9647 4.0318 2.486 5.312z" fill="#ff5e00"/></g><rect height="24.2218" rx="3.61089" stroke="#f2f4f7" stroke-width=".778215" width="35.2218" x=".389108" y=".389108"/></svg>