<svg enable-background="new 0 0 512 512" viewBox="0 0 512 512" xmlns="http://www.w3.org/2000/svg"><path clip-rule="evenodd" d="m474.7 76.8c2.8 3.4 4.5 7.6 5 11.9 17.3 149-48.5 295.8-176.2 392.9l-33.7 25.6c-4.1 3.1-9 4.7-14.1 4.7s-10-1.7-14.1-4.7l-33.6-25.6c-127.4-97-193.1-243.7-175.8-392.4.5-4.4 2.2-8.6 5-12.1s6.5-6.1 10.7-7.6l200.4-68.3c4.8-1.6 10-1.6 14.8 0l201 68.2c4.2 1.4 7.9 4 10.6 7.4zm-219.2 382.6 19.8-14.8v-.1c110.4-83.8 169.3-208.5 159.3-336l-179.3-60.8-178.6 60.8c-9.7 127.8 49 252 159.1 336.1zm-27.3-298.5c8.1-6.5 18.1-10 28.5-10 10.3 0 20.4 3.5 28.4 10 8.1 6.5 13.7 15.5 15.9 25.6s.9 20.7-3.7 29.9c-4.6 9.3-12.3 16.7-21.6 21v30.3c.1 2.6-.3 5.1-1.2 7.6-.9 2.4-2.3 4.6-4 6.5-1.8 1.9-3.9 3.4-6.3 4.4s-4.9 1.5-7.5 1.5-5.1-.5-7.5-1.5-4.5-2.5-6.3-4.4-3.1-4.1-4-6.5-1.3-5-1.2-7.6v-30.3c-9.4-4.3-17-11.7-21.7-21-4.6-9.3-5.9-19.8-3.7-29.9 2.3-10.1 7.9-19.1 15.9-25.6z" fill="#ef4425" fill-rule="evenodd"/></svg>