<svg enable-background="new 0 0 512 512" viewBox="0 0 512 512" xmlns="http://www.w3.org/2000/svg"><path d="m422.1 222.9c-1.1-55.8-8.9-97-8.7-97-3.4-6.5-9-11.6-15.8-14.3-45.6-17.7-90.4-34.5-134-48.9-4.4-1.5-9.2-1.5-13.6 0-43.7 14.3-88.5 31.2-134 48.8-6 2.4-11.2 6.6-14.6 12.1.3 0-9.4 30.1-11 96.4-1 66.3 7.3 86.2 7 86.2 4.5 14.6 12.8 29.4 24.8 44.5 13.4 16.9 31.5 34.2 53.4 51.4 36.2 28.4 70.1 45.4 71.5 46 6.1 3 13.3 3 19.4 0 1.4-.6 35.4-17.6 71.6-46.1 21.9-17.1 40-34.5 53.4-51.4 12.8-16.2 21.5-32 25.7-47.6-.4.1 5.7-24.2 4.9-80.1z" fill="#57b236"/><path d="m249.8 62.7c-43.7 14.4-88.5 31.2-134 48.8-6 2.4-11.2 6.6-14.6 12.1.3 0-9.4 30.1-11 96.4-1 66.3 7.3 86.2 7 86.2 4.5 14.6 12.8 29.4 24.8 44.5 3.7 4.6 7.7 9.3 12.1 14 6.3.6 12.7.8 19.1.9 116.7 0 211.2-94.6 211.2-211.2 0-19.8-2.8-39.5-8.2-58.6-31.4-11.8-62.3-23-92.7-33.1-4.5-1.5-9.3-1.5-13.7 0z" fill="#78c658"/><path d="m274.6 266.5v35.4c-.2 10-8.4 17.9-18.4 17.7-9.7-.2-17.5-8-17.7-17.7v-34.9c-19.5-9.7-27.5-33.4-17.8-52.9s33.4-27.5 52.9-17.8 27.5 33.4 17.8 52.9c-3.6 7.4-9.5 13.4-16.8 17.3z" fill="#fff"/></svg>