<svg enable-background="new 0 0 466.1 466" viewBox="0 0 466.1 466" xmlns="http://www.w3.org/2000/svg"><path d="m202.9 394.5c0 10.3 8.3 18.6 18.6 18.6h24.8c10.3 0 18.6-8.3 18.6-18.6v-37.2h-62z" fill="#ebebeb"/><path d="m173.6 290.1c-5.4-3.5-10.5-7.5-15.3-11.8-4 15.6-19.4 25.4-35.2 22.7-15.9-2.7-27-17.1-25.6-33.2s14.8-28.3 30.9-28.3c.9 0 1.9.2 2.8.3-5.9-13.8-8.9-28.7-8.9-43.7h-7.9l-4.3 20.4c-.4 2-1.8 3.7-3.8 4.5-1.9.8-4.1.5-5.8-.7l-17.1-11.8-18.6 18.6 11.8 17.1c1.2 1.7 1.4 3.9.7 5.8-.8 1.9-2.5 3.3-4.5 3.8l-20.4 4.3v24.8l20.4 4.3c2 .4 3.7 1.8 4.5 3.8.8 1.9.5 4.1-.7 5.8l-11.8 17.1 18.6 18.6 17.1-11.8c1.7-1.2 3.9-1.4 5.8-.7 1.9.8 3.3 2.5 3.8 4.5l4.3 20.4h24.8l4.3-20.4c.4-2 1.8-3.7 3.8-4.5 1.9-.8 4.1-.5 5.8.7l17.1 11.8 19.5-19.5c-2.1-9.5-7.8-17.7-16.1-22.9z" fill="#c9dfff"/><path d="m345.5 196.1c0-53.5-38-99.5-90.6-109.6s-104.9 18.5-124.7 68.2-1.6 106.5 43.4 135.4c10.3 6.4 16.7 17.6 16.8 29.8v25.1c0 10.3 8.3 18.6 18.6 18.6h49.6c10.3 0 18.6-8.3 18.6-18.6v-24.5c.2-12.4 6.6-23.9 17.2-30.5 31.9-20.7 51.1-56 51.1-93.9z" fill="#ffb41f"/><path d="m383.9 130.5 19.5-14.6-22.3-29.8-19.5 14.6c-4 3-9.4 3.3-13.8.7-4.3-2.6-6.7-7.5-6-12.4l3.4-24.1-36.8-5.3-3.4 24.1c-.7 5-4.3 9-9.2 10.3-4.9 1.2-10-.6-13-4.6l-14.6-19.5-29.8 22.3 14.6 19.5c3 4 3.3 9.4.7 13.8-2.6 4.3-7.5 6.7-12.4 6l-24.1-3.4-5.3 36.8 24.1 3.4c5 .7 9 4.3 10.3 9.2s-.6 10-4.6 13l-19.5 14.6 22.3 29.8 19.5-14.6c4-3 9.4-3.3 13.8-.8 4.3 2.6 6.7 7.5 6 12.4l-3.5 24.1 36.8 5.3 3.5-24.1c.7-5 4.3-9 9.2-10.3 4.9-1.2 10 .6 13 4.6l14.6 19.5 29.8-22.3-14.6-19.5c-3-4-3.3-9.4-.8-13.8 2.6-4.3 7.5-6.7 12.4-6l24.1 3.4 5.3-36.8-24.1-3.4c-5-.7-9-4.3-10.3-9.2-1.1-4.8.7-9.9 4.7-12.9zm-71 73.4c-24 0-43.4-19.4-43.4-43.4s19.4-43.4 43.4-43.4 43.4 19.4 43.4 43.4-19.5 43.4-43.4 43.4z" fill="#1cc8eb"/><path d="m202.9 375.9h62v12.4h-62z" fill="#9e9e9e"/><g fill="#fa0"><path d="m227.7 326.3h12.4v18.6h-12.4z"/><path d="m240.1 313.9h-12.4c0-16.4-10.1-31.1-25.4-37-30.5-11.9-51.7-40-54.8-72.7s12.4-64.2 40.2-81.7l6.6 10.5c-23.8 15-37.1 42-34.5 70s20.8 52.1 47 62.3c20 7.8 33.3 27.1 33.3 48.6z"/><path d="m357.9 282.9h31c3.4 0 6.2 2.8 6.2 6.2s-2.8 6.2-6.2 6.2h-31c-3.4 0-6.2-2.8-6.2-6.2s2.8-6.2 6.2-6.2z"/><path d="m345.5 320.1c2.2-2.6 6.1-3 8.7-.8l27.7 23.1c2.6 2.2 3 6.1.8 8.7s-6.1 3-8.7.8l-27.7-23.1c-2.6-2.1-3-6.1-.8-8.7z"/><path d="m320.7 332.5c3.4 0 6.2 2.8 6.2 6.2v31c0 3.4-2.8 6.2-6.2 6.2s-6.2-2.8-6.2-6.2v-31c0-3.4 2.8-6.2 6.2-6.2z"/><path d="m58.5 157.5 37.6-9.4c3.3-.8 6.7 1.2 7.5 4.5s-1.2 6.7-4.5 7.5l-37.6 9.4c-3.3.8-6.7-1.2-7.5-4.5s1.2-6.6 4.5-7.5z"/><path d="m66.4 90.6c2-2.8 5.9-3.4 8.6-1.4l33.3 23.8c2.8 2 3.4 5.9 1.4 8.6-2 2.8-5.9 3.4-8.6 1.4l-33.2-23.7c-2.8-2-3.5-5.9-1.5-8.7z"/><path d="m122 53.4c3.3-.8 6.7 1.2 7.5 4.5l9.6 37.6c.8 3.3-1.2 6.7-4.5 7.5s-6.7-1.2-7.5-4.5l-9.6-37.5c-.9-3.3 1.1-6.7 4.5-7.6z"/></g></svg>