<svg enable-background="new 0 0 682.7 682.7" viewBox="0 0 682.7 682.7" xmlns="http://www.w3.org/2000/svg"><g style="fill:none;stroke:#ef4425;stroke-width:26.864;stroke-linecap:round;stroke-linejoin:round;stroke-miterlimit:13.3333"><path d="m78.6-436.7c-73.7-38-166.6-26.1-228.4 35.7-62.6 62.6-74 156.9-34.3 231l-38.3 119 118.9-38.3c74.2 39.6 168.5 28.2 231-34.3 61.8-61.8 73.7-154.5 35.8-228.3" transform="translate(235.7754 479.7187)"/><path d="m134.9 428.4-81.5-174.7" transform="translate(404.5752 108.9727)"/><path d="m94.1 428.4 81.4-174.7" transform="translate(282.4326 108.9727)"/><path d="m127.6 319.5h-104.8" transform="translate(382.8057 155.6602)"/><path d="m104.1-59.7c63-13.6 131.4 4 180.4 53 62.5 62.6 74 156.9 34.3 231l38.4 118.9-118.9-38.3c-74.2 39.6-168.5 28.2-231-34.3-48.8-48.8-66.5-116.9-53.1-179.8" transform="translate(312.2241 318.1426)"/><path d="m53.9-305.6c49.9 0 90.4 40.5 90.4 90.4s-40.5 90.4-90.4 90.4-90.4-40.5-90.4-90.4 40.5-90.4 90.4-90.4z" transform="translate(161.7651 423.5342)"/><path d="m59.5-108.3 84.3 84.3" transform="translate(178.46 338.9775)"/></g></svg>