<svg fill="none" height="18" viewBox="0 0 18 18" width="18" xmlns="http://www.w3.org/2000/svg"><path d="m13.8032 3.28382c.0042.00395.0074.00888.0091.01435.0018.00547.0022.0113.0011.01696l-.1337.76519c-.0197.11019-.0079.22368.0339.3275s.112.19377.2026.25956c.0905.06579.1977.10477.3094.11247.1117.00771.2232-.01617.322-.06891l.6866-.36391c.0051-.00253.0107-.00383.0164-.00378.0057.00004.0113.00143.0163.00404l.6862.36337c.0988.05246.2103.07614.3218.06834.1116-.0078.2187-.04676.3091-.11245.0905-.06569.1607-.15547.2027-.25911.0419-.10364.0539-.21698.0346-.32712l-.134-.76547c-.0009-.00557-.0005-.01128.0013-.01663.0018-.00536.0048-.0102.0089-.01411l.5578-.54026c.0803-.07776.1372-.1765.1642-.28498.027-.10849.023-.22237-.0116-.3287-.0345-.10632-.0981-.20083-.1837-.27277s-.1896-.11843-.3003-.13418l-.7688-.10904c-.0056-.00075-.0111-.0029-.0157-.00626s-.0084-.00782-.0109-.01297l-.3417-.697757c-.0487-.100657-.1249-.185488-.2197-.244706-.0949-.059219-.2046-.090412-.3164-.089982h-.0003c-.1119-.000471-.2217.0307-.3166.089917-.095.059218-.1713.14407-.2201.244771l-.3413.697497c-.0025.00512-.0063.00954-.0109.01289-.0046.00336-.0099.00553-.0155.00635l-.7691.10904c-.1106.01572-.2147.06219-.3003.13412s-.1493.16643-.1838.27277c-.0346.10633-.0386.22022-.0116.32872s.0839.20725.1642.28502zm-1.7095-2.721315h-11.24995c-.074592 0-.146129.029632-.198874.082376-.052744.052745-.082376.124282-.082376.198874v4.499995c.000003.04927.012945.09766.037529.14035.024585.04269.05995.07817.102557.10289.042606.02473.090959.03783.14022.038.049261.00016.097701-.01262.140472-.03705l1.903952-1.08793h9.20647c.0746 0 .1462-.02964.1989-.08238.0528-.05275.0824-.12428.0824-.19887v-3.375005c0-.074592-.0296-.146129-.0824-.198874-.0527-.052744-.1243-.082376-.1989-.082376zm-2.81245 2.250005h-5.625c-.07459 0-.14613-.02964-.19887-.08238-.05275-.05275-.08238-.12428-.08238-.19887 0-.0746.02963-.14613.08238-.19888.05274-.05274.12428-.08237.19887-.08237h5.625c.07459 0 .14613.02963.19887.08237.05275.05275.08238.12428.08238.19888 0 .07459-.02963.14612-.08238.19887-.05274.05274-.12428.08238-.19887.08238zm7.64265 4.81696-.7688-.10904c-.0056-.00075-.0111-.0029-.0157-.00626s-.0084-.00782-.0109-.01297l-.3417-.69776c-.0487-.10065-.1249-.18549-.2197-.2447-.0949-.05922-.2046-.09042-.3164-.08999h-.0003c-.1119-.00047-.2217.0307-.3166.08992-.095.05922-.1713.14407-.2201.24477l-.3413.6975c-.0025.00511-.0063.00954-.0109.01289-.0046.00336-.0099.00553-.0155.00635l-.7691.10904c-.1106.01572-.2147.06218-.3003.13412-.0856.07193-.1493.16643-.1838.27277-.0346.10633-.0386.22022-.0116.32872s.0839.20725.1642.28502l.5578.54c.0042.00394.0074.00888.0091.01435.0018.00547.0022.0113.0011.01695l-.1337.7652c-.0197.11025-.008.22375.0338.32755.0418.1039.112.1939.2025.2597.0906.0658.1979.1048.3095.1125.1117.0077.2233-.0162.3221-.0689l.6866-.3639c.0051-.0025.0107-.0038.0164-.0038s.0113.0014.0163.004l.6862.3634c.0988.0525.2103.0761.3218.0684.1116-.0078.2187-.0468.3091-.1125.0905-.0657.1607-.1555.2027-.2591.0419-.1037.0539-.217.0346-.32713l-.134-.76547c-.0009-.00557-.0005-.01128.0013-.01663.0018-.00536.0048-.0102.0089-.01412l.5578-.54025c.0803-.07775.1372-.17648.1642-.28495.027-.10848.023-.22235-.0115-.32867-.0345-.10633-.0982-.20083-.1837-.27278-.0856-.07195-.1896-.11845-.3003-.13423zm-4.8302-1.16072h-11.24995c-.074592 0-.146129.02964-.198874.08238-.052744.05275-.082376.12428-.082376.19887v4.5c.000003.0493.012945.0977.037529.1403.024585.0427.05995.0782.102557.1029.042606.0248.090959.0379.14022.038.049261.0002.097701-.0126.140472-.037l1.903952-1.0879h9.20647c.0746 0 .1462-.0297.1989-.0824.0528-.0528.0824-.1243.0824-.1989v-3.375c0-.07459-.0296-.14612-.0824-.19887-.0527-.05274-.1243-.08238-.1989-.08238zm-2.81245 2.25h-5.625c-.07459 0-.14613-.02963-.19887-.08237-.05275-.05275-.08238-.12428-.08238-.19888 0-.07459.02963-.14612.08238-.19887.05274-.05274.12428-.08238.19887-.08238h5.625c.07459 0 .14613.02964.19887.08238.05275.05275.08238.12428.08238.19887 0 .0746-.02963.14613-.08238.19888-.05274.05274-.12428.08237-.19887.08237zm7.64265 4.81695-.7688-.109c-.0056-.0008-.0111-.0029-.0157-.0063-.0046-.0033-.0084-.0078-.0109-.013l-.3417-.6977c-.0487-.1007-.1249-.1855-.2197-.2447-.0949-.0592-.2046-.0904-.3164-.09h-.0003c-.1119-.0005-.2217.0307-.3166.0899-.095.0592-.1713.1441-.2201.2448l-.3413.6976c-.0025.0051-.0063.0096-.0109.0129-.0046.0034-.0099.0056-.0155.0064l-.7691.109c-.1106.0157-.2147.0622-.3003.1341-.0856.072-.1493.1665-.1838.2728-.0346.1063-.0386.2202-.0116.3287s.0839.2073.1642.285l.5578.54c.0042.004.0074.0089.0091.0144.0018.0055.0022.0113.0011.0169l-.1337.7652c-.0197.1102-.008.2237.0338.3276.0419.1038.1121.1938.2026.2596.0906.0658.1978.1048.3095.1125s.2232-.0162.322-.069l.6866-.3639c.0051-.0025.0107-.0038.0164-.0038.0057.0001.0113.0015.0163.0041l.6862.3634c.0988.0524.2103.0761.3218.0683.1116-.0078.2187-.0468.3091-.1125.0905-.0656.1607-.1554.2027-.2591.0419-.1036.0539-.2169.0346-.3271l-.134-.7655c-.0009-.0055-.0005-.0112.0013-.0166.0018-.0053.0048-.0102.0089-.0141l.5578-.5402c.0803-.0778.1372-.1765.1642-.285s.023-.2224-.0115-.3287-.0982-.2008-.1837-.2728c-.0856-.0719-.1896-.1184-.3003-.1342zm-4.8302-1.1607h-11.24995c-.074592 0-.146129.0296-.198874.0824-.052744.0527-.082376.1243-.082376.1989v4.5c.000003.0492.012945.0976.037529.1403.024585.0427.05995.0782.102557.1029.042606.0247.090959.0378.14022.038.049261.0001.097701-.0126.140472-.0371l1.903952-1.0879h9.20647c.0746 0 .1462-.0296.1989-.0824.0528-.0527.0824-.1243.0824-.1988v-3.375c0-.0746-.0296-.1462-.0824-.1989-.0527-.0528-.1243-.0824-.1989-.0824zm-2.81245 2.25h-5.625c-.07459 0-.14613-.0296-.19887-.0824-.05275-.0527-.08238-.1243-.08238-.1988 0-.0746.02963-.1462.08238-.1989.05274-.0528.12428-.0824.19887-.0824h5.625c.07459 0 .14613.0296.19887.0824.05275.0527.08238.1243.08238.1989 0 .0745-.02963.1461-.08238.1988-.05274.0528-.12428.0824-.19887.0824z" fill="#02adf2"/></svg>