<svg enable-background="new 0 0 512 512" viewBox="0 0 512 512" xmlns="http://www.w3.org/2000/svg"><g fill="#f9c82b"><path d="m263.7 227.2 11.8 23.6 25.2 4.4c7 1.2 9.7 10.1 4.8 15.4l-17.9 19 3.8 26.3c1.1 7.3-6.2 12.8-12.5 9.5l-22.9-11.9-22.9 11.9c-6.3 3.3-13.6-2.2-12.5-9.5l3.8-26.3-17.9-19c-5-5.2-2.2-14.1 4.8-15.4l25.2-4.4 11.8-23.6c3.2-6.6 12.2-6.6 15.4 0z"/><path d="m129.9 86.8 11.8 23.6 25.2 4.4c7 1.2 9.7 10.1 4.8 15.4l-17.9 19 3.8 26.3c1.1 7.3-6.2 12.8-12.5 9.5l-22.9-11.9-22.9 11.9c-6.3 3.3-13.6-2.2-12.5-9.5l3.8-26.3-17.9-19c-5-5.2-2.2-14.1 4.8-15.4l25.2-4.4 11.8-23.6c3.2-6.6 12.2-6.6 15.4 0z"/><path d="m129.9 331 11.8 23.6 25.2 4.4c7 1.2 9.7 10.1 4.8 15.4l-17.9 19 3.8 26.3c1.1 7.3-6.2 12.8-12.5 9.5l-22.9-11.9-22.9 11.9c-6.3 3.3-13.6-2.2-12.5-9.5l3.8-26.3-17.9-19c-5-5.2-2.2-14.1 4.8-15.4l25.2-4.4 11.8-23.6c3.2-6.6 12.2-6.6 15.4 0z"/><path d="m397.6 92.6 11.8 23.6 25.2 4.4c7 1.2 9.7 10.1 4.8 15.4l-17.9 19 3.8 26.3c1.1 7.3-6.2 12.8-12.5 9.5l-22.9-11.9-22.9 11.9c-6.3 3.3-13.6-2.2-12.5-9.5l3.8-26.3-17.9-19c-5-5.2-2.2-14.1 4.8-15.4l25.2-4.4 11.8-23.6c3.1-6.5 12.1-6.5 15.4 0z"/><path d="m397.6 331 11.8 23.6 25.2 4.4c7 1.2 9.7 10.1 4.8 15.4l-17.9 19 3.8 26.3c1.1 7.3-6.2 12.8-12.5 9.5l-22.9-11.9-22.9 11.9c-6.3 3.3-13.6-2.2-12.5-9.5l3.8-26.3-17.9-19c-5-5.2-2.2-14.1 4.8-15.4l25.2-4.4 11.8-23.6c3.1-6.6 12.1-6.6 15.4 0z"/></g></svg>