<svg enable-background="new 0 0 512 512" viewBox="0 0 512 512" xmlns="http://www.w3.org/2000/svg"><path d="m504.4 496.9h-11.1v-153.6c0-4.1-3.4-7.5-7.5-7.5s-7.5 3.4-7.5 7.5v96.7h-41.5c-7.2 0-13 5.6-13 12.5v44.4h-16.5c.5-1.7.7-3.5.7-5.4 0-4.1-3.4-7.5-7.5-7.5s-7.5 3.4-7.5 7.5c0 3-2.4 5.4-5.4 5.4s-5.4-2.4-5.4-5.4v-67.5h53.5c12.6 0 22.9-10.3 22.9-22.9v-7.5c0-5-4.1-9-9.1-9h-41.3c-2.5-15.3-12.5-27.5-25.3-30.9-.6-3.5-3.7-6.1-7.4-6.1s-6.7 2.7-7.4 6.1c-12.8 3.4-22.8 15.6-25.3 30.9h-43.1c-5 0-9.1 4.1-9.1 9v7.5c0 12.6 10.3 22.9 22.9 22.9h53.5v67.5c0 3-2.4 5.4-5.4 5.4s-5.4-2.4-5.4-5.4c0-4.1-3.4-7.5-7.5-7.5s-7.5 3.4-7.5 7.5c0 1.9.3 3.6.7 5.4h-14.7v-44.4c0-6.9-5.9-12.5-13-12.5h-41.2v-96.7c0-4.1-3.4-7.5-7.5-7.5s-7.5 3.4-7.5 7.5v153.7h-29.2v-17.2c0-6.7-5.4-12.1-12.1-12.1h-2.5v-105.2c0-4.1-3.4-7.5-7.5-7.5s-7.5 3.4-7.5 7.5v105.1h-94.8v-176.5c0-1 .8-1.9 1.9-1.9h91c1 0 1.9.8 1.9 1.9v36.4c0 4.1 3.4 7.5 7.5 7.5s7.5-3.4 7.5-7.5v-36.4c0-9.3-7.6-16.9-16.9-16.9h-91c-9.3 0-16.9 7.6-16.9 16.9v176.5h-2.5c-6.7 0-12.1 5.4-12.1 12.1v17.2h-10.9v-42.7c0-4.1-3.4-7.5-7.5-7.5s-7.5 3.4-7.5 7.5v42.7h-41.4c-4.1 0-7.5 3.4-7.5 7.5s3.4 7.5 7.5 7.5h496.9c4.1 0 7.5-3.4 7.5-7.5s-3.4-7.5-7.5-7.5zm-128.8-129.2c8.1 0 15 7.1 17.4 16.9h-34.8c2.4-9.8 9.3-16.9 17.4-16.9zm-69.8 33.4v-1.5h137.9v1.5c0 4.4-3.6 7.9-7.9 7.9h-122.1c-4.4 0-7.9-3.5-7.9-7.9zm132.9 53.9h39.6v42h-39.6zm-165.7 0h39.6v42h-39.6zm-183.3 41.9v-14.3h124v14.3z" fill="#ef4425"/><path d="m509.8 150.2-38.4-56.8c-6.7-9.9-17.3-16.1-29-17.3v-53.2c-.1-12.6-10.4-22.9-23-22.9h-326.9c-12.7 0-23 10.3-23 22.9v53.1c-11.7 1.2-22.4 7.5-29 17.3l-38.9 57.6c-.7.9-1.2 2-1.5 3.2 0 .1 0 .3-.1.4v.4.7 32.4c0 19.4 15.8 35.1 35.1 35.1 4.9 0 9.5-1 13.8-2.8v198.7c0 4.1 3.4 7.5 7.5 7.5s7.5-3.4 7.5-7.5v-208c6.4 7.4 15.9 12.1 26.5 12.1 11.2 0 21.2-5.3 27.6-13.5 6.4 8.2 16.4 13.5 27.6 13.5s21.2-5.3 27.6-13.5c6.4 8.2 16.4 13.5 27.6 13.5s21.2-5.3 27.6-13.5c6.4 8.2 16.4 13.5 27.6 13.5s21.2-5.3 27.6-13.5c6.4 8.2 16.4 13.5 27.6 13.5s21.2-5.3 27.6-13.5c6.4 8.2 16.4 13.5 27.6 13.5s21.2-5.3 27.6-13.5c6.4 8.2 16.4 13.5 27.6 13.5 10.5 0 19.9-4.6 26.3-11.9v143.8c0 4.1 3.4 7.5 7.5 7.5s7.5-3.4 7.5-7.5v-134.8c4.3 1.9 9 2.9 13.9 2.9 19.4 0 35.1-15.8 35.1-35.1v-32.5c.1-2.1-.8-4-2.1-5.3zm-395.8-59.4h20.6c-.6 1.3-1.2 2.7-1.8 4.1l-19.9 53.1h-37.9l24.7-47c3.4-6.4 8.8-10.2 14.3-10.2zm298.1 10.2 24.7 47h-37.8l-19.9-53.1c-.5-1.4-1.1-2.8-1.8-4.1h20.5c5.6 0 10.9 3.8 14.3 10.2zm-47-.8 17.9 47.8h-38.1l-11.8-52.1c-.3-1.5-.8-3.3-1.4-5.1h25.4c2.2 0 5.5 2.9 8 9.4zm-46.6-1 11 48.8h-39l-3.8-51c-.2-2-.3-4.2-.5-6.2h29.3c.7 1.1 1.9 3.6 3 8.4zm-46.8-1.1 3.7 49.9h-38.9l3.7-49.9c.2-3.3.5-5.7.8-7.3h29.9c.3 1.6.6 4 .8 7.3zm-46.4-1.1-3.8 51h-39l11-48.8c1.1-4.8 2.4-7.3 3.1-8.4h29.3c-.3 2-.4 4.1-.6 6.2zm-46.5-1.1-11.7 52.1h-38.1l18-47.8c2.4-6.5 5.8-9.4 7.9-9.4h25.4c-.7 1.8-1.1 3.6-1.5 5.1zm280.1 5.8 31.3 46.3h-36.4l-28.4-54c-.6-1.1-1.3-2.2-1.9-3.3h14.8c8.2.1 16 4.2 20.6 11zm-366.4-86.7h326.9c4.4 0 7.9 3.6 7.9 7.9v12.7h-44.6c-4.1 0-7.5 3.4-7.5 7.5s3.4 7.5 7.5 7.5h44.6v25.2h-342.8v-25.2h261c4.1 0 7.5-3.4 7.5-7.5s-3.4-7.5-7.5-7.5h-261v-12.7c0-4.3 3.6-7.9 8-7.9zm-39.6 86.7c4.6-6.9 12.4-11 20.7-11h14.8c-.7 1-1.3 2.1-1.9 3.3l-28.4 54h-36.4zm-37.9 86.3v-24.9h40.2v24.9c0 11.1-9 20.1-20.1 20.1s-20.1-9-20.1-20.1zm75.3 20.1c-11.1 0-20.1-9-20.1-20.1v-24.9h40.2v24.9c0 11.1-9 20.1-20.1 20.1zm55.3 0c-11.1 0-20.1-9-20.1-20.1v-24.9h40.2v24.9c0 11.1-9.1 20.1-20.1 20.1zm55.2 0c-11.1 0-20.1-9-20.1-20.1v-24.9h40.2v24.9c0 11.1-9 20.1-20.1 20.1zm55.2 0c-11.1 0-20.1-9-20.1-20.1v-24.9h40.2v24.9c0 11.1-9 20.1-20.1 20.1zm55.2 0c-11.1 0-20.1-9-20.1-20.1v-24.9h40.2v24.9c0 11.1-9 20.1-20.1 20.1zm55.2 0c-11.1 0-20.1-9-20.1-20.1v-24.9h40.2v24.9c.1 11.1-9 20.1-20.1 20.1zm55.3 0c-11.1 0-20.1-9-20.1-20.1v-24.9h40.2v24.9c0 11.1-9 20.1-20.1 20.1zm55.2 0c-11.1 0-20.1-9-20.1-20.1v-24.9h40.2v24.9c0 11.1-9 20.1-20.1 20.1z"/><path d="m186.1 380.6c0 4.1-3.4 7.5-7.5 7.5s-7.5-3.4-7.5-7.5 3.4-7.5 7.5-7.5 7.5 3.3 7.5 7.5z"/></svg>