<svg enable-background="new 0 0 512 512" viewBox="0 0 512 512" xmlns="http://www.w3.org/2000/svg"><path d="m52.1 294.9 4.8 1.2c-30.9 17.2-42 56.2-24.8 87.1 11.4 20.2 32.7 32.8 55.9 32.8 16.7 0 32.8-6.6 44.6-18.3l9.6 2.1c.6.1 1.2.2 1.8.2 3.7 0 6.9-2.5 7.8-6.1l2.2-8.9 12.3 2.8c1.6.4 3.3.2 4.8-.4l46.6-19.4h118.3c2.4 0 4.7-1.1 6.2-2.9.1-.1.1-.2.1-.2l22.2-28.8h5.5c-1.4 5.2-2.1 10.6-2.1 16-.1 35.3 28.5 64.1 63.9 64.1s64.1-28.5 64.1-63.9c0-18.5-7.9-36.1-21.8-48.2h5.8c4.4 0 8-3.6 8-8 0-1.5-.4-2.9-1.1-4.1-14-24.3-38.6-40.4-66.4-43.6l-53.5-80.4h.3.2s.3 0 .5 0c17.7 0 32-14.3 32-32s-14.3-32-32-32c-5.4 0-10.7 1.5-15.4 4.1-.4.1-.9.3-1.3.5l-33.3 19.4h-29.9c-4.4 0-8 3.6-8 8v24c0 4.4 3.6 8 8 8h26.1l29.4 95.5-20.8 48.5h-69.3l-12.7-31.7 1.8-3.6c3.7-7.4 5-15.8 3.7-24 12 5.4 26.2.1 31.7-12 1.4-3.1 2.1-6.5 2.1-9.9.1-21.5-17.3-38.9-38.8-39-.1 0-.1 0-.2 0h-56.5l-81.2-11.6c-13.1-1.9-25.2 7.2-27.1 20.2-.7 4.7 0 9.5 2.1 13.7l-1.7 1.7h-44.6c-4.4 0-8 3.6-8 8v32c0 3.3 2.1 6.3 5.2 7.4l-10.9 10.9c-3.1 3.1-3.1 8.2 0 11.3 1.1 1.1 2.5 1.9 4.1 2.2 2.1.4 5.3 1.2 9.6 2.2l-20.8 15.6 9.6 12.8zm38.9-70.6 118.3 11.2c13 1.2 22.5 12.7 21.3 25.6-.3 3-1.1 5.8-2.4 8.5l-3.4 6.8c-1 2-1.1 4.4-.3 6.5l12.6 31.6-21.2 5.6c-17.2-4.5-132.2-34.2-176.1-44.7zm85.2 102.1 30.5 7.9c-.7 1.7-1.7 3.2-3 4.6-3 3.3-7.3 5.2-11.7 5.2-8.8 0-16-7.2-16-16 0-.6.2-1.2.2-1.7zm-88.2 73.6c-26.5-.2-47.9-21.8-47.7-48.3s21.8-47.9 48.3-47.7l21.6 5.5c14.7 7.6 24.3 22.2 25.6 38.7l-54-12c-4.2-.9-8.4 1.7-9.5 5.9l-2.5 10h-13.8v16h9.8l-1.5 6.1c-1.1 4.3 1.5 8.6 5.8 9.7h.2l42.3 9.4c-7.4 4.4-15.9 6.7-24.6 6.7zm50.1-17.5-56.3-12.5 4.1-16.5 56.4 12.5zm29.2-10.9-9.4-2.1 1.9-7.6c1.1-4.3-1.5-8.6-5.8-9.7-.1 0-.1 0-.2 0l-1.7-.4c0-12.1-3.5-24-10-34.2l18.6 4.8c-3.6 16.8 7 33.3 23.8 36.9 3.9.8 8 .9 11.9.2zm312.7-19.6c0 26.5-21.5 48-48 48s-48-21.5-48-48c0-5.7 1-11.3 3-16.6 1-.4 1.9-1 2.6-1.7l15.6-15.6 9.2 17.6c-10.1 10.2-10 26.6.2 36.7s26.6 10 36.7-.2 10-26.6-.2-36.7c-5.9-5.8-14.3-8.5-22.5-7.1l-11.5-21.9c4.8-1.6 9.7-2.4 14.8-2.4 26.6-.1 48.1 21.4 48.1 47.9zm-48-8c4.4 0 8 3.6 8 8s-3.6 8-8 8-8-3.6-8-8 3.6-8 8-8zm32.3-56h-48.3c-2.1 0-4.2.8-5.7 2.3l-29.6 29.7h-3.8l42.9-55.7c17.2 2.2 33 10.6 44.5 23.7zm-80.3-152c0 8.8-7.2 16-16 16s-16-7.2-16-16 7.2-16 16-16 16 7.2 16 16zm-88 8h24c1.4 0 2.8-.4 4-1.1l12-6.9c0 5.6 1.6 11.2 4.4 16h-44.4zm63.6 117.6-28.8-93.6h16.9l58.4 87.7-65.8 85.5-4.1-20.3 23-53.7c.9-1.8 1-3.7.4-5.6zm-38.2 66.4 4.8 24h-102.2v-17.4l25-6.6zm-227.9-128.5c1.7-2.4 4.7-3.7 7.6-3.2l81.8 11.7c.4 0 .8.1 1.1.1h57c12.6-.1 22.9 10.1 23 22.8v.2c0 4.4-3.6 8-8.1 7.9-1.1 0-2.3-.3-3.3-.7l-20-9.2c-6.1-5.3-13.8-8.5-21.8-9.3l-117.6-11.4-.4-.8c-1.3-2.6-1.1-5.8.7-8.1zm-53.5 48.5v-16h20.7l-16 16z" fill="#ef4425"/></svg>