<svg enable-background="new 0 0 512 512" viewBox="0 0 512 512" xmlns="http://www.w3.org/2000/svg"><path d="m206.1 187.5c-6.9 5.5-8.1 15.5-2.6 22.5 5.5 6.9 15.5 8.1 22.5 2.6 3.9-3.1 6.1-7.7 6.1-12.7h48c0 8.8 7.1 16 16 16 8.8 0 16-7.1 16-16 0-5.5-2.8-10.5-7.4-13.5l6.6-58.6h8.8v-16h-16c-4.1 0-7.5 3.1-8 7.1l-1.9 16.9h-94.2c-4.4 0-8 3.6-8 8 0 .9.1 1.7.4 2.5zm86.3-35.5-3.6 32h-67l-10.7-32z"/><path d="m464 112h-112.1c-22-53-82.8-78-135.7-56-25.4 10.5-45.5 30.7-56 56h-112.2c-22.1 0-40 17.9-40 40v304c0 4.4 3.6 8 8 8h480c4.4 0 8-3.6 8-8v-304c0-22.1-17.9-40-40-40zm0 16c10.1 0 19.2 6.4 22.5 16h-126.8c-.4-5.4-1.3-10.7-2.6-16zm-296 24c0-48.6 39.4-88 88-88s88 39.4 88 88c0 4.4 3.6 8 8 8h136v72h-464v-72h136c4.4 0 8-3.6 8-8zm-144 128h80v40h-80zm0 56h80v72h-80zm96-56h16v168h-16zm112 80h-80v-80h80zm-80 16h80v72h-80zm96-96h16v168h-16zm112 80h-80v-80h80zm-80 16h80v72h-80zm96-96h16v168h-16zm32 56h80v72h-80zm0-16v-40h80v40zm-384-56v-16h464v16zm24-136h106.9c-1.3 5.3-2.2 10.6-2.6 16h-126.8c3.4-9.6 12.4-16 22.5-16zm-24 296h80v24h-80zm384 24v-24h80v24z" fill="#ef4425"/></svg>