<svg enable-background="new 0 0 682.7 682.7" viewBox="0 0 682.7 682.7" xmlns="http://www.w3.org/2000/svg"><g style="fill:none;stroke:#ef4425;stroke-width:40;stroke-linecap:round;stroke-linejoin:round;stroke-miterlimit:13.3333"><path d="m49-124.7h466.7l-34.5 206.6c-3.2 19.3-19.9 33.4-39.5 33.4h-366l-40-360c0-22.1-17.9-40-40-40h-122.7" transform="translate(147 346)"/><path d="m135.7 435.3h-320c-22.1 0-40-17.9-40-40s17.9-40 40-40" transform="translate(407 106)"/><path d="m85.7 505.3c0 22.1-17.9 40-40 40s-40-17.9-40-40 17.9-40 40-40 40 17.9 40 40z" transform="translate(257 76)"/><path d="m145.7 505.3c0 22.1-17.9 40-40 40s-40-17.9-40-40 17.9-40 40-40 40 17.9 40 40z" transform="translate(437 76)"/><path d="m75.7-124.7v-80h120" transform="translate(227 346)"/><path d="m105.7-124.7v-120h160v120" transform="translate(317 346)"/><path d="m75.7 15.3v80" transform="translate(227 286)"/><path d="m105.7 15.3v80" transform="translate(317 286)"/><path d="m135.7 15.3v80" transform="translate(407 286)"/></g></svg>