<svg enable-background="new 0 0 512 512" viewBox="0 0 512 512" xmlns="http://www.w3.org/2000/svg"><path clip-rule="evenodd" d="m425 284.3c0 93-75.7 168.5-168.5 168.5-93 0-168.5-75.7-168.5-168.5 0-57.3 28.7-110.2 76.8-141.3 11.3-7.4 26.5-4.1 33.9 7.2s4.1 26.5-7.2 33.9c-34.2 22.1-54.4 59.6-54.4 100.2 0 65.9 53.6 119.5 119.5 119.5s119.4-53.6 119.4-119.5c0-40.6-20.4-78.1-54.4-100.2-11.3-7.4-14.6-22.5-7.2-33.9 7.4-11.3 22.5-14.6 33.9-7.2 48.1 31.2 76.7 84 76.7 141.3zm-193-87.4v-113.3c0-13.5 11-24.5 24.5-24.5s24.5 11 24.5 24.5v113.2c0 13.5-11 24.5-24.5 24.5s-24.5-11-24.5-24.4z" fill="#f34235" fill-rule="evenodd"/></svg>