<svg enable-background="new 0 0 512 512" viewBox="0 0 512 512" xmlns="http://www.w3.org/2000/svg"><path d="m436.4 44.6c-5.6-3.3-15.2-7.8-28.1-12.2-51-17.5-107.5-17.5-163.2 11.8-44.1 23.1-88.7 23.1-129.6 9.2-3.7-1.3-7-2.5-9.9-3.7v-29.4c.1-11.7-9.5-21.3-21.3-21.3s-21.3 9.6-21.3 21.3v42.7 213.7 212.9c0 11.8 9.6 21.3 21.3 21.3s21.3-9.6 21.3-21.3v-181c50 16.1 105 15.4 159.2-13.1 44.1-23.1 88.7-23.1 129.6-9.2 10.1 3.4 17.1 6.8 20.5 8.7 14.2 8.3 32.1-2 32.1-18.4v-213.6c0-7.6-4-14.6-10.6-18.4zm-32.1 200.2c-50-16.1-105-15.4-159.2 13.1-44.1 23.1-88.7 23.1-129.6 9.1-3.7-1.3-7-2.5-9.9-3.7v-168.3c50 16.1 105 15.4 159.2-13.1 44.1-23.1 88.7-23.1 129.6-9.2 3.7 1.3 7 2.5 9.9 3.7z" fill="#ef4425" transform="translate(1 1)"/></svg>