<svg enable-background="new 0 0 512 512" viewBox="0 0 512 512" xmlns="http://www.w3.org/2000/svg"><path d="m256 96c4.4 0 8-3.6 8-8v-24c0-4.4-3.6-8-8-8s-8 3.6-8 8v24c0 4.4 3.6 8 8 8z"/><path d="m224 96c4.4 0 8-3.6 8-8v-24c0-4.4-3.6-8-8-8s-8 3.6-8 8v24c0 4.4 3.6 8 8 8z"/><path d="m288 96c4.4 0 8-3.6 8-8v-24c0-4.4-3.6-8-8-8s-8 3.6-8 8v24c0 4.4 3.6 8 8 8z"/><g fill="#ef4425"><path d="m376 208h48c4.4 0 8-3.6 8-8s-3.6-8-8-8h-48c-4.4 0-8 3.6-8 8s3.6 8 8 8z"/><path d="m344 208h8c4.4 0 8-3.6 8-8s-3.6-8-8-8h-8c-4.4 0-8 3.6-8 8s3.6 8 8 8z"/><path d="m452 320c15.5 0 28-12.5 28-28v-44c0-1.1-.2-2.2-.7-3.2l-32-72c-1.3-2.9-4.1-4.8-7.3-4.8h-126.1c5.9-6.5 7.7-15.7 4.8-24h1.4c4.4 0 8-3.6 8-8s-3.6-8-8-8h-113.1l-1.1-8h106.1c4.1 0 7.5-3.1 8-7.1l8-72c.5-4.4-2.7-8.4-7.1-8.8-.3 0-.6 0-.9 0h-125.8l-2.3-17.1c-.5-4-3.9-7-7.9-7h-24c-4.4 0-8 3.6-8 8s3.6 8 8 8h17l15.1 113.1c.5 4 3.9 6.9 7.9 6.9h1.4c-2.9 8.3-1.1 17.5 4.8 24h-134.2c-3.2 0-6 1.9-7.3 4.8l-32 72c-.5 1-.7 2.1-.7 3.2v44c0 15.5 12.5 28 28 28h4v168h-48c-4.4 0-8 3.6-8 8s3.6 8 8 8h448c4.4 0 8-3.6 8-8s-3.6-8-8-8h-16v-168zm-255.7-272h114.7l-6.2 56h-101zm99.7 96c4.4 0 8 3.6 8 8s-3.6 8-8 8-8-3.6-8-8 3.6-8 8-8zm-49.4 0h26.8c-2.9 8.3-1.1 17.5 4.8 24h-36.3c5.8-6.5 7.7-15.7 4.7-24zm-22.6 0c4.4 0 8 3.6 8 8s-3.6 8-8 8-8-3.6-8-8 3.6-8 8-8zm-146.8 40h357.6l24.9 56h-407.4zm338.8 72v36c0 6.6-5.4 12-12 12h-8c-6.6 0-12-5.4-12-12v-36zm-48 0v36c0 6.6-5.4 12-12 12h-8c-6.6 0-12-5.4-12-12v-36zm-48 0v36c0 6.6-5.4 12-12 12h-8c-6.6 0-12-5.4-12-12v-36zm-48 0v36c0 6.6-5.4 12-12 12h-8c-6.6 0-12-5.4-12-12v-36zm-48 0v36c0 6.6-5.4 12-12 12h-8c-6.6 0-12-5.4-12-12v-36zm-48 0v36c0 6.6-5.4 12-12 12h-8c-6.6 0-12-5.4-12-12v-36zm-48 0v36c0 6.6-5.4 12-12 12h-8c-6.6 0-12-5.4-12-12v-36zm-60 48h-8c-6.6 0-12-5.4-12-12v-36h32v36c0 6.6-5.4 12-12 12zm148 184h-96v-128h96zm216 0h-200v-136c0-4.4-3.6-8-8-8h-112c-4.4 0-8 3.6-8 8v136h-24v-170.7c3-1.4 5.7-3.4 8-5.7 5.3 5.4 12.5 8.4 20 8.4h8c7.5 0 14.7-3 20-8.4 5.3 5.4 12.5 8.4 20 8.4h8c7.5 0 14.7-3 20-8.4 5.3 5.4 12.5 8.4 20 8.4h8c7.5 0 14.7-3 20-8.4 5.3 5.4 12.5 8.4 20 8.4h8c7.5 0 14.7-3 20-8.4 5.3 5.4 12.5 8.4 20 8.4h8c7.5 0 14.7-3 20-8.4 5.3 5.4 12.5 8.4 20 8.4h8c7.5 0 14.7-3 20-8.4 5.3 5.4 12.5 8.4 20 8.4h8c7.5 0 14.7-3 20-8.4 2.3 2.4 5 4.3 8 5.7zm12-184c-6.6 0-12-5.4-12-12v-36h32v36c0 6.6-5.4 12-12 12z"/><path d="m496 488h-8c-4.4 0-8 3.6-8 8s3.6 8 8 8h8c4.4 0 8-3.6 8-8s-3.6-8-8-8z"/><path d="m400 344h-144c-4.4 0-8 3.6-8 8v88c0 4.4 3.6 8 8 8h144c4.4 0 8-3.6 8-8v-88c0-4.4-3.6-8-8-8zm-8 88h-128v-72h128z"/><path d="m192 400c-4.4 0-8 3.6-8 8v16c0 4.4 3.6 8 8 8s8-3.6 8-8v-16c0-4.4-3.6-8-8-8z"/></g></svg>