<svg enable-background="new 0 0 512 512" viewBox="0 0 512 512" xmlns="http://www.w3.org/2000/svg"><g clip-rule="evenodd" fill-rule="evenodd"><path d="m354.9 435.7 82.1-82c7-7 7-18.4 0-25.3l-13.5-13.5c-7-7-18.4-7-25.3 0l-.4.3-81.4 81.3-.3.4c-7 7-7 18.3 0 25.3l13.5 13.5c1.4 1.4 3 2.5 4.6 3.3h16c1.7-.8 3.3-2 4.7-3.3z" fill="#dad0d3"/><path d="m316.4 396.5 81.4-81.3-35.6-35.6c-53.4-30.2-96.6 39.1-84.7 78.1z" fill="#ffdcd5" stroke="#afafaf" stroke-miterlimit="10" stroke-width="2"/><path d="m160 439h16c1.7-.8 3.2-2 4.6-3.3l13.5-13.5c7-7 7-18.3 0-25.3l-.4-.4-81.4-81.3-.3-.3c-7-7-18.4-7-25.3 0l-13.5 13.5c-7 7-7 18.4 0 25.3l82.1 82c1.4 1.3 3 2.5 4.7 3.3z" fill="#9d9ae8"/><path d="m290.7 350.9 50.3-50.2 21.2-21.2 6.7-6.7c7.4-7.4 7.4-19.4 0-26.7-7.4-7.4-19.4-7.4-26.8 0l6.7-6.7c7.4-7.3 7.4-19.4 0-26.7-7.4-7.4-19.4-7.4-26.8 0l6.7-6.7c7.4-7.3 7.4-19.4 0-26.7s-19.4-7.3-26.8 0l6.7-6.7c7.4-7.4 7.4-19.4 0-26.8-4.5-4.4-10.6-6.2-16.4-5.3-3.8.6-7.4 2.3-10.4 5.3l-26.8 26.8.9.9.2.2c7.4 7.3 7.4 19.4 0 26.7-7.4 7.4-19.4 7.4-26.8 0 7.4 7.4 7.4 19.4 0 26.8-7.4 7.3-19.4 7.3-26.8 0 7.4 7.3 7.4 19.4 0 26.7s-19.4 7.3-26.8 0c7.4 7.3 7.4 19.4 0 26.7-7.4 7.4-19.4 7.4-26.8 0l-1-1-35.6 35.6 81.4 81.3 34-34c9.6-10 32.2-1.2 49.7-4.8 5.1-1 9.6-3.1 13.3-6.8z" fill="#ffd0c7" stroke="#afafaf" stroke-miterlimit="10" stroke-width="2"/><path d="m229.4 200.4c7.4 7.4 19.4 7.4 26.8 0 7.4-7.3 7.4-19.4 0-26.7l-.2-.2c-11.4-.8-33.1-20.5-34.4-34.4-7.4-7.4-19.4-7.4-26.8 0-7.4 7.3-7.4 19.4 0 26.7l6.7 6.7z" fill="#ffdcd5" stroke="#afafaf" stroke-miterlimit="10" stroke-width="2"/><path d="m202.6 227.1c7.4 7.3 19.4 7.3 26.8 0 7.4-7.4 7.4-19.4 0-26.8l-27.8-27.8c-7.4-7.4-19.4-7.4-26.8 0-7.4 7.3-7.4 19.4 0 26.7l6.7 6.7z" fill="#ffdcd5" stroke="#afafaf" stroke-miterlimit="10" stroke-width="2"/><path d="m175.8 253.8c7.4 7.3 19.4 7.3 26.8 0s7.4-19.4 0-26.7l-21.1-21.1c-7.4-7.3-19.4-7.3-26.8 0-7.4 7.4-7.4 19.4 0 26.8l13.4 13.4z" fill="#ffdcd5" stroke="#afafaf" stroke-miterlimit="10" stroke-width="2"/><path d="m149 280.6c7.4 7.4 19.4 7.4 26.8 0 7.4-7.3 7.4-19.4 0-26.7l-7.7-7.7c-7.4-7.4-19.4-7.4-26.8 0-7.4 7.3-7.4 19.4 0 26.7l6.7 6.7z" fill="#ffdcd5" stroke="#afafaf" stroke-miterlimit="10" stroke-width="2"/><path d="m255.1 172.6 26.8-26.8c2.9-2.9 6.6-4.7 10.4-5.3l-51.8-9.8c-10.2-1.9-19.9-2-18.9 8.4 1.3 13.8 23 33.5 34.4 34.4z" fill="#ffdcd5" stroke="#afafaf" stroke-miterlimit="10" stroke-width="2"/></g><path d="m255.1 109.1c4.2 0 7.7-3.4 7.7-7.7v-34.2c0-4.2-3.4-7.7-7.7-7.7-4.2 0-7.7 3.4-7.7 7.7v34.2c0 4.3 3.5 7.7 7.7 7.7z" fill="#515151"/><path d="m153.3 102.6c1.5 1.5 3.5 2.2 5.4 2.2 2 0 3.9-.8 5.4-2.3 3-3 3-7.8 0-10.8l-27.9-27.9c-3-3-7.8-3-10.8 0s-3 7.8 0 10.8z" fill="#515151"/><path d="m351.5 104.9c2 0 3.9-.7 5.4-2.2l27.9-27.9c3-3 3-7.8 0-10.8s-7.8-3-10.8 0l-28 27.8c-3 3-3 7.8 0 10.8 1.5 1.5 3.5 2.3 5.5 2.3z" fill="#515151"/></svg>