<svg enable-background="new 0 0 682.7 682.7" viewBox="0 0 682.7 682.7" xmlns="http://www.w3.org/2000/svg"><path d="m95.9-273.2c0-43.5 35.6-78.7 79.3-78.1 42.3.6 76.7 35.3 77 77.6.1 23.7-10.3 45-26.8 59.4-1.7 1.5-1.5 4.3.5 5.5l14.7 8.7c2.4 1.4 1.4 5.1-1.4 5.1h-66.7c-42.4-.9-76.6-35.6-76.6-78.2" fill="#7acaa6" transform="translate(3.8057 431.3462)"/><path d="m91.2-124.7-14.7-8.7c-2-1.2-2.3-3.9-.5-5.5 16.7-14.6 27.2-36.1 26.8-60.2-.7-41.5-34.3-75.6-75.8-76.8-5.9-.2-11.6.3-17.2 1.4 35.9 6.9 63.2 38.5 63.5 76.2.1 18.3-6 35.1-16.4 48.4-6.3 8.1-4.2 19.8 4.6 25l.3.2c2.4 1.4 1.4 5-1.3 5h29.4c2.7 0 3.7-3.6 1.3-5" fill="#57be92" transform="translate(153.1797 355.9141)"/><path d="m83.6 144.3h-177.2c-44.3 0-68.5-51.6-40.2-85.6l1.6-1.9c12.5-15 19.3-33.9 19.3-53.4v-34.2c0-59.9 48.6-108.5 108.5-108.5s108.3 48.6 108.3 108.5v35.3c0 19.7 7 38.8 19.7 53.8 28.6 34.1 4.4 86-40 86" fill="#c59191" transform="translate(396.792 219.2451)"/><path d="m80.5 322.8v117.2h-363.5v-116.3c0-26.3 15.8-50.1 40-60.3l58.7-25.5 19.8-8.6c15-6.5 24.7-21.3 24.7-37.7v-7.6h77.2v7.2c0 16.4 9.8 31.3 24.9 37.7l79.4 34c23.6 10.6 38.8 34 38.8 59.9" fill="#fff" transform="translate(492.9697 128.5698)"/><path d="m89.1 207c20 6 49.5 12.4 85.4 11.7 33.7-.6 61.4-7.1 80.7-13.3l9.6-22.8-29.1-12.5c-15.1-6.5-24.9-21.3-24.9-37.7v-7.2h-77.2v7.6c0 16.3-9.7 31.1-24.7 37.7l-23.6 10.3z" fill="#ffcebf" transform="translate(219.5654 187.4102)"/><path d="m81.8 201.2-59.8-25.6v202.6h98.7v-117.2c0-25.8-15.2-49.3-38.9-59.8" fill="#8795de" transform="translate(452.7959 190.3145)"/><path d="m89.1 150.2v202.1h-98.7v-116.3c0-26.3 15.8-50.1 40-60.3z" fill="#8795de" transform="translate(219.5703 216.25)"/><path d="m85.6 126.9c8.9 0 17.3-1.8 25.1-5-8.3-7.6-13.2-18.5-13.2-30.2v-7.2h-77.3v7.6c0 5.9-1.3 11.6-3.6 16.8 11.7 11.1 27.5 18 44.9 18z" fill="#ffb09e" transform="translate(332.9326 228.0884)"/><path d="m83.9-195.2v63.9c0 36-29.2 65.1-65.1 65.1h-24c-36 0-65.1-29.2-65.1-65.1v-63.9c0-23.4 19-42.4 42.4-42.4h69.5c23.4 0 42.3 19 42.3 42.4" fill="#ffcebf" transform="translate(384.957 391.7065)"/><path d="m83.9-127.7c0 .1-.1.2-.1.3-2.4 8.1-8.5 23.5-23.5 35-7 5.4-14.9 9.2-23.6 11.5-3.9 1-6.3 5.1-5.3 9 .9 3.3 3.9 5.5 7.1 5.5.6 0 1.2-.1 1.9-.2 10.6-2.8 20.3-7.5 28.8-14.1 5.9-4.5 10.7-9.6 14.5-14.6 0-.6 0-1.1 0-1.7v-30.7z" fill="#7a6d79" transform="translate(384.957 357.4072)"/><path d="m85.7 8.8h-17.2c-7.9 0-14.2-6.4-14.2-14.2 0-7.9 6.4-14.2 14.2-14.2h17.3c7.9 0 14.2 6.4 14.2 14.2s-6.4 14.2-14.3 14.2" fill="#685e68" transform="translate(327.9482 288.0605)"/><path d="m85.9-315.7c1.7-20.9 21.6-34.7 40.7-41.9 31.6 18.9 52.8 53.5 52.8 93.1v7.5c-1.7.4-3.5.7-5.2.9-10.5 1.6-19.5.9-25.6 0-39.4-5.2-64.7-34.4-62.7-59.6" fill="#b98080" transform="translate(321.2012 452.9028)"/><path d="m86.4-432c24.5 0 47.1 8.1 65.2 21.8-9.1 15.8-29.9 46.9-68.8 70-28.9 17.1-56.2 22.9-73.1 25.1h-31.7v-8.4c0-60 48.5-108.5 108.4-108.5" fill="#c59191" transform="translate(305.8008 512)"/><path d="m82.5 560.9h-236l-13-122.8c-.9-8.7 5.9-16.3 14.7-16.3h232.6c8.8 0 15.6 7.6 14.7 16.3z" fill="#efedef" transform="translate(430.9717 7.6113)"/><path d="m82.5 278.2h-29.4c8.8 0 15.6 7.6 14.7 16.3l-13 122.8h29.5l13-122.8c.8-8.7-6-16.3-14.8-16.3" fill="#e5e1e5" transform="translate(429.2725 151.2148)"/><path d="m80.2 575.9h-481.4c-4 0-7.3-3.3-7.3-7.3s3.3-7.3 7.3-7.3h481.4c4 0 7.3 3.3 7.3 7.3-.1 4-3.3 7.3-7.3 7.3" fill="#c9bfc8" transform="translate(504.5)"/><path d="m85.6 419.6c0 11.4-9.2 20.6-20.6 20.6s-20.6-9.2-20.6-20.6 9.2-20.6 20.6-20.6 20.6 9.2 20.6 20.6" fill="#c9bfc8" transform="translate(330.4561 79.4131)"/><g fill="#fff"><path d="m94.1-273.2c0 4.1-3.3 7.4-7.4 7.4s-7.4-3.3-7.4-7.4 3.3-7.4 7.4-7.4 7.4 3.3 7.4 7.4" transform="translate(61.625 431.3472)"/><path d="m93.1-273.2c0 4.1-3.3 7.4-7.4 7.4s-7.4-3.3-7.4-7.4 3.3-7.4 7.4-7.4 7.4 3.3 7.4 7.4" transform="translate(92.0713 431.3472)"/><path d="m92.2-273.2c0 4.1-3.3 7.4-7.4 7.4s-7.4-3.3-7.4-7.4 3.3-7.4 7.4-7.4 7.4 3.3 7.4 7.4" transform="translate(122.5176 431.3472)"/></g></svg>