<svg enable-background="new 0 0 512 512" viewBox="0 0 512 512" xmlns="http://www.w3.org/2000/svg"><g fill="#ef4425"><path d="m255.1 65.1c5.6 0 10.1-4.5 10.1-10.1v-44.9c0-5.6-4.5-10.1-10.1-10.1s-10.1 4.5-10.1 10.1v44.9c0 5.6 4.5 10.1 10.1 10.1z"/><path d="m501.3 346-17.8-17.7c-6.3-6.3-14.8-9.8-23.8-9.8-5.7 0-11.3 1.4-16.2 4.1l-33.5-33.5 1.6-1.6c13.6-13.6 13.6-35.8 0-49.4-4.9-4.9-10.9-8.1-17.5-9.5.9-3.1 1.4-6.4 1.4-9.8 0-9.4-3.6-18.1-10.2-24.7-4.9-4.9-10.9-8.1-17.5-9.5.9-3.1 1.4-6.4 1.4-9.8 0-9.4-3.6-18.1-10.2-24.7-5-5-11.1-8.1-17.5-9.5 3.4-11.8.5-25.2-8.8-34.5-7.8-7.7-18.3-11-28.4-10l-66.4-12.6c-10.1-1.9-22.8-3.2-30.8 4.1-.5.5-1 1-1.5 1.6-12.4-4.5-26.8-1.8-36.7 8.1-6.6 6.6-10.2 15.3-10.2 24.7 0 3.4.5 6.7 1.4 9.8-6.6 1.4-12.7 4.6-17.5 9.5-6.6 6.6-10.2 15.3-10.2 24.7 0 3.4.5 6.7 1.4 9.8-6.6 1.4-12.7 4.6-17.5 9.4-6.6 6.6-10.2 15.4-10.2 24.7 0 7.2 2.1 14 6.1 19.7-5 1.7-9.6 4.5-13.4 8.3-13.6 13.6-13.6 35.7 0 49.4l1.6 1.6-33.5 33.5c-12.5-5.9-27.8-3.7-38.1 6.6l-17.8 17.8c-6.3 6.3-9.8 14.8-9.8 23.8s3.5 17.4 9.8 23.8l22.2 22.2c3.9 3.9 10.3 3.9 14.2 0s3.9-10.3 0-14.2l-22.2-22.2c-2.5-2.5-3.9-5.9-3.9-9.5s1.4-7 3.9-9.5l17.8-17.8c4.4-4.4 11.3-5.1 16.4-2 .4.5.8 1.1 1.3 1.5.9.9 1.8 1.5 2.9 2l102.1 101.9c.5 1.1 1.2 2.1 2 2.9s1.8 1.5 2.8 2c2.2 2.4 3.4 5.6 3.4 8.9 0 3.6-1.4 7-3.9 9.5l-18.1 17.9c-5.3 5.2-13.8 5.2-19 0l-22.2-22.2c-3.9-3.9-10.3-3.9-14.2 0s-3.9 10.3 0 14.2l22.2 22.2c6.5 6.5 15.1 9.8 23.7 9.8s17.2-3.3 23.8-9.8l17.8-17.8c6.3-6.3 9.8-14.8 9.8-23.8 0-6.4-1.8-12.5-5.1-17.8l37.7-37.7s.1-.1.1-.1c4.3-4.5 16.4-3.6 28-2.8 8.3.6 17.5 1.2 26.5.2l41.3 41.3c-2.7 4.9-4.1 10.4-4.1 16.1 0 9 3.5 17.4 9.8 23.7l17.8 17.8c6.3 6.3 14.8 9.8 23.8 9.8s17.4-3.5 23.8-9.8l107.9-107.8c6.3-6.3 9.8-14.8 9.8-23.8 0-8.9-3.5-17.4-9.8-23.7zm-267.3-242.6 43.7 8.3-26.1 26.1c-4-1.9-9.6-5.6-15.7-11.4-8.3-8-14.3-17.2-14.8-22.9 0-.4 0-.7 0-1 1.2-.3 4.7-.6 12.9.9zm-51 8.2c5.1-5.1 13-5.7 18.8-1.8 3.3 13.7 15 26.1 20.2 31.1 3.9 3.7 16.4 14.9 29 18 1.7 2.4 2.6 5.4 2.6 8.4 0 4-1.5 7.7-4.3 10.4-2.8 2.8-6.5 4.3-10.5 4.3s-7.7-1.5-10.5-4.3l-45.3-45.2c-2.8-2.8-4.3-6.5-4.3-10.4 0-4 1.5-7.7 4.3-10.5zm-26.4 44c2.8-2.8 6.5-4.3 10.4-4.3 4 0 7.7 1.5 10.5 4.3l36.6 36.5c5.8 5.8 5.8 15.2 0 20.9-2.8 2.8-6.5 4.3-10.5 4.3s-7.7-1.5-10.5-4.3l-27.7-27.7s-.1-.1-.1-.1l-8.7-8.7c-2.8-2.8-4.3-6.5-4.3-10.5 0-3.9 1.6-7.6 4.3-10.4zm-26.3 43.9c2.8-2.8 6.5-4.3 10.5-4.3 3.9 0 7.6 1.5 10.4 4.2l27.8 27.8c2.8 2.8 4.3 6.5 4.3 10.4 0 4-1.5 7.7-4.3 10.4-2.8 2.8-6.5 4.3-10.5 4.3s-7.7-1.5-10.5-4.3l-10.1-10.1-17.6-17.6c-2.8-2.8-4.3-6.5-4.3-10.5 0-3.8 1.5-7.5 4.3-10.3zm-17.6 52.8c2.8-2.8 6.5-4.3 10.5-4.3s7.7 1.5 10.5 4.3l10.1 10.1c2.8 2.8 4.3 6.5 4.3 10.4s-1.5 7.7-4.3 10.4c-2.8 2.8-6.5 4.3-10.5 4.3s-7.7-1.5-10.5-4.3l-1.3-1.3s0 0 0-.1c0 0 0 0-.1-.1l-8.7-8.7c-5.7-5.6-5.7-14.9 0-20.7zm205.3 114.5c-3.9-3.9-10.3-3.9-14.2 0l-9 8.9c-8.5 8.5-23.9 7.4-38.9 6.4-16.2-1.1-33-2.3-43.8 8.8l-37.1 37.1-92.8-92.6 32.8-32.8c5.4 3.3 11.7 5.1 18.2 5.1 9.4 0 18.1-3.6 24.7-10.2s10.2-15.3 10.2-24.7c0-.1 0-.2 0-.3h.3c9.3 0 18.1-3.6 24.7-10.2s10.2-15.3 10.2-24.7c0-.1 0-.2 0-.3h.3c9.3 0 18.1-3.6 24.7-10.2 6.9-6.9 10.3-15.9 10.2-24.9h.3c9.4 0 18.1-3.6 24.7-10.2s10.2-15.3 10.2-24.7c0-6.5-1.8-12.8-5.1-18.2l28.8-28.8c2.1-2.1 4.8-3.5 7.6-4 .3 0 .6-.1.9-.1 4.4-.6 9.1.8 12.5 4.1 5.8 5.8 5.8 15.2 0 20.9l-8.8 8.7s-.1.1-.1.1l-10.1 10.1c-3.9 3.9-3.9 10.3 0 14.2s10.3 3.9 14.2 0l8.8-8.8 1.3-1.3c5.8-5.7 15.1-5.7 20.9.1 2.8 2.8 4.3 6.5 4.3 10.4 0 4-1.5 7.7-4.3 10.4l-8.8 8.8-10.1 10.1c-3.9 3.9-4 10.3 0 14.2 3.9 3.9 10.3 4 14.2 0l10.1-10.1c2.8-2.8 6.5-4.3 10.5-4.3s7.7 1.5 10.5 4.3 4.3 6.5 4.3 10.4c0 4-1.5 7.7-4.3 10.4l-17.6 17.6c-3.9 3.9-3.9 10.3 0 14.2 2 2 4.5 2.9 7.1 2.9s5.2-1 7.1-3l8.6-8.6s.1-.1.2-.1c2.8-2.8 6.5-4.3 10.5-4.3s7.7 1.5 10.5 4.3c5.8 5.7 5.7 15.1 0 20.9l-8.8 8.7s0 0 0 0l-13.9 13.9c-3.9 3.9-3.9 10.3 0 14.2 2 2 4.5 3 7.1 3s5.2-1 7.1-2.9l6.8-6.8 32.6 32.5-92.8 92.6-33.2-33.2c2.3-1.5 4.5-3.2 6.6-5.3l9-8.9c4-3.5 4-9.9.1-13.8zm169.1 12.4-108 107.9c-2.5 2.5-5.9 3.9-9.5 3.9s-7-1.4-9.5-3.9l-17.8-17.8c-2.5-2.5-3.9-5.9-3.9-9.5s1.4-7 3.9-9.5l107.9-107.8c2.5-2.5 5.9-3.9 9.5-3.9s7 1.4 9.5 3.9l17.8 17.7c2.5 2.5 3.9 5.9 3.9 9.5.1 3.7-1.3 7-3.8 9.5z"/><path d="m121.4 56.6c2 2 4.5 2.9 7.1 2.9s5.2-1 7.1-3c3.9-3.9 3.9-10.3 0-14.2l-36.7-36.6c-3.9-3.9-10.3-3.9-14.2 0s-3.9 10.3 0 14.2z"/><path d="m381.7 59.5c2.6 0 5.2-1 7.1-2.9l36.7-36.6c3.9-3.9 3.9-10.3 0-14.2-3.9-3.9-10.3-3.9-14.2 0l-36.7 36.6c-3.9 3.9-3.9 10.3 0 14.2 2 1.9 4.5 2.9 7.1 2.9z"/><path d="m62.8 433.2c-3.9 4-3.8 10.3.1 14.2 2 1.9 4.5 2.9 7 2.9 2.6 0 5.2-1 7.2-3 3.9-4 3.8-10.4-.1-14.3-3.9-3.8-10.3-3.8-14.2.2z"/><path d="m342.6 352.3c1.5 0 3.1-.3 4.5-1.1 5-2.5 7-8.6 4.5-13.5-2.5-5-8.6-7-13.5-4.5h-.1c-5 2.5-6.9 8.5-4.4 13.5 1.8 3.5 5.3 5.6 9 5.6z"/></g></svg>