<svg enable-background="new 0 0 475 475" viewBox="0 0 475 475" xmlns="http://www.w3.org/2000/svg"><g fill="#ef4425"><path d="m377.7 187.3h-.7c-9.1-.1-17.9 3.3-24.7 9.4-5.5-15.2-19.4-26.1-35.8-26.1-10 .1-19.6 4.2-26.5 11.4-6.4-12.9-19.2-21.7-33.9-21.7h-.7c-7.9-.1-15.6 2.4-21.8 7.3v-92c0-22.2-17.3-40.3-38.4-40.3-21 0-38.3 18.1-38.3 40.3l-.2 182.6-10.3-12.5c-9.1-11.3-22.4-18.3-36.8-19.3-14.1-1-28 3.9-38.4 13.6l-9 7.4c-2.9 2.4-3.7 6.5-2 9.8l87.4 168c16 30.7 46.4 49.9 79.4 49.9h98.5v-.1c49.9 0 90.4-43.3 90.5-96.5 0-23.8-.1-41.6-.1-55.9.1-38.5 0-52.7-.1-95.1.1-22.3-17.1-40.2-38.1-40.2zm22.3 135.1c0 14.4 0 32.2-.1 56 0 44.4-33.6 80.6-74.7 80.6h-98c-27 0-52-15.9-65.2-41.3l-84.4-162.2 4.2-3.5.3-.3c7.2-6.7 16.8-10.2 26.6-9.6 10 .8 19.3 5.7 25.6 13.5l24.5 29.8c2.1 2.6 5.7 3.6 8.9 2.5s5.3-4.1 5.3-7.5v-204.8c0-13.4 10.2-24.3 22.4-24.3s22.4 10.9 22.4 24.3v123.5 1.3.6 52.8c0 4.4 3.6 8 8 8s8-3.6 8-8v-54.4c0-12.9 9.9-23.1 21.8-23.1h.7c12.2 0 22.4 10.7 22.4 24.1v48.3c0 4.4 3.6 8 8 8s8-3.6 8-8v-37.9c0-13.4 9.7-24.3 22-24.3 12.2 0 21.9 10.9 21.9 24.3v35.8c0 4.4 3.6 8 8 8s8-3.6 8-8v-19.4c0-13.4 10.2-23.9 22.5-23.9h.7c12.2 0 22.2 10.7 22.2 24.1z"/><path d="m131.7 79.1c4.4 0 8-3.6 8-8 .1-30.5 24.9-55.1 55.4-55.1s55.2 24.6 55.4 55.1c0 4.4 3.6 8 8 8s8-3.6 8-8c-.2-39.3-32.1-71.1-71.4-71.1s-71.2 31.8-71.4 71.1c0 4.4 3.6 8 8 8z"/></g></svg>