<svg fill="none" height="24" viewBox="0 0 24 24" width="24" xmlns="http://www.w3.org/2000/svg"><path d="m21 11.9999c-.2652 0-.5196.1054-.7071.2929-.1875.1876-.2929.4419-.2929.7071v6c0 .2653-.1054.5196-.2929.7071-.1875.1876-.4419.2929-.7071.2929h-14c-.26522 0-.51957-.1053-.70711-.2929-.18753-.1875-.29289-.4418-.29289-.7071v-13.99996c0-.26522.10536-.51957.29289-.70711.18754-.18753.44189-.29289.70711-.29289h6c.2652 0 .5196-.10536.7071-.29289.1875-.18754.2929-.44189.2929-.70711s-.1054-.51957-.2929-.70711c-.1875-.18753-.4419-.29289-.7071-.29289h-6c-.79565 0-1.55871.31607-2.12132.87868s-.87868 1.32567-.87868 2.12132v13.99996c0 .7957.31607 1.5588.87868 2.1214s1.32567.8786 2.12132.8786h14c.7956 0 1.5587-.316 2.1213-.8786s.8787-1.3257.8787-2.1214v-6c0-.2652-.1054-.5195-.2929-.7071-.1875-.1875-.4419-.2929-.7071-.2929zm-15 .76v4.24c0 .2653.10536.5196.29289.7071.18754.1876.44189.2929.70711.2929h4.24c.1316.0008.2621-.0244.3839-.0742s.2327-.1231.3261-.2158l6.92-6.93 2.84-2.77996c.0937-.09296.1681-.20357.2189-.32542.0508-.12186.0769-.25257.0769-.38458s-.0261-.26272-.0769-.38458-.1252-.23246-.2189-.32542l-4.24-4.29c-.093-.09373-.2036-.16812-.3254-.21889-.1219-.05077-.2526-.07691-.3846-.07691s-.2627.02614-.3846.07691c-.1218.05077-.2324.12516-.3254.21889l-2.82 2.83-6.94 6.92996c-.09268.0935-.16601.2043-.21577.3261-.04977.1219-.07499.2523-.07423.3839zm10.76-8.34996 2.83 2.83-1.42 1.42-2.83-2.83zm-8.76 8.75996 5.93-5.92996 2.83 2.82996-5.93 5.93h-2.83z" fill="#ff3e16"/></svg>