<svg fill="none" height="24" viewBox="0 0 24 24" width="24" xmlns="http://www.w3.org/2000/svg" xmlns:xlink="http://www.w3.org/1999/xlink"><clipPath id="a"><path d="m0 0h24v24h-24z"/></clipPath><g clip-path="url(#a)"><path d="m18.8149 13.67c-.4688-.4687-1.1046-.732-1.7675-.732s-1.2987.2633-1.7675.732l-1.065 1.06c-.2812.2809-.6625.4387-1.06.4387s-.7787-.1578-1.06-.4387l-2.82498-2.825c-.2809-.2813-.43868-.6625-.43868-1.06s.15778-.7787.43868-1.06c.99998-1 1.78998-1.57 1.78998-2.83 0-1.38-.575-1.61-4.61998-5.66-.46882-.468678-1.10459-.731966-1.7675-.731966s-1.29868.263288-1.7675.731966l-.71.705c-1.406031 1.40646-2.19589656 3.31377-2.19589656 5.3025s.78986556 3.896 2.19589656 5.3025l9.19498 9.2c1.4065 1.406 3.3138 2.1959 5.3025 2.1959 1.9888 0 3.8961-.7899 5.3025-2.1959l.71-.71c.4687-.4688.732-1.1046.732-1.7675s-.2633-1.2987-.732-1.7675zm3.185 6.72c-.6605.7684-1.4551 1.4105-2.345 1.895l-4-4c-.0948-.0968-.2242-.152-.3597-.1534s-.266.0511-.3628.1459-.152.2242-.1534.3597.0511.266.1459.3628l3.725 3.7c-1.1348.3582-2.3462.3979-3.5021.1149-1.1559-.2831-2.2119-.878-3.0529-1.7199l-9.18998-9.19c-.84194-.841-1.43684-1.897-1.71986-3.05288-.283021-1.15588-.243289-2.36727.11486-3.50212l3.725 3.725c.09565.08191.21869.12472.34453.11986s.24521-.05703.33425-.14608c.08905-.08905.14122-.20841.14608-.33425s-.03794-.24888-.11986-.34453l-4-4c.47789-.89738 1.11491-1.70043 1.88-2.37.28125-.2809.6625-.43868 1.06-.43868s.77875.15778 1.06.43868c4.16 4.16 4.32998 4.115 4.32998 4.95s-.54498 1.165-1.49998 2.12c-.46868.46882-.73196 1.1046-.73196 1.7675s.26328 1.2987.73196 1.7675l2.82998 2.83c.4688.4687 1.1046.732 1.7675.732s1.2987-.2633 1.7675-.732l1.075-1.055c.2862-.2715.6656-.4229 1.06-.4229.3945 0 .7739.1514 1.06.4229l3.88 3.89c.2809.2813.4387.6625.4387 1.06s-.1578.7787-.4387 1.06zm-4-10.89c0 .13261.0527.25979.1465.35355.0937.09377.2209.14645.3535.14645s.2598-.05268.3536-.14645c.0937-.09376.1464-.22094.1464-.35355 0-4.03-5-5.39-5-4 0 .13261.0527.25979.1465.35355.0937.09377.2209.14645.3535.14645.9283 0 1.8185.36875 2.4749 1.02513.6564.65637 1.0251 1.54661 1.0251 2.47487zm-3.5-9.5c-.1326 0-.2598.0526784-.3535.146447-.0938.093768-.1465.220945-.1465.353553s.0527.259785.1465.353553c.0937.093769.2209.146447.3535.146447 1.1163 0 2.2216.21986 3.2528.64702 1.0313.42717 1.9683 1.05327 2.7576 1.84257s1.4154 1.72633 1.8426 2.7576.647 2.13657.647 3.25281c0 .13261.0527.25979.1465.35355.0937.09377.2209.14645.3535.14645s.2598-.05268.3536-.14645c.0937-.09376.1464-.22094.1464-.35355 0-2.51956-1.0009-4.93592-2.7825-6.71751-1.7816-1.7816-4.1979-2.78249-6.7175-2.78249z" fill="#ff3e16"/></g></svg>