<svg fill="none" height="16" viewBox="0 0 16 16" width="16" xmlns="http://www.w3.org/2000/svg"><g stroke="#a3a3a3" stroke-linecap="round" stroke-linejoin="round"><path d="m13 8.33317c0-.92.7467-1.66667 1.6667-1.66667v-.66666c0-2.66667-.6667-3.33334-3.3334-3.33334h-6.66663c-2.66667 0-3.33333.66667-3.33333 3.33334v.33333c.92 0 1.66666.74667 1.66666 1.66667s-.74666 1.66666-1.66666 1.66666v.33334c0 2.66666.66666 3.33336 3.33333 3.33336h6.66663c2.6667 0 3.3334-.6667 3.3334-3.33336-.92 0-1.6667-.74667-1.6667-1.66667z"/><path d="m6 9.8335 4-4"/><path d="m9.99634 9.83333h.00596"/><path d="m5.99634 6.16683h.00598"/></g></svg>