<svg enable-background="new 0 0 512 512" viewBox="0 0 512 512" xmlns="http://www.w3.org/2000/svg"><g fill="#ef4425"><path d="m143.2 219 46.8-56.2c2.6-3.2 2.2-7.9-1-10.6-3.2-2.6-7.9-2.2-10.6 1l-40.1 48.2-8.8-14.2c-2.2-3.5-6.8-4.6-10.3-2.5-3.5 2.2-4.6 6.8-2.5 10.3l14.2 23.1c2.8 4.4 9 4.8 12.3.9z"/><path d="m116.8 294 14.2 23.1c2.7 4.4 8.9 4.8 12.2.9l46.8-56.2c2.6-3.2 2.2-7.9-1-10.6-3.2-2.6-7.9-2.2-10.6 1l-40.1 48.2-8.8-14.2c-2.2-3.5-6.8-4.6-10.3-2.5s-4.6 6.8-2.4 10.3z"/><path d="m116.8 393.7 14.2 23.1c2.7 4.4 8.9 4.8 12.2.9l46.8-56.2c2.6-3.2 2.2-7.9-1-10.6-3.2-2.6-7.9-2.2-10.6 1l-40.1 48.1-8.8-14.2c-2.2-3.5-6.8-4.6-10.3-2.5-3.5 2.2-4.6 6.8-2.4 10.4z"/><path d="m448.5 423.4c-4.1 0-7.5 3.4-7.5 7.5v54.6c0 6.3-5.2 11.5-11.5 11.5h-347c-6.3 0-11.5-5.2-11.5-11.5v-328.7c0-4.1-3.4-7.5-7.5-7.5s-7.5 3.4-7.5 7.5v328.7c0 14.6 11.9 26.5 26.5 26.5h347c14.6 0 26.5-11.9 26.5-26.5v-54.6c0-4.1-3.4-7.5-7.5-7.5z"/><path d="m429.5 57.8h-36.7v-31c0-14.8-12-26.8-26.8-26.8s-26.8 12-26.8 26.8v31h-56.4v-31c0-14.8-12-26.8-26.8-26.8s-26.8 12-26.8 26.8v31h-56.4v-31c0-14.8-12-26.8-26.8-26.8s-26.8 12-26.8 26.8v31h-36.7c-14.6 0-26.5 11.9-26.5 26.5v37.5c0 4.1 3.4 7.5 7.5 7.5s7.5-3.4 7.5-7.5v-37.5c0-6.3 5.2-11.5 11.5-11.5h36.7v11.9c0 14.8 12 26.8 26.8 26.8s26.8-12 26.8-26.8v-11.9h56.4v11.9c0 14.8 12 26.8 26.8 26.8s26.8-12 26.8-26.8v-11.9h56.4v11.9c0 14.8 12 26.8 26.8 26.8s26.8-12 26.8-26.8v-11.9h36.7c6.3 0 11.5 5.2 11.5 11.5v311.6c0 4.1 3.4 7.5 7.5 7.5s7.5-3.4 7.5-7.5v-311.6c0-14.6-11.9-26.5-26.5-26.5zm-271.7 26.9c0 6.5-5.3 11.8-11.8 11.8s-11.8-5.3-11.8-11.8c0-16 0-52.9 0-57.9 0-6.5 5.3-11.8 11.8-11.8s11.8 5.3 11.8 11.8zm110 0c0 6.5-5.3 11.8-11.8 11.8s-11.8-5.3-11.8-11.8c0-16 0-52.9 0-57.9 0-6.5 5.3-11.8 11.8-11.8s11.8 5.3 11.8 11.8zm110 0c0 6.5-5.3 11.8-11.8 11.8s-11.8-5.3-11.8-11.8c0-16 0-52.9 0-57.9 0-6.5 5.3-11.8 11.8-11.8s11.8 5.3 11.8 11.8z"/><path d="m221.7 225.2h158c13 0 23.5-10.5 23.5-23.5s-10.5-23.5-23.5-23.5h-158c-13 0-23.5 10.5-23.5 23.5s10.6 23.5 23.5 23.5zm0-32h158c4.7 0 8.5 3.8 8.5 8.5s-3.8 8.5-8.5 8.5h-158c-4.7 0-8.5-3.8-8.5-8.5s3.9-8.5 8.5-8.5z"/><path d="m221.7 324.4h158c13 0 23.5-10.5 23.5-23.5s-10.5-23.5-23.5-23.5h-158c-13 0-23.5 10.5-23.5 23.5s10.6 23.5 23.5 23.5zm0-32h158c4.7 0 8.5 3.8 8.5 8.5s-3.8 8.5-8.5 8.5h-158c-4.7 0-8.5-3.8-8.5-8.5s3.9-8.5 8.5-8.5z"/><path d="m221.7 423.6h158c13 0 23.5-10.5 23.5-23.5s-10.5-23.5-23.5-23.5h-158c-13 0-23.5 10.5-23.5 23.5s10.6 23.5 23.5 23.5zm0-32h158c4.7 0 8.5 3.8 8.5 8.5s-3.8 8.5-8.5 8.5h-158c-4.7 0-8.5-3.8-8.5-8.5s3.9-8.5 8.5-8.5z"/></g></svg>