<svg fill="none" height="25" viewBox="0 0 36 25" width="36" xmlns="http://www.w3.org/2000/svg"><rect fill="#fff" height="24.2218" rx="4.28018" width="35.2218" x=".389108" y=".389108"/><path clip-rule="evenodd" d="m11.2177 16.519h-2.14934l-1.61171-6.3186c-.0765-.2907-.23893-.54766-.47785-.66877-.59627-.30434-1.25332-.54656-1.9701-.66872v-.24326h3.46234c.47786 0 .83625.36542.89598.78982l.83628 4.55783 2.1482-5.34765h2.0896zm4.418 0h-2.0298l1.6714-7.89935h2.0299zm4.2976-5.711c.0597-.4255.4181-.6687.8362-.6687.657-.0611 1.3728.061 1.9701.3643l.3584-1.70073c-.5973-.24327-1.2544-.36543-1.8506-.36543-1.9701 0-3.4037 1.09418-3.4037 2.61276 0 1.1552 1.0154 1.7618 1.7322 2.1273.7755.3643 1.0741.6076 1.0144.972 0 .5465-.5973.7898-1.1936.7898-.7168 0-1.4335-.1822-2.0895-.4865l-.3584 1.7018c.7167.3033 1.4922.4254 2.209.4254 2.209.0601 3.5818-1.0331 3.5818-2.6738 0-2.0662-2.8063-2.1873-2.8063-3.0982zm9.9102 5.711-1.6117-7.89935h-1.7312c-.3584 0-.7168.24326-.8362.60764l-2.9845 7.29171h2.0895l.4171-1.1542h2.5674l.2389 1.1542zm-3.0442-5.7722.5962 2.9771h-1.6714z" fill="#172b85" fill-rule="evenodd"/><rect height="24.2218" rx="4.28018" stroke="#f2f4f7" stroke-width=".778215" width="35.2218" x=".389108" y=".389108"/></svg>