<svg enable-background="new 0 0 512 512" viewBox="0 0 512 512" xmlns="http://www.w3.org/2000/svg"><g fill="#ff3e16"><path d="m508.7 246c-4.5-6.2-113.5-153.2-252.7-153.2s-248.2 147-252.8 153.2c-4.3 5.9-4.3 14 0 19.9 4.6 6.3 113.6 153.2 252.7 153.2s248.2-147 252.7-153.2c4.5-5.9 4.5-13.9.1-19.9zm-252.7 139.4c-102.5 0-191.3-97.5-217.6-129.4 26.2-31.9 114.8-129.4 217.6-129.4 102.5 0 191.3 97.5 217.6 129.4-26.2 31.9-114.9 129.4-217.6 129.4z"/><path d="m256 154.7c-55.8 0-101.3 45.4-101.3 101.3s45.5 101.3 101.3 101.3 101.3-45.5 101.3-101.3-45.5-101.3-101.3-101.3zm0 168.8c-37.2 0-67.5-30.3-67.5-67.5s30.3-67.5 67.5-67.5 67.5 30.3 67.5 67.5-30.3 67.5-67.5 67.5z"/></g></svg>