<svg enable-background="new 0 0 512 512" viewBox="0 0 512 512" xmlns="http://www.w3.org/2000/svg" xmlns:xlink="http://www.w3.org/1999/xlink"><linearGradient id="a"><stop offset="0" stop-color="#00d264"/><stop offset="1" stop-color="#00eb78"/></linearGradient><linearGradient id="b" gradientUnits="userSpaceOnUse" x1="70.8477" x2="576.3796" xlink:href="#a" y1="142.5674" y2="537.8015"/><linearGradient id="c" gradientUnits="userSpaceOnUse" x1="80.8018" x2="586.3337" xlink:href="#a" y1="129.8354" y2="525.0695"/><path d="m346.9 165.1c-49.6-50.1-130.5-50.5-180.7-.9-39.5 39.1-49.2 99.2-24 148.7l-13.6 65.8c-.3 1.3 0 2.7.8 3.8 1.2 1.7 3.2 2.5 5.2 2l64.5-15.3c63.2 31.4 139.8 5.6 171.2-57.5 24.5-48.9 15-107.8-23.4-146.6zm-20.1 160.5c-30.4 30.3-76.8 37.9-115.2 18.7l-9-4.4-39.5 9.4.1-.5 8.2-39.8-4.4-8.7c-19.7-38.6-12.2-85.5 18.4-116.1 39.1-39 102.4-39 141.4 0 .2.2.3.4.5.5 38.6 39.1 38.4 102-.5 140.9z" fill="url(#b)"/><path d="m323.3 296.4c-4.8 7.6-12.5 17-22.1 19.3-16.9 4.1-42.7.1-74.9-29.9l-.4-.4c-28.3-26.2-35.7-48.1-33.9-65.4 1-9.8 9.2-18.7 16.1-24.5 3.9-3.3 9.7-2.8 13 1 .6.7 1.1 1.5 1.4 2.3l10.4 23.4c1.4 3.1.9 6.7-1.1 9.4l-5.3 6.8c-2.3 2.9-2.6 6.9-.8 10.1 2.9 5.2 10 12.8 17.9 19.8 8.8 8 18.6 15.2 24.7 17.7 3.4 1.4 7.3.6 9.8-2.1l6.1-6.2c2.4-2.4 5.9-3.3 9.1-2.3l24.7 7c4.9 1.5 7.7 6.8 6.2 11.7-.2.9-.5 1.6-.9 2.3z" fill="url(#c)"/></svg>