<svg enable-background="new 0 0 512 512" viewBox="0 0 512 512" xmlns="http://www.w3.org/2000/svg"><path d="m32.7 314.8c-2.8 3.8-4.5 8.4-4.5 13.2v43.4c0 4.1 3.3 7.3 7.3 7.3h22v-37c0-4.5-2-8.7-5.5-11.5z" fill="#c7cfe2"/><path d="m358.8 187.8v5.2c0 6.3 1 12.6 3 18.6l11.7 35h22v-80.8h-14.7c-12.1-.1-22 9.8-22 22z" fill="#5a4146"/><path d="m459.4 203-12.4 43.5-58.8-51.4c-8.1 0-14.7-6.6-14.7-14.7 0-12.2 9.9-22 22-22h51.5c8.1 0 14.7 6.6 14.7 14.7v13.8c0 5.4-.8 10.9-2.3 16.1z" fill="#694b4b"/><path d="m388.2 268.6h44.1v32.5h-44.1z" fill="#e6af78"/><path d="m388.2 282.1c6.8 2.8 14.2 4.3 22 4.3s15.2-1.6 22-4.3v-13.5h-44.1v13.5z" fill="#d29b6e"/><path d="m467.8 296.5-35.4-10.1-22 14.6-22-14.6-35.4 10.1c-9.5 2.7-16 11.4-16 21.2v53.7c0 4.1 3.3 7.3 7.3 7.3h132.2c4.1 0 7.3-3.3 7.3-7.3v-53.7c-.1-9.8-6.6-18.5-16-21.2z" fill="#d5dced"/><path d="m417.6 378.8h-14.7l3.7-77.7h7.3z" fill="#afb9d2"/><path d="m410.3 275.9c-24.3 0-44.1-19.7-44.1-44.1v-8.6c0-3.9 1.5-7.6 4.3-10.4l13.3-13.3c2.8-2.8 6.7-4.4 10.7-4.3 23.5.7 44.3 5.8 55.6 16.9 2.8 2.7 4.2 6.5 4.2 10.4v9.4c.1 24.3-19.7 44-44 44z" fill="#f0c087"/><path d="m388.2 225c0-8.5 7.1-15.2 15.6-14.7 14.8.9 36.8 3.4 50.3 9.9-.4-3.1-1.8-6-4-8.2-11.4-11.1-32.1-16.1-55.6-16.9-4-.1-7.8 1.5-10.7 4.3l-13.3 13.3c-2.8 2.8-4.3 6.5-4.3 10.4v8.6c0 20.1 13.5 37 31.9 42.3-6.1-7.6-9.8-17.1-9.8-27.6z" fill="#e6af78"/><path d="m454.4 339.6c0-5.8 2.3-11.5 6.5-15.6l18.9-18.9c2.5 3.6 4 8 4 12.6v53.7c0 4.1-3.3 7.3-7.3 7.3h-22z" fill="#c7cfe2"/><path d="m413.9 315.8h-7.3c-2 0-3.7-1.6-3.7-3.7v-11h14.7v11c0 2-1.6 3.7-3.7 3.7z" fill="#959cb5"/><path d="m410.3 301-12.5 9.5c-2.1 1.6-5.2 1-6.5-1.4l-11.2-20.4 4.5-6.9c1-1.5 3.1-1.8 4.5-.5z" fill="#c7cfe2"/><path d="m410.3 301 12.5 9.5c2.1 1.6 5.2 1 6.5-1.4l11.2-20.4-4.5-6.9c-1-1.5-3.1-1.8-4.5-.5z" fill="#c7cfe2"/><path d="m159.8 272.8c-6.3-16.6-11.3-45.2-12.3-60.1-2-28.3-23.4-51.4-52.3-51.4s-50.2 23.1-52.3 51.4c-1.1 14.9-6.1 43.5-12.3 60.1-1.4 3.7.2 7.7 3.8 9.3 6.7 3 21.1 9 38.4 11.3h44.8c17.2-2.3 31.7-8.3 38.4-11.3 3.6-1.5 5.1-5.6 3.8-9.3z" fill="#5a4146"/><path d="m155.9 282.2c3.6-1.6 5.2-5.7 3.8-9.3-6.3-16.6-11.3-45.2-12.3-60.1-2-28.3-23.4-51.4-52.3-51.4-.1 0-.1 0-.2 0-22.1.1-30 30.3-10.9 41.6 1.1.7 1.9 1 1.9 1l16.7 89.7h14.9c17.3-2.5 31.7-8.5 38.4-11.5z" fill="#694b4b"/><path d="m148.3 308.3-23.8-11.9c-5-2.5-8.1-7.6-8.1-13.1v-22h-44.1v22c0 5.6-3.1 10.7-8.1 13.1l-23.8 11.9c-7.4 3.7-12.1 11.4-12.1 19.7v43.4c0 4.1 3.3 7.3 7.3 7.3h117.5c4.1 0 7.3-3.3 7.3-7.3v-43.4c.1-8.3-4.6-16-12.1-19.7z" fill="#e6af78"/><path d="m94.4 290.6c7.9 0 15.5-1.6 22.4-4.5-.2-.9-.4-1.8-.4-2.8v-22h-44.1v22c0 1-.2 1.9-.4 2.8 7 2.9 14.6 4.5 22.5 4.5z" fill="#d29b6e"/><path d="m148.3 308.3-16.9-8.5c-7.9 12.1-21.5 20.2-37 20.2s-29.1-8-37-20.2l-16.9 8.5c-7.5 3.7-12.2 11.4-12.2 19.7v43.4c0 4.1 3.3 7.3 7.3 7.3h117.5c4.1 0 7.3-3.3 7.3-7.3v-43.4c.1-8.3-4.6-16-12.1-19.7z" fill="#d5dced"/><path d="m94.4 275.9c-22.4 0-40.9-16.7-43.7-38.4-.4-3.1 1.1-6.2 3.9-7.6 3.4-1.7 8.3-4.6 13-8.8 5.2-4.7 8.3-9.6 10.1-13.2 1.5-3.1 4.9-4.9 8.3-4 25.9 6.6 43.5 20.1 49.9 25.5 1.7 1.5 2.7 3.7 2.5 5.9-1.9 22.7-20.9 40.6-44 40.6z" fill="#f0c087"/><path d="m135.8 229.4c-6.4-5.5-24-19-49.9-25.5-3.4-.9-6.8.9-8.3 4-1.3 2.7-3.5 6.2-6.7 9.8-1 1.1-2.1 2.3-3.3 3.4-4.7 4.2-9.6 7.1-13 8.8-2.8 1.4-4.3 4.5-3.9 7.6 2.5 19.4 17.7 34.9 37 37.9-8.8-6-15.4-14.2-15.4-28.9v-10.5c1.7-1.2 3.3-2.5 5-4 4.1-3.6 7.6-7.9 10.5-12.4 19.8 6.2 33.2 16.5 38.3 20.8 1.4 1.2 4.8 4.4 8.9 8.2 1.7-4.2 2.9-8.7 3.3-13.4.2-2.1-.8-4.3-2.5-5.8z" fill="#e6af78"/><path d="m361.5 298.3-61.5-22.4-44 14.7-44.1-14.7-61.5 22.4c-11.6 4.2-19.3 15.3-19.3 27.6v45.5c0 4.1 3.3 7.3 7.3 7.3h235.1c4.1 0 7.3-3.3 7.3-7.3v-45.5c.1-12.4-7.6-23.4-19.3-27.6z" fill="#ff507d"/><path d="m248.3 305.3-7 73.5h29.4l-7-73.5z" fill="#707487"/><path d="m263.7 315.4h-15.4c-2.8 0-5.1-2.3-5.1-5.1v-19.6h25.7v19.6c0 2.8-2.3 5.1-5.2 5.1z" fill="#5b5d6e"/><path d="m373 305.9c5 5.3 7.9 12.4 7.9 20v45.5c0 4.1-3.3 7.3-7.3 7.3h-36.7v-24.6c0-7.8 3.1-15.3 8.6-20.8z" fill="#d23c69"/><path d="m336.8 124.4v-61.5c0-8.1-6.6-14.7-14.7-14.7h-88.1c-32.5 0-58.8 26.3-58.8 58.8v17.5c0 7.9 1.3 15.7 3.8 23.2l2.4 7.3c.7 2.2 1.1 4.6 1.1 7v3.8h146.9v-3.8c0-2.4.4-4.7 1.1-7l2.4-7.3c2.6-7.6 3.9-15.4 3.9-23.3z" fill="#5a4146"/><path d="m211.9 78c0 16.5 13.4 29.8 29.8 29.8h4.1l2 57.9h81.6v-3.8c0-2.4.4-4.7 1.1-7l2.4-7.3c2.5-7.5 3.8-15.3 3.8-23.2v-61.5c0-8.1-6.6-14.7-14.7-14.7h-80.4c-16.3 0-29.7 13.3-29.7 29.8z" fill="#694b4b"/><path d="m211.9 224.5h88.2v66.1h-88.2z" fill="#e6af78"/><path d="m211.9 249.3c13 7.5 28 11.9 44.1 11.9s31.1-4.4 44.1-11.9v-24.8h-88.2z" fill="#d29b6e"/><path d="m256 290.6-23.4 23.4c-3.1 3.1-8.4 2.8-11-.8l-24.3-32 6.4-13.4c1.9-4 6.8-5.4 10.5-3.1z" fill="#d23c69"/><path d="m256 290.6 23.4 23.4c3.1 3.1 8.4 2.8 11-.8l24.3-32-6.4-13.4c-1.9-4-6.8-5.4-10.5-3.1z" fill="#d23c69"/><path d="m256 246.5c-40.6 0-73.5-32.9-73.5-73.5v-8.6c0-3.9 1.5-7.6 4.3-10.4l6.1-6.1c2.8-2.8 4.3-6.5 4.3-10.4v-17.5c0-3.4 2.3-6.4 5.6-7.1 17.4-4.1 71.4-13.8 108.2 13.2 2.4 1.8 3.7 4.6 3.7 7.6v3.9c0 3.9 1.5 7.6 4.3 10.4l6.1 6.1c2.8 2.8 4.3 6.5 4.3 10.4v8.6c.1 40.5-32.8 73.4-73.4 73.4z" fill="#f0c087"/><path d="m311.1 126.1c-25.9-19-60.3-19.9-84.4-17.3-10.2 1.1-18.6 2.8-23.8 4-3.3.8-5.6 3.7-5.6 7.1v17.6c0 3.9-1.5 7.6-4.3 10.4l-6.1 6.1c-2.8 2.8-4.3 6.5-4.3 10.4v8.6c0 37.6 28.2 68.5 64.6 72.9-12.7-13.2-20.5-31.1-20.5-50.8v-53.7c0-7.4 5.5-13.7 12.9-14.6 17.6-2.2 49.9-3.5 75.2 10.8v-3.9c0-3-1.4-5.9-3.7-7.6z" fill="#e6af78"/><path d="m139 305.9c-5 5.3-7.9 12.4-7.9 20v45.5c0 4.1 3.3 7.3 7.3 7.3h36.7v-24.6c0-7.8-3.1-15.3-8.6-20.8z" fill="#d23c69"/></svg>